M48
;Layer_Color=9474304
;FILE_FORMAT=2:4
INCH,LZ
;TYPE=PLATED
T1F00S00C0.0080
T2F00S00C0.0120
T3F00S00C0.0315
T4F00S00C0.0354
T5F00S00C0.0362
T6F00S00C0.0402
T7F00S00C0.0472
T8F00S00C0.0598
T9F00S00C0.0630
T10F00S00C0.0866
T11F00S00C0.0906
T12F00S00C0.1260
;TYPE=NON_PLATED
T13F00S00C0.0390
T14F00S00C0.1370
%
T01
X009779Y00065
X010579Y00145
X010679Y00185
X010929
X011329
X011779
X012179
X012629
X013079
X013479
X013929
X013729Y00065
X012229Y0009
X016749Y002305
X016746Y002985
X017041Y004278
X016951Y004952
X017917Y004564
X018039Y005233
X018283Y002577
X017942Y001989
X017272Y00187
X020999Y002305
X020996Y002985
X021291Y004278
X021201Y004952
X022167Y004564
X022289Y005233
X022533Y002577
X022192Y001989
X021522Y00187
X025249Y002305
X025246Y002985
X025541Y004278
X025451Y004952
X026417Y004564
X026539Y005233
X026783Y002577
X026442Y001989
X025772Y00187
X029499Y002305
X029496Y002985
X029791Y004278
X029701Y004952
X030667Y004564
X030789Y005233
X031379Y0055
X031033Y002577
X030692Y001989
X030022Y00187
X033689Y002498
X034688Y00187
X035247Y002909
X03492Y004043
Y005223
X034044Y004804
X038367Y004582
X039243Y00429
Y00547
X038367Y005762
Y003402
X039388Y003119
X039155Y001963
X038017Y002275
X050049Y00185
X050299
X050699
X051149
X051549
X051999
X052449
X051599Y0009
X049949Y00145
X049149Y00065
X053099
X053299Y00185
X052849
X056119Y002305
X056116Y002985
X056411Y004278
X056321Y004952
X057287Y004564
X057409Y005233
X057653Y002577
X057312Y001989
X056642Y00187
X06037Y002305
X060366Y002985
X060661Y004278
X060571Y004952
X061537Y004564
X061659Y005233
X061903Y002577
X061562Y001989
X060892Y00187
X064619Y002305
X064616Y002985
X064911Y004278
X064821Y004952
X065787Y004564
X065909Y005233
X066153Y002577
X065812Y001989
X065142Y00187
X06887Y002305
X068866Y002985
X069161Y004278
X069071Y004952
X070037Y004564
X070159Y005233
X070749Y0055
X070403Y002577
X070062Y001989
X069392Y00187
X073059Y002498
X074058Y00187
X074618Y002909
X07429Y004043
Y005223
X073414Y004804
X077737Y004582
X078613Y00429
Y00547
X077737Y005762
Y003402
X078758Y003119
X078525Y001963
X077387Y002275
X077737Y006942
X078613Y00665
Y00783
X077737Y008122
Y009302
X078613Y00901
Y01019
X077737Y010482
Y011662
X078613Y01137
Y01255
X077737Y012842
X079202Y01445
X079052Y01595
X079352Y017256
Y017506
Y017806
X078519Y017873
Y01744
X078086
Y017873
X077852Y019006
X077869Y019873
X078735
Y020739
X078302Y020306
X077869Y020739
X077052Y020306
X076752Y02035
X076743Y020609
X076202Y021
X075952
X077052Y019706
X076599Y0192
X076602Y017406
Y017006
X075052Y0178
Y0182
X074799Y0197
X072452
X072502Y02
X072202
X071902Y02015
X071602Y021
X071102
X070804Y020348
X070602Y02015
X070402Y02
X070552Y0205
X070252
X069802Y0203
X069602Y02
X069202Y0197
X069002Y0195
Y01895
X068702
X069144Y018742
X069Y018547
X069152Y018348
X069002Y01795
X069152Y0177
Y01695
X070102Y01745
X070502Y01785
Y01865
X070902Y01905
X071702
Y01825
X071302Y01865
Y01785
X071702Y01745
X070902
Y01825
X070102
Y01905
X068802Y01815
X068502Y0197
X068617Y020204
X069452Y02105
X072852Y0212
X072652Y01935
X072452Y0168
X071802Y0165
X071002
X070402
X070153Y0165
X069952Y0147
X069802Y0135
Y01325
Y013
Y01275
X069302
X069052Y01345
X068552Y01235
X070152Y01205
Y00985
X069902
X069952Y0087
X070352
X070552Y00915
X070502Y008
Y0077
X070202Y00735
X069952
X069702
X069452
X069152
X068652
X068402
X069952Y0082
X073414Y008344
Y007164
Y005984
X07429Y006403
Y007583
Y008763
Y009943
Y011123
Y012303
X074268Y013482
X073414Y013064
Y011884
Y010704
Y009524
X07347Y014352
X072634Y013949
X072636Y015186
X074852Y015
Y0145
X074102Y0163
X068302Y0156
X078752Y019006
X079302Y019556
X079552Y020106
X079702Y020306
X079552Y020506
X080452Y020706
Y019906
X068252Y01965
X067552Y019345
Y018755
X067848Y01905
X067257
X067352Y018
X067102
X067002Y0175
X067852Y01795
X068102Y01815
X068152Y0167
X067852Y0163
X067652Y01615
X067752Y0156
X067502
X067252
X067402Y01475
X067002Y0148
X066802Y01465
X066352
X066052Y01615
X066102Y0164
Y01665
X066852Y0163
X067002Y01345
X068002Y01415
X068052Y0145
X067702Y0123
Y01205
X067352Y0099
X067102
X066852
X066202Y00985
X066152Y0101
X064852Y01005
X064649Y009
X065102Y00875
X067152Y0087
X067552
X067902
X068152Y00735
X067402
X067152
X066902
X066652
X067152Y00645
X067652Y00675
X063449Y0062
X059352Y0101
X058749
X058352
X057552Y0122
X058352Y01395
Y0148
X055102Y01665
X055052Y01745
X053149Y012
X052849
X053038Y00875
X052716Y008267
Y007833
X053349Y00605
X055049Y00745
X054749Y0095
X054449
X054249Y00925
X063937Y01805
X064252Y01805
X064567Y01805
X064652Y019
X064402
X065652Y01855
X065352Y02
X065102Y02015
X065072Y0214
X065352Y02135
X066352Y02025
X066752
X067202
X067552Y0201
X067802Y02025
X066302Y0198
X063102Y0201
Y02038
X049352Y0199
Y0159
X048602Y0144
X049202Y01285
X051299Y012
X051599
X051949
X052249
X052549
X052649Y00925
X052349
X051849Y00885
X052283Y008267
Y007833
X051299Y0082
X049749Y00925
X047799Y01005
X039243Y01019
X038367Y010482
Y011662
X039243Y01137
Y01255
X038367Y012842
X039832Y01445
X039682Y01595
X039982Y017256
Y017506
Y017806
X039149Y017873
Y01744
X038716
Y017873
X038482Y019006
X038499Y019873
X039365
Y020739
X038932Y020306
X038499Y020739
X037682Y020306
X037382Y02035
X037373Y020609
X037682Y019706
X037229Y0192
X037232Y017406
Y017006
X039382Y019006
X039932Y019556
X040182Y020106
X040332Y020306
X040182Y020506
X041082Y020706
Y019906
X039243Y00901
X038367Y009302
Y008122
X039243Y00783
Y00665
X038367Y006942
X03492Y006403
Y007583
Y008763
Y009943
Y011123
Y012303
X034898Y013482
X034044Y013064
Y011884
Y010704
Y009524
Y008344
Y007164
Y005984
X030832Y00735
X030582
X030332
X030082
X029782
X029282
X029032
X028782
X028032
X027782
X027532
X027282
X027782Y00645
X028282Y00675
X028182Y0087
X028532
X027782
X027732Y0099
X027482
X027982
X026832Y00985
X026782Y0101
X025482Y01005
X025279Y009
X025732Y00875
X024079Y0062
X030582Y0082
Y0087
X030982
X031182Y00915
X030782Y00985
X030532
X030782Y01205
X030432Y01275
Y013
Y01325
Y0135
X029682Y01345
X029932Y01275
X029182Y01235
X028332Y0123
Y01205
X027632Y01345
Y0148
X027432Y01465
X026982
X028032Y01475
X028682Y0145
X028632Y01415
X028382Y0156
X028132
X027882
X028282Y01615
X028482Y0163
X028782Y0167
X029782Y01695
Y0177
X029632Y01795
X029432Y01815
X029782Y018348
X02963Y018547
X029774Y018742
X029632Y01895
X029332
X029632Y0195
X029832Y0197
X029132
X028882Y01965
X029247Y020204
X028432Y02025
X028182Y0201
X027832Y02025
X027382
X026982
X026932Y0198
X025982Y02
X025732Y02015
X025702Y0214
X025982Y02135
X025282Y019
X025032
X024882Y01805
X024567Y01805
X025197
X026282Y01855
X027732Y018
X027982
X028482Y01795
X028732Y01815
X028182Y018755
Y019345
X028478Y01905
X027887
X027632Y0175
X027482Y0163
X026732Y0164
Y01665
X026682Y01615
X028932Y0156
X030582Y0147
X030783Y0165
X031032Y0165
X031632
X032432
X033082Y0168
X032332Y01745
Y01825
Y01905
X031532
X031932Y01865
X031132
X030732Y01905
Y01825
Y01745
X031132Y01785
X031932
X031532Y01745
Y01825
X031434Y020348
X031232Y02015
X031032Y02
X031182Y0205
X030882
X030432Y0203
X030232Y02
X030082Y02105
X031732Y021
X032232
X032532Y02015
X032832Y02
X033132
X033082Y0197
X033282Y01935
X033482Y0212
X036582Y021
X036832
X035429Y0197
X035682Y0182
Y0178
X034732Y0163
X035482Y015
Y0145
X0341Y014352
X033264Y013949
X033266Y015186
X031132Y008
Y0077
X023732Y0201
Y02038
X018982Y0148
Y01395
X018182Y0122
X018982Y0101
X019379
X019982
X015379Y0095
X015079
X014879Y00925
X013279
X012979
X012479Y00885
X012913Y008267
X013346
Y007833
X012913
X011929Y0082
X013667Y00875
X013979Y00605
X015679Y00745
X013779Y012
X013479
X013179
X012879
X012579
X012229
X011929
X009832Y01285
X009232Y0144
X009982Y0159
Y0199
X015682Y01745
X015732Y01665
X010379Y00925
X008429Y01005
X007379Y02575
X006779
X006179
X005879Y02635
X006479
X007079
X007379Y02695
X006779
X006179
X005879Y02755
X006479
X007079
X009529Y02965
X010479Y03035
X016982Y0303
X017332
X017032Y028695
Y028105
X016737Y0284
X017328
X018232Y02835
Y0286
Y02885
X019232Y0282
X019332Y02775
X020832Y02805
X020982Y02825
X020682Y0287
X020532Y02945
X021232Y0303
X019482Y03
X019782Y03125
X015932Y0284
X016632Y02735
X016932Y0243
X014732Y024
X014482
X014729Y0237
X019379Y02475
X022582Y025
X022579Y02525
X022521Y0271
X022241
X021882Y02735
X021967Y028053
Y028407
X022282Y02825
X022597Y028407
Y028053
X022532Y0292
X022252
X022882Y0293
X022332Y0303
X02205
X02177
X021882Y0265
X025282Y0261
Y02545
Y02505
Y02445
Y02385
X025983Y023517
X026849
X027715
X028582
Y024383
X029282Y02445
Y02485
X028982Y02565
X028582Y02595
Y0263
X028582Y025249
X028148Y024816
Y02395
Y023084
X028582Y022651
X028582Y02195
X028832
X028982Y02165
X028182Y0219
X027782Y02195
X027482
X027332Y02165
X026582Y02185
X026849Y022651
X027715
X027282Y023084
Y02395
X027715Y024383
Y025249
X027782Y02595
X027432
X026582
X026182
X025983Y025249
X026849
X027282Y024816
X026849Y024383
X026416Y024816
Y02395
Y023084
X025983Y022651
X025582Y0223
X025182Y022
X025306Y022827
X025983Y024383
X023629Y0242
X027182Y0267
X031929Y0268
X031929Y027115
Y026485
X032829Y02695
X035332Y02715
X036282Y0272
X036682Y02615
X036962
X036632Y023
X035732Y02325
X035932Y02255
X035482Y0225
X034982Y02235
X034732Y02265
X034482Y02295
Y02325
X034082Y0235
X033782
X033482
X032932Y0233
X033482Y0223
X029782Y02215
X029282Y0228
X030132Y02335
Y02375
X038542Y022631
X038982Y0227
X038732Y02225
X038182
X039129Y02175
X039682Y023
X038262Y02615
X037982
X037482Y0272
X039232Y02715
X045249Y02755
X045849
X046449
X046749Y02695
X046149
X045549
X045249Y02635
X045849
X046449
X046749Y02575
X046149
X045549
X048899Y02965
X049849Y03035
X056352Y0303
X056702
X056402Y028695
Y028105
X056107Y0284
X056698
X057602Y02835
Y0286
Y02885
X058602Y0282
X058702Y02775
X060202Y02805
X060352Y02825
X060052Y0287
X059902Y02945
X060602Y0303
X06114
X06142
X061702
X061622Y0292
X061902
X062252Y0293
X061967Y028407
Y028053
X061652Y02825
X061337Y028407
Y028053
X061252Y02735
X061611Y0271
X061891
X061252Y0265
X061949Y02525
X061952Y025
X062999Y0242
X064652Y02445
Y02385
X065353Y023517
X066219
X067085
X067952
Y024383
Y025249
X067952Y02595
Y0263
X067152Y02595
X066802
X065952
X065552
X065353Y025249
X066219
X067085
X067519Y024816
Y02395
Y023084
X067952Y022651
X067952Y02195
X068202
X067552Y0219
X067152Y02195
X066852
X066702Y02165
X065952Y02185
X066219Y022651
X067085
X066652Y023084
Y02395
X067085Y024383
X066652Y024816
X066219Y024383
X065786Y024816
Y02395
Y023084
X065353Y022651
X064952Y0223
X064552Y022
X064676Y022827
X065353Y024383
X064652Y02505
Y02545
Y0261
X066552Y0267
X058749Y02475
X056302Y0243
X054102Y024
X053852
X054099Y0237
X056002Y02735
X055302Y0284
X058852Y03
X059152Y03125
X068352Y02565
X068652Y02485
Y02445
X069502Y02375
Y02335
X068652Y0228
X069152Y02215
X068352Y02165
X072852Y0223
Y0235
X073152
X073452
X073852Y02325
Y02295
X074102Y02265
X074352Y02235
X074852Y0225
X075302Y02255
X075102Y02325
X076002Y023
X077912Y022631
X078352Y0227
X078102Y02225
X077552
X078499Y02175
X079052Y023
X077632Y02615
X077352
X076332
X076052
X075652Y0272
X074702Y02715
X076852Y0272
X078602Y02715
X072199Y02695
X071299Y0268
X071299Y027115
Y026485
X072302Y0233
X073059Y041868
X074058Y04124
X074618Y042279
X07429Y043413
Y044593
Y045773
Y046953
Y048133
Y049313
Y050493
Y051673
X073414Y051254
Y050074
Y048894
Y047714
Y046534
Y045354
Y044174
X070749Y04487
X070159Y044603
X070037Y043934
X069161Y043648
X069071Y044322
X068866Y042356
X06887Y041676
X069392Y04124
X070062Y041359
X070403Y041947
X070202Y04672
X069952
X069702
X069452
X069152
X068652
X068402
X069952Y04757
Y04807
X070352
X070552Y04852
X070152Y04922
X069902
X070152Y05142
X069802Y05212
Y05237
Y05262
X069302Y05212
X068552Y05172
X073414Y052434
X077737Y052212
X078613Y051921
Y050741
X077737Y051032
Y049852
X078613Y049561
Y048381
X077737Y048672
Y047492
X078613Y047201
Y046021
X077737Y046312
Y045132
X078613Y044841
Y043661
X077737Y043952
Y042772
X078758Y042489
X078525Y041333
X077387Y041645
X070502Y04707
Y04737
X068152Y04672
X067402
X067152
X066902
X066652
X067152Y04582
X067652Y04612
X067552Y04807
X067902
X067152
X067102Y04927
X066852
X067352
X066202Y04922
X066152Y04947
X064852Y04942
X064649Y04837
X065102Y04812
X064821Y044322
X064911Y043648
X065787Y043934
X065909Y044603
X066153Y041947
X065812Y041359
X065142Y04124
X064619Y041676
X064616Y042356
X061903Y041947
X061562Y041359
X060892Y04124
X06037Y041676
X060366Y042356
X060661Y043648
X060571Y044322
X061537Y043934
X061659Y044603
X063449Y04557
X057409Y044603
X057287Y043934
X056411Y043648
X056321Y044322
X056116Y042356
X056119Y041676
X056642Y04124
X057312Y041359
X057653Y041947
X053299Y04122
X052849
X053099Y04002
X053349Y04542
X052716Y047204
Y047637
X053038Y04812
X054249Y04862
X054449Y04887
X054749
X055049Y04682
X058352Y04947
X058749
X059352
X057552Y05157
X053149Y05137
X052849
X067702Y05142
Y05167
X052549Y05137
X052249
X051949
X051599
X051299
X049202Y05222
X049749Y04862
X051849Y04822
X052349Y04862
X052649
X052283Y047637
Y047204
X051299Y04757
X047799Y04942
X039243Y049561
X038367Y049852
Y051032
X039243Y050741
Y051921
X038367Y052212
Y048672
X039243Y048381
Y047201
X038367Y047492
Y046312
X039243Y046021
Y044841
X038367Y045132
Y043952
X039243Y043661
X039388Y042489
X038367Y042772
X038017Y041645
X039155Y041333
X050049Y04122
X050299
X050699
X051149
X051549
X051999
X052449
X051599Y04027
X049949Y04082
X049149Y04002
X034688Y04124
X035247Y042279
X03492Y043413
Y044593
Y045773
Y046953
Y048133
Y049313
Y050493
Y051673
X034044Y051254
Y050074
Y048894
Y047714
Y046534
Y045354
Y044174
X033689Y041868
X031033Y041947
X030692Y041359
X030022Y04124
X029499Y041676
X029496Y042356
X029791Y043648
X029701Y044322
X030667Y043934
X030789Y044603
X031379Y04487
X030832Y04672
X030582
X030332
X030082
X029782
X029282
X029032
X028782
X028032
X027782
X027532
X027282
X027782Y04582
X028282Y04612
X028182Y04807
X028532
X027782
X027732Y04927
X027482
X027982
X026832Y04922
X026782Y04947
X025482Y04942
X025279Y04837
X025732Y04812
X025451Y044322
X025541Y043648
X026417Y043934
X026539Y044603
X026783Y041947
X026442Y041359
X025772Y04124
X025249Y041676
X025246Y042356
X022533Y041947
X022192Y041359
X021522Y04124
X022167Y043934
X022289Y044603
X024079Y04557
X030582Y04757
Y04807
X030982
X031182Y04852
X030782Y04922
X030532
X030782Y05142
X030432Y05212
Y05237
Y05262
X029932Y05212
X029182Y05172
X028332Y05167
Y05142
X034044Y052434
X031132Y04737
Y04707
X021201Y044322
X021291Y043648
X020996Y042356
X020999Y041676
X018283Y041947
X017942Y041359
X017272Y04124
X016749Y041676
X016746Y042356
X017041Y043648
X016951Y044322
X017917Y043934
X018039Y044603
X015679Y04682
X015379Y04887
X015079
X014879Y04862
X013279
X012979
X012479Y04822
X012913Y047637
X013346
Y047204
X012913
X011929Y04757
X013667Y04812
X013979Y04542
X013929Y04122
X013479
X013079
X012629
X012179
X011779
X011329
X010929
X010679
X010579Y04082
X009779Y04002
X012229Y04027
X013729Y04002
X013779Y05137
X013479
X013179
X012879
X012579
X012229
X011929
X009832Y05222
X010379Y04862
X008429Y04942
X018982Y04947
X019379
X019982
X018182Y05157
X018982Y05332
Y05417
X015732Y05602
X015682Y05682
X014729Y06307
X014732Y06337
X014482
X016932Y06367
X019379Y06412
X019332Y06712
X019232Y06757
X018232Y06772
Y06797
Y06822
X017032Y068065
Y067475
X016737Y06777
X017328
X015932Y06777
X016632Y06672
X020832Y06742
X020982Y06762
X020682Y06807
X007079Y06692
X006479
X005879
X006179Y06632
X006779
X007379
X007079Y06572
X006479
X005879
X006179Y06512
X006779
X007379
X009982Y05927
Y05527
X009232Y05377
X026982Y05402
X027432
X027632Y05417
X028032Y05412
X028682Y05387
X028632Y05352
X027632Y05282
X029682
X030432Y05287
X030582Y05407
X030783Y05587
X031032Y05587
X031632
X032432
X033082Y05617
X032332Y05682
Y05762
Y05842
X031532
X031932Y05802
X031132
X030732Y05842
Y05762
Y05682
X031132Y05722
X031932
X031532Y05682
Y05762
X029782Y057719
X02963Y057917
X029774Y058112
X029632Y05832
X029332
X029632Y05887
X029832Y05907
X029132
X028882Y05902
X029247Y059574
X028432Y05962
X028182Y05947
X027832Y05962
X027382
X026982
X026932Y05917
X025982Y05937
X025732Y05952
X025702Y06077
X025982Y06072
X026582Y06122
X027332Y06102
X027482Y06132
X027782
X028182Y06127
X028582Y06132
X028832
X028982Y06102
X029782Y06152
X029282Y06217
X028582Y062021
Y062887
Y063753
X029282Y06382
Y06422
X028982Y06502
X028582Y06532
Y06567
X028582Y064619
X028148Y064186
Y06332
Y062454
X027715Y062887
Y063753
Y064619
X027782Y06532
X027432
X026582
X026182
X025983Y064619
X026849
X027282Y064186
Y06332
Y062454
X027715Y062021
X026849
Y062887
Y063753
X026416Y064186
Y06332
Y062454
X025983Y062887
Y063753
X025282Y06382
Y06322
X025306Y062197
X025582Y06167
X025182Y06137
X025983Y062021
X025282Y06442
Y06482
Y06547
X027182Y06607
X031929Y06617
X031929Y066485
Y065855
X032829Y06632
X035332Y06652
X036282Y06657
X036682Y06552
X036962
X036632Y06237
X035732Y06262
X035932Y06192
X035482Y06187
X034982Y06172
X034732Y06202
X034482Y06232
Y06262
X034082Y06287
X033782
X033482
X032932Y06267
X033482Y06167
Y06057
X032232Y06037
X031732
X031434Y059718
X031232Y05952
X031032Y05937
X031182Y05987
X030882
X030432Y05967
X030232Y05937
X030082Y06042
X030132Y06272
Y06312
X032532Y05952
X032832Y05937
X033132
X033082Y05907
X033282Y05872
X035429Y05907
X035682Y05757
Y05717
X034732Y05567
X035482Y05437
Y05387
X0341Y053722
X033264Y053319
X033266Y054556
X034898Y052853
X028932Y05497
X028382
X028132
X027882
X028282Y05552
X028482Y05567
X028782Y05607
X029782Y05632
Y05707
X029632Y05732
X029432Y05752
X028732
X028482Y05732
X027982Y05737
X027732
X027632Y05687
X027482Y05567
X026732Y05577
Y05602
X026682Y05552
X026282Y05792
X025282Y05837
X025032
X024882Y05742
X024567Y05742
X025197
X023732Y05947
Y05975
X023629Y06357
X022582Y06437
X022579Y06462
X022521Y06647
X022241
X021882Y06672
X021967Y067423
Y067778
X022282Y06762
X022597Y067778
Y067423
X021882Y06587
X028182Y058715
Y058125
X028478Y05842
X027887
X036582Y06037
X036832
X037373Y059979
X037382Y05972
X037682Y059676
Y059076
X037229Y05857
X038482Y058376
X038499Y059243
X039365
Y060109
X038932Y059676
X038499Y060109
X039129Y06112
X038732Y06162
X038182
X038542Y062001
X038982Y06207
X039682Y06237
X040182Y059876
X040332Y059676
X040182Y059476
X039932Y058926
X039382Y058376
X039149Y057243
Y05681
X038716
Y057243
X039982Y057176
Y056876
Y056626
X039682Y05532
X039832Y05382
X037232Y056376
Y056776
X041082Y059276
Y060076
X038262Y06552
X037982
X037482Y06657
X039232Y06652
X045249Y06692
X045849
X046449
X046749Y06632
X046149
X045549
X045249Y06572
X045849
X046449
X046749Y06512
X046149
X045549
X049352Y05927
Y05527
X048602Y05377
X055102Y05602
X055052Y05682
X058352Y05417
Y05332
X066352Y05402
X066802
X067002Y05417
X067402Y05412
X068052Y05387
X068002Y05352
X067002Y05282
X067252Y05497
X067502
X067752
X067652Y05552
X067852Y05567
X068152Y05607
X068102Y05752
X067852Y05732
X067352Y05737
X067102
X067002Y05687
X066852Y05567
X066102Y05577
Y05602
X066052Y05552
X065652Y05792
X064652Y05837
X064402
X064252Y05742
X063937Y05742
X064567
X065102Y05952
X065352Y05937
X066302Y05917
X066352Y05962
X066752
X067202
X067552Y05947
X067802Y05962
X068252Y05902
X067552Y058715
Y058125
X067848Y05842
X067257
X067152Y06132
X066852
X066702Y06102
X065952Y06122
X066219Y062021
X067085
X067952
X067952Y06132
X068202
X067552Y06127
X067519Y062454
X067952Y062887
Y063753
Y064619
X067952Y06532
Y06567
X067152Y06532
X066802
X065952
X065552
X065353Y064619
X066219
X067085
X067519Y064186
Y06332
X067085Y063753
Y062887
X066652Y06332
Y064186
X066219Y063753
Y062887
X066652Y062454
X065786
Y06332
Y064186
X065353Y063753
X064652Y06382
Y06322
X065353Y062887
Y062021
X064952Y06167
X064552Y06137
X064676Y062197
X065072Y06077
X065352Y06072
X063102Y05975
Y05947
X062999Y06357
X061952Y06437
X061949Y06462
X061891Y06647
X061611
X061252Y06672
X061337Y067423
Y067778
X061652Y06762
X061967Y067778
Y067423
X060202Y06742
X060352Y06762
X060052Y06807
X058602Y06757
X058702Y06712
X057602Y06772
Y06797
Y06822
X056402Y068065
Y067475
X056107Y06777
X056698
X055302Y06777
X056002Y06672
X056302Y06367
X054102Y06337
X053852
X054099Y06307
X058749Y06412
X061252Y06587
X064652Y06547
Y06482
Y06442
X066552Y06607
X068352Y06502
X068652Y06422
Y06382
X069502Y06312
Y06272
X068652Y06217
X069152Y06152
X068352Y06102
X069452Y06042
X069802Y05967
X069602Y05937
X069202Y05907
X069002Y05887
Y05832
X068702
X069144Y058112
X069Y057917
X069152Y057719
X069002Y05732
X069152Y05707
Y05632
X070102Y05682
X070502Y05722
Y05802
X070902Y05842
X071702
Y05762
X071302Y05802
Y05722
X071702Y05682
X070902
Y05762
X070102
Y05842
X070402Y05937
X070602Y05952
X070804Y059718
X070552Y05987
X070252
X071102Y06037
X071602
X071902Y05952
X072202Y05937
X072502
X072452Y05907
X072652Y05872
X072852Y06057
Y06167
Y06287
X073152
X073452
X073852Y06262
Y06232
X074102Y06202
X074352Y06172
X074852Y06187
X075302Y06192
X075102Y06262
X076002Y06237
X075952Y06037
X076202
X076743Y059979
X076752Y05972
X077052Y059676
Y059076
X076599Y05857
X077852Y058376
X077869Y059243
X078735
Y060109
X078302Y059676
X077869Y060109
X078499Y06112
X078102Y06162
X077552
X077912Y062001
X078352Y06207
X079052Y06237
X079552Y059876
X079702Y059676
X079552Y059476
X079302Y058926
X078752Y058376
X078519Y057243
Y05681
X078086
Y057243
X079352Y057176
Y056876
Y056626
X079052Y05532
X079202Y05382
X074852Y05387
Y05437
X07347Y053722
X072634Y053319
X072636Y054556
X072452Y05617
X071802Y05587
X071002
X070402
X070153Y05587
X069952Y05407
X069802Y05287
X069052Y05282
X068302Y05497
X068802Y05752
X068502Y05907
X068617Y059574
X074799Y05907
X075052Y05757
Y05717
X076602Y056776
Y056376
X074102Y05567
X074268Y052853
X072302Y06267
X072199Y06632
X071299Y06617
X071299Y066485
Y065855
X074702Y06652
X075652Y06657
X076852
X077352Y06552
X077632
X076332
X076052
X078602Y06652
X080452Y060076
Y059276
X062252Y06867
X061902Y06857
X061622
X061702Y06967
X06142
X06114
X060602
X059902Y06882
X058852Y06937
X059152Y07062
X056702Y06967
X056352
X049849Y06972
X048899Y06902
X022882Y06867
X022532Y06857
X022252
X022332Y06967
X02205
X02177
X021232
X020532Y06882
X019482Y06937
X019782Y07062
X017332Y06967
X016982
X010479Y06972
X009529Y06902
T02
X070302Y0111
X068994Y014441
X068352Y01745
X074102Y0173
X077352Y01645
Y0155
Y01445
X079152Y0164
X080452Y0174
X077502Y0186
X077252Y0191
X077033Y02092
X076802Y02135
X066302Y01785
X064102Y0189
X062842Y01959
X060652Y0211
X064102Y0165
X064452Y0155
X064302Y01254
Y012
X065411Y012258
X065252Y01008
X065702Y01008
X065552Y00765
X055802Y01405
Y01475
X055102
X054302
Y014
Y01555
X055102
X055752
X041082Y0174
X039782Y0164
X037982Y01645
Y0155
Y01445
X038132Y0186
X037882Y0191
X037663Y02092
X037432Y02135
X034732Y0173
X028982Y01745
X026932Y01785
X024732Y0189
X023472Y01959
X024732Y0165
X025082Y0155
X024932Y01254
Y012
X02604Y012258
X025882Y01008
X026332Y01008
X026182Y00765
X030932Y0111
X029624Y014441
X016432Y01475
Y01405
X015732Y01475
X014932
Y014
Y01555
X015732
X016382
X021282Y0211
Y0262
X018982Y0294
X016532Y0303
X010879Y0302
Y02975
Y03065
Y03115
X008429Y029
X010182Y02325
Y02275
X010682
Y02325
X011182
X011682
Y02275
X011182
Y0222
X010682
X010182
X011682
X023082
X024882Y02655
X026182Y0267
X026782
X037132Y0217
X037432Y022
X049552Y0222
X050052
X050552
X051052
Y02275
Y02325
X050552
X050052
X049552
Y02275
X050052
X050552
X050249Y02975
Y0302
Y03065
Y03115
X047799Y029
X055902Y0303
X058352Y0294
X060652Y0262
X064252Y02655
X065552Y0267
X066152
X062452Y0222
X076502Y0217
X076802Y022
X070302Y05047
X065702Y04945
X065252Y04945
X065411Y051628
X064302Y05137
Y05191
X065552Y04702
X030932Y05047
X026332Y04945
X025882Y04945
X02604Y051628
X024932Y05137
Y05191
X026182Y04702
X016432Y05342
Y05412
X015732
X014932
Y05337
Y05492
X015732
X016382
X021282Y06047
Y06557
X011682Y06262
Y06212
X011182
X010682
X010182
Y06262
X010682
X011182
Y06157
X010682
X010182
X011682
X023082
X023472Y05896
X024732Y05827
Y05587
X025082Y05487
X026932Y05722
X028982Y05682
X029624Y053812
X034732Y05667
X026782Y06607
X026182
X024882Y06592
X037132Y06107
X037432Y06137
Y06072
X037663Y06029
X037882Y05847
X038132Y05797
X037982Y05582
Y05487
Y05382
X039782Y05577
X041082Y05677
X049552Y06157
X050052
X050552
X051052
Y06212
Y06262
X050552
X050052
X049552
Y06212
X050052
X050552
X054302Y05492
Y05412
Y05337
X055802Y05342
Y05412
X055102
Y05492
X055752
X064452Y05487
X064102Y05587
Y05827
X062842Y05896
X062452Y06157
X060652Y06047
Y06557
X064252Y06592
X065552Y06607
X066152
X066302Y05722
X068352Y05682
X068994Y053812
X074102Y05667
X077352Y05582
Y05487
Y05382
X079152Y05577
X080452Y05677
X077502Y05797
X077252Y05847
X077033Y06029
X076802Y06072
X076502Y06107
X076802Y06137
X058352Y06877
X055902Y06967
X050249Y06957
Y06912
Y07002
Y07052
X047799Y06837
X018982Y06877
X016532Y06967
X010879Y06957
Y06912
Y07002
Y07052
X008429Y06837
T03
X056825Y013207
Y013994
Y014782
Y015569
Y016356
Y017144
Y017931
Y018719
Y019506
Y020293
X048079
Y019506
Y018719
Y017931
Y017144
Y016356
Y015569
Y014782
Y013994
Y013207
X017455
Y013994
Y014782
Y015569
Y016356
Y017144
Y017931
Y018719
Y019506
Y020293
X008709
Y019506
Y018719
Y017931
Y017144
Y016356
Y015569
Y014782
Y013994
Y013207
X056825Y052577
X048079
X017455
X008709
Y053364
Y054152
Y054939
Y055726
Y056514
Y057301
Y058089
Y058876
Y059663
X017455
Y058876
Y058089
Y057301
Y056514
Y055726
Y054939
Y054152
Y053364
X048079
Y054152
Y054939
Y055726
Y056514
Y057301
Y058089
Y058876
Y059663
X056825
Y058876
Y058089
Y057301
Y056514
Y055726
Y054939
Y054152
Y053364
T04
X005682Y00325
X006682
X041382
X042382
X045052
X046052
X080752
X081752
X046052Y0137
X045052
Y01505
X046052
Y01605
Y01705
Y01805
Y01905
Y02005
Y02105
X045052
Y02005
Y01905
Y01805
Y01705
Y01605
X006682
Y01505
Y0137
Y01705
Y01805
Y01905
Y02005
Y02105
X005682
Y02005
Y01905
Y01805
Y01705
Y01605
Y01505
Y0137
Y02205
X006682
X035182Y0245
X036182
X036682Y0255
X035682
X037682
X038682
X038182Y0245
X037182
X041382Y028
X042382
X045052Y02205
X046052
X074552Y0245
X075552
X076552
X077552
X077052Y0255
X076052
X075052
X078052
X080752Y028
X081752
Y04262
X080752
X046052
X045052
X042382
X041382
X006682
X005682
Y05307
Y05442
Y05542
Y05642
Y05742
Y05842
Y05942
Y06042
Y06142
X006682
Y06042
Y05942
Y05842
Y05742
Y05642
Y05542
Y05442
Y05307
X035182Y06387
X036182
X036682Y06487
X035682
X037682
X038682
X038182Y06387
X037182
X041382Y06737
X042382
X045052Y06142
X046052
Y06042
Y05942
Y05842
Y05742
Y05642
Y05542
Y05442
X045052
Y05542
Y05642
Y05742
Y05842
Y05942
Y06042
Y05307
X046052
X074552Y06387
X075552
X076552
X077552
X077052Y06487
X076052
X075052
X078052
X080752Y06737
X081752
T05
X027154Y027433
X028139
X028926
X029812
X066524
X067509
X068296
X069182
X029812Y066803
X028926
X028139
X027154
X066524
X067509
X068296
X069182
T06
X034442Y029331
X035442Y029929
X038422Y029331
X039422Y029929
X073812Y029331
X074812Y029929
X077793Y029331
X078793Y029929
Y069299
X077793Y068701
X074812Y069299
X073812Y068701
X039422Y069299
X038422Y068701
X035442Y069299
X034442Y068701
T07
X015782Y0309
X018282
X020532
X023032
X055152
X057652
X059902
X062402
Y07027
X059902
X057652
X055152
X023032
X020532
X018282
X015782
T08
X017479Y00265
X021729
X025979
X030229
X034479
X038729
X056849
X061099
X065349
X069599
X073849
X078099
Y04202
X073849
X069599
X065349
X061099
X056849
X038729
X034479
X030229
X025979
X021729
X017479
T09
X016479Y00165
Y00365
X018479
Y00165
X020729
Y00365
X022729
Y00165
X024979
Y00365
X026979
Y00165
X029229
X031229
Y00365
X029229
X033479
Y00165
X035479
Y00365
X037729
X039729
Y00165
X037729
X055849
Y00365
X057849
Y00165
X060099
X062099
Y00365
X060099
X064349
Y00165
X066349
Y00365
X068599
X070599
Y00165
X068599
X072849
Y00365
X074849
Y00165
X077099
X079099
Y00365
X077099
X012863Y027014
Y029376
X011013Y028195
X033832Y026799
X040033
X050383Y028195
X052233Y027014
Y029376
X073202Y026799
X079403
X079099Y04102
Y04302
X077099
Y04102
X074849
X072849
Y04302
X074849
X070599
Y04102
X068599
Y04302
X066349
X064349
Y04102
X066349
X062099
Y04302
X060099
Y04102
X057849
X055849
Y04302
X057849
X039729
Y04102
X037729
Y04302
X035479
X033479
Y04102
X035479
X031229
Y04302
X029229
Y04102
X026979
X024979
Y04302
X026979
X022729
Y04102
X020729
Y04302
X018479
X016479
Y04102
X018479
X012863Y066384
X011013Y067565
X033832Y066169
X040033
X050383Y067565
X052233Y066384
X073202Y066169
X079403
X052233Y068746
X012863
T10
X071443Y010954
X060148Y019065
X032073Y010954
X020778Y019065
X071443Y050324
X032073
X020778Y058435
X060148
T11
X025946Y0285
X031119
X065316
X070489
X031119Y06787
X025946
X065316
X070489
T12
X034682Y028
X039182
X074052
X078552
X034682Y06737
X039182
X074052
X078552
T13
X070802Y02125
X031432
Y02205
X033432Y02165
X070802Y02205
X072802Y02165
X033432Y06102
X031432Y06062
Y06142
X070802
Y06062
X072802Y06102
T14
X002165Y002165
X006532Y0014
X041532
X045902
X080902
X085236Y002165
X006532Y0241
X041532
X045902
X080902
Y04077
X045902
X041532
X006532
Y06347
X041532
X045902
X080902
X085236Y068701
X002165
M30
