G04 Layer_Color=65535*
%FSLAX24Y24*%
%MOIN*%
G70*
G01*
G75*
%ADD10C,0.0039*%
%ADD11C,0.0090*%
%ADD12C,0.0080*%
G36*
X61408Y77645D02*
X61114D01*
Y76481D01*
X61408D01*
Y75709D01*
X59962D01*
Y76481D01*
X60256D01*
Y77179D01*
X59527Y76174D01*
X59478D01*
X58761Y77179D01*
Y76481D01*
X59055D01*
Y75709D01*
X57609D01*
Y76481D01*
X57891D01*
Y77645D01*
X57609D01*
Y78417D01*
X58755D01*
X59490Y77400D01*
X59527D01*
X60262Y78417D01*
X61408D01*
Y77645D01*
D02*
G37*
G36*
Y65244D02*
X61114D01*
Y64079D01*
X61408D01*
Y63307D01*
X59962D01*
Y64079D01*
X60256D01*
Y64778D01*
X59527Y63773D01*
X59478D01*
X58761Y64778D01*
Y64079D01*
X59055D01*
Y63307D01*
X57609D01*
Y64079D01*
X57891D01*
Y65244D01*
X57609D01*
Y66016D01*
X58755D01*
X59490Y64999D01*
X59527D01*
X60262Y66016D01*
X61408D01*
Y65244D01*
D02*
G37*
G36*
Y52842D02*
X61114D01*
Y51678D01*
X61408D01*
Y50906D01*
X59962D01*
Y51678D01*
X60256D01*
Y52376D01*
X59527Y51371D01*
X59478D01*
X58761Y52376D01*
Y51678D01*
X59055D01*
Y50906D01*
X57609D01*
Y51678D01*
X57891D01*
Y52842D01*
X57609D01*
Y53614D01*
X58755D01*
X59490Y52597D01*
X59527D01*
X60262Y53614D01*
X61408D01*
Y52842D01*
D02*
G37*
G36*
Y40441D02*
X61114D01*
Y39276D01*
X61408D01*
Y38504D01*
X59962D01*
Y39276D01*
X60256D01*
Y39975D01*
X59527Y38970D01*
X59478D01*
X58761Y39975D01*
Y39276D01*
X59055D01*
Y38504D01*
X57609D01*
Y39276D01*
X57891D01*
Y40441D01*
X57609D01*
Y41213D01*
X58755D01*
X59490Y40195D01*
X59527D01*
X60262Y41213D01*
X61408D01*
Y40441D01*
D02*
G37*
G36*
Y28039D02*
X61114D01*
Y26875D01*
X61408D01*
Y26102D01*
X59962D01*
Y26875D01*
X60256D01*
Y27573D01*
X59527Y26568D01*
X59478D01*
X58761Y27573D01*
Y26875D01*
X59055D01*
Y26102D01*
X57609D01*
Y26875D01*
X57891D01*
Y28039D01*
X57609D01*
Y28811D01*
X58755D01*
X59490Y27794D01*
X59527D01*
X60262Y28811D01*
X61408D01*
Y28039D01*
D02*
G37*
G36*
Y15637D02*
X61114D01*
Y14473D01*
X61408D01*
Y13701D01*
X59962D01*
Y14473D01*
X60256D01*
Y15172D01*
X59527Y14167D01*
X59478D01*
X58761Y15172D01*
Y14473D01*
X59055D01*
Y13701D01*
X57609D01*
Y14473D01*
X57891D01*
Y15637D01*
X57609D01*
Y16410D01*
X58755D01*
X59490Y15392D01*
X59527D01*
X60262Y16410D01*
X61408D01*
Y15637D01*
D02*
G37*
D10*
X65433Y12835D02*
X65472D01*
X65433Y25236D02*
X65472D01*
X65433Y37638D02*
X65472D01*
X65433Y50039D02*
X65472D01*
X65433Y62441D02*
X65472D01*
X65433Y74843D02*
X65472D01*
D11*
X65084Y10371D02*
X64994Y10461D01*
X64814D01*
X64724Y10371D01*
Y10011D01*
X64814Y9921D01*
X64994D01*
X65084Y10011D01*
Y10191D01*
X64904D01*
X65264Y9921D02*
Y10461D01*
X65534D01*
X65624Y10371D01*
Y10191D01*
X65534Y10101D01*
X65264D01*
X66164Y10371D02*
X66074Y10461D01*
X65894D01*
X65804Y10371D01*
Y10281D01*
X65894Y10191D01*
X66074D01*
X66164Y10101D01*
Y10011D01*
X66074Y9921D01*
X65894D01*
X65804Y10011D01*
X81305Y10371D02*
X81215Y10461D01*
X81035D01*
X80945Y10371D01*
Y10011D01*
X81035Y9921D01*
X81215D01*
X81305Y10011D01*
X81845Y10371D02*
X81755Y10461D01*
X81575D01*
X81485Y10371D01*
Y10011D01*
X81575Y9921D01*
X81755D01*
X81845Y10011D01*
X82384Y9921D02*
X82025D01*
X82384Y10281D01*
Y10371D01*
X82294Y10461D01*
X82114D01*
X82025Y10371D01*
X82924Y10461D02*
X82564D01*
Y10191D01*
X82744Y10281D01*
X82834D01*
X82924Y10191D01*
Y10011D01*
X82834Y9921D01*
X82654D01*
X82564Y10011D01*
X83104Y10371D02*
X83194Y10461D01*
X83374D01*
X83464Y10371D01*
Y10281D01*
X83374Y10191D01*
X83284D01*
X83374D01*
X83464Y10101D01*
Y10011D01*
X83374Y9921D01*
X83194D01*
X83104Y10011D01*
X83644Y10371D02*
X83734Y10461D01*
X83914D01*
X84004Y10371D01*
Y10281D01*
X83914Y10191D01*
X84004Y10101D01*
Y10011D01*
X83914Y9921D01*
X83734D01*
X83644Y10011D01*
Y10101D01*
X83734Y10191D01*
X83644Y10281D01*
Y10371D01*
X83734Y10191D02*
X83914D01*
X85557Y10371D02*
X85467Y10461D01*
X85287D01*
X85197Y10371D01*
Y10011D01*
X85287Y9921D01*
X85467D01*
X85557Y10011D01*
X86097Y10371D02*
X86007Y10461D01*
X85827D01*
X85737Y10371D01*
Y10011D01*
X85827Y9921D01*
X86007D01*
X86097Y10011D01*
X86636Y9921D02*
X86277D01*
X86636Y10281D01*
Y10371D01*
X86546Y10461D01*
X86366D01*
X86277Y10371D01*
X87086Y9921D02*
Y10461D01*
X86816Y10191D01*
X87176D01*
X87716Y9921D02*
X87356D01*
X87716Y10281D01*
Y10371D01*
X87626Y10461D01*
X87446D01*
X87356Y10371D01*
X87896D02*
X87986Y10461D01*
X88166D01*
X88256Y10371D01*
Y10011D01*
X88166Y9921D01*
X87986D01*
X87896Y10011D01*
Y10371D01*
X59016Y8037D02*
Y7767D01*
X59106Y7677D01*
X59376D01*
Y8037D01*
X59915Y8127D02*
X59825Y8217D01*
X59646D01*
X59556Y8127D01*
Y8037D01*
X59646Y7947D01*
X59825D01*
X59915Y7857D01*
Y7767D01*
X59825Y7677D01*
X59646D01*
X59556Y7767D01*
X60095Y8217D02*
Y7677D01*
X60365D01*
X60455Y7767D01*
Y8127D01*
X60365Y8217D01*
X60095D01*
X56541Y13453D02*
X56181D01*
Y12913D01*
X56541D01*
X56181Y13183D02*
X56361D01*
X57081Y13453D02*
Y12913D01*
X56811D01*
X56721Y13003D01*
Y13183D01*
X56811Y13273D01*
X57081D01*
X57261Y12913D02*
X57441D01*
X57351D01*
Y13273D01*
X57261D01*
X57711Y12913D02*
X57981D01*
X58070Y13003D01*
X57981Y13093D01*
X57801D01*
X57711Y13183D01*
X57801Y13273D01*
X58070D01*
X58340Y12913D02*
X58520D01*
X58610Y13003D01*
Y13183D01*
X58520Y13273D01*
X58340D01*
X58250Y13183D01*
Y13003D01*
X58340Y12913D01*
X58790D02*
Y13273D01*
X59060D01*
X59150Y13183D01*
Y12913D01*
X60230Y13363D02*
X60140Y13453D01*
X59960D01*
X59870Y13363D01*
Y13003D01*
X59960Y12913D01*
X60140D01*
X60230Y13003D01*
Y13183D01*
X60050D01*
X60500Y13273D02*
X60680D01*
X60770Y13183D01*
Y12913D01*
X60500D01*
X60410Y13003D01*
X60500Y13093D01*
X60770D01*
X61040Y13363D02*
Y13273D01*
X60950D01*
X61129D01*
X61040D01*
Y13003D01*
X61129Y12913D01*
X61669D02*
X61489D01*
X61399Y13003D01*
Y13183D01*
X61489Y13273D01*
X61669D01*
X61759Y13183D01*
Y13093D01*
X61399D01*
X61939Y13273D02*
Y13003D01*
X62029Y12913D01*
X62119Y13003D01*
X62209Y12913D01*
X62299Y13003D01*
Y13273D01*
X62569D02*
X62749D01*
X62839Y13183D01*
Y12913D01*
X62569D01*
X62479Y13003D01*
X62569Y13093D01*
X62839D01*
X63019Y13273D02*
Y13003D01*
X63109Y12913D01*
X63379D01*
Y12823D01*
X63289Y12733D01*
X63199D01*
X63379Y12913D02*
Y13273D01*
X65084Y22773D02*
X64994Y22863D01*
X64814D01*
X64724Y22773D01*
Y22413D01*
X64814Y22323D01*
X64994D01*
X65084Y22413D01*
Y22593D01*
X64904D01*
X65264Y22323D02*
Y22863D01*
X65534D01*
X65624Y22773D01*
Y22593D01*
X65534Y22503D01*
X65264D01*
X66164Y22773D02*
X66074Y22863D01*
X65894D01*
X65804Y22773D01*
Y22683D01*
X65894Y22593D01*
X66074D01*
X66164Y22503D01*
Y22413D01*
X66074Y22323D01*
X65894D01*
X65804Y22413D01*
X81305Y22773D02*
X81215Y22863D01*
X81035D01*
X80945Y22773D01*
Y22413D01*
X81035Y22323D01*
X81215D01*
X81305Y22413D01*
X81845Y22773D02*
X81755Y22863D01*
X81575D01*
X81485Y22773D01*
Y22413D01*
X81575Y22323D01*
X81755D01*
X81845Y22413D01*
X82384Y22323D02*
X82025D01*
X82384Y22683D01*
Y22773D01*
X82294Y22863D01*
X82114D01*
X82025Y22773D01*
X82924Y22863D02*
X82564D01*
Y22593D01*
X82744Y22683D01*
X82834D01*
X82924Y22593D01*
Y22413D01*
X82834Y22323D01*
X82654D01*
X82564Y22413D01*
X83104Y22773D02*
X83194Y22863D01*
X83374D01*
X83464Y22773D01*
Y22683D01*
X83374Y22593D01*
X83284D01*
X83374D01*
X83464Y22503D01*
Y22413D01*
X83374Y22323D01*
X83194D01*
X83104Y22413D01*
X83644Y22773D02*
X83734Y22863D01*
X83914D01*
X84004Y22773D01*
Y22683D01*
X83914Y22593D01*
X84004Y22503D01*
Y22413D01*
X83914Y22323D01*
X83734D01*
X83644Y22413D01*
Y22503D01*
X83734Y22593D01*
X83644Y22683D01*
Y22773D01*
X83734Y22593D02*
X83914D01*
X85557Y22773D02*
X85467Y22863D01*
X85287D01*
X85197Y22773D01*
Y22413D01*
X85287Y22323D01*
X85467D01*
X85557Y22413D01*
X86097Y22773D02*
X86007Y22863D01*
X85827D01*
X85737Y22773D01*
Y22413D01*
X85827Y22323D01*
X86007D01*
X86097Y22413D01*
X86636Y22323D02*
X86277D01*
X86636Y22683D01*
Y22773D01*
X86546Y22863D01*
X86366D01*
X86277Y22773D01*
X87086Y22323D02*
Y22863D01*
X86816Y22593D01*
X87176D01*
X87716Y22323D02*
X87356D01*
X87716Y22683D01*
Y22773D01*
X87626Y22863D01*
X87446D01*
X87356Y22773D01*
X87896D02*
X87986Y22863D01*
X88166D01*
X88256Y22773D01*
Y22413D01*
X88166Y22323D01*
X87986D01*
X87896Y22413D01*
Y22773D01*
X59016Y20439D02*
Y20169D01*
X59106Y20079D01*
X59376D01*
Y20439D01*
X59915Y20529D02*
X59825Y20619D01*
X59646D01*
X59556Y20529D01*
Y20439D01*
X59646Y20349D01*
X59825D01*
X59915Y20259D01*
Y20169D01*
X59825Y20079D01*
X59646D01*
X59556Y20169D01*
X60095Y20619D02*
Y20079D01*
X60365D01*
X60455Y20169D01*
Y20529D01*
X60365Y20619D01*
X60095D01*
X56541Y25855D02*
X56181D01*
Y25315D01*
X56541D01*
X56181Y25585D02*
X56361D01*
X57081Y25855D02*
Y25315D01*
X56811D01*
X56721Y25405D01*
Y25585D01*
X56811Y25675D01*
X57081D01*
X57261Y25315D02*
X57441D01*
X57351D01*
Y25675D01*
X57261D01*
X57711Y25315D02*
X57981D01*
X58070Y25405D01*
X57981Y25495D01*
X57801D01*
X57711Y25585D01*
X57801Y25675D01*
X58070D01*
X58340Y25315D02*
X58520D01*
X58610Y25405D01*
Y25585D01*
X58520Y25675D01*
X58340D01*
X58250Y25585D01*
Y25405D01*
X58340Y25315D01*
X58790D02*
Y25675D01*
X59060D01*
X59150Y25585D01*
Y25315D01*
X60230Y25765D02*
X60140Y25855D01*
X59960D01*
X59870Y25765D01*
Y25405D01*
X59960Y25315D01*
X60140D01*
X60230Y25405D01*
Y25585D01*
X60050D01*
X60500Y25675D02*
X60680D01*
X60770Y25585D01*
Y25315D01*
X60500D01*
X60410Y25405D01*
X60500Y25495D01*
X60770D01*
X61040Y25765D02*
Y25675D01*
X60950D01*
X61129D01*
X61040D01*
Y25405D01*
X61129Y25315D01*
X61669D02*
X61489D01*
X61399Y25405D01*
Y25585D01*
X61489Y25675D01*
X61669D01*
X61759Y25585D01*
Y25495D01*
X61399D01*
X61939Y25675D02*
Y25405D01*
X62029Y25315D01*
X62119Y25405D01*
X62209Y25315D01*
X62299Y25405D01*
Y25675D01*
X62569D02*
X62749D01*
X62839Y25585D01*
Y25315D01*
X62569D01*
X62479Y25405D01*
X62569Y25495D01*
X62839D01*
X63019Y25675D02*
Y25405D01*
X63109Y25315D01*
X63379D01*
Y25225D01*
X63289Y25135D01*
X63199D01*
X63379Y25315D02*
Y25675D01*
X65084Y35174D02*
X64994Y35264D01*
X64814D01*
X64724Y35174D01*
Y34814D01*
X64814Y34724D01*
X64994D01*
X65084Y34814D01*
Y34994D01*
X64904D01*
X65264Y34724D02*
Y35264D01*
X65534D01*
X65624Y35174D01*
Y34994D01*
X65534Y34904D01*
X65264D01*
X66164Y35174D02*
X66074Y35264D01*
X65894D01*
X65804Y35174D01*
Y35084D01*
X65894Y34994D01*
X66074D01*
X66164Y34904D01*
Y34814D01*
X66074Y34724D01*
X65894D01*
X65804Y34814D01*
X81305Y35174D02*
X81215Y35264D01*
X81035D01*
X80945Y35174D01*
Y34814D01*
X81035Y34724D01*
X81215D01*
X81305Y34814D01*
X81845Y35174D02*
X81755Y35264D01*
X81575D01*
X81485Y35174D01*
Y34814D01*
X81575Y34724D01*
X81755D01*
X81845Y34814D01*
X82384Y34724D02*
X82025D01*
X82384Y35084D01*
Y35174D01*
X82294Y35264D01*
X82114D01*
X82025Y35174D01*
X82924Y35264D02*
X82564D01*
Y34994D01*
X82744Y35084D01*
X82834D01*
X82924Y34994D01*
Y34814D01*
X82834Y34724D01*
X82654D01*
X82564Y34814D01*
X83104Y35174D02*
X83194Y35264D01*
X83374D01*
X83464Y35174D01*
Y35084D01*
X83374Y34994D01*
X83284D01*
X83374D01*
X83464Y34904D01*
Y34814D01*
X83374Y34724D01*
X83194D01*
X83104Y34814D01*
X83644Y35174D02*
X83734Y35264D01*
X83914D01*
X84004Y35174D01*
Y35084D01*
X83914Y34994D01*
X84004Y34904D01*
Y34814D01*
X83914Y34724D01*
X83734D01*
X83644Y34814D01*
Y34904D01*
X83734Y34994D01*
X83644Y35084D01*
Y35174D01*
X83734Y34994D02*
X83914D01*
X85557Y35174D02*
X85467Y35264D01*
X85287D01*
X85197Y35174D01*
Y34814D01*
X85287Y34724D01*
X85467D01*
X85557Y34814D01*
X86097Y35174D02*
X86007Y35264D01*
X85827D01*
X85737Y35174D01*
Y34814D01*
X85827Y34724D01*
X86007D01*
X86097Y34814D01*
X86636Y34724D02*
X86277D01*
X86636Y35084D01*
Y35174D01*
X86546Y35264D01*
X86366D01*
X86277Y35174D01*
X87086Y34724D02*
Y35264D01*
X86816Y34994D01*
X87176D01*
X87716Y34724D02*
X87356D01*
X87716Y35084D01*
Y35174D01*
X87626Y35264D01*
X87446D01*
X87356Y35174D01*
X87896D02*
X87986Y35264D01*
X88166D01*
X88256Y35174D01*
Y34814D01*
X88166Y34724D01*
X87986D01*
X87896Y34814D01*
Y35174D01*
X59016Y32840D02*
Y32570D01*
X59106Y32480D01*
X59376D01*
Y32840D01*
X59915Y32930D02*
X59825Y33020D01*
X59646D01*
X59556Y32930D01*
Y32840D01*
X59646Y32750D01*
X59825D01*
X59915Y32660D01*
Y32570D01*
X59825Y32480D01*
X59646D01*
X59556Y32570D01*
X60095Y33020D02*
Y32480D01*
X60365D01*
X60455Y32570D01*
Y32930D01*
X60365Y33020D01*
X60095D01*
X56541Y38256D02*
X56181D01*
Y37717D01*
X56541D01*
X56181Y37986D02*
X56361D01*
X57081Y38256D02*
Y37717D01*
X56811D01*
X56721Y37807D01*
Y37986D01*
X56811Y38076D01*
X57081D01*
X57261Y37717D02*
X57441D01*
X57351D01*
Y38076D01*
X57261D01*
X57711Y37717D02*
X57981D01*
X58070Y37807D01*
X57981Y37896D01*
X57801D01*
X57711Y37986D01*
X57801Y38076D01*
X58070D01*
X58340Y37717D02*
X58520D01*
X58610Y37807D01*
Y37986D01*
X58520Y38076D01*
X58340D01*
X58250Y37986D01*
Y37807D01*
X58340Y37717D01*
X58790D02*
Y38076D01*
X59060D01*
X59150Y37986D01*
Y37717D01*
X60230Y38166D02*
X60140Y38256D01*
X59960D01*
X59870Y38166D01*
Y37807D01*
X59960Y37717D01*
X60140D01*
X60230Y37807D01*
Y37986D01*
X60050D01*
X60500Y38076D02*
X60680D01*
X60770Y37986D01*
Y37717D01*
X60500D01*
X60410Y37807D01*
X60500Y37896D01*
X60770D01*
X61040Y38166D02*
Y38076D01*
X60950D01*
X61129D01*
X61040D01*
Y37807D01*
X61129Y37717D01*
X61669D02*
X61489D01*
X61399Y37807D01*
Y37986D01*
X61489Y38076D01*
X61669D01*
X61759Y37986D01*
Y37896D01*
X61399D01*
X61939Y38076D02*
Y37807D01*
X62029Y37717D01*
X62119Y37807D01*
X62209Y37717D01*
X62299Y37807D01*
Y38076D01*
X62569D02*
X62749D01*
X62839Y37986D01*
Y37717D01*
X62569D01*
X62479Y37807D01*
X62569Y37896D01*
X62839D01*
X63019Y38076D02*
Y37807D01*
X63109Y37717D01*
X63379D01*
Y37627D01*
X63289Y37537D01*
X63199D01*
X63379Y37717D02*
Y38076D01*
X65084Y47576D02*
X64994Y47666D01*
X64814D01*
X64724Y47576D01*
Y47216D01*
X64814Y47126D01*
X64994D01*
X65084Y47216D01*
Y47396D01*
X64904D01*
X65264Y47126D02*
Y47666D01*
X65534D01*
X65624Y47576D01*
Y47396D01*
X65534Y47306D01*
X65264D01*
X66164Y47576D02*
X66074Y47666D01*
X65894D01*
X65804Y47576D01*
Y47486D01*
X65894Y47396D01*
X66074D01*
X66164Y47306D01*
Y47216D01*
X66074Y47126D01*
X65894D01*
X65804Y47216D01*
X81305Y47576D02*
X81215Y47666D01*
X81035D01*
X80945Y47576D01*
Y47216D01*
X81035Y47126D01*
X81215D01*
X81305Y47216D01*
X81845Y47576D02*
X81755Y47666D01*
X81575D01*
X81485Y47576D01*
Y47216D01*
X81575Y47126D01*
X81755D01*
X81845Y47216D01*
X82384Y47126D02*
X82025D01*
X82384Y47486D01*
Y47576D01*
X82294Y47666D01*
X82114D01*
X82025Y47576D01*
X82924Y47666D02*
X82564D01*
Y47396D01*
X82744Y47486D01*
X82834D01*
X82924Y47396D01*
Y47216D01*
X82834Y47126D01*
X82654D01*
X82564Y47216D01*
X83104Y47576D02*
X83194Y47666D01*
X83374D01*
X83464Y47576D01*
Y47486D01*
X83374Y47396D01*
X83284D01*
X83374D01*
X83464Y47306D01*
Y47216D01*
X83374Y47126D01*
X83194D01*
X83104Y47216D01*
X83644Y47576D02*
X83734Y47666D01*
X83914D01*
X84004Y47576D01*
Y47486D01*
X83914Y47396D01*
X84004Y47306D01*
Y47216D01*
X83914Y47126D01*
X83734D01*
X83644Y47216D01*
Y47306D01*
X83734Y47396D01*
X83644Y47486D01*
Y47576D01*
X83734Y47396D02*
X83914D01*
X85557Y47576D02*
X85467Y47666D01*
X85287D01*
X85197Y47576D01*
Y47216D01*
X85287Y47126D01*
X85467D01*
X85557Y47216D01*
X86097Y47576D02*
X86007Y47666D01*
X85827D01*
X85737Y47576D01*
Y47216D01*
X85827Y47126D01*
X86007D01*
X86097Y47216D01*
X86636Y47126D02*
X86277D01*
X86636Y47486D01*
Y47576D01*
X86546Y47666D01*
X86366D01*
X86277Y47576D01*
X87086Y47126D02*
Y47666D01*
X86816Y47396D01*
X87176D01*
X87716Y47126D02*
X87356D01*
X87716Y47486D01*
Y47576D01*
X87626Y47666D01*
X87446D01*
X87356Y47576D01*
X87896D02*
X87986Y47666D01*
X88166D01*
X88256Y47576D01*
Y47216D01*
X88166Y47126D01*
X87986D01*
X87896Y47216D01*
Y47576D01*
X59016Y45242D02*
Y44972D01*
X59106Y44882D01*
X59376D01*
Y45242D01*
X59915Y45332D02*
X59825Y45422D01*
X59646D01*
X59556Y45332D01*
Y45242D01*
X59646Y45152D01*
X59825D01*
X59915Y45062D01*
Y44972D01*
X59825Y44882D01*
X59646D01*
X59556Y44972D01*
X60095Y45422D02*
Y44882D01*
X60365D01*
X60455Y44972D01*
Y45332D01*
X60365Y45422D01*
X60095D01*
X56541Y50658D02*
X56181D01*
Y50118D01*
X56541D01*
X56181Y50388D02*
X56361D01*
X57081Y50658D02*
Y50118D01*
X56811D01*
X56721Y50208D01*
Y50388D01*
X56811Y50478D01*
X57081D01*
X57261Y50118D02*
X57441D01*
X57351D01*
Y50478D01*
X57261D01*
X57711Y50118D02*
X57981D01*
X58070Y50208D01*
X57981Y50298D01*
X57801D01*
X57711Y50388D01*
X57801Y50478D01*
X58070D01*
X58340Y50118D02*
X58520D01*
X58610Y50208D01*
Y50388D01*
X58520Y50478D01*
X58340D01*
X58250Y50388D01*
Y50208D01*
X58340Y50118D01*
X58790D02*
Y50478D01*
X59060D01*
X59150Y50388D01*
Y50118D01*
X60230Y50568D02*
X60140Y50658D01*
X59960D01*
X59870Y50568D01*
Y50208D01*
X59960Y50118D01*
X60140D01*
X60230Y50208D01*
Y50388D01*
X60050D01*
X60500Y50478D02*
X60680D01*
X60770Y50388D01*
Y50118D01*
X60500D01*
X60410Y50208D01*
X60500Y50298D01*
X60770D01*
X61040Y50568D02*
Y50478D01*
X60950D01*
X61129D01*
X61040D01*
Y50208D01*
X61129Y50118D01*
X61669D02*
X61489D01*
X61399Y50208D01*
Y50388D01*
X61489Y50478D01*
X61669D01*
X61759Y50388D01*
Y50298D01*
X61399D01*
X61939Y50478D02*
Y50208D01*
X62029Y50118D01*
X62119Y50208D01*
X62209Y50118D01*
X62299Y50208D01*
Y50478D01*
X62569D02*
X62749D01*
X62839Y50388D01*
Y50118D01*
X62569D01*
X62479Y50208D01*
X62569Y50298D01*
X62839D01*
X63019Y50478D02*
Y50208D01*
X63109Y50118D01*
X63379D01*
Y50028D01*
X63289Y49938D01*
X63199D01*
X63379Y50118D02*
Y50478D01*
X65084Y59977D02*
X64994Y60067D01*
X64814D01*
X64724Y59977D01*
Y59618D01*
X64814Y59528D01*
X64994D01*
X65084Y59618D01*
Y59797D01*
X64904D01*
X65264Y59528D02*
Y60067D01*
X65534D01*
X65624Y59977D01*
Y59797D01*
X65534Y59707D01*
X65264D01*
X66164Y59977D02*
X66074Y60067D01*
X65894D01*
X65804Y59977D01*
Y59887D01*
X65894Y59797D01*
X66074D01*
X66164Y59707D01*
Y59618D01*
X66074Y59528D01*
X65894D01*
X65804Y59618D01*
X81305Y59977D02*
X81215Y60067D01*
X81035D01*
X80945Y59977D01*
Y59618D01*
X81035Y59528D01*
X81215D01*
X81305Y59618D01*
X81845Y59977D02*
X81755Y60067D01*
X81575D01*
X81485Y59977D01*
Y59618D01*
X81575Y59528D01*
X81755D01*
X81845Y59618D01*
X82384Y59528D02*
X82025D01*
X82384Y59887D01*
Y59977D01*
X82294Y60067D01*
X82114D01*
X82025Y59977D01*
X82924Y60067D02*
X82564D01*
Y59797D01*
X82744Y59887D01*
X82834D01*
X82924Y59797D01*
Y59618D01*
X82834Y59528D01*
X82654D01*
X82564Y59618D01*
X83104Y59977D02*
X83194Y60067D01*
X83374D01*
X83464Y59977D01*
Y59887D01*
X83374Y59797D01*
X83284D01*
X83374D01*
X83464Y59707D01*
Y59618D01*
X83374Y59528D01*
X83194D01*
X83104Y59618D01*
X83644Y59977D02*
X83734Y60067D01*
X83914D01*
X84004Y59977D01*
Y59887D01*
X83914Y59797D01*
X84004Y59707D01*
Y59618D01*
X83914Y59528D01*
X83734D01*
X83644Y59618D01*
Y59707D01*
X83734Y59797D01*
X83644Y59887D01*
Y59977D01*
X83734Y59797D02*
X83914D01*
X85557Y59977D02*
X85467Y60067D01*
X85287D01*
X85197Y59977D01*
Y59618D01*
X85287Y59528D01*
X85467D01*
X85557Y59618D01*
X86097Y59977D02*
X86007Y60067D01*
X85827D01*
X85737Y59977D01*
Y59618D01*
X85827Y59528D01*
X86007D01*
X86097Y59618D01*
X86636Y59528D02*
X86277D01*
X86636Y59887D01*
Y59977D01*
X86546Y60067D01*
X86366D01*
X86277Y59977D01*
X87086Y59528D02*
Y60067D01*
X86816Y59797D01*
X87176D01*
X87716Y59528D02*
X87356D01*
X87716Y59887D01*
Y59977D01*
X87626Y60067D01*
X87446D01*
X87356Y59977D01*
X87896D02*
X87986Y60067D01*
X88166D01*
X88256Y59977D01*
Y59618D01*
X88166Y59528D01*
X87986D01*
X87896Y59618D01*
Y59977D01*
X59016Y57643D02*
Y57373D01*
X59106Y57283D01*
X59376D01*
Y57643D01*
X59915Y57733D02*
X59825Y57823D01*
X59646D01*
X59556Y57733D01*
Y57643D01*
X59646Y57553D01*
X59825D01*
X59915Y57463D01*
Y57373D01*
X59825Y57283D01*
X59646D01*
X59556Y57373D01*
X60095Y57823D02*
Y57283D01*
X60365D01*
X60455Y57373D01*
Y57733D01*
X60365Y57823D01*
X60095D01*
X56541Y63060D02*
X56181D01*
Y62520D01*
X56541D01*
X56181Y62790D02*
X56361D01*
X57081Y63060D02*
Y62520D01*
X56811D01*
X56721Y62610D01*
Y62790D01*
X56811Y62880D01*
X57081D01*
X57261Y62520D02*
X57441D01*
X57351D01*
Y62880D01*
X57261D01*
X57711Y62520D02*
X57981D01*
X58070Y62610D01*
X57981Y62700D01*
X57801D01*
X57711Y62790D01*
X57801Y62880D01*
X58070D01*
X58340Y62520D02*
X58520D01*
X58610Y62610D01*
Y62790D01*
X58520Y62880D01*
X58340D01*
X58250Y62790D01*
Y62610D01*
X58340Y62520D01*
X58790D02*
Y62880D01*
X59060D01*
X59150Y62790D01*
Y62520D01*
X60230Y62970D02*
X60140Y63060D01*
X59960D01*
X59870Y62970D01*
Y62610D01*
X59960Y62520D01*
X60140D01*
X60230Y62610D01*
Y62790D01*
X60050D01*
X60500Y62880D02*
X60680D01*
X60770Y62790D01*
Y62520D01*
X60500D01*
X60410Y62610D01*
X60500Y62700D01*
X60770D01*
X61040Y62970D02*
Y62880D01*
X60950D01*
X61129D01*
X61040D01*
Y62610D01*
X61129Y62520D01*
X61669D02*
X61489D01*
X61399Y62610D01*
Y62790D01*
X61489Y62880D01*
X61669D01*
X61759Y62790D01*
Y62700D01*
X61399D01*
X61939Y62880D02*
Y62610D01*
X62029Y62520D01*
X62119Y62610D01*
X62209Y62520D01*
X62299Y62610D01*
Y62880D01*
X62569D02*
X62749D01*
X62839Y62790D01*
Y62520D01*
X62569D01*
X62479Y62610D01*
X62569Y62700D01*
X62839D01*
X63019Y62880D02*
Y62610D01*
X63109Y62520D01*
X63379D01*
Y62430D01*
X63289Y62340D01*
X63199D01*
X63379Y62520D02*
Y62880D01*
X65084Y72379D02*
X64994Y72469D01*
X64814D01*
X64724Y72379D01*
Y72019D01*
X64814Y71929D01*
X64994D01*
X65084Y72019D01*
Y72199D01*
X64904D01*
X65264Y71929D02*
Y72469D01*
X65534D01*
X65624Y72379D01*
Y72199D01*
X65534Y72109D01*
X65264D01*
X66164Y72379D02*
X66074Y72469D01*
X65894D01*
X65804Y72379D01*
Y72289D01*
X65894Y72199D01*
X66074D01*
X66164Y72109D01*
Y72019D01*
X66074Y71929D01*
X65894D01*
X65804Y72019D01*
X81305Y72379D02*
X81215Y72469D01*
X81035D01*
X80945Y72379D01*
Y72019D01*
X81035Y71929D01*
X81215D01*
X81305Y72019D01*
X81845Y72379D02*
X81755Y72469D01*
X81575D01*
X81485Y72379D01*
Y72019D01*
X81575Y71929D01*
X81755D01*
X81845Y72019D01*
X82384Y71929D02*
X82025D01*
X82384Y72289D01*
Y72379D01*
X82294Y72469D01*
X82114D01*
X82025Y72379D01*
X82924Y72469D02*
X82564D01*
Y72199D01*
X82744Y72289D01*
X82834D01*
X82924Y72199D01*
Y72019D01*
X82834Y71929D01*
X82654D01*
X82564Y72019D01*
X83104Y72379D02*
X83194Y72469D01*
X83374D01*
X83464Y72379D01*
Y72289D01*
X83374Y72199D01*
X83284D01*
X83374D01*
X83464Y72109D01*
Y72019D01*
X83374Y71929D01*
X83194D01*
X83104Y72019D01*
X83644Y72379D02*
X83734Y72469D01*
X83914D01*
X84004Y72379D01*
Y72289D01*
X83914Y72199D01*
X84004Y72109D01*
Y72019D01*
X83914Y71929D01*
X83734D01*
X83644Y72019D01*
Y72109D01*
X83734Y72199D01*
X83644Y72289D01*
Y72379D01*
X83734Y72199D02*
X83914D01*
X85557Y72379D02*
X85467Y72469D01*
X85287D01*
X85197Y72379D01*
Y72019D01*
X85287Y71929D01*
X85467D01*
X85557Y72019D01*
X86097Y72379D02*
X86007Y72469D01*
X85827D01*
X85737Y72379D01*
Y72019D01*
X85827Y71929D01*
X86007D01*
X86097Y72019D01*
X86636Y71929D02*
X86277D01*
X86636Y72289D01*
Y72379D01*
X86546Y72469D01*
X86366D01*
X86277Y72379D01*
X87086Y71929D02*
Y72469D01*
X86816Y72199D01*
X87176D01*
X87716Y71929D02*
X87356D01*
X87716Y72289D01*
Y72379D01*
X87626Y72469D01*
X87446D01*
X87356Y72379D01*
X87896D02*
X87986Y72469D01*
X88166D01*
X88256Y72379D01*
Y72019D01*
X88166Y71929D01*
X87986D01*
X87896Y72019D01*
Y72379D01*
X59016Y70045D02*
Y69775D01*
X59106Y69685D01*
X59376D01*
Y70045D01*
X59915Y70135D02*
X59825Y70225D01*
X59646D01*
X59556Y70135D01*
Y70045D01*
X59646Y69955D01*
X59825D01*
X59915Y69865D01*
Y69775D01*
X59825Y69685D01*
X59646D01*
X59556Y69775D01*
X60095Y70225D02*
Y69685D01*
X60365D01*
X60455Y69775D01*
Y70135D01*
X60365Y70225D01*
X60095D01*
X56541Y75461D02*
X56181D01*
Y74921D01*
X56541D01*
X56181Y75191D02*
X56361D01*
X57081Y75461D02*
Y74921D01*
X56811D01*
X56721Y75011D01*
Y75191D01*
X56811Y75281D01*
X57081D01*
X57261Y74921D02*
X57441D01*
X57351D01*
Y75281D01*
X57261D01*
X57711Y74921D02*
X57981D01*
X58070Y75011D01*
X57981Y75101D01*
X57801D01*
X57711Y75191D01*
X57801Y75281D01*
X58070D01*
X58340Y74921D02*
X58520D01*
X58610Y75011D01*
Y75191D01*
X58520Y75281D01*
X58340D01*
X58250Y75191D01*
Y75011D01*
X58340Y74921D01*
X58790D02*
Y75281D01*
X59060D01*
X59150Y75191D01*
Y74921D01*
X60230Y75371D02*
X60140Y75461D01*
X59960D01*
X59870Y75371D01*
Y75011D01*
X59960Y74921D01*
X60140D01*
X60230Y75011D01*
Y75191D01*
X60050D01*
X60500Y75281D02*
X60680D01*
X60770Y75191D01*
Y74921D01*
X60500D01*
X60410Y75011D01*
X60500Y75101D01*
X60770D01*
X61040Y75371D02*
Y75281D01*
X60950D01*
X61129D01*
X61040D01*
Y75011D01*
X61129Y74921D01*
X61669D02*
X61489D01*
X61399Y75011D01*
Y75191D01*
X61489Y75281D01*
X61669D01*
X61759Y75191D01*
Y75101D01*
X61399D01*
X61939Y75281D02*
Y75011D01*
X62029Y74921D01*
X62119Y75011D01*
X62209Y74921D01*
X62299Y75011D01*
Y75281D01*
X62569D02*
X62749D01*
X62839Y75191D01*
Y74921D01*
X62569D01*
X62479Y75011D01*
X62569Y75101D01*
X62839D01*
X63019Y75281D02*
Y75011D01*
X63109Y74921D01*
X63379D01*
Y74831D01*
X63289Y74741D01*
X63199D01*
X63379Y74921D02*
Y75281D01*
X41890Y9134D02*
Y9674D01*
X42160D01*
X42250Y9584D01*
Y9404D01*
X42160Y9314D01*
X41890D01*
X42070D02*
X42250Y9134D01*
X42789Y9584D02*
X42699Y9674D01*
X42520D01*
X42430Y9584D01*
Y9494D01*
X42520Y9404D01*
X42699D01*
X42789Y9314D01*
Y9224D01*
X42699Y9134D01*
X42520D01*
X42430Y9224D01*
X42969Y9674D02*
X43329D01*
X43149D01*
Y9134D01*
X37683Y9674D02*
X37323D01*
Y9404D01*
X37503Y9494D01*
X37593D01*
X37683Y9404D01*
Y9224D01*
X37593Y9134D01*
X37413D01*
X37323Y9224D01*
X37863Y9674D02*
Y9314D01*
X38043Y9134D01*
X38223Y9314D01*
Y9674D01*
X38402Y9134D02*
X38762Y9494D01*
X39302Y9134D02*
X38942D01*
X39302Y9494D01*
Y9584D01*
X39212Y9674D01*
X39032D01*
X38942Y9584D01*
X39482Y9134D02*
Y9494D01*
X39662Y9674D01*
X39842Y9494D01*
Y9134D01*
Y9404D01*
X39482D01*
X33273Y9584D02*
X33183Y9674D01*
X33003D01*
X32913Y9584D01*
Y9494D01*
X33003Y9404D01*
X33183D01*
X33273Y9314D01*
Y9224D01*
X33183Y9134D01*
X33003D01*
X32913Y9224D01*
X33723Y9134D02*
X33543D01*
X33453Y9224D01*
Y9404D01*
X33543Y9494D01*
X33723D01*
X33813Y9404D01*
Y9314D01*
X33453D01*
X33993Y9494D02*
Y9134D01*
Y9314D01*
X34083Y9404D01*
X34173Y9494D01*
X34263D01*
X34533Y9134D02*
X34713D01*
X34623D01*
Y9494D01*
X34533D01*
X35073D02*
X35253D01*
X35343Y9404D01*
Y9134D01*
X35073D01*
X34983Y9224D01*
X35073Y9314D01*
X35343D01*
X35523Y9134D02*
X35702D01*
X35613D01*
Y9674D01*
X35523D01*
X27795Y9134D02*
Y9674D01*
X28065D01*
X28155Y9584D01*
Y9404D01*
X28065Y9314D01*
X27795D01*
X28335Y9494D02*
Y9134D01*
Y9314D01*
X28425Y9404D01*
X28515Y9494D01*
X28605D01*
X28965Y9134D02*
X29145D01*
X29235Y9224D01*
Y9404D01*
X29145Y9494D01*
X28965D01*
X28875Y9404D01*
Y9224D01*
X28965Y9134D01*
X29595Y8954D02*
X29685D01*
X29775Y9044D01*
Y9494D01*
X29505D01*
X29415Y9404D01*
Y9224D01*
X29505Y9134D01*
X29775D01*
X29955Y9494D02*
Y9134D01*
Y9314D01*
X30045Y9404D01*
X30135Y9494D01*
X30224D01*
X30584D02*
X30764D01*
X30854Y9404D01*
Y9134D01*
X30584D01*
X30494Y9224D01*
X30584Y9314D01*
X30854D01*
X31034Y9134D02*
Y9494D01*
X31124D01*
X31214Y9404D01*
Y9134D01*
Y9404D01*
X31304Y9494D01*
X31394Y9404D01*
Y9134D01*
X22126Y9674D02*
Y9224D01*
X22216Y9134D01*
X22396D01*
X22486Y9224D01*
Y9674D01*
X23026Y9584D02*
X22936Y9674D01*
X22756D01*
X22666Y9584D01*
Y9494D01*
X22756Y9404D01*
X22936D01*
X23026Y9314D01*
Y9224D01*
X22936Y9134D01*
X22756D01*
X22666Y9224D01*
X23206Y9674D02*
Y9134D01*
X23476D01*
X23566Y9224D01*
Y9314D01*
X23476Y9404D01*
X23206D01*
X23476D01*
X23566Y9494D01*
Y9584D01*
X23476Y9674D01*
X23206D01*
X12880D02*
X12520D01*
Y9134D01*
X12880D01*
X12520Y9404D02*
X12700D01*
X13149Y9584D02*
Y9494D01*
X13060D01*
X13239D01*
X13149D01*
Y9224D01*
X13239Y9134D01*
X13509Y9674D02*
Y9134D01*
Y9404D01*
X13599Y9494D01*
X13779D01*
X13869Y9404D01*
Y9134D01*
X14319D02*
X14139D01*
X14049Y9224D01*
Y9404D01*
X14139Y9494D01*
X14319D01*
X14409Y9404D01*
Y9314D01*
X14049D01*
X14589Y9494D02*
Y9134D01*
Y9314D01*
X14679Y9404D01*
X14769Y9494D01*
X14859D01*
X15129Y9134D02*
Y9494D01*
X15399D01*
X15489Y9404D01*
Y9134D01*
X15939D02*
X15759D01*
X15669Y9224D01*
Y9404D01*
X15759Y9494D01*
X15939D01*
X16029Y9404D01*
Y9314D01*
X15669D01*
X16298Y9584D02*
Y9494D01*
X16208D01*
X16388D01*
X16298D01*
Y9224D01*
X16388Y9134D01*
X41890Y21535D02*
Y22075D01*
X42160D01*
X42250Y21985D01*
Y21805D01*
X42160Y21715D01*
X41890D01*
X42070D02*
X42250Y21535D01*
X42789Y21985D02*
X42699Y22075D01*
X42520D01*
X42430Y21985D01*
Y21895D01*
X42520Y21805D01*
X42699D01*
X42789Y21715D01*
Y21625D01*
X42699Y21535D01*
X42520D01*
X42430Y21625D01*
X42969Y22075D02*
X43329D01*
X43149D01*
Y21535D01*
X37683Y22075D02*
X37323D01*
Y21805D01*
X37503Y21895D01*
X37593D01*
X37683Y21805D01*
Y21625D01*
X37593Y21535D01*
X37413D01*
X37323Y21625D01*
X37863Y22075D02*
Y21715D01*
X38043Y21535D01*
X38223Y21715D01*
Y22075D01*
X38402Y21535D02*
X38762Y21895D01*
X39302Y21535D02*
X38942D01*
X39302Y21895D01*
Y21985D01*
X39212Y22075D01*
X39032D01*
X38942Y21985D01*
X39482Y21535D02*
Y21895D01*
X39662Y22075D01*
X39842Y21895D01*
Y21535D01*
Y21805D01*
X39482D01*
X33273Y21985D02*
X33183Y22075D01*
X33003D01*
X32913Y21985D01*
Y21895D01*
X33003Y21805D01*
X33183D01*
X33273Y21715D01*
Y21625D01*
X33183Y21535D01*
X33003D01*
X32913Y21625D01*
X33723Y21535D02*
X33543D01*
X33453Y21625D01*
Y21805D01*
X33543Y21895D01*
X33723D01*
X33813Y21805D01*
Y21715D01*
X33453D01*
X33993Y21895D02*
Y21535D01*
Y21715D01*
X34083Y21805D01*
X34173Y21895D01*
X34263D01*
X34533Y21535D02*
X34713D01*
X34623D01*
Y21895D01*
X34533D01*
X35073D02*
X35253D01*
X35343Y21805D01*
Y21535D01*
X35073D01*
X34983Y21625D01*
X35073Y21715D01*
X35343D01*
X35523Y21535D02*
X35702D01*
X35613D01*
Y22075D01*
X35523D01*
X27795Y21535D02*
Y22075D01*
X28065D01*
X28155Y21985D01*
Y21805D01*
X28065Y21715D01*
X27795D01*
X28335Y21895D02*
Y21535D01*
Y21715D01*
X28425Y21805D01*
X28515Y21895D01*
X28605D01*
X28965Y21535D02*
X29145D01*
X29235Y21625D01*
Y21805D01*
X29145Y21895D01*
X28965D01*
X28875Y21805D01*
Y21625D01*
X28965Y21535D01*
X29595Y21355D02*
X29685D01*
X29775Y21445D01*
Y21895D01*
X29505D01*
X29415Y21805D01*
Y21625D01*
X29505Y21535D01*
X29775D01*
X29955Y21895D02*
Y21535D01*
Y21715D01*
X30045Y21805D01*
X30135Y21895D01*
X30224D01*
X30584D02*
X30764D01*
X30854Y21805D01*
Y21535D01*
X30584D01*
X30494Y21625D01*
X30584Y21715D01*
X30854D01*
X31034Y21535D02*
Y21895D01*
X31124D01*
X31214Y21805D01*
Y21535D01*
Y21805D01*
X31304Y21895D01*
X31394Y21805D01*
Y21535D01*
X22126Y22075D02*
Y21625D01*
X22216Y21535D01*
X22396D01*
X22486Y21625D01*
Y22075D01*
X23026Y21985D02*
X22936Y22075D01*
X22756D01*
X22666Y21985D01*
Y21895D01*
X22756Y21805D01*
X22936D01*
X23026Y21715D01*
Y21625D01*
X22936Y21535D01*
X22756D01*
X22666Y21625D01*
X23206Y22075D02*
Y21535D01*
X23476D01*
X23566Y21625D01*
Y21715D01*
X23476Y21805D01*
X23206D01*
X23476D01*
X23566Y21895D01*
Y21985D01*
X23476Y22075D01*
X23206D01*
X12880D02*
X12520D01*
Y21535D01*
X12880D01*
X12520Y21805D02*
X12700D01*
X13149Y21985D02*
Y21895D01*
X13060D01*
X13239D01*
X13149D01*
Y21625D01*
X13239Y21535D01*
X13509Y22075D02*
Y21535D01*
Y21805D01*
X13599Y21895D01*
X13779D01*
X13869Y21805D01*
Y21535D01*
X14319D02*
X14139D01*
X14049Y21625D01*
Y21805D01*
X14139Y21895D01*
X14319D01*
X14409Y21805D01*
Y21715D01*
X14049D01*
X14589Y21895D02*
Y21535D01*
Y21715D01*
X14679Y21805D01*
X14769Y21895D01*
X14859D01*
X15129Y21535D02*
Y21895D01*
X15399D01*
X15489Y21805D01*
Y21535D01*
X15939D02*
X15759D01*
X15669Y21625D01*
Y21805D01*
X15759Y21895D01*
X15939D01*
X16029Y21805D01*
Y21715D01*
X15669D01*
X16298Y21985D02*
Y21895D01*
X16208D01*
X16388D01*
X16298D01*
Y21625D01*
X16388Y21535D01*
X41890Y33937D02*
Y34477D01*
X42160D01*
X42250Y34387D01*
Y34207D01*
X42160Y34117D01*
X41890D01*
X42070D02*
X42250Y33937D01*
X42789Y34387D02*
X42699Y34477D01*
X42520D01*
X42430Y34387D01*
Y34297D01*
X42520Y34207D01*
X42699D01*
X42789Y34117D01*
Y34027D01*
X42699Y33937D01*
X42520D01*
X42430Y34027D01*
X42969Y34477D02*
X43329D01*
X43149D01*
Y33937D01*
X37683Y34477D02*
X37323D01*
Y34207D01*
X37503Y34297D01*
X37593D01*
X37683Y34207D01*
Y34027D01*
X37593Y33937D01*
X37413D01*
X37323Y34027D01*
X37863Y34477D02*
Y34117D01*
X38043Y33937D01*
X38223Y34117D01*
Y34477D01*
X38402Y33937D02*
X38762Y34297D01*
X39302Y33937D02*
X38942D01*
X39302Y34297D01*
Y34387D01*
X39212Y34477D01*
X39032D01*
X38942Y34387D01*
X39482Y33937D02*
Y34297D01*
X39662Y34477D01*
X39842Y34297D01*
Y33937D01*
Y34207D01*
X39482D01*
X33273Y34387D02*
X33183Y34477D01*
X33003D01*
X32913Y34387D01*
Y34297D01*
X33003Y34207D01*
X33183D01*
X33273Y34117D01*
Y34027D01*
X33183Y33937D01*
X33003D01*
X32913Y34027D01*
X33723Y33937D02*
X33543D01*
X33453Y34027D01*
Y34207D01*
X33543Y34297D01*
X33723D01*
X33813Y34207D01*
Y34117D01*
X33453D01*
X33993Y34297D02*
Y33937D01*
Y34117D01*
X34083Y34207D01*
X34173Y34297D01*
X34263D01*
X34533Y33937D02*
X34713D01*
X34623D01*
Y34297D01*
X34533D01*
X35073D02*
X35253D01*
X35343Y34207D01*
Y33937D01*
X35073D01*
X34983Y34027D01*
X35073Y34117D01*
X35343D01*
X35523Y33937D02*
X35702D01*
X35613D01*
Y34477D01*
X35523D01*
X27795Y33937D02*
Y34477D01*
X28065D01*
X28155Y34387D01*
Y34207D01*
X28065Y34117D01*
X27795D01*
X28335Y34297D02*
Y33937D01*
Y34117D01*
X28425Y34207D01*
X28515Y34297D01*
X28605D01*
X28965Y33937D02*
X29145D01*
X29235Y34027D01*
Y34207D01*
X29145Y34297D01*
X28965D01*
X28875Y34207D01*
Y34027D01*
X28965Y33937D01*
X29595Y33757D02*
X29685D01*
X29775Y33847D01*
Y34297D01*
X29505D01*
X29415Y34207D01*
Y34027D01*
X29505Y33937D01*
X29775D01*
X29955Y34297D02*
Y33937D01*
Y34117D01*
X30045Y34207D01*
X30135Y34297D01*
X30224D01*
X30584D02*
X30764D01*
X30854Y34207D01*
Y33937D01*
X30584D01*
X30494Y34027D01*
X30584Y34117D01*
X30854D01*
X31034Y33937D02*
Y34297D01*
X31124D01*
X31214Y34207D01*
Y33937D01*
Y34207D01*
X31304Y34297D01*
X31394Y34207D01*
Y33937D01*
X22126Y34477D02*
Y34027D01*
X22216Y33937D01*
X22396D01*
X22486Y34027D01*
Y34477D01*
X23026Y34387D02*
X22936Y34477D01*
X22756D01*
X22666Y34387D01*
Y34297D01*
X22756Y34207D01*
X22936D01*
X23026Y34117D01*
Y34027D01*
X22936Y33937D01*
X22756D01*
X22666Y34027D01*
X23206Y34477D02*
Y33937D01*
X23476D01*
X23566Y34027D01*
Y34117D01*
X23476Y34207D01*
X23206D01*
X23476D01*
X23566Y34297D01*
Y34387D01*
X23476Y34477D01*
X23206D01*
X12880D02*
X12520D01*
Y33937D01*
X12880D01*
X12520Y34207D02*
X12700D01*
X13149Y34387D02*
Y34297D01*
X13060D01*
X13239D01*
X13149D01*
Y34027D01*
X13239Y33937D01*
X13509Y34477D02*
Y33937D01*
Y34207D01*
X13599Y34297D01*
X13779D01*
X13869Y34207D01*
Y33937D01*
X14319D02*
X14139D01*
X14049Y34027D01*
Y34207D01*
X14139Y34297D01*
X14319D01*
X14409Y34207D01*
Y34117D01*
X14049D01*
X14589Y34297D02*
Y33937D01*
Y34117D01*
X14679Y34207D01*
X14769Y34297D01*
X14859D01*
X15129Y33937D02*
Y34297D01*
X15399D01*
X15489Y34207D01*
Y33937D01*
X15939D02*
X15759D01*
X15669Y34027D01*
Y34207D01*
X15759Y34297D01*
X15939D01*
X16029Y34207D01*
Y34117D01*
X15669D01*
X16298Y34387D02*
Y34297D01*
X16208D01*
X16388D01*
X16298D01*
Y34027D01*
X16388Y33937D01*
X41890Y46339D02*
Y46878D01*
X42160D01*
X42250Y46788D01*
Y46609D01*
X42160Y46519D01*
X41890D01*
X42070D02*
X42250Y46339D01*
X42789Y46788D02*
X42699Y46878D01*
X42520D01*
X42430Y46788D01*
Y46698D01*
X42520Y46609D01*
X42699D01*
X42789Y46519D01*
Y46429D01*
X42699Y46339D01*
X42520D01*
X42430Y46429D01*
X42969Y46878D02*
X43329D01*
X43149D01*
Y46339D01*
X37683Y46878D02*
X37323D01*
Y46609D01*
X37503Y46698D01*
X37593D01*
X37683Y46609D01*
Y46429D01*
X37593Y46339D01*
X37413D01*
X37323Y46429D01*
X37863Y46878D02*
Y46519D01*
X38043Y46339D01*
X38223Y46519D01*
Y46878D01*
X38402Y46339D02*
X38762Y46698D01*
X39302Y46339D02*
X38942D01*
X39302Y46698D01*
Y46788D01*
X39212Y46878D01*
X39032D01*
X38942Y46788D01*
X39482Y46339D02*
Y46698D01*
X39662Y46878D01*
X39842Y46698D01*
Y46339D01*
Y46609D01*
X39482D01*
X33273Y46788D02*
X33183Y46878D01*
X33003D01*
X32913Y46788D01*
Y46698D01*
X33003Y46609D01*
X33183D01*
X33273Y46519D01*
Y46429D01*
X33183Y46339D01*
X33003D01*
X32913Y46429D01*
X33723Y46339D02*
X33543D01*
X33453Y46429D01*
Y46609D01*
X33543Y46698D01*
X33723D01*
X33813Y46609D01*
Y46519D01*
X33453D01*
X33993Y46698D02*
Y46339D01*
Y46519D01*
X34083Y46609D01*
X34173Y46698D01*
X34263D01*
X34533Y46339D02*
X34713D01*
X34623D01*
Y46698D01*
X34533D01*
X35073D02*
X35253D01*
X35343Y46609D01*
Y46339D01*
X35073D01*
X34983Y46429D01*
X35073Y46519D01*
X35343D01*
X35523Y46339D02*
X35702D01*
X35613D01*
Y46878D01*
X35523D01*
X27795Y46339D02*
Y46878D01*
X28065D01*
X28155Y46788D01*
Y46609D01*
X28065Y46519D01*
X27795D01*
X28335Y46698D02*
Y46339D01*
Y46519D01*
X28425Y46609D01*
X28515Y46698D01*
X28605D01*
X28965Y46339D02*
X29145D01*
X29235Y46429D01*
Y46609D01*
X29145Y46698D01*
X28965D01*
X28875Y46609D01*
Y46429D01*
X28965Y46339D01*
X29595Y46159D02*
X29685D01*
X29775Y46249D01*
Y46698D01*
X29505D01*
X29415Y46609D01*
Y46429D01*
X29505Y46339D01*
X29775D01*
X29955Y46698D02*
Y46339D01*
Y46519D01*
X30045Y46609D01*
X30135Y46698D01*
X30224D01*
X30584D02*
X30764D01*
X30854Y46609D01*
Y46339D01*
X30584D01*
X30494Y46429D01*
X30584Y46519D01*
X30854D01*
X31034Y46339D02*
Y46698D01*
X31124D01*
X31214Y46609D01*
Y46339D01*
Y46609D01*
X31304Y46698D01*
X31394Y46609D01*
Y46339D01*
X22126Y46878D02*
Y46429D01*
X22216Y46339D01*
X22396D01*
X22486Y46429D01*
Y46878D01*
X23026Y46788D02*
X22936Y46878D01*
X22756D01*
X22666Y46788D01*
Y46698D01*
X22756Y46609D01*
X22936D01*
X23026Y46519D01*
Y46429D01*
X22936Y46339D01*
X22756D01*
X22666Y46429D01*
X23206Y46878D02*
Y46339D01*
X23476D01*
X23566Y46429D01*
Y46519D01*
X23476Y46609D01*
X23206D01*
X23476D01*
X23566Y46698D01*
Y46788D01*
X23476Y46878D01*
X23206D01*
X12880D02*
X12520D01*
Y46339D01*
X12880D01*
X12520Y46609D02*
X12700D01*
X13149Y46788D02*
Y46698D01*
X13060D01*
X13239D01*
X13149D01*
Y46429D01*
X13239Y46339D01*
X13509Y46878D02*
Y46339D01*
Y46609D01*
X13599Y46698D01*
X13779D01*
X13869Y46609D01*
Y46339D01*
X14319D02*
X14139D01*
X14049Y46429D01*
Y46609D01*
X14139Y46698D01*
X14319D01*
X14409Y46609D01*
Y46519D01*
X14049D01*
X14589Y46698D02*
Y46339D01*
Y46519D01*
X14679Y46609D01*
X14769Y46698D01*
X14859D01*
X15129Y46339D02*
Y46698D01*
X15399D01*
X15489Y46609D01*
Y46339D01*
X15939D02*
X15759D01*
X15669Y46429D01*
Y46609D01*
X15759Y46698D01*
X15939D01*
X16029Y46609D01*
Y46519D01*
X15669D01*
X16298Y46788D02*
Y46698D01*
X16208D01*
X16388D01*
X16298D01*
Y46429D01*
X16388Y46339D01*
X41890Y58740D02*
Y59280D01*
X42160D01*
X42250Y59190D01*
Y59010D01*
X42160Y58920D01*
X41890D01*
X42070D02*
X42250Y58740D01*
X42789Y59190D02*
X42699Y59280D01*
X42520D01*
X42430Y59190D01*
Y59100D01*
X42520Y59010D01*
X42699D01*
X42789Y58920D01*
Y58830D01*
X42699Y58740D01*
X42520D01*
X42430Y58830D01*
X42969Y59280D02*
X43329D01*
X43149D01*
Y58740D01*
X37683Y59280D02*
X37323D01*
Y59010D01*
X37503Y59100D01*
X37593D01*
X37683Y59010D01*
Y58830D01*
X37593Y58740D01*
X37413D01*
X37323Y58830D01*
X37863Y59280D02*
Y58920D01*
X38043Y58740D01*
X38223Y58920D01*
Y59280D01*
X38402Y58740D02*
X38762Y59100D01*
X39302Y58740D02*
X38942D01*
X39302Y59100D01*
Y59190D01*
X39212Y59280D01*
X39032D01*
X38942Y59190D01*
X39482Y58740D02*
Y59100D01*
X39662Y59280D01*
X39842Y59100D01*
Y58740D01*
Y59010D01*
X39482D01*
X33273Y59190D02*
X33183Y59280D01*
X33003D01*
X32913Y59190D01*
Y59100D01*
X33003Y59010D01*
X33183D01*
X33273Y58920D01*
Y58830D01*
X33183Y58740D01*
X33003D01*
X32913Y58830D01*
X33723Y58740D02*
X33543D01*
X33453Y58830D01*
Y59010D01*
X33543Y59100D01*
X33723D01*
X33813Y59010D01*
Y58920D01*
X33453D01*
X33993Y59100D02*
Y58740D01*
Y58920D01*
X34083Y59010D01*
X34173Y59100D01*
X34263D01*
X34533Y58740D02*
X34713D01*
X34623D01*
Y59100D01*
X34533D01*
X35073D02*
X35253D01*
X35343Y59010D01*
Y58740D01*
X35073D01*
X34983Y58830D01*
X35073Y58920D01*
X35343D01*
X35523Y58740D02*
X35702D01*
X35613D01*
Y59280D01*
X35523D01*
X27795Y58740D02*
Y59280D01*
X28065D01*
X28155Y59190D01*
Y59010D01*
X28065Y58920D01*
X27795D01*
X28335Y59100D02*
Y58740D01*
Y58920D01*
X28425Y59010D01*
X28515Y59100D01*
X28605D01*
X28965Y58740D02*
X29145D01*
X29235Y58830D01*
Y59010D01*
X29145Y59100D01*
X28965D01*
X28875Y59010D01*
Y58830D01*
X28965Y58740D01*
X29595Y58560D02*
X29685D01*
X29775Y58650D01*
Y59100D01*
X29505D01*
X29415Y59010D01*
Y58830D01*
X29505Y58740D01*
X29775D01*
X29955Y59100D02*
Y58740D01*
Y58920D01*
X30045Y59010D01*
X30135Y59100D01*
X30224D01*
X30584D02*
X30764D01*
X30854Y59010D01*
Y58740D01*
X30584D01*
X30494Y58830D01*
X30584Y58920D01*
X30854D01*
X31034Y58740D02*
Y59100D01*
X31124D01*
X31214Y59010D01*
Y58740D01*
Y59010D01*
X31304Y59100D01*
X31394Y59010D01*
Y58740D01*
X22126Y59280D02*
Y58830D01*
X22216Y58740D01*
X22396D01*
X22486Y58830D01*
Y59280D01*
X23026Y59190D02*
X22936Y59280D01*
X22756D01*
X22666Y59190D01*
Y59100D01*
X22756Y59010D01*
X22936D01*
X23026Y58920D01*
Y58830D01*
X22936Y58740D01*
X22756D01*
X22666Y58830D01*
X23206Y59280D02*
Y58740D01*
X23476D01*
X23566Y58830D01*
Y58920D01*
X23476Y59010D01*
X23206D01*
X23476D01*
X23566Y59100D01*
Y59190D01*
X23476Y59280D01*
X23206D01*
X12880D02*
X12520D01*
Y58740D01*
X12880D01*
X12520Y59010D02*
X12700D01*
X13149Y59190D02*
Y59100D01*
X13060D01*
X13239D01*
X13149D01*
Y58830D01*
X13239Y58740D01*
X13509Y59280D02*
Y58740D01*
Y59010D01*
X13599Y59100D01*
X13779D01*
X13869Y59010D01*
Y58740D01*
X14319D02*
X14139D01*
X14049Y58830D01*
Y59010D01*
X14139Y59100D01*
X14319D01*
X14409Y59010D01*
Y58920D01*
X14049D01*
X14589Y59100D02*
Y58740D01*
Y58920D01*
X14679Y59010D01*
X14769Y59100D01*
X14859D01*
X15129Y58740D02*
Y59100D01*
X15399D01*
X15489Y59010D01*
Y58740D01*
X15939D02*
X15759D01*
X15669Y58830D01*
Y59010D01*
X15759Y59100D01*
X15939D01*
X16029Y59010D01*
Y58920D01*
X15669D01*
X16298Y59190D02*
Y59100D01*
X16208D01*
X16388D01*
X16298D01*
Y58830D01*
X16388Y58740D01*
X41890Y71142D02*
Y71682D01*
X42160D01*
X42250Y71592D01*
Y71412D01*
X42160Y71322D01*
X41890D01*
X42070D02*
X42250Y71142D01*
X42789Y71592D02*
X42699Y71682D01*
X42520D01*
X42430Y71592D01*
Y71502D01*
X42520Y71412D01*
X42699D01*
X42789Y71322D01*
Y71232D01*
X42699Y71142D01*
X42520D01*
X42430Y71232D01*
X42969Y71682D02*
X43329D01*
X43149D01*
Y71142D01*
X37683Y71682D02*
X37323D01*
Y71412D01*
X37503Y71502D01*
X37593D01*
X37683Y71412D01*
Y71232D01*
X37593Y71142D01*
X37413D01*
X37323Y71232D01*
X37863Y71682D02*
Y71322D01*
X38043Y71142D01*
X38223Y71322D01*
Y71682D01*
X38402Y71142D02*
X38762Y71502D01*
X39302Y71142D02*
X38942D01*
X39302Y71502D01*
Y71592D01*
X39212Y71682D01*
X39032D01*
X38942Y71592D01*
X39482Y71142D02*
Y71502D01*
X39662Y71682D01*
X39842Y71502D01*
Y71142D01*
Y71412D01*
X39482D01*
X33273Y71592D02*
X33183Y71682D01*
X33003D01*
X32913Y71592D01*
Y71502D01*
X33003Y71412D01*
X33183D01*
X33273Y71322D01*
Y71232D01*
X33183Y71142D01*
X33003D01*
X32913Y71232D01*
X33723Y71142D02*
X33543D01*
X33453Y71232D01*
Y71412D01*
X33543Y71502D01*
X33723D01*
X33813Y71412D01*
Y71322D01*
X33453D01*
X33993Y71502D02*
Y71142D01*
Y71322D01*
X34083Y71412D01*
X34173Y71502D01*
X34263D01*
X34533Y71142D02*
X34713D01*
X34623D01*
Y71502D01*
X34533D01*
X35073D02*
X35253D01*
X35343Y71412D01*
Y71142D01*
X35073D01*
X34983Y71232D01*
X35073Y71322D01*
X35343D01*
X35523Y71142D02*
X35702D01*
X35613D01*
Y71682D01*
X35523D01*
X27795Y71142D02*
Y71682D01*
X28065D01*
X28155Y71592D01*
Y71412D01*
X28065Y71322D01*
X27795D01*
X28335Y71502D02*
Y71142D01*
Y71322D01*
X28425Y71412D01*
X28515Y71502D01*
X28605D01*
X28965Y71142D02*
X29145D01*
X29235Y71232D01*
Y71412D01*
X29145Y71502D01*
X28965D01*
X28875Y71412D01*
Y71232D01*
X28965Y71142D01*
X29595Y70962D02*
X29685D01*
X29775Y71052D01*
Y71502D01*
X29505D01*
X29415Y71412D01*
Y71232D01*
X29505Y71142D01*
X29775D01*
X29955Y71502D02*
Y71142D01*
Y71322D01*
X30045Y71412D01*
X30135Y71502D01*
X30224D01*
X30584D02*
X30764D01*
X30854Y71412D01*
Y71142D01*
X30584D01*
X30494Y71232D01*
X30584Y71322D01*
X30854D01*
X31034Y71142D02*
Y71502D01*
X31124D01*
X31214Y71412D01*
Y71142D01*
Y71412D01*
X31304Y71502D01*
X31394Y71412D01*
Y71142D01*
X22126Y71682D02*
Y71232D01*
X22216Y71142D01*
X22396D01*
X22486Y71232D01*
Y71682D01*
X23026Y71592D02*
X22936Y71682D01*
X22756D01*
X22666Y71592D01*
Y71502D01*
X22756Y71412D01*
X22936D01*
X23026Y71322D01*
Y71232D01*
X22936Y71142D01*
X22756D01*
X22666Y71232D01*
X23206Y71682D02*
Y71142D01*
X23476D01*
X23566Y71232D01*
Y71322D01*
X23476Y71412D01*
X23206D01*
X23476D01*
X23566Y71502D01*
Y71592D01*
X23476Y71682D01*
X23206D01*
X12880D02*
X12520D01*
Y71142D01*
X12880D01*
X12520Y71412D02*
X12700D01*
X13149Y71592D02*
Y71502D01*
X13060D01*
X13239D01*
X13149D01*
Y71232D01*
X13239Y71142D01*
X13509Y71682D02*
Y71142D01*
Y71412D01*
X13599Y71502D01*
X13779D01*
X13869Y71412D01*
Y71142D01*
X14319D02*
X14139D01*
X14049Y71232D01*
Y71412D01*
X14139Y71502D01*
X14319D01*
X14409Y71412D01*
Y71322D01*
X14049D01*
X14589Y71502D02*
Y71142D01*
Y71322D01*
X14679Y71412D01*
X14769Y71502D01*
X14859D01*
X15129Y71142D02*
Y71502D01*
X15399D01*
X15489Y71412D01*
Y71142D01*
X15939D02*
X15759D01*
X15669Y71232D01*
Y71412D01*
X15759Y71502D01*
X15939D01*
X16029Y71412D01*
Y71322D01*
X15669D01*
X16298Y71592D02*
Y71502D01*
X16208D01*
X16388D01*
X16298D01*
Y71232D01*
X16388Y71142D01*
D12*
X68255Y10397D02*
Y10877D01*
X68494D01*
X68574Y10797D01*
Y10637D01*
X68494Y10557D01*
X68255D01*
X68734Y10717D02*
Y10397D01*
Y10557D01*
X68814Y10637D01*
X68894Y10717D01*
X68974D01*
X69214Y10397D02*
X69374D01*
X69294D01*
Y10717D01*
X69214D01*
X69614Y10397D02*
Y10717D01*
X69694D01*
X69774Y10637D01*
Y10397D01*
Y10637D01*
X69854Y10717D01*
X69934Y10637D01*
Y10397D01*
X70174Y10717D02*
X70334D01*
X70414Y10637D01*
Y10397D01*
X70174D01*
X70094Y10477D01*
X70174Y10557D01*
X70414D01*
X70574Y10717D02*
Y10397D01*
Y10557D01*
X70654Y10637D01*
X70734Y10717D01*
X70814D01*
X71054D02*
Y10477D01*
X71134Y10397D01*
X71374D01*
Y10317D01*
X71294Y10237D01*
X71214D01*
X71374Y10397D02*
Y10717D01*
X68454Y9869D02*
X68375Y9949D01*
X68215D01*
X68135Y9869D01*
Y9549D01*
X68215Y9469D01*
X68375D01*
X68454Y9549D01*
X68854Y9469D02*
X68694D01*
X68614Y9549D01*
Y9709D01*
X68694Y9789D01*
X68854D01*
X68934Y9709D01*
Y9629D01*
X68614D01*
X69094Y9469D02*
X69254D01*
X69174D01*
Y9949D01*
X69094D01*
X69494Y9469D02*
X69654D01*
X69574D01*
Y9949D01*
X69494D01*
X69894Y9789D02*
Y9549D01*
X69974Y9469D01*
X70214D01*
Y9789D01*
X70374Y9469D02*
X70534D01*
X70454D01*
Y9949D01*
X70374D01*
X70854Y9789D02*
X71014D01*
X71094Y9709D01*
Y9469D01*
X70854D01*
X70774Y9549D01*
X70854Y9629D01*
X71094D01*
X71254Y9789D02*
Y9469D01*
Y9629D01*
X71334Y9709D01*
X71414Y9789D01*
X71493D01*
X72441Y10797D02*
X72361Y10877D01*
X72202D01*
X72122Y10797D01*
Y10717D01*
X72202Y10637D01*
X72361D01*
X72441Y10557D01*
Y10477D01*
X72361Y10397D01*
X72202D01*
X72122Y10477D01*
X72841Y10397D02*
X72681D01*
X72601Y10477D01*
Y10637D01*
X72681Y10717D01*
X72841D01*
X72921Y10637D01*
Y10557D01*
X72601D01*
X73401Y10717D02*
X73161D01*
X73081Y10637D01*
Y10477D01*
X73161Y10397D01*
X73401D01*
X73641D02*
X73801D01*
X73881Y10477D01*
Y10637D01*
X73801Y10717D01*
X73641D01*
X73561Y10637D01*
Y10477D01*
X73641Y10397D01*
X74041D02*
Y10717D01*
X74281D01*
X74361Y10637D01*
Y10397D01*
X74841Y10877D02*
Y10397D01*
X74601D01*
X74521Y10477D01*
Y10637D01*
X74601Y10717D01*
X74841D01*
X75081D02*
X75241D01*
X75321Y10637D01*
Y10397D01*
X75081D01*
X75001Y10477D01*
X75081Y10557D01*
X75321D01*
X75480Y10717D02*
Y10397D01*
Y10557D01*
X75560Y10637D01*
X75640Y10717D01*
X75720D01*
X75960D02*
Y10477D01*
X76040Y10397D01*
X76280D01*
Y10317D01*
X76200Y10237D01*
X76120D01*
X76280Y10397D02*
Y10717D01*
X72841Y9869D02*
X72761Y9949D01*
X72601D01*
X72521Y9869D01*
Y9549D01*
X72601Y9469D01*
X72761D01*
X72841Y9549D01*
X73241Y9469D02*
X73081D01*
X73001Y9549D01*
Y9709D01*
X73081Y9789D01*
X73241D01*
X73321Y9709D01*
Y9629D01*
X73001D01*
X73481Y9469D02*
X73641D01*
X73561D01*
Y9949D01*
X73481D01*
X73881Y9469D02*
X74041D01*
X73961D01*
Y9949D01*
X73881D01*
X74281Y9789D02*
Y9549D01*
X74361Y9469D01*
X74601D01*
Y9789D01*
X74761Y9469D02*
X74921D01*
X74841D01*
Y9949D01*
X74761D01*
X75241Y9789D02*
X75401D01*
X75480Y9709D01*
Y9469D01*
X75241D01*
X75161Y9549D01*
X75241Y9629D01*
X75480D01*
X75640Y9789D02*
Y9469D01*
Y9629D01*
X75720Y9709D01*
X75800Y9789D01*
X75880D01*
X77369Y10746D02*
X77049D01*
Y10266D01*
X77369D01*
X77049Y10506D02*
X77209D01*
X77849Y10746D02*
Y10266D01*
X77609D01*
X77529Y10346D01*
Y10506D01*
X77609Y10586D01*
X77849D01*
X78009Y10266D02*
X78169D01*
X78089D01*
Y10586D01*
X78009D01*
X78409Y10266D02*
X78648D01*
X78728Y10346D01*
X78648Y10426D01*
X78489D01*
X78409Y10506D01*
X78489Y10586D01*
X78728D01*
X78968Y10266D02*
X79128D01*
X79208Y10346D01*
Y10506D01*
X79128Y10586D01*
X78968D01*
X78888Y10506D01*
Y10346D01*
X78968Y10266D01*
X79368D02*
Y10586D01*
X79608D01*
X79688Y10506D01*
Y10266D01*
X76609Y9979D02*
Y9499D01*
X76769Y9659D01*
X76929Y9499D01*
Y9979D01*
X77089Y9499D02*
X77249D01*
X77169D01*
Y9819D01*
X77089D01*
X77809Y9979D02*
X77489D01*
Y9739D01*
X77649D01*
X77489D01*
Y9499D01*
X77969D02*
X78129D01*
X78049D01*
Y9819D01*
X77969D01*
X78369Y9499D02*
X78688Y9819D01*
X78848Y9979D02*
Y9499D01*
X79088D01*
X79168Y9579D01*
Y9659D01*
X79088Y9739D01*
X78848D01*
X79088D01*
X79168Y9819D01*
Y9899D01*
X79088Y9979D01*
X78848D01*
X79328D02*
Y9499D01*
X79648D01*
X80128Y9979D02*
X79808D01*
Y9499D01*
X80128D01*
X79808Y9739D02*
X79968D01*
X56422Y11660D02*
X56342Y11740D01*
X56182D01*
X56102Y11660D01*
Y11340D01*
X56182Y11260D01*
X56342D01*
X56422Y11340D01*
X56902Y11660D02*
X56822Y11740D01*
X56662D01*
X56582Y11660D01*
Y11340D01*
X56662Y11260D01*
X56822D01*
X56902Y11340D01*
X57382Y11260D02*
X57062D01*
X57382Y11580D01*
Y11660D01*
X57302Y11740D01*
X57142D01*
X57062Y11660D01*
X57862Y11740D02*
X57542D01*
Y11500D01*
X57702Y11580D01*
X57782D01*
X57862Y11500D01*
Y11340D01*
X57782Y11260D01*
X57622D01*
X57542Y11340D01*
X58022Y11660D02*
X58102Y11740D01*
X58262D01*
X58342Y11660D01*
Y11580D01*
X58262Y11500D01*
X58182D01*
X58262D01*
X58342Y11420D01*
Y11340D01*
X58262Y11260D01*
X58102D01*
X58022Y11340D01*
X58502Y11660D02*
X58582Y11740D01*
X58742D01*
X58821Y11660D01*
Y11580D01*
X58742Y11500D01*
X58821Y11420D01*
Y11340D01*
X58742Y11260D01*
X58582D01*
X58502Y11340D01*
Y11420D01*
X58582Y11500D01*
X58502Y11580D01*
Y11660D01*
X58582Y11500D02*
X58742D01*
X60595Y11740D02*
X60276D01*
Y11260D01*
X60595D01*
X60276Y11500D02*
X60436D01*
X61075Y11740D02*
Y11260D01*
X60835D01*
X60755Y11340D01*
Y11500D01*
X60835Y11580D01*
X61075D01*
X61235Y11260D02*
X61395D01*
X61315D01*
Y11580D01*
X61235D01*
X61635Y11260D02*
X61875D01*
X61955Y11340D01*
X61875Y11420D01*
X61715D01*
X61635Y11500D01*
X61715Y11580D01*
X61955D01*
X62195Y11260D02*
X62355D01*
X62435Y11340D01*
Y11500D01*
X62355Y11580D01*
X62195D01*
X62115Y11500D01*
Y11340D01*
X62195Y11260D01*
X62595D02*
Y11580D01*
X62835D01*
X62915Y11500D01*
Y11260D01*
X68255Y22799D02*
Y23279D01*
X68494D01*
X68574Y23199D01*
Y23039D01*
X68494Y22959D01*
X68255D01*
X68734Y23119D02*
Y22799D01*
Y22959D01*
X68814Y23039D01*
X68894Y23119D01*
X68974D01*
X69214Y22799D02*
X69374D01*
X69294D01*
Y23119D01*
X69214D01*
X69614Y22799D02*
Y23119D01*
X69694D01*
X69774Y23039D01*
Y22799D01*
Y23039D01*
X69854Y23119D01*
X69934Y23039D01*
Y22799D01*
X70174Y23119D02*
X70334D01*
X70414Y23039D01*
Y22799D01*
X70174D01*
X70094Y22879D01*
X70174Y22959D01*
X70414D01*
X70574Y23119D02*
Y22799D01*
Y22959D01*
X70654Y23039D01*
X70734Y23119D01*
X70814D01*
X71054D02*
Y22879D01*
X71134Y22799D01*
X71374D01*
Y22719D01*
X71294Y22639D01*
X71214D01*
X71374Y22799D02*
Y23119D01*
X68454Y22271D02*
X68375Y22351D01*
X68215D01*
X68135Y22271D01*
Y21951D01*
X68215Y21871D01*
X68375D01*
X68454Y21951D01*
X68854Y21871D02*
X68694D01*
X68614Y21951D01*
Y22111D01*
X68694Y22191D01*
X68854D01*
X68934Y22111D01*
Y22031D01*
X68614D01*
X69094Y21871D02*
X69254D01*
X69174D01*
Y22351D01*
X69094D01*
X69494Y21871D02*
X69654D01*
X69574D01*
Y22351D01*
X69494D01*
X69894Y22191D02*
Y21951D01*
X69974Y21871D01*
X70214D01*
Y22191D01*
X70374Y21871D02*
X70534D01*
X70454D01*
Y22351D01*
X70374D01*
X70854Y22191D02*
X71014D01*
X71094Y22111D01*
Y21871D01*
X70854D01*
X70774Y21951D01*
X70854Y22031D01*
X71094D01*
X71254Y22191D02*
Y21871D01*
Y22031D01*
X71334Y22111D01*
X71414Y22191D01*
X71493D01*
X72441Y23199D02*
X72361Y23279D01*
X72202D01*
X72122Y23199D01*
Y23119D01*
X72202Y23039D01*
X72361D01*
X72441Y22959D01*
Y22879D01*
X72361Y22799D01*
X72202D01*
X72122Y22879D01*
X72841Y22799D02*
X72681D01*
X72601Y22879D01*
Y23039D01*
X72681Y23119D01*
X72841D01*
X72921Y23039D01*
Y22959D01*
X72601D01*
X73401Y23119D02*
X73161D01*
X73081Y23039D01*
Y22879D01*
X73161Y22799D01*
X73401D01*
X73641D02*
X73801D01*
X73881Y22879D01*
Y23039D01*
X73801Y23119D01*
X73641D01*
X73561Y23039D01*
Y22879D01*
X73641Y22799D01*
X74041D02*
Y23119D01*
X74281D01*
X74361Y23039D01*
Y22799D01*
X74841Y23279D02*
Y22799D01*
X74601D01*
X74521Y22879D01*
Y23039D01*
X74601Y23119D01*
X74841D01*
X75081D02*
X75241D01*
X75321Y23039D01*
Y22799D01*
X75081D01*
X75001Y22879D01*
X75081Y22959D01*
X75321D01*
X75480Y23119D02*
Y22799D01*
Y22959D01*
X75560Y23039D01*
X75640Y23119D01*
X75720D01*
X75960D02*
Y22879D01*
X76040Y22799D01*
X76280D01*
Y22719D01*
X76200Y22639D01*
X76120D01*
X76280Y22799D02*
Y23119D01*
X72841Y22271D02*
X72761Y22351D01*
X72601D01*
X72521Y22271D01*
Y21951D01*
X72601Y21871D01*
X72761D01*
X72841Y21951D01*
X73241Y21871D02*
X73081D01*
X73001Y21951D01*
Y22111D01*
X73081Y22191D01*
X73241D01*
X73321Y22111D01*
Y22031D01*
X73001D01*
X73481Y21871D02*
X73641D01*
X73561D01*
Y22351D01*
X73481D01*
X73881Y21871D02*
X74041D01*
X73961D01*
Y22351D01*
X73881D01*
X74281Y22191D02*
Y21951D01*
X74361Y21871D01*
X74601D01*
Y22191D01*
X74761Y21871D02*
X74921D01*
X74841D01*
Y22351D01*
X74761D01*
X75241Y22191D02*
X75401D01*
X75480Y22111D01*
Y21871D01*
X75241D01*
X75161Y21951D01*
X75241Y22031D01*
X75480D01*
X75640Y22191D02*
Y21871D01*
Y22031D01*
X75720Y22111D01*
X75800Y22191D01*
X75880D01*
X77369Y23148D02*
X77049D01*
Y22668D01*
X77369D01*
X77049Y22908D02*
X77209D01*
X77849Y23148D02*
Y22668D01*
X77609D01*
X77529Y22748D01*
Y22908D01*
X77609Y22988D01*
X77849D01*
X78009Y22668D02*
X78169D01*
X78089D01*
Y22988D01*
X78009D01*
X78409Y22668D02*
X78648D01*
X78728Y22748D01*
X78648Y22828D01*
X78489D01*
X78409Y22908D01*
X78489Y22988D01*
X78728D01*
X78968Y22668D02*
X79128D01*
X79208Y22748D01*
Y22908D01*
X79128Y22988D01*
X78968D01*
X78888Y22908D01*
Y22748D01*
X78968Y22668D01*
X79368D02*
Y22988D01*
X79608D01*
X79688Y22908D01*
Y22668D01*
X76609Y22380D02*
Y21900D01*
X76769Y22060D01*
X76929Y21900D01*
Y22380D01*
X77089Y21900D02*
X77249D01*
X77169D01*
Y22220D01*
X77089D01*
X77809Y22380D02*
X77489D01*
Y22140D01*
X77649D01*
X77489D01*
Y21900D01*
X77969D02*
X78129D01*
X78049D01*
Y22220D01*
X77969D01*
X78369Y21900D02*
X78688Y22220D01*
X78848Y22380D02*
Y21900D01*
X79088D01*
X79168Y21980D01*
Y22060D01*
X79088Y22140D01*
X78848D01*
X79088D01*
X79168Y22220D01*
Y22300D01*
X79088Y22380D01*
X78848D01*
X79328D02*
Y21900D01*
X79648D01*
X80128Y22380D02*
X79808D01*
Y21900D01*
X80128D01*
X79808Y22140D02*
X79968D01*
X56422Y24061D02*
X56342Y24141D01*
X56182D01*
X56102Y24061D01*
Y23741D01*
X56182Y23661D01*
X56342D01*
X56422Y23741D01*
X56902Y24061D02*
X56822Y24141D01*
X56662D01*
X56582Y24061D01*
Y23741D01*
X56662Y23661D01*
X56822D01*
X56902Y23741D01*
X57382Y23661D02*
X57062D01*
X57382Y23981D01*
Y24061D01*
X57302Y24141D01*
X57142D01*
X57062Y24061D01*
X57862Y24141D02*
X57542D01*
Y23901D01*
X57702Y23981D01*
X57782D01*
X57862Y23901D01*
Y23741D01*
X57782Y23661D01*
X57622D01*
X57542Y23741D01*
X58022Y24061D02*
X58102Y24141D01*
X58262D01*
X58342Y24061D01*
Y23981D01*
X58262Y23901D01*
X58182D01*
X58262D01*
X58342Y23821D01*
Y23741D01*
X58262Y23661D01*
X58102D01*
X58022Y23741D01*
X58502Y24061D02*
X58582Y24141D01*
X58742D01*
X58821Y24061D01*
Y23981D01*
X58742Y23901D01*
X58821Y23821D01*
Y23741D01*
X58742Y23661D01*
X58582D01*
X58502Y23741D01*
Y23821D01*
X58582Y23901D01*
X58502Y23981D01*
Y24061D01*
X58582Y23901D02*
X58742D01*
X60595Y24141D02*
X60276D01*
Y23661D01*
X60595D01*
X60276Y23901D02*
X60436D01*
X61075Y24141D02*
Y23661D01*
X60835D01*
X60755Y23741D01*
Y23901D01*
X60835Y23981D01*
X61075D01*
X61235Y23661D02*
X61395D01*
X61315D01*
Y23981D01*
X61235D01*
X61635Y23661D02*
X61875D01*
X61955Y23741D01*
X61875Y23821D01*
X61715D01*
X61635Y23901D01*
X61715Y23981D01*
X61955D01*
X62195Y23661D02*
X62355D01*
X62435Y23741D01*
Y23901D01*
X62355Y23981D01*
X62195D01*
X62115Y23901D01*
Y23741D01*
X62195Y23661D01*
X62595D02*
Y23981D01*
X62835D01*
X62915Y23901D01*
Y23661D01*
X68255Y35200D02*
Y35680D01*
X68494D01*
X68574Y35600D01*
Y35440D01*
X68494Y35360D01*
X68255D01*
X68734Y35520D02*
Y35200D01*
Y35360D01*
X68814Y35440D01*
X68894Y35520D01*
X68974D01*
X69214Y35200D02*
X69374D01*
X69294D01*
Y35520D01*
X69214D01*
X69614Y35200D02*
Y35520D01*
X69694D01*
X69774Y35440D01*
Y35200D01*
Y35440D01*
X69854Y35520D01*
X69934Y35440D01*
Y35200D01*
X70174Y35520D02*
X70334D01*
X70414Y35440D01*
Y35200D01*
X70174D01*
X70094Y35280D01*
X70174Y35360D01*
X70414D01*
X70574Y35520D02*
Y35200D01*
Y35360D01*
X70654Y35440D01*
X70734Y35520D01*
X70814D01*
X71054D02*
Y35280D01*
X71134Y35200D01*
X71374D01*
Y35120D01*
X71294Y35040D01*
X71214D01*
X71374Y35200D02*
Y35520D01*
X68454Y34672D02*
X68375Y34752D01*
X68215D01*
X68135Y34672D01*
Y34352D01*
X68215Y34272D01*
X68375D01*
X68454Y34352D01*
X68854Y34272D02*
X68694D01*
X68614Y34352D01*
Y34512D01*
X68694Y34592D01*
X68854D01*
X68934Y34512D01*
Y34432D01*
X68614D01*
X69094Y34272D02*
X69254D01*
X69174D01*
Y34752D01*
X69094D01*
X69494Y34272D02*
X69654D01*
X69574D01*
Y34752D01*
X69494D01*
X69894Y34592D02*
Y34352D01*
X69974Y34272D01*
X70214D01*
Y34592D01*
X70374Y34272D02*
X70534D01*
X70454D01*
Y34752D01*
X70374D01*
X70854Y34592D02*
X71014D01*
X71094Y34512D01*
Y34272D01*
X70854D01*
X70774Y34352D01*
X70854Y34432D01*
X71094D01*
X71254Y34592D02*
Y34272D01*
Y34432D01*
X71334Y34512D01*
X71414Y34592D01*
X71493D01*
X72441Y35600D02*
X72361Y35680D01*
X72202D01*
X72122Y35600D01*
Y35520D01*
X72202Y35440D01*
X72361D01*
X72441Y35360D01*
Y35280D01*
X72361Y35200D01*
X72202D01*
X72122Y35280D01*
X72841Y35200D02*
X72681D01*
X72601Y35280D01*
Y35440D01*
X72681Y35520D01*
X72841D01*
X72921Y35440D01*
Y35360D01*
X72601D01*
X73401Y35520D02*
X73161D01*
X73081Y35440D01*
Y35280D01*
X73161Y35200D01*
X73401D01*
X73641D02*
X73801D01*
X73881Y35280D01*
Y35440D01*
X73801Y35520D01*
X73641D01*
X73561Y35440D01*
Y35280D01*
X73641Y35200D01*
X74041D02*
Y35520D01*
X74281D01*
X74361Y35440D01*
Y35200D01*
X74841Y35680D02*
Y35200D01*
X74601D01*
X74521Y35280D01*
Y35440D01*
X74601Y35520D01*
X74841D01*
X75081D02*
X75241D01*
X75321Y35440D01*
Y35200D01*
X75081D01*
X75001Y35280D01*
X75081Y35360D01*
X75321D01*
X75480Y35520D02*
Y35200D01*
Y35360D01*
X75560Y35440D01*
X75640Y35520D01*
X75720D01*
X75960D02*
Y35280D01*
X76040Y35200D01*
X76280D01*
Y35120D01*
X76200Y35040D01*
X76120D01*
X76280Y35200D02*
Y35520D01*
X72841Y34672D02*
X72761Y34752D01*
X72601D01*
X72521Y34672D01*
Y34352D01*
X72601Y34272D01*
X72761D01*
X72841Y34352D01*
X73241Y34272D02*
X73081D01*
X73001Y34352D01*
Y34512D01*
X73081Y34592D01*
X73241D01*
X73321Y34512D01*
Y34432D01*
X73001D01*
X73481Y34272D02*
X73641D01*
X73561D01*
Y34752D01*
X73481D01*
X73881Y34272D02*
X74041D01*
X73961D01*
Y34752D01*
X73881D01*
X74281Y34592D02*
Y34352D01*
X74361Y34272D01*
X74601D01*
Y34592D01*
X74761Y34272D02*
X74921D01*
X74841D01*
Y34752D01*
X74761D01*
X75241Y34592D02*
X75401D01*
X75480Y34512D01*
Y34272D01*
X75241D01*
X75161Y34352D01*
X75241Y34432D01*
X75480D01*
X75640Y34592D02*
Y34272D01*
Y34432D01*
X75720Y34512D01*
X75800Y34592D01*
X75880D01*
X77369Y35549D02*
X77049D01*
Y35070D01*
X77369D01*
X77049Y35310D02*
X77209D01*
X77849Y35549D02*
Y35070D01*
X77609D01*
X77529Y35150D01*
Y35310D01*
X77609Y35390D01*
X77849D01*
X78009Y35070D02*
X78169D01*
X78089D01*
Y35390D01*
X78009D01*
X78409Y35070D02*
X78648D01*
X78728Y35150D01*
X78648Y35230D01*
X78489D01*
X78409Y35310D01*
X78489Y35390D01*
X78728D01*
X78968Y35070D02*
X79128D01*
X79208Y35150D01*
Y35310D01*
X79128Y35390D01*
X78968D01*
X78888Y35310D01*
Y35150D01*
X78968Y35070D01*
X79368D02*
Y35390D01*
X79608D01*
X79688Y35310D01*
Y35070D01*
X76609Y34782D02*
Y34302D01*
X76769Y34462D01*
X76929Y34302D01*
Y34782D01*
X77089Y34302D02*
X77249D01*
X77169D01*
Y34622D01*
X77089D01*
X77809Y34782D02*
X77489D01*
Y34542D01*
X77649D01*
X77489D01*
Y34302D01*
X77969D02*
X78129D01*
X78049D01*
Y34622D01*
X77969D01*
X78369Y34302D02*
X78688Y34622D01*
X78848Y34782D02*
Y34302D01*
X79088D01*
X79168Y34382D01*
Y34462D01*
X79088Y34542D01*
X78848D01*
X79088D01*
X79168Y34622D01*
Y34702D01*
X79088Y34782D01*
X78848D01*
X79328D02*
Y34302D01*
X79648D01*
X80128Y34782D02*
X79808D01*
Y34302D01*
X80128D01*
X79808Y34542D02*
X79968D01*
X56422Y36463D02*
X56342Y36543D01*
X56182D01*
X56102Y36463D01*
Y36143D01*
X56182Y36063D01*
X56342D01*
X56422Y36143D01*
X56902Y36463D02*
X56822Y36543D01*
X56662D01*
X56582Y36463D01*
Y36143D01*
X56662Y36063D01*
X56822D01*
X56902Y36143D01*
X57382Y36063D02*
X57062D01*
X57382Y36383D01*
Y36463D01*
X57302Y36543D01*
X57142D01*
X57062Y36463D01*
X57862Y36543D02*
X57542D01*
Y36303D01*
X57702Y36383D01*
X57782D01*
X57862Y36303D01*
Y36143D01*
X57782Y36063D01*
X57622D01*
X57542Y36143D01*
X58022Y36463D02*
X58102Y36543D01*
X58262D01*
X58342Y36463D01*
Y36383D01*
X58262Y36303D01*
X58182D01*
X58262D01*
X58342Y36223D01*
Y36143D01*
X58262Y36063D01*
X58102D01*
X58022Y36143D01*
X58502Y36463D02*
X58582Y36543D01*
X58742D01*
X58821Y36463D01*
Y36383D01*
X58742Y36303D01*
X58821Y36223D01*
Y36143D01*
X58742Y36063D01*
X58582D01*
X58502Y36143D01*
Y36223D01*
X58582Y36303D01*
X58502Y36383D01*
Y36463D01*
X58582Y36303D02*
X58742D01*
X60595Y36543D02*
X60276D01*
Y36063D01*
X60595D01*
X60276Y36303D02*
X60436D01*
X61075Y36543D02*
Y36063D01*
X60835D01*
X60755Y36143D01*
Y36303D01*
X60835Y36383D01*
X61075D01*
X61235Y36063D02*
X61395D01*
X61315D01*
Y36383D01*
X61235D01*
X61635Y36063D02*
X61875D01*
X61955Y36143D01*
X61875Y36223D01*
X61715D01*
X61635Y36303D01*
X61715Y36383D01*
X61955D01*
X62195Y36063D02*
X62355D01*
X62435Y36143D01*
Y36303D01*
X62355Y36383D01*
X62195D01*
X62115Y36303D01*
Y36143D01*
X62195Y36063D01*
X62595D02*
Y36383D01*
X62835D01*
X62915Y36303D01*
Y36063D01*
X68255Y47602D02*
Y48082D01*
X68494D01*
X68574Y48002D01*
Y47842D01*
X68494Y47762D01*
X68255D01*
X68734Y47922D02*
Y47602D01*
Y47762D01*
X68814Y47842D01*
X68894Y47922D01*
X68974D01*
X69214Y47602D02*
X69374D01*
X69294D01*
Y47922D01*
X69214D01*
X69614Y47602D02*
Y47922D01*
X69694D01*
X69774Y47842D01*
Y47602D01*
Y47842D01*
X69854Y47922D01*
X69934Y47842D01*
Y47602D01*
X70174Y47922D02*
X70334D01*
X70414Y47842D01*
Y47602D01*
X70174D01*
X70094Y47682D01*
X70174Y47762D01*
X70414D01*
X70574Y47922D02*
Y47602D01*
Y47762D01*
X70654Y47842D01*
X70734Y47922D01*
X70814D01*
X71054D02*
Y47682D01*
X71134Y47602D01*
X71374D01*
Y47522D01*
X71294Y47442D01*
X71214D01*
X71374Y47602D02*
Y47922D01*
X68454Y47074D02*
X68375Y47154D01*
X68215D01*
X68135Y47074D01*
Y46754D01*
X68215Y46674D01*
X68375D01*
X68454Y46754D01*
X68854Y46674D02*
X68694D01*
X68614Y46754D01*
Y46914D01*
X68694Y46994D01*
X68854D01*
X68934Y46914D01*
Y46834D01*
X68614D01*
X69094Y46674D02*
X69254D01*
X69174D01*
Y47154D01*
X69094D01*
X69494Y46674D02*
X69654D01*
X69574D01*
Y47154D01*
X69494D01*
X69894Y46994D02*
Y46754D01*
X69974Y46674D01*
X70214D01*
Y46994D01*
X70374Y46674D02*
X70534D01*
X70454D01*
Y47154D01*
X70374D01*
X70854Y46994D02*
X71014D01*
X71094Y46914D01*
Y46674D01*
X70854D01*
X70774Y46754D01*
X70854Y46834D01*
X71094D01*
X71254Y46994D02*
Y46674D01*
Y46834D01*
X71334Y46914D01*
X71414Y46994D01*
X71493D01*
X72441Y48002D02*
X72361Y48082D01*
X72202D01*
X72122Y48002D01*
Y47922D01*
X72202Y47842D01*
X72361D01*
X72441Y47762D01*
Y47682D01*
X72361Y47602D01*
X72202D01*
X72122Y47682D01*
X72841Y47602D02*
X72681D01*
X72601Y47682D01*
Y47842D01*
X72681Y47922D01*
X72841D01*
X72921Y47842D01*
Y47762D01*
X72601D01*
X73401Y47922D02*
X73161D01*
X73081Y47842D01*
Y47682D01*
X73161Y47602D01*
X73401D01*
X73641D02*
X73801D01*
X73881Y47682D01*
Y47842D01*
X73801Y47922D01*
X73641D01*
X73561Y47842D01*
Y47682D01*
X73641Y47602D01*
X74041D02*
Y47922D01*
X74281D01*
X74361Y47842D01*
Y47602D01*
X74841Y48082D02*
Y47602D01*
X74601D01*
X74521Y47682D01*
Y47842D01*
X74601Y47922D01*
X74841D01*
X75081D02*
X75241D01*
X75321Y47842D01*
Y47602D01*
X75081D01*
X75001Y47682D01*
X75081Y47762D01*
X75321D01*
X75480Y47922D02*
Y47602D01*
Y47762D01*
X75560Y47842D01*
X75640Y47922D01*
X75720D01*
X75960D02*
Y47682D01*
X76040Y47602D01*
X76280D01*
Y47522D01*
X76200Y47442D01*
X76120D01*
X76280Y47602D02*
Y47922D01*
X72841Y47074D02*
X72761Y47154D01*
X72601D01*
X72521Y47074D01*
Y46754D01*
X72601Y46674D01*
X72761D01*
X72841Y46754D01*
X73241Y46674D02*
X73081D01*
X73001Y46754D01*
Y46914D01*
X73081Y46994D01*
X73241D01*
X73321Y46914D01*
Y46834D01*
X73001D01*
X73481Y46674D02*
X73641D01*
X73561D01*
Y47154D01*
X73481D01*
X73881Y46674D02*
X74041D01*
X73961D01*
Y47154D01*
X73881D01*
X74281Y46994D02*
Y46754D01*
X74361Y46674D01*
X74601D01*
Y46994D01*
X74761Y46674D02*
X74921D01*
X74841D01*
Y47154D01*
X74761D01*
X75241Y46994D02*
X75401D01*
X75480Y46914D01*
Y46674D01*
X75241D01*
X75161Y46754D01*
X75241Y46834D01*
X75480D01*
X75640Y46994D02*
Y46674D01*
Y46834D01*
X75720Y46914D01*
X75800Y46994D01*
X75880D01*
X77369Y47951D02*
X77049D01*
Y47471D01*
X77369D01*
X77049Y47711D02*
X77209D01*
X77849Y47951D02*
Y47471D01*
X77609D01*
X77529Y47551D01*
Y47711D01*
X77609Y47791D01*
X77849D01*
X78009Y47471D02*
X78169D01*
X78089D01*
Y47791D01*
X78009D01*
X78409Y47471D02*
X78648D01*
X78728Y47551D01*
X78648Y47631D01*
X78489D01*
X78409Y47711D01*
X78489Y47791D01*
X78728D01*
X78968Y47471D02*
X79128D01*
X79208Y47551D01*
Y47711D01*
X79128Y47791D01*
X78968D01*
X78888Y47711D01*
Y47551D01*
X78968Y47471D01*
X79368D02*
Y47791D01*
X79608D01*
X79688Y47711D01*
Y47471D01*
X76609Y47183D02*
Y46703D01*
X76769Y46863D01*
X76929Y46703D01*
Y47183D01*
X77089Y46703D02*
X77249D01*
X77169D01*
Y47023D01*
X77089D01*
X77809Y47183D02*
X77489D01*
Y46943D01*
X77649D01*
X77489D01*
Y46703D01*
X77969D02*
X78129D01*
X78049D01*
Y47023D01*
X77969D01*
X78369Y46703D02*
X78688Y47023D01*
X78848Y47183D02*
Y46703D01*
X79088D01*
X79168Y46783D01*
Y46863D01*
X79088Y46943D01*
X78848D01*
X79088D01*
X79168Y47023D01*
Y47103D01*
X79088Y47183D01*
X78848D01*
X79328D02*
Y46703D01*
X79648D01*
X80128Y47183D02*
X79808D01*
Y46703D01*
X80128D01*
X79808Y46943D02*
X79968D01*
X56422Y48864D02*
X56342Y48944D01*
X56182D01*
X56102Y48864D01*
Y48545D01*
X56182Y48465D01*
X56342D01*
X56422Y48545D01*
X56902Y48864D02*
X56822Y48944D01*
X56662D01*
X56582Y48864D01*
Y48545D01*
X56662Y48465D01*
X56822D01*
X56902Y48545D01*
X57382Y48465D02*
X57062D01*
X57382Y48784D01*
Y48864D01*
X57302Y48944D01*
X57142D01*
X57062Y48864D01*
X57862Y48944D02*
X57542D01*
Y48704D01*
X57702Y48784D01*
X57782D01*
X57862Y48704D01*
Y48545D01*
X57782Y48465D01*
X57622D01*
X57542Y48545D01*
X58022Y48864D02*
X58102Y48944D01*
X58262D01*
X58342Y48864D01*
Y48784D01*
X58262Y48704D01*
X58182D01*
X58262D01*
X58342Y48625D01*
Y48545D01*
X58262Y48465D01*
X58102D01*
X58022Y48545D01*
X58502Y48864D02*
X58582Y48944D01*
X58742D01*
X58821Y48864D01*
Y48784D01*
X58742Y48704D01*
X58821Y48625D01*
Y48545D01*
X58742Y48465D01*
X58582D01*
X58502Y48545D01*
Y48625D01*
X58582Y48704D01*
X58502Y48784D01*
Y48864D01*
X58582Y48704D02*
X58742D01*
X60595Y48944D02*
X60276D01*
Y48465D01*
X60595D01*
X60276Y48704D02*
X60436D01*
X61075Y48944D02*
Y48465D01*
X60835D01*
X60755Y48545D01*
Y48704D01*
X60835Y48784D01*
X61075D01*
X61235Y48465D02*
X61395D01*
X61315D01*
Y48784D01*
X61235D01*
X61635Y48465D02*
X61875D01*
X61955Y48545D01*
X61875Y48625D01*
X61715D01*
X61635Y48704D01*
X61715Y48784D01*
X61955D01*
X62195Y48465D02*
X62355D01*
X62435Y48545D01*
Y48704D01*
X62355Y48784D01*
X62195D01*
X62115Y48704D01*
Y48545D01*
X62195Y48465D01*
X62595D02*
Y48784D01*
X62835D01*
X62915Y48704D01*
Y48465D01*
X68255Y60003D02*
Y60483D01*
X68494D01*
X68574Y60403D01*
Y60243D01*
X68494Y60163D01*
X68255D01*
X68734Y60323D02*
Y60003D01*
Y60163D01*
X68814Y60243D01*
X68894Y60323D01*
X68974D01*
X69214Y60003D02*
X69374D01*
X69294D01*
Y60323D01*
X69214D01*
X69614Y60003D02*
Y60323D01*
X69694D01*
X69774Y60243D01*
Y60003D01*
Y60243D01*
X69854Y60323D01*
X69934Y60243D01*
Y60003D01*
X70174Y60323D02*
X70334D01*
X70414Y60243D01*
Y60003D01*
X70174D01*
X70094Y60083D01*
X70174Y60163D01*
X70414D01*
X70574Y60323D02*
Y60003D01*
Y60163D01*
X70654Y60243D01*
X70734Y60323D01*
X70814D01*
X71054D02*
Y60083D01*
X71134Y60003D01*
X71374D01*
Y59923D01*
X71294Y59843D01*
X71214D01*
X71374Y60003D02*
Y60323D01*
X68454Y59475D02*
X68375Y59555D01*
X68215D01*
X68135Y59475D01*
Y59156D01*
X68215Y59076D01*
X68375D01*
X68454Y59156D01*
X68854Y59076D02*
X68694D01*
X68614Y59156D01*
Y59316D01*
X68694Y59396D01*
X68854D01*
X68934Y59316D01*
Y59236D01*
X68614D01*
X69094Y59076D02*
X69254D01*
X69174D01*
Y59555D01*
X69094D01*
X69494Y59076D02*
X69654D01*
X69574D01*
Y59555D01*
X69494D01*
X69894Y59396D02*
Y59156D01*
X69974Y59076D01*
X70214D01*
Y59396D01*
X70374Y59076D02*
X70534D01*
X70454D01*
Y59555D01*
X70374D01*
X70854Y59396D02*
X71014D01*
X71094Y59316D01*
Y59076D01*
X70854D01*
X70774Y59156D01*
X70854Y59236D01*
X71094D01*
X71254Y59396D02*
Y59076D01*
Y59236D01*
X71334Y59316D01*
X71414Y59396D01*
X71493D01*
X72441Y60403D02*
X72361Y60483D01*
X72202D01*
X72122Y60403D01*
Y60323D01*
X72202Y60243D01*
X72361D01*
X72441Y60163D01*
Y60083D01*
X72361Y60003D01*
X72202D01*
X72122Y60083D01*
X72841Y60003D02*
X72681D01*
X72601Y60083D01*
Y60243D01*
X72681Y60323D01*
X72841D01*
X72921Y60243D01*
Y60163D01*
X72601D01*
X73401Y60323D02*
X73161D01*
X73081Y60243D01*
Y60083D01*
X73161Y60003D01*
X73401D01*
X73641D02*
X73801D01*
X73881Y60083D01*
Y60243D01*
X73801Y60323D01*
X73641D01*
X73561Y60243D01*
Y60083D01*
X73641Y60003D01*
X74041D02*
Y60323D01*
X74281D01*
X74361Y60243D01*
Y60003D01*
X74841Y60483D02*
Y60003D01*
X74601D01*
X74521Y60083D01*
Y60243D01*
X74601Y60323D01*
X74841D01*
X75081D02*
X75241D01*
X75321Y60243D01*
Y60003D01*
X75081D01*
X75001Y60083D01*
X75081Y60163D01*
X75321D01*
X75480Y60323D02*
Y60003D01*
Y60163D01*
X75560Y60243D01*
X75640Y60323D01*
X75720D01*
X75960D02*
Y60083D01*
X76040Y60003D01*
X76280D01*
Y59923D01*
X76200Y59843D01*
X76120D01*
X76280Y60003D02*
Y60323D01*
X72841Y59475D02*
X72761Y59555D01*
X72601D01*
X72521Y59475D01*
Y59156D01*
X72601Y59076D01*
X72761D01*
X72841Y59156D01*
X73241Y59076D02*
X73081D01*
X73001Y59156D01*
Y59316D01*
X73081Y59396D01*
X73241D01*
X73321Y59316D01*
Y59236D01*
X73001D01*
X73481Y59076D02*
X73641D01*
X73561D01*
Y59555D01*
X73481D01*
X73881Y59076D02*
X74041D01*
X73961D01*
Y59555D01*
X73881D01*
X74281Y59396D02*
Y59156D01*
X74361Y59076D01*
X74601D01*
Y59396D01*
X74761Y59076D02*
X74921D01*
X74841D01*
Y59555D01*
X74761D01*
X75241Y59396D02*
X75401D01*
X75480Y59316D01*
Y59076D01*
X75241D01*
X75161Y59156D01*
X75241Y59236D01*
X75480D01*
X75640Y59396D02*
Y59076D01*
Y59236D01*
X75720Y59316D01*
X75800Y59396D01*
X75880D01*
X77369Y60353D02*
X77049D01*
Y59873D01*
X77369D01*
X77049Y60113D02*
X77209D01*
X77849Y60353D02*
Y59873D01*
X77609D01*
X77529Y59953D01*
Y60113D01*
X77609Y60193D01*
X77849D01*
X78009Y59873D02*
X78169D01*
X78089D01*
Y60193D01*
X78009D01*
X78409Y59873D02*
X78648D01*
X78728Y59953D01*
X78648Y60033D01*
X78489D01*
X78409Y60113D01*
X78489Y60193D01*
X78728D01*
X78968Y59873D02*
X79128D01*
X79208Y59953D01*
Y60113D01*
X79128Y60193D01*
X78968D01*
X78888Y60113D01*
Y59953D01*
X78968Y59873D01*
X79368D02*
Y60193D01*
X79608D01*
X79688Y60113D01*
Y59873D01*
X76609Y59585D02*
Y59105D01*
X76769Y59265D01*
X76929Y59105D01*
Y59585D01*
X77089Y59105D02*
X77249D01*
X77169D01*
Y59425D01*
X77089D01*
X77809Y59585D02*
X77489D01*
Y59345D01*
X77649D01*
X77489D01*
Y59105D01*
X77969D02*
X78129D01*
X78049D01*
Y59425D01*
X77969D01*
X78369Y59105D02*
X78688Y59425D01*
X78848Y59585D02*
Y59105D01*
X79088D01*
X79168Y59185D01*
Y59265D01*
X79088Y59345D01*
X78848D01*
X79088D01*
X79168Y59425D01*
Y59505D01*
X79088Y59585D01*
X78848D01*
X79328D02*
Y59105D01*
X79648D01*
X80128Y59585D02*
X79808D01*
Y59105D01*
X80128D01*
X79808Y59345D02*
X79968D01*
X56422Y61266D02*
X56342Y61346D01*
X56182D01*
X56102Y61266D01*
Y60946D01*
X56182Y60866D01*
X56342D01*
X56422Y60946D01*
X56902Y61266D02*
X56822Y61346D01*
X56662D01*
X56582Y61266D01*
Y60946D01*
X56662Y60866D01*
X56822D01*
X56902Y60946D01*
X57382Y60866D02*
X57062D01*
X57382Y61186D01*
Y61266D01*
X57302Y61346D01*
X57142D01*
X57062Y61266D01*
X57862Y61346D02*
X57542D01*
Y61106D01*
X57702Y61186D01*
X57782D01*
X57862Y61106D01*
Y60946D01*
X57782Y60866D01*
X57622D01*
X57542Y60946D01*
X58022Y61266D02*
X58102Y61346D01*
X58262D01*
X58342Y61266D01*
Y61186D01*
X58262Y61106D01*
X58182D01*
X58262D01*
X58342Y61026D01*
Y60946D01*
X58262Y60866D01*
X58102D01*
X58022Y60946D01*
X58502Y61266D02*
X58582Y61346D01*
X58742D01*
X58821Y61266D01*
Y61186D01*
X58742Y61106D01*
X58821Y61026D01*
Y60946D01*
X58742Y60866D01*
X58582D01*
X58502Y60946D01*
Y61026D01*
X58582Y61106D01*
X58502Y61186D01*
Y61266D01*
X58582Y61106D02*
X58742D01*
X60595Y61346D02*
X60276D01*
Y60866D01*
X60595D01*
X60276Y61106D02*
X60436D01*
X61075Y61346D02*
Y60866D01*
X60835D01*
X60755Y60946D01*
Y61106D01*
X60835Y61186D01*
X61075D01*
X61235Y60866D02*
X61395D01*
X61315D01*
Y61186D01*
X61235D01*
X61635Y60866D02*
X61875D01*
X61955Y60946D01*
X61875Y61026D01*
X61715D01*
X61635Y61106D01*
X61715Y61186D01*
X61955D01*
X62195Y60866D02*
X62355D01*
X62435Y60946D01*
Y61106D01*
X62355Y61186D01*
X62195D01*
X62115Y61106D01*
Y60946D01*
X62195Y60866D01*
X62595D02*
Y61186D01*
X62835D01*
X62915Y61106D01*
Y60866D01*
X68255Y72405D02*
Y72885D01*
X68494D01*
X68574Y72805D01*
Y72645D01*
X68494Y72565D01*
X68255D01*
X68734Y72725D02*
Y72405D01*
Y72565D01*
X68814Y72645D01*
X68894Y72725D01*
X68974D01*
X69214Y72405D02*
X69374D01*
X69294D01*
Y72725D01*
X69214D01*
X69614Y72405D02*
Y72725D01*
X69694D01*
X69774Y72645D01*
Y72405D01*
Y72645D01*
X69854Y72725D01*
X69934Y72645D01*
Y72405D01*
X70174Y72725D02*
X70334D01*
X70414Y72645D01*
Y72405D01*
X70174D01*
X70094Y72485D01*
X70174Y72565D01*
X70414D01*
X70574Y72725D02*
Y72405D01*
Y72565D01*
X70654Y72645D01*
X70734Y72725D01*
X70814D01*
X71054D02*
Y72485D01*
X71134Y72405D01*
X71374D01*
Y72325D01*
X71294Y72245D01*
X71214D01*
X71374Y72405D02*
Y72725D01*
X68454Y71877D02*
X68375Y71957D01*
X68215D01*
X68135Y71877D01*
Y71557D01*
X68215Y71477D01*
X68375D01*
X68454Y71557D01*
X68854Y71477D02*
X68694D01*
X68614Y71557D01*
Y71717D01*
X68694Y71797D01*
X68854D01*
X68934Y71717D01*
Y71637D01*
X68614D01*
X69094Y71477D02*
X69254D01*
X69174D01*
Y71957D01*
X69094D01*
X69494Y71477D02*
X69654D01*
X69574D01*
Y71957D01*
X69494D01*
X69894Y71797D02*
Y71557D01*
X69974Y71477D01*
X70214D01*
Y71797D01*
X70374Y71477D02*
X70534D01*
X70454D01*
Y71957D01*
X70374D01*
X70854Y71797D02*
X71014D01*
X71094Y71717D01*
Y71477D01*
X70854D01*
X70774Y71557D01*
X70854Y71637D01*
X71094D01*
X71254Y71797D02*
Y71477D01*
Y71637D01*
X71334Y71717D01*
X71414Y71797D01*
X71493D01*
X72441Y72805D02*
X72361Y72885D01*
X72202D01*
X72122Y72805D01*
Y72725D01*
X72202Y72645D01*
X72361D01*
X72441Y72565D01*
Y72485D01*
X72361Y72405D01*
X72202D01*
X72122Y72485D01*
X72841Y72405D02*
X72681D01*
X72601Y72485D01*
Y72645D01*
X72681Y72725D01*
X72841D01*
X72921Y72645D01*
Y72565D01*
X72601D01*
X73401Y72725D02*
X73161D01*
X73081Y72645D01*
Y72485D01*
X73161Y72405D01*
X73401D01*
X73641D02*
X73801D01*
X73881Y72485D01*
Y72645D01*
X73801Y72725D01*
X73641D01*
X73561Y72645D01*
Y72485D01*
X73641Y72405D01*
X74041D02*
Y72725D01*
X74281D01*
X74361Y72645D01*
Y72405D01*
X74841Y72885D02*
Y72405D01*
X74601D01*
X74521Y72485D01*
Y72645D01*
X74601Y72725D01*
X74841D01*
X75081D02*
X75241D01*
X75321Y72645D01*
Y72405D01*
X75081D01*
X75001Y72485D01*
X75081Y72565D01*
X75321D01*
X75480Y72725D02*
Y72405D01*
Y72565D01*
X75560Y72645D01*
X75640Y72725D01*
X75720D01*
X75960D02*
Y72485D01*
X76040Y72405D01*
X76280D01*
Y72325D01*
X76200Y72245D01*
X76120D01*
X76280Y72405D02*
Y72725D01*
X72841Y71877D02*
X72761Y71957D01*
X72601D01*
X72521Y71877D01*
Y71557D01*
X72601Y71477D01*
X72761D01*
X72841Y71557D01*
X73241Y71477D02*
X73081D01*
X73001Y71557D01*
Y71717D01*
X73081Y71797D01*
X73241D01*
X73321Y71717D01*
Y71637D01*
X73001D01*
X73481Y71477D02*
X73641D01*
X73561D01*
Y71957D01*
X73481D01*
X73881Y71477D02*
X74041D01*
X73961D01*
Y71957D01*
X73881D01*
X74281Y71797D02*
Y71557D01*
X74361Y71477D01*
X74601D01*
Y71797D01*
X74761Y71477D02*
X74921D01*
X74841D01*
Y71957D01*
X74761D01*
X75241Y71797D02*
X75401D01*
X75480Y71717D01*
Y71477D01*
X75241D01*
X75161Y71557D01*
X75241Y71637D01*
X75480D01*
X75640Y71797D02*
Y71477D01*
Y71637D01*
X75720Y71717D01*
X75800Y71797D01*
X75880D01*
X77369Y72754D02*
X77049D01*
Y72274D01*
X77369D01*
X77049Y72514D02*
X77209D01*
X77849Y72754D02*
Y72274D01*
X77609D01*
X77529Y72354D01*
Y72514D01*
X77609Y72594D01*
X77849D01*
X78009Y72274D02*
X78169D01*
X78089D01*
Y72594D01*
X78009D01*
X78409Y72274D02*
X78648D01*
X78728Y72354D01*
X78648Y72434D01*
X78489D01*
X78409Y72514D01*
X78489Y72594D01*
X78728D01*
X78968Y72274D02*
X79128D01*
X79208Y72354D01*
Y72514D01*
X79128Y72594D01*
X78968D01*
X78888Y72514D01*
Y72354D01*
X78968Y72274D01*
X79368D02*
Y72594D01*
X79608D01*
X79688Y72514D01*
Y72274D01*
X76609Y71986D02*
Y71507D01*
X76769Y71667D01*
X76929Y71507D01*
Y71986D01*
X77089Y71507D02*
X77249D01*
X77169D01*
Y71826D01*
X77089D01*
X77809Y71986D02*
X77489D01*
Y71746D01*
X77649D01*
X77489D01*
Y71507D01*
X77969D02*
X78129D01*
X78049D01*
Y71826D01*
X77969D01*
X78369Y71507D02*
X78688Y71826D01*
X78848Y71986D02*
Y71507D01*
X79088D01*
X79168Y71587D01*
Y71667D01*
X79088Y71746D01*
X78848D01*
X79088D01*
X79168Y71826D01*
Y71906D01*
X79088Y71986D01*
X78848D01*
X79328D02*
Y71507D01*
X79648D01*
X80128Y71986D02*
X79808D01*
Y71507D01*
X80128D01*
X79808Y71746D02*
X79968D01*
X56422Y73668D02*
X56342Y73748D01*
X56182D01*
X56102Y73668D01*
Y73348D01*
X56182Y73268D01*
X56342D01*
X56422Y73348D01*
X56902Y73668D02*
X56822Y73748D01*
X56662D01*
X56582Y73668D01*
Y73348D01*
X56662Y73268D01*
X56822D01*
X56902Y73348D01*
X57382Y73268D02*
X57062D01*
X57382Y73588D01*
Y73668D01*
X57302Y73748D01*
X57142D01*
X57062Y73668D01*
X57862Y73748D02*
X57542D01*
Y73508D01*
X57702Y73588D01*
X57782D01*
X57862Y73508D01*
Y73348D01*
X57782Y73268D01*
X57622D01*
X57542Y73348D01*
X58022Y73668D02*
X58102Y73748D01*
X58262D01*
X58342Y73668D01*
Y73588D01*
X58262Y73508D01*
X58182D01*
X58262D01*
X58342Y73428D01*
Y73348D01*
X58262Y73268D01*
X58102D01*
X58022Y73348D01*
X58502Y73668D02*
X58582Y73748D01*
X58742D01*
X58821Y73668D01*
Y73588D01*
X58742Y73508D01*
X58821Y73428D01*
Y73348D01*
X58742Y73268D01*
X58582D01*
X58502Y73348D01*
Y73428D01*
X58582Y73508D01*
X58502Y73588D01*
Y73668D01*
X58582Y73508D02*
X58742D01*
X60595Y73748D02*
X60276D01*
Y73268D01*
X60595D01*
X60276Y73508D02*
X60436D01*
X61075Y73748D02*
Y73268D01*
X60835D01*
X60755Y73348D01*
Y73508D01*
X60835Y73588D01*
X61075D01*
X61235Y73268D02*
X61395D01*
X61315D01*
Y73588D01*
X61235D01*
X61635Y73268D02*
X61875D01*
X61955Y73348D01*
X61875Y73428D01*
X61715D01*
X61635Y73508D01*
X61715Y73588D01*
X61955D01*
X62195Y73268D02*
X62355D01*
X62435Y73348D01*
Y73508D01*
X62355Y73588D01*
X62195D01*
X62115Y73508D01*
Y73348D01*
X62195Y73268D01*
X62595D02*
Y73588D01*
X62835D01*
X62915Y73508D01*
Y73268D01*
M02*
