G04 Layer_Color=16711935*
%FSLAX24Y24*%
%MOIN*%
G70*
G01*
G75*
%ADD13R,0.1772X0.2638*%
%ADD14R,0.0080X0.0080*%
D13*
X90925Y10413D02*
D03*
Y22815D02*
D03*
Y35217D02*
D03*
Y47618D02*
D03*
Y60020D02*
D03*
Y72421D02*
D03*
X8366Y10335D02*
D03*
Y22736D02*
D03*
Y35138D02*
D03*
Y47539D02*
D03*
Y59941D02*
D03*
Y72343D02*
D03*
D14*
X52953Y7106D02*
D03*
Y15571D02*
D03*
X90945D02*
D03*
Y7106D02*
D03*
X65472Y12835D02*
D03*
X69722D02*
D03*
X73972D02*
D03*
X78222D02*
D03*
X82472D02*
D03*
X86722D02*
D03*
X52953Y19508D02*
D03*
Y27972D02*
D03*
X90945D02*
D03*
Y19508D02*
D03*
X65472Y25236D02*
D03*
X69722D02*
D03*
X73972D02*
D03*
X78222D02*
D03*
X82472D02*
D03*
X86722D02*
D03*
X52953Y31909D02*
D03*
Y40374D02*
D03*
X90945D02*
D03*
Y31909D02*
D03*
X65472Y37638D02*
D03*
X69722D02*
D03*
X73972D02*
D03*
X78222D02*
D03*
X82472D02*
D03*
X86722D02*
D03*
X52953Y44311D02*
D03*
Y52776D02*
D03*
X90945D02*
D03*
Y44311D02*
D03*
X65472Y50039D02*
D03*
X69722D02*
D03*
X73972D02*
D03*
X78222D02*
D03*
X82472D02*
D03*
X86722D02*
D03*
X52953Y56713D02*
D03*
Y65177D02*
D03*
X90945D02*
D03*
Y56713D02*
D03*
X65472Y62441D02*
D03*
X69722D02*
D03*
X73972D02*
D03*
X78222D02*
D03*
X82472D02*
D03*
X86722D02*
D03*
X52953Y69114D02*
D03*
Y77579D02*
D03*
X90945D02*
D03*
Y69114D02*
D03*
X65472Y74843D02*
D03*
X69722D02*
D03*
X73972D02*
D03*
X78222D02*
D03*
X82472D02*
D03*
X86722D02*
D03*
X42638Y11811D02*
D03*
X8268Y7106D02*
D03*
Y15571D02*
D03*
X46260D02*
D03*
Y7106D02*
D03*
X42638Y24213D02*
D03*
X8268Y19508D02*
D03*
Y27972D02*
D03*
X46260D02*
D03*
Y19508D02*
D03*
X42638Y36614D02*
D03*
X8268Y31909D02*
D03*
Y40374D02*
D03*
X46260D02*
D03*
Y31909D02*
D03*
X42638Y49016D02*
D03*
X8268Y44311D02*
D03*
Y52776D02*
D03*
X46260D02*
D03*
Y44311D02*
D03*
X42638Y61417D02*
D03*
X8268Y56713D02*
D03*
Y65177D02*
D03*
X46260D02*
D03*
Y56713D02*
D03*
X42638Y73819D02*
D03*
X8268Y69114D02*
D03*
Y77579D02*
D03*
X46260D02*
D03*
Y69114D02*
D03*
M02*
