M48
;Layer_Color=9474304
;FILE_FORMAT=2:4
INCH,LZ
;TYPE=PLATED
T1F00S00C0.0080
T2F00S00C0.0118
T3F00S00C0.0120
T4F00S00C0.0315
T5F00S00C0.0354
T6F00S00C0.0362
T7F00S00C0.0390
T8F00S00C0.0402
T9F00S00C0.0472
T10F00S00C0.0512
T11F00S00C0.0630
T12F00S00C0.0866
T13F00S00C0.0906
T14F00S00C0.1260
T15F00S00C0.1378
T16F00S00C0.1575
;TYPE=NON_PLATED
T17F00S00C0.0390
%
T01
X0198Y012574
X019794Y01288
X019794Y013268
X020494
X020494Y01288
X0205Y012624
X020494Y012368
X02515Y012524
Y012924
Y013324
X02475Y013474
X0259Y013324
Y012924
Y012524
X0255Y015524
X02515
X02475
X0231
X028
X0279Y015274
X02775Y015024
X02765Y014774
X03035Y015024
X0293Y012524
X0322Y014024
X03205Y014374
X03305
X03315Y014024
X03245Y015074
X0317
X03425Y015224
X0345
X03475
X03585Y015074
X0367Y014274
X0371Y014024
X0381
X03785Y014574
X03745Y014974
X053294Y013268
X053294Y01288
X0533Y012574
X054Y012624
X053994Y012368
X053994Y01288
X053994Y013268
X05825Y013474
X05865Y013324
Y012924
Y012524
X0594
Y012924
Y013324
X059Y015524
X05865
X05825
X0566
X0615
X0614Y015274
X06125Y015024
X06115Y014774
X06385Y015024
X0652Y015074
X06595
X06555Y014374
X0657Y014024
X06665
X06655Y014374
X06775Y015224
X068
X06825
X06935Y015074
X0702Y014274
X0706Y014024
X0716
X07135Y014574
X07095Y014974
X0628Y012524
X0868Y012574
X086794Y01288
X086794Y013268
X087494
X087494Y01288
X0875Y012624
X087494Y012368
X09215Y012524
Y012924
Y013324
X09175Y013474
X0929Y013324
Y012924
Y012524
X0925Y015524
X09215
X09175
X0901
X095
X0949Y015274
X09475Y015024
X09465Y014774
X09735Y015024
X0987Y015074
X09945
X09905Y014374
X0992Y014024
X10015
X10005Y014374
X10125Y015224
X1015
X10175
X10285Y015074
X1037Y014274
X1041Y014024
X1051
X10485Y014574
X10445Y014974
X0963Y012524
X1203Y012574
X120294Y01288
X120294Y013268
X120994
X120994Y01288
X121Y012624
X120994Y012368
X1236Y015524
X12525
X12565
X126
X1285
X1284Y015274
X12825Y015024
X12815Y014774
X13085Y015024
X1322Y015074
X13295
X13255Y014374
X1327Y014024
X13365
X13355Y014374
X13475Y015224
X135
X13525
X13635Y015074
X1372Y014274
X1376Y014024
X1386
X13835Y014574
X13795Y014974
X1298Y012524
X1264
Y012924
Y013324
X12565
Y012924
Y012524
X12525Y013474
X1408Y016674
X14105
X1413
X141167Y017507
Y017941
X140733
Y017507
X1408Y018774
X14105
X1413
X142Y018124
Y017874
Y017374
X1431Y021124
X1427Y021524
X1429Y022424
X14235Y023174
X14305Y023574
X14045
X13845
X13835Y022074
X13785Y021974
X137333Y021507
X136467
Y020641
X13595Y020324
X135603Y019801
X136Y019324
X13625Y018874
X136683Y018441
Y018007
X137117
Y018441
X137648Y018822
X1381Y018624
X138477Y018097
X138115Y017657
X13785Y017574
X1371Y017224
X1362Y017024
X135873Y017247
X135323Y017697
X1353Y019024
X13445Y018274
X13415
X13385
X133776Y018674
X132983Y018689
X132117
X13125
X130817Y018255
Y017389
X1304Y017024
X1301Y016474
X13085Y016572
X131117Y016605
X1314Y016622
X132
X1326
X13295
X13345Y017022
X1338Y016472
X134398Y017022
X13255Y017389
X131683
X13125Y017822
X131683Y018255
Y019122
X130817
X13125Y019555
X132117
X13215Y020374
X1324
X133
X1337
X13375Y019572
X132983Y019555
X13255Y019122
Y018255
X132117Y017822
X132983
X13Y017824
X1297Y017974
X12955Y019624
X12985
X12905
Y020274
X12955
X1303
X13025Y021274
X1305
X13075
X131
X13125
X1314Y020322
X13Y021274
X130198Y022622
X1305Y022624
X13085
X13125
X1318Y022324
Y023124
Y023524
Y024124
Y024724
X132Y024878
Y025158
X13225Y025024
X1318Y025724
X131813Y025964
X13185Y026274
X1315
X131099Y025923
Y025057
Y024191
Y023325
X130666Y023758
Y024624
Y02549
X130233Y025923
Y025057
Y024191
Y023325
X1298Y023758
Y024624
Y02549
X129367Y025923
X1293Y026624
X12905
X12955
X13045
X1307Y027774
X1308Y028674
X13
X1314Y028424
X1321Y029174
X1323Y030324
X13205Y030624
X1318Y031074
X13315Y029524
X1327Y026274
X13265Y024124
X1325Y023074
X1333Y022524
X1335Y021974
X135Y021374
X1351Y021074
X13535
X13565
Y021674
X136309Y022765
X136506Y023018
X136703Y022821
X1369Y022974
X137097Y022371
X137294Y022518
X1375Y022674
X1369Y021074
X137333Y020641
X137294Y01983
X136506Y01983
X137845Y020279
X13835Y020024
X13845Y020874
X13815
X138399Y021208
X13875Y017274
X1395Y016874
X1399Y017324
X1396Y017624
Y017874
X1399Y018074
X14055Y018774
Y016674
X14045Y015974
X1364Y016524
X1288Y016024
X12865Y015774
X1277
X12745
X1272
X12695
X1267
X12645
X1258
X1254
X12525Y018274
Y018924
X125304Y020428
X125048Y020426
X12556Y020434
X125816Y02044
X127096Y020428
X12755Y020424
X1276Y023124
X12735Y023524
X1271Y023474
X12685Y023524
X1266
X126072Y023502
X12575Y023674
Y024024
Y024274
X1255Y024524
X1265Y024774
Y025024
Y025274
X12655Y026174
X12775Y026074
X1278Y025724
X128501Y025923
X1285Y026724
X12805Y027074
X12775Y026574
Y024524
X1278Y024174
X128501Y024191
X129367
Y025057
X128934Y02549
Y024624
Y023758
X129367Y023325
X12925Y022624
X1295
X1286
X1282
X128501Y023325
Y025057
X12525Y025674
X1256Y026624
X1262Y028024
X12636Y028524
X12664
X126815Y028689
X1268Y028174
X1271Y029174
X126837Y029774
X126557
X1263
X126
X1259Y029174
X12505Y029524
X125048Y023472
X1263Y018074
X13375Y024774
X1363Y026524
X1372
X13805
X13895
X1398
X1389Y030374
X1227Y028974
X1223
X12185
X12145
X1215Y028622
X121833Y028091
X122267
Y027657
X121833
X121302Y027326
X12165Y026774
X12175Y026524
X12245Y026824
X123Y026274
X12315Y027674
X122798Y028422
X121022Y028002
X12095Y029624
X11895Y030774
X119448Y023472
X12045Y023474
X12075Y023524
X121Y023474
X12125
X1215
X12175
X1223
X1222Y024424
X12405Y024374
X12455
X124552Y023522
X124296Y02352
X12404Y023514
X12465Y026074
X1249Y026624
X124591Y020314
X1243Y020424
X123016Y02044
X12276Y020434
X122504Y020428
X122248Y020426
X1222Y020124
X121752Y020426
X121496Y020428
X12124Y020434
X120984Y02044
X120728Y020452
X11945Y020474
X11905Y018724
X1188Y018624
X1176Y018024
X1175Y019724
X11705
X11655Y019374
X116
X11545Y019874
Y023174
X1151
X11605
X11705Y023074
X11795
X1183Y023624
X1167
X11605Y024774
X1155
X1151
X10955Y023574
X1094Y022424
X1096Y021124
X12035Y017774
X12105Y018224
X1215Y017924
X122Y019174
X12305Y018374
X12335
X12365
X12385Y018724
X123418Y016242
X123103Y016227
X1229Y016224
X12265Y016174
X1224Y016224
X1218Y016374
X12095Y016474
X1205
X12005
X1196
X11915
X1245Y016124
X1078Y016674
X10755
X1073
X10705
X10695Y015974
X107233Y017507
X107667
Y017941
X107233
X1073Y018774
X10755
X1078
X10705
X1064Y018074
X1061Y017874
Y017624
X1064Y017324
X106Y016874
X10525Y017274
X104615Y017657
X10435Y017574
X1036Y017224
X103617Y018007
X103183
Y018441
X103617
X104148Y018822
X1046Y018624
X104977Y018097
X10485Y020024
X104345Y020279
X103833Y020641
X103794Y01983
X103006Y01983
X102967Y020641
X10245Y020324
X102103Y019801
X1025Y019324
X10275Y018874
X1018Y019024
X101823Y017697
X102373Y017247
X1027Y017024
X1029Y016524
X100898Y017022
X09995
X1003Y016472
X09945Y016622
X0991
X0985
X0979
X097617Y016605
X09735Y016572
X0966Y016474
X0969Y017024
X097317Y017389
Y018255
Y019122
X09775Y018689
Y017822
X098183Y017389
Y018255
Y019122
X09775Y019555
X098617
X09865Y020374
X0989
X0995
X1002
X10025Y019572
X099483Y019555
X09905Y019122
X098617Y018689
Y017822
X09905Y017389
Y018255
X099483Y017822
Y018689
X100276Y018674
X10035Y018274
X10065
X10095
X1016Y021074
X10185
X10215
Y021674
X1015Y021374
X102967Y021507
X1034Y021074
X103833Y021507
X10435Y021974
X10485Y022074
X104899Y021208
X10495Y020874
X10465
X104Y022674
X103794Y022518
X103597Y022371
X1034Y022974
X103203Y022821
X103006Y023018
X102809Y022765
X10495Y023574
X10695
X10885Y023174
X1092Y021524
X1085Y018124
Y017874
Y017374
X1063Y026524
X10545
X10455
X1037
X1028
X0992Y026274
X09835
X098313Y025964
X0983Y025724
X0985Y025158
Y024878
X0983Y024724
Y024124
Y023524
Y023124
X099Y023074
X09915Y024124
X09875Y025024
X097599Y025057
Y025923
X098Y026274
X09695Y026624
X09605
X0958
X09555
X095Y026724
X09455Y027074
X09425Y026574
Y026074
X0943Y025724
X095001Y025923
X095867
X096733
X097166Y02549
Y024624
X097599Y024191
Y023325
X09775Y022624
X09735
X097
X096698Y022622
X096Y022624
X09575
X0951
X0947
X095001Y023325
X095867
X096733
X097166Y023758
X096733Y024191
Y025057
X0963Y02549
Y024624
Y023758
X095867Y024191
Y025057
X095434Y02549
Y024624
Y023758
X095001Y024191
X0943Y024174
X09425Y024524
X095001Y025057
X09385Y023524
X0941Y023124
X09405Y020424
X09555Y020274
X09605
Y019624
X09635
X09555
X0968Y020274
X09675Y021274
X097
X09725
X0975
X09775
X0979Y020322
X0965Y021274
X0983Y022324
X0998Y022524
X1Y021974
X10025Y024774
X09965Y029524
X0986Y029174
X0988Y030324
X09855Y030624
X0983Y031074
X0979Y028424
X0973Y028674
X0965
X0972Y027774
X0965Y017824
X0962Y017974
X0953Y016024
X09515Y015774
X0942
X09395
X1054Y030374
X093337Y029774
X093057
X0928
X0925
X0924Y029174
X09286Y028524
X09314
X093315Y028689
X0933Y028174
X0927Y028024
X0921Y026624
X0914
X09115Y026074
X09175Y025674
X092Y024524
X09225Y024274
Y024024
Y023674
X092572Y023502
X0931Y023524
X09335
X0936Y023474
X093Y024774
Y025024
Y025274
X09305Y026174
X0936Y029174
X09155Y029524
X0892Y028974
X0888
X08835
X08795
X088Y028622
X088333Y028091
X088767
Y027657
X088333
X087802Y027326
X08815Y026774
X08825Y026524
X08895Y026824
X0895Y026274
X08965Y027674
X089298Y028422
X087522Y028002
X08745Y029624
X08545Y030774
X085948Y023472
X08695Y023474
X08725Y023524
X0875Y023474
X08775
X088
X08825
X0888
X0887Y024424
X09055Y024374
X09105
X091052Y023522
X090796Y02352
X09054Y023514
X091548Y023472
Y020426
X091804Y020428
X09206Y020434
X092316Y02044
X093596Y020428
X091091Y020314
X0908Y020424
X089516Y02044
X08926Y020434
X089004Y020428
X088748Y020426
X0887Y020124
X088252Y020426
X087996Y020428
X08774Y020434
X087484Y02044
X087228Y020452
X08595Y020474
X08555Y018724
X0853Y018624
X0841Y018024
X084Y019724
X08355
X08305Y019374
X0825
X08195Y019874
Y023174
X0816
X08255
X08355Y023074
X08445
X0848Y023624
X0832
X08255Y024774
X082
X0816
X08685Y017774
X08755Y018224
X088Y017924
X0885Y019174
X08955Y018374
X08985
X09015
X09035Y018724
X09175Y018924
Y018274
X0928Y018074
X09295Y015774
X0932
X09345
X0937
X0923
X0919
X091Y016124
X089918Y016242
X089603Y016227
X0894Y016224
X08915Y016174
X0889Y016224
X0883Y016374
X08745Y016474
X087
X08655
X0861
X08565
X0743Y016674
X07405
X0738
X07355
X07345Y015974
X073733Y017507
X074167
Y017941
X073733
X0738Y018774
X07405
X0743
X07355
X0729Y018074
X0726Y017874
Y017624
X0729Y017324
X0725Y016874
X07175Y017274
X071115Y017657
X07085Y017574
X0701Y017224
X070117Y018007
X069683
Y018441
X070117
X070648Y018822
X0711Y018624
X071477Y018097
X07135Y020024
X070845Y020279
X070333Y020641
X070294Y01983
X069506Y01983
X069467Y020641
X06895Y020324
X068603Y019801
X069Y019324
X06925Y018874
X0683Y019024
X068323Y017697
X068873Y017247
X0692Y017024
X0694Y016524
X067398Y017022
X06645
X0668Y016472
X06595Y016622
X0656
X065
X0644
X064117Y016605
X06385Y016572
X0631Y016474
X0634Y017024
X063817Y017389
Y018255
Y019122
X06425Y018689
Y017822
X064683Y017389
Y018255
Y019122
X06425Y019555
X065117
X06515Y020374
X0654
X066
X0667
X06675Y019572
X065983Y019555
X06555Y019122
X065117Y018689
Y017822
X06555Y017389
Y018255
X065983Y017822
Y018689
X066776Y018674
X06685Y018274
X06715
X06745
X0681Y021074
X06835
X06865
Y021674
X068Y021374
X069467Y021507
X0699Y021074
X070333Y021507
X07085Y021974
X07135Y022074
X071399Y021208
X07145Y020874
X07115
X0705Y022674
X070294Y022518
X070097Y022371
X0699Y022974
X069703Y022821
X069506Y023018
X069309Y022765
X07145Y023574
X07345
X07535Y023174
X07605Y023574
X0759Y022424
X0757Y021524
X0761Y021124
X075Y018124
Y017874
Y017374
X0728Y026524
X07195
X07105
X0702
X0693
X0657Y026274
X06485
X064813Y025964
X0648Y025724
X065Y025158
Y024878
X0648Y024724
Y024124
Y023524
Y023124
X0655Y023074
X06565Y024124
X06525Y025024
X064099Y025057
Y025923
X0645Y026274
X06345Y026624
X06255
X063233Y025923
X063666Y02549
Y024624
X064099Y024191
Y023325
X06425Y022624
X06385
X0635
X063198Y022622
X0625Y022624
X063233Y023325
X063666Y023758
X063233Y024191
Y025057
X0628Y02549
Y024624
Y023758
X063Y021274
X06325
X0635
X06375
X064
X06425
X0644Y020322
X0633Y020274
X06255
Y019624
X06285
X0627Y017974
X063Y017824
X0648Y022324
X0663Y022524
X0665Y021974
X06675Y024774
X06615Y029524
X0651Y029174
X0653Y030324
X06505Y030624
X0648Y031074
X0644Y028424
X0638Y028674
X063
X0637Y027774
X0719Y030374
X059837Y029774
X059557
X0593
X059
X0589Y029174
X05936Y028524
X05964
X059815Y028689
X0598Y028174
X0592Y028024
X0586Y026624
X0579
X05765Y026074
X05825Y025674
X0585Y024524
X05875Y024274
Y024024
Y023674
X059072Y023502
X0596Y023524
X05985
X0601Y023474
X06035Y023524
X0606Y023124
X0612Y022624
X0616
X06225
X062367Y023325
Y024191
Y025057
Y025923
X0623Y026624
X06205
X0615Y026724
X06105Y027074
X06075Y026574
Y026074
X0608Y025724
X061501Y025923
X061934Y02549
Y024624
Y023758
X061501Y024191
X0608Y024174
X06075Y024524
X061501Y025057
Y023325
X0595Y024774
Y025024
Y025274
X05955Y026174
X0601Y029174
X05805Y029524
X0557Y028974
X0553
X05485
X05445
X0545Y028622
X054833Y028091
X055267
Y027657
X054833
X054302Y027326
X05465Y026774
X05475Y026524
X05545Y026824
X056Y026274
X05615Y027674
X055798Y028422
X054022Y028002
X05395Y029624
X05195Y030774
X052448Y023472
X05345Y023474
X05375Y023524
X054Y023474
X05425
X0545
X05475
X0553
X0552Y024424
X05705Y024374
X05755
X057552Y023522
X057296Y02352
X05704Y023514
X058048Y023472
Y020426
X058304Y020428
X05856Y020434
X058816Y02044
X060096Y020428
X06055Y020424
X06205Y020274
Y019624
X0618Y016024
X06165Y015774
X0607
X06045
X0602
X05995
X0597
X05945
X0588
X0584
X0575Y016124
X056418Y016242
X056103Y016227
X0559Y016224
X05565Y016174
X0554Y016224
X0548Y016374
X05395Y016474
X0535
X05305
X0526
X05215
X05205Y018724
X0518Y018624
X0506Y018024
X0505Y019724
X05005
X04955Y019374
X049
X04845Y019874
Y023174
X0481
X04905
X05005Y023074
X05095
X0513Y023624
X0497
X04905Y024774
X0485
X0481
X05245Y020474
X053728Y020452
X053984Y02044
X05424Y020434
X054496Y020428
X054752Y020426
X055248
X055504Y020428
X05576Y020434
X056016Y02044
X0552Y020124
X055Y019174
X0545Y017924
X05405Y018224
X05335Y017774
X05605Y018374
X05635
X05665
X05685Y018724
X05825Y018924
Y018274
X0593Y018074
X057591Y020314
X0573Y020424
X0426Y021124
X0422Y021524
X0424Y022424
X04185Y023174
X04255Y023574
X03995
X03795
X03785Y022074
X03735Y021974
X036833Y021507
X035967
Y020641
X03545Y020324
X035103Y019801
X0355Y019324
X03575Y018874
X036183Y018441
Y018007
X036617
Y018441
X037148Y018822
X0376Y018624
X037977Y018097
X037615Y017657
X03735Y017574
X0366Y017224
X0357Y017024
X035373Y017247
X034823Y017697
X0348Y019024
X03395Y018274
X03365
X03335
X033276Y018674
X032483Y018689
X031617
Y017822
X03205Y017389
X0321Y016622
X03245
X03295Y017022
X0333Y016472
X033898Y017022
X032483Y017822
X03205Y018255
Y019122
X031617Y019555
X03165Y020374
X0319
X0325
X0332
X03325Y019572
X032483Y019555
X033Y021974
X0328Y022524
X032Y023074
X0313Y023124
Y023524
Y024124
Y024724
X0315Y024878
Y025158
X03175Y025024
X0313Y025724
X031313Y025964
X03135Y026274
X0322
X03215Y024124
X03325Y024774
X0358Y026524
X0367
X03755
X03845
X0393
X0384Y030374
X03265Y029524
X0316Y029174
X0318Y030324
X03155Y030624
X0313Y031074
Y022324
X0345Y021374
X0346Y021074
X03485
X03515
Y021674
X035809Y022765
X036006Y023018
X036203Y022821
X0364Y022974
X036597Y022371
X036794Y022518
X037Y022674
X0364Y021074
X036833Y020641
X036794Y01983
X036006Y01983
X037345Y020279
X03785Y020024
X03795Y020874
X03765
X037899Y021208
X03825Y017274
X039Y016874
X0394Y017324
X0391Y017624
Y017874
X0394Y018074
X040233Y017941
X040667
Y017507
X040233
X0403Y016674
X04055
X0408
X04005
X03995Y015974
X04005Y018774
X0403
X04055
X0408
X0415Y018124
Y017874
Y017374
X0359Y016524
X0315Y016622
X0309
X030617Y016605
X03035Y016572
X0296Y016474
X0299Y017024
X030317Y017389
Y018255
Y019122
X03075Y018689
Y017822
X031183Y017389
Y018255
Y019122
X03075Y019555
X0309Y020322
X03075Y021274
X0305
X03025
X03
X02975
X0295
X0298Y020274
X02905
X02855
Y019624
X02905
X02935
X0292Y017974
X0295Y017824
X0283Y016024
X02815Y015774
X0272
X02695
X0267
X02645
X0262
X02595
X0253
X0249
X024Y016124
X022918Y016242
X022603Y016227
X0224Y016224
X02215Y016174
X0219Y016224
X0213Y016374
X02045Y016474
X02
X01955
X0191
X01865
X01855Y018724
X0183Y018624
X0171Y018024
X017Y019724
X01655
X01605Y019374
X01895Y020474
X020228Y020452
X020484Y02044
X02074Y020434
X020996Y020428
X021252Y020426
X021748
X022004Y020428
X02226Y020434
X022516Y02044
X0217Y020124
X0215Y019174
X021Y017924
X02055Y018224
X01985Y017774
X02255Y018374
X02285
X02315
X02335Y018724
X02475Y018924
Y018274
X0258Y018074
X025316Y02044
X02506Y020434
X024804Y020428
X024548Y020426
X024091Y020314
X0238Y020424
X026596Y020428
X02705Y020424
X0271Y023124
X02685Y023524
X0266Y023474
X02635Y023524
X0261
X025572Y023502
X02525Y023674
Y024024
Y024274
X025Y024524
X02405Y024374
X02355
X02354Y023514
X023796Y02352
X024052Y023522
X024548Y023472
X02475Y025674
X02415Y026074
X0244Y026624
X0251
X02605Y026174
X026Y025274
Y025024
Y024774
X02725Y024524
X0273Y024174
X028001Y024191
X028867
X029733
X030599
Y025057
Y025923
X031Y026274
X02995Y026624
X02905
X0288
X02855
X028Y026724
X02755Y027074
X02725Y026574
Y026074
X0273Y025724
X028001Y025923
X028867
X029733
X030166Y02549
Y024624
Y023758
X030599Y023325
X03075Y022624
X03035
X03
X029698Y022622
X029Y022624
X02875
X0281
X0277
X028001Y023325
X028867
X029733
X0293Y023758
Y024624
X029733Y025057
X0293Y02549
X028867Y025057
X028434Y02549
Y024624
Y023758
X028001Y025057
X0263Y028174
X02614Y028524
X02586
X026315Y028689
X0266Y029174
X026337Y029774
X026057
X0258
X0255
X0254Y029174
X02455Y029524
X0257Y028024
X02265Y027674
X021767Y027657
Y028091
X021333
Y027657
X020802Y027326
X02115Y026774
X02125Y026524
X02195Y026824
X0225Y026274
X022298Y028422
X0222Y028974
X0218
X02135
X02095
X021Y028622
X020522Y028002
X02045Y029624
X01845Y030774
X018948Y023472
X01995Y023474
X02025Y023524
X0205Y023474
X02075
X021
X02125
X0218
X0217Y024424
X0178Y023624
X01745Y023074
X01655
X0162Y023624
X0302Y027774
X0303Y028674
X0295
X0309Y028424
X01555Y024774
X015
X0146
Y023174
X01495
X01555
X0155Y019374
X01495Y019874
Y042024
X0155Y041524
X01555Y045324
X01495
X0146
X01655Y045224
X01745
X0178Y045774
X018948Y045622
X01995Y045624
X02025Y045674
X0205Y045624
X02075
X021
X02125
X0218
X0217Y046574
X02355Y046524
X02405
X024052Y045672
X023796Y04567
X02354Y045664
X024548Y045622
X02525Y045824
Y046174
Y046424
X025Y046674
X025572Y045652
X0261Y045674
X02635
X0266Y045624
X02685Y045674
X0271Y045274
X0277Y044774
X0281
X02875
X029
X029698Y044772
X03Y044774
X03035
X03075
X030599Y045475
Y046341
X030166Y046774
Y045908
X029733Y046341
Y045475
X0293Y045908
Y046774
X028867Y046341
Y045475
X028434Y045908
Y046774
X028001Y046341
X0273Y046324
X02725Y046674
X028001Y045475
X0295Y043424
X02975
X03
X03025
X0305
X03075
X0309Y042472
X03075Y041705
X030317Y041272
Y040405
Y039539
X0299Y039174
X0296Y038624
X03035Y038722
X030617Y038755
X0309Y038772
X031183Y039539
X03075Y039972
Y040839
X031183Y040405
Y041272
X02935Y041774
X02905
X02855
Y042424
X02905
X0298
X0295Y039974
X0292Y040124
X0283Y038174
X02815Y037924
X028Y037674
X0279Y037424
X02775Y037174
X02765Y036924
X0272Y037924
X02695
X0267
X02645
X0262
X02595
X0253
X0249
X02475Y037674
X02515
X0255
X024Y038274
X022918Y038392
X022603Y038377
X0224Y038374
X02215Y038324
X0219Y038374
X0213Y038524
X02045Y038624
X02
X01955
X0191
X01865
X01855Y040874
X0183Y040774
X0171Y040174
X017Y041874
X01655
X01605Y041524
X01895Y042624
X020228Y042602
X020484Y04259
X02074Y042584
X020996Y042578
X021252Y042576
X021748
X022004Y042578
X02226Y042584
X022516Y04259
X0217Y042274
X0215Y041324
X021Y040074
X02055Y040374
X01985Y039924
X02255Y040524
X02285
X02315
X02335Y040874
X02475Y041074
Y040424
X0258Y040224
X025316Y04259
X02506Y042584
X024804Y042578
X024548Y042576
X024091Y042464
X0238Y042574
X026596Y042578
X02705Y042574
X0259Y035474
Y035074
Y034674
X02515
Y035074
Y035474
X02475Y035624
X0231Y037674
X020494Y035418
X020494Y03503
X0205Y034774
X020494Y034518
X0198Y034724
X019794Y03503
X019794Y035418
X0293Y034674
X03035Y037174
X0162Y045774
X0313Y045674
Y045274
X032Y045224
X03215Y046274
X0313
Y046874
Y044474
X0328Y044674
X033Y044124
X0332Y042524
X0325
X0319
X03165
X031617Y041705
Y040839
Y039972
X03205Y039539
X0321Y038772
X03245
X03295Y039172
X0333Y038622
X033898Y039172
X03395Y040424
X03365
X03335
X033276Y040824
X032483Y040839
X03205Y040405
Y041272
X032483Y041705
X03325Y041722
X035103Y041951
X03545Y042474
X035967Y042791
X036006Y04198
X036794Y04198
X036833Y042791
X0364Y043224
X035967Y043657
X036833
X03735Y044124
X03785Y044224
X037899Y043358
X03795Y043024
X03765
X037345Y042429
X03785Y042174
X0376Y040774
X037148Y040972
X036617Y040591
X036183
Y040157
X036617
X0366Y039374
X0357Y039174
X035373Y039397
X034823Y039847
X0348Y041174
X0355Y041474
X03575Y041024
X0359Y038674
X03585Y037224
X03475Y037374
X0345
X03425
X03245Y037224
X0317
X03205Y036524
X0322Y036174
X03315
X03305Y036524
X0367Y036424
X0371Y036174
X0381
X03785Y036724
X03745Y037124
X03735Y039724
X037615Y039807
X037977Y040247
X03825Y039424
X039Y039024
X0394Y039474
X0391Y039774
Y040024
X0394Y040224
X040233Y04009
X040667
Y039657
X040233
X0403Y038824
X04055
X0408
X04005
X03995Y038124
X04005Y040924
X0403
X04055
X0408
X0415Y040274
Y040024
Y039524
X0426Y043274
X0422Y043674
X0424Y044574
X04185Y045324
X04255Y045724
X03995
X03795
X037Y044824
X036794Y044668
X036597Y044521
X0364Y045124
X036203Y044971
X036006Y045168
X035809Y044915
X03515Y043824
Y043224
X03485
X0346
X0345Y043524
X032483Y039972
X0315Y038772
X03545Y031674
X0533Y034724
X053294Y03503
X053294Y035418
X053994
X053994Y03503
X054Y034774
X053994Y034518
X05395Y038624
X0535
X05305
X0526
X05215
X05205Y040874
X0518Y040774
X0506Y040174
X0505Y041874
X05005
X04955Y041524
X049
X04845Y042024
Y045324
X0481
X04905
X05005Y045224
X05095
X0513Y045774
X052448Y045622
X05345Y045624
X05375Y045674
X054Y045624
X05425
X0545
X05475
X0553
X0552Y046574
X05705Y046524
X05755
X057552Y045672
X057296Y04567
X05704Y045664
X058048Y045622
X05875Y045824
Y046174
Y046424
X0585Y046674
X059072Y045652
X0596Y045674
X05985
X0601Y045624
X06035Y045674
X0606Y045274
X0612Y044774
X0616
X06225
X062367Y045475
Y046341
X061934Y046774
Y045908
X061501Y046341
X0608Y046324
X06075Y046674
X061501Y045475
X06205Y042424
Y041774
X06055Y042574
X060096Y042578
X058816Y04259
X05856Y042584
X058304Y042578
X058048Y042576
X057591Y042464
X0573Y042574
X056016Y04259
X05576Y042584
X055504Y042578
X055248Y042576
X0552Y042274
X054752Y042576
X054496Y042578
X05424Y042584
X053984Y04259
X053728Y042602
X05245Y042624
X05335Y039924
X05405Y040374
X0545Y040074
X055Y041324
X05605Y040524
X05635
X05665
X05685Y040874
X05825Y041074
Y040424
X0593Y040224
X05945Y037924
X0597
X05995
X0602
X06045
X0607
X06165
X0618Y038174
X0615Y037674
X0614Y037424
X06125Y037174
X06115Y036924
X059Y037674
X05865
X05825
X0584Y037924
X0588
X0575Y038274
X056418Y038392
X056103Y038377
X0559Y038374
X05565Y038324
X0554Y038374
X0548Y038524
X0566Y037674
X05825Y035624
X05865Y035474
Y035074
Y034674
X0594
Y035074
Y035474
X0497Y045774
X0628Y045908
X063666
X064099Y046341
X0648Y046274
Y045674
Y045274
X0655Y045224
X06565Y046274
X0648Y046874
X063666Y046774
X063233Y046341
Y045475
X063198Y044772
X0635Y044774
X06385
X06425
X0648Y044474
X06425Y043424
X064
X06375
X0635
X06325
X063
X0633Y042424
X06255
Y041774
X06285
X063817Y041272
Y040405
Y039539
X0634Y039174
X0631Y038624
X06385Y038722
X064117Y038755
X0644Y038772
X065
X0656
X06595
X06645Y039172
X0668Y038622
X067398Y039172
X06745Y040424
X06715
X06685
X066776Y040824
X065983Y040839
X065117
X06425
Y039972
X064683Y039539
Y040405
Y041272
X06425Y041705
X065117
X06515Y042524
X0654
X066
X0667
X06675Y041722
X065983Y041705
X06555Y041272
Y040405
X065117Y039972
X06555Y039539
X065983Y039972
X068323Y039847
X068873Y039397
X0692Y039174
X0694Y038674
X0701Y039374
X070117Y040157
X069683
Y040591
X070117
X070648Y040972
X0711Y040774
X071477Y040247
X071115Y039807
X07085Y039724
X07175Y039424
X0725Y039024
X0729Y039474
X0726Y039774
Y040024
X0729Y040224
X073733Y04009
X074167
Y039657
X073733
X0738Y038824
X07405
X0743
X07355
X07345Y038124
X07355Y040924
X0738
X07405
X0743
X075Y040274
Y040024
Y039524
X0761Y043274
X0757Y043674
X0759Y044574
X07535Y045324
X07605Y045724
X07345
X07145
X07135Y044224
X07085Y044124
X070333Y043657
X069467
Y042791
X06895Y042474
X068603Y041951
X069Y041474
X06925Y041024
X0683Y041174
X069506Y04198
X070294Y04198
X070333Y042791
X0699Y043224
X06865
X06835
X0681
X068Y043524
X06865Y043824
X069309Y044915
X069506Y045168
X069703Y044971
X0699Y045124
X070097Y044521
X070294Y044668
X0705Y044824
X071399Y043358
X07145Y043024
X07115
X070845Y042429
X07135Y042174
Y036724
X0716Y036174
X0706
X0702Y036424
X07095Y037124
X06935Y037224
X06825Y037374
X068
X06775
X06595Y037224
X0652
X06555Y036524
X0657Y036174
X06665
X06655Y036524
X06385Y037174
X0628Y034674
X063Y039974
X0627Y040124
X0644Y042472
X064099Y045475
X0625Y044774
X0628Y046774
X0663Y044674
X0665Y044124
X06895Y031674
X0868Y034724
X086794Y03503
X086794Y035418
X087494
X087494Y03503
X0875Y034774
X087494Y034518
X08745Y038624
X087
X08655
X0861
X08565
X08555Y040874
X0853Y040774
X0841Y040174
X084Y041874
X08355
X08305Y041524
X0825
X08195Y042024
Y045324
X0816
X08255
X08355Y045224
X08445
X0848Y045774
X085948Y045622
X08695Y045624
X08725Y045674
X0875Y045624
X08775
X088
X08825
X0888
X0887Y046574
X09055Y046524
X09105
X091052Y045672
X090796Y04567
X09054Y045664
X091548Y045622
X09225Y045824
Y046174
Y046424
X092Y046674
X092572Y045652
X0931Y045674
X09335
X0936Y045624
X093596Y042578
X092316Y04259
X09206Y042584
X091804Y042578
X091548Y042576
X091091Y042464
X0908Y042574
X089516Y04259
X08926Y042584
X089004Y042578
X088748Y042576
X0887Y042274
X088252Y042576
X087996Y042578
X08774Y042584
X087484Y04259
X087228Y042602
X08595Y042624
X08685Y039924
X08755Y040374
X088Y040074
X0885Y041324
X08955Y040524
X08985
X09015
X09035Y040874
X09175Y041074
Y040424
X0928Y040224
X09295Y037924
X0932
X09345
X0937
X0923
X0919
X09175Y037674
X09215
X0925
X091Y038274
X089918Y038392
X089603Y038377
X0894Y038374
X08915Y038324
X0889Y038374
X0883Y038524
X0901Y037674
X09175Y035624
X09215Y035474
Y035074
Y034674
X0929
Y035074
Y035474
X0832Y045774
X09385Y045674
X0941Y045274
X0947Y044774
X0951
X09575
X096
X096698Y044772
X097Y044774
X09735
X09775
X0983Y044474
Y045274
Y045674
Y046274
Y046874
X097599Y046341
Y045475
X097166Y045908
Y046774
X096733Y046341
Y045475
X0963Y045908
Y046774
X095867Y046341
Y045475
X095434Y045908
Y046774
X095001Y046341
X0943Y046324
X09425Y046674
X095001Y045475
X0965Y043424
X09675
X097
X09725
X0975
X09775
X0979Y042472
X09865Y042524
X0989
X0995
X1002
X10025Y041722
X099483Y041705
X098617
X09775
X097317Y041272
Y040405
Y039539
X0969Y039174
X0966Y038624
X09735Y038722
X097617Y038755
X0979Y038772
X0985
X0991
X09945
X09995Y039172
X1003Y038622
X100898Y039172
X10095Y040424
X10065
X10035
X100276Y040824
X099483Y040839
X098617
X09775
Y039972
X098183Y039539
Y040405
Y041272
X09905
Y040405
X098617Y039972
X09905Y039539
X099483Y039972
X101823Y039847
X102373Y039397
X1027Y039174
X1029Y038674
X1036Y039374
X103617Y040157
X103183
Y040591
X103617
X104148Y040972
X1046Y040774
X104977Y040247
X104615Y039807
X10435Y039724
X10525Y039424
X106Y039024
X1064Y039474
X1061Y039774
Y040024
X1064Y040224
X107233Y04009
X107667
Y039657
X107233
X1073Y038824
X10755
X1078
X10705
X10695Y038124
X10705Y040924
X1073
X10755
X1078
X1085Y040274
Y040024
Y039524
X1092Y043674
X10885Y045324
X10695Y045724
X10495
X10485Y044224
X10435Y044124
X103833Y043657
X102967
Y042791
X10245Y042474
X102103Y041951
X1025Y041474
X10275Y041024
X1018Y041174
X103006Y04198
X103794Y04198
X103833Y042791
X1034Y043224
X10215
X10185
X1016
X1015Y043524
X10215Y043824
X102809Y044915
X103006Y045168
X103203Y044971
X1034Y045124
X103597Y044521
X103794Y044668
X104Y044824
X104899Y043358
X10495Y043024
X10465
X104345Y042429
X10485Y042174
Y036724
X1051Y036174
X1041
X1037Y036424
X10445Y037124
X10285Y037224
X10175Y037374
X1015
X10125
X09945Y037224
X0987
X09905Y036524
X0992Y036174
X10015
X10005Y036524
X09735Y037174
X09475
X09465Y036924
X0949Y037424
X095Y037674
X09515Y037924
X0953Y038174
X0942Y037924
X09395
X0962Y040124
X0965Y039974
X09635Y041774
X09605
X09555
Y042424
X09605
X0968
X09405Y042574
X1Y044124
X0998Y044674
X099Y045224
X09915Y046274
X0963Y034674
X10245Y031674
X1096Y043274
X1094Y044574
X10955Y045724
X1151Y045324
X11545
X11605
X11705Y045224
X11795
X1183Y045774
X119448Y045622
X12045Y045624
X12075Y045674
X121Y045624
X12125
X1215
X12175
X1223
X1222Y046574
X12405Y046524
X12455
X124552Y045672
X124296Y04567
X12404Y045664
X1243Y042574
X124591Y042464
X123016Y04259
X12276Y042584
X122504Y042578
X122248Y042576
X1222Y042274
X121752Y042576
X121496Y042578
X12124Y042584
X120984Y04259
X120728Y042602
X11945Y042624
X11905Y040874
X1188Y040774
X1176Y040174
X1175Y041874
X11705
X11655Y041524
X116
X11545Y042024
X1167Y045774
X12035Y039924
X12105Y040374
X1215Y040074
X122Y041324
X12305Y040524
X12335
X12365
X12385Y040874
X123418Y038392
X123103Y038377
X1229Y038374
X12265Y038324
X1224Y038374
X1218Y038524
X12095Y038624
X1205
X12005
X1196
X11915
X120294Y035418
X120294Y03503
X1203Y034724
X121Y034774
X120994Y034518
X120994Y03503
X120994Y035418
X1236Y037674
X1245Y038274
X1254Y037924
X12525Y037674
X12565
X126
X1258Y037924
X12645
X1267
X12695
X1272
X12745
X1277
X12865
X1288Y038174
X1285Y037674
X1284Y037424
X12825Y037174
X12815Y036924
X13085Y037174
X1322Y037224
X13295
X13255Y036524
X1327Y036174
X13365
X13355Y036524
X13475Y037374
X135
X13525
X13635Y037224
X1364Y038674
X1362Y039174
X135873Y039397
X135323Y039847
X1353Y041174
X136Y041474
X13625Y041024
X136683Y040591
Y040157
X137117
Y040591
X137648Y040972
X1381Y040774
X138477Y040247
X138115Y039807
X13785Y039724
X1371Y039374
X13875Y039424
X1395Y039024
X1399Y039474
X1396Y039774
Y040024
X1399Y040224
X14055Y040924
Y038824
X14045Y038124
X13835Y036724
X1386Y036174
X1376
X1372Y036424
X13795Y037124
X137845Y042429
X13835Y042174
X13845Y043024
X13815
X138399Y043358
X13835Y044224
X13785Y044124
X137333Y043657
X136467
Y042791
X13595Y042474
X135603Y041951
X136506Y04198
X137294Y04198
X137333Y042791
X1369Y043224
X13565
X13535
X1351
X135Y043524
X13565Y043824
X136309Y044915
X136506Y045168
X136703Y044971
X1369Y045124
X137097Y044521
X137294Y044668
X1375Y044824
X13845Y045724
X14045
X1333Y044674
X1335Y044124
X1337Y042524
X133
X1324
X13215
X1314Y042472
X13125Y041705
X130817Y041272
Y040405
Y039539
X1304Y039174
X1301Y038624
X13085Y038722
X131117Y038755
X1314Y038772
X132
X1326
X13295
X13345Y039172
X1338Y038622
X134398Y039172
X13445Y040424
X13415
X13385
X133776Y040824
X132983Y040839
X132117
X13125
Y039972
X131683Y039539
Y040405
Y041272
X132117Y041705
X13255Y041272
Y040405
X132117Y039972
X13255Y039539
X132983Y039972
Y041705
X13375Y041722
X12985Y041774
X12955
X12905
Y042424
X12955
X1303
X13025Y043424
X1305
X13075
X131
X13125
X13
X130198Y044772
X1305Y044774
X13085
X13125
X1318Y044474
Y045274
Y045674
Y046274
Y046874
X131099Y046341
Y045475
X130666Y045908
Y046774
X130233Y046341
Y045475
X1298Y045908
Y046774
X129367Y046341
Y045475
X12925Y044774
X1295
X1286
X1282
X128501Y045475
X128934Y045908
Y046774
X128501Y046341
X1278Y046324
X12775Y046674
X12735Y045674
X1271Y045624
X12685Y045674
X1266
X126072Y045652
X12575Y045824
Y046174
Y046424
X1255Y046674
X125048Y045622
X1276Y045274
X12755Y042574
X127096Y042578
X125816Y04259
X12556Y042584
X125304Y042578
X125048Y042576
X12525Y041074
Y040424
X1263Y040224
X1297Y040124
X13Y039974
X1298Y034674
X1264
Y035074
Y035474
X12565
Y035074
Y034674
X12525Y035624
X13595Y031674
X1325Y045224
X13265Y046274
X14235Y045324
X14305Y045724
X1429Y044574
X1427Y043674
X1431Y043274
X142Y040274
Y040024
Y039524
X141167Y039657
Y04009
X140733
Y039657
X1408Y038824
X14105
X1413
Y040924
X14105
X1408
Y060974
X14105
X1413
X141167Y061807
Y062241
X140733
Y061807
X142Y061674
Y062174
Y062424
X1399Y062374
X1396Y062174
Y061924
X1399Y061624
X1395Y061174
X13875Y061574
X138115Y061957
X13785Y061874
X1371Y061524
X137117Y062307
X136683
X1362Y061324
X135873Y061547
X135323Y061997
X134398Y061322
X13345
X1338Y060772
X13295Y060922
X1326
X132
X1314
X131117Y060905
X13085Y060872
X1301Y060774
X1304Y061324
X130817Y061689
X13125Y062122
X131683Y061689
X132117Y062122
X13255Y061689
X132983Y062122
X13295Y059374
X1322
X13255Y058674
X1327Y058324
X13365
X13355Y058674
X13475Y059524
X135
X13525
X13635Y059374
X1364Y060824
X1372Y058574
X1376Y058324
X1386
X13835Y058874
X13795Y059274
X14045Y060274
X14055Y060974
X138477Y062397
X13Y062124
X1297Y062274
X1288Y060324
X12865Y060074
X1285Y059824
X1284Y059574
X12825Y059324
X12815Y059074
X1277Y060074
X12745
X1272
X12695
X1267
X12645
X1258
X1254
X12525Y059824
X12565
X126
X12565Y057624
Y057224
Y056824
X1264
Y057224
Y057624
X12525Y057774
X1298Y056824
X13085Y059324
X1318Y053224
X13205Y052774
X1323Y052474
X1321Y051324
X13315Y051674
X1314Y050574
X1308Y050824
X13
X1307Y049924
X13045Y048774
X12955
X1293
X12905
X1285Y048874
X12805Y049224
X12775Y048724
Y048224
X1278Y047874
X128501Y048073
X129367
X130233
X131099
X1315Y048424
X13185
X131813Y048114
X1318Y047874
X132Y047308
Y047028
X13225Y047174
X131099Y047207
X130666Y04764
X130233Y047207
X1298Y04764
X129367Y047207
X128934Y04764
X128501Y047207
X1265Y047174
Y046924
Y047424
X12655Y048324
X1256Y048774
X12525Y047824
X1262Y050174
X12636Y050674
X12664
X126815Y050839
X1268Y050324
X1271Y051324
X126837Y051924
X126557
X1263
X126
X1259Y051324
X12505Y051674
X1327Y048424
X13375Y046924
X1363Y048674
X1372
X13805
X13895
X1398
X1389Y052524
X13595Y053824
X1263Y062374
X1245Y060424
X123418Y060542
X123103Y060527
X1229Y060524
X12265Y060474
X1224Y060524
X1218Y060674
X12095Y060774
X1205
X12005
X1196
X11915
X12035Y062074
X1215Y062224
X1176Y062324
X120294Y057568
X120294Y05718
X1203Y056874
X121Y056924
X120994Y056668
X120994Y05718
X120994Y057568
X1236Y059824
X1227Y051124
X1223
X12185
X12145
X1215Y050772
X121833Y050241
X122267
Y049807
X121833
X121302Y049476
X12165Y048924
X12175Y048674
X12245Y048974
X123Y048424
X12315Y049824
X122798Y050572
X121022Y050152
X12095Y051774
X11895Y052924
X11605Y046924
X1155
X1151
X12465Y048224
X1249Y048774
X1063Y048674
X10545
X10455
X1037
X1028
X0992Y048424
X09835
X098313Y048114
X0983Y047874
X0985Y047308
Y047028
X09875Y047174
X097599Y047207
Y048073
X098Y048424
X09695Y048774
X09605
X0958
X09555
X095Y048874
X09455Y049224
X09425Y048724
Y048224
X0943Y047874
X095001Y048073
X095867
X096733
X097166Y04764
X096733Y047207
X0963Y04764
X095867Y047207
X095434Y04764
X095001Y047207
X0972Y049924
X0973Y050824
X0965
X0979Y050574
X0986Y051324
X0988Y052474
X09855Y052774
X0983Y053224
X09965Y051674
X10245Y053824
X1054Y052524
X1051Y058324
X10485Y058874
X10445Y059274
X1041Y058324
X1037Y058574
X10285Y059374
X10175Y059524
X1015
X10125
X09945Y059374
X0987
X09905Y058674
X0992Y058324
X10015
X10005Y058674
X1003Y060772
X09995Y061322
X09945Y060922
X0991
X0985
X0979
X097617Y060905
X09735Y060872
X0966Y060774
X0969Y061324
X097317Y061689
X09775Y062122
X098183Y061689
X098617Y062122
X09905Y061689
X099483Y062122
X100898Y061322
X101823Y061997
X102373Y061547
X1027Y061324
X1029Y060824
X1036Y061524
X103617Y062307
X103183
X10435Y061874
X104615Y061957
X104977Y062397
X10525Y061574
X106Y061174
X1064Y061624
X1061Y061924
Y062174
X1064Y062374
X107233Y062241
X107667
Y061807
X107233
X1073Y060974
X10755
X1078
X10705
X10695Y060274
X1085Y061674
Y062174
Y062424
X0965Y062124
X0962Y062274
X0953Y060324
X09515Y060074
X095Y059824
X0949Y059574
X09475Y059324
X09465Y059074
X0942Y060074
X09395
X09735Y059324
X0963Y056824
X10025Y046924
X093
Y047174
Y047424
X09305Y048324
X0921Y048774
X0914
X09115Y048224
X09175Y047824
X0895Y048424
X08895Y048974
X08815Y048924
X08825Y048674
X088333Y049807
Y050241
X088767
Y049807
X08965Y049824
X089298Y050572
X0892Y051124
X0888
X08835
X08795
X088Y050772
X087522Y050152
X087802Y049476
X08745Y051774
X08545Y052924
X0868Y056874
X086794Y05718
X086794Y057568
X087494
X087494Y05718
X0875Y056924
X087494Y056668
X08745Y060774
X087
X08655
X0861
X08565
X08685Y062074
X088Y062224
X0883Y060674
X0889Y060524
X08915Y060474
X0894Y060524
X089603Y060527
X089918Y060542
X0901Y059824
X091Y060424
X0919Y060074
X09175Y059824
X09215
X0925
X0923Y060074
X09295
X0932
X09345
X0937
X0928Y062374
X0929Y057624
Y057224
Y056824
X09215
Y057224
Y057624
X09175Y057774
X09155Y051674
X0924Y051324
X0925Y051924
X0928
X093057
X093337
X0936Y051324
X093315Y050839
X09314Y050674
X09286
X0927Y050174
X0933Y050324
X08255Y046924
X082
X0816
X0841Y062324
X075Y062424
Y062174
Y061674
X074167Y061807
Y062241
X073733
Y061807
X0738Y060974
X07405
X0743
X07355
X07345Y060274
X0725Y061174
X0729Y061624
X0726Y061924
Y062174
X0729Y062374
X071477Y062397
X071115Y061957
X07085Y061874
X0701Y061524
X070117Y062307
X069683
X0692Y061324
X068873Y061547
X068323Y061997
X067398Y061322
X06645
X0668Y060772
X06595Y060922
X0656
X065
X0644
X064117Y060905
X06385Y060872
X0631Y060774
X0634Y061324
X063817Y061689
X06425Y062122
X064683Y061689
X065117Y062122
X06555Y061689
X065983Y062122
X06595Y059374
X0652
X06555Y058674
X0657Y058324
X06665
X06655Y058674
X06775Y059524
X068
X06825
X06935Y059374
X0694Y060824
X0702Y058574
X0706Y058324
X0716
X07135Y058874
X07095Y059274
X07175Y061574
X0719Y052524
X07195Y048674
X0728
X07105
X0702
X0693
X0657Y048424
X06485
X064813Y048114
X0648Y047874
X065Y047308
Y047028
X06525Y047174
X064099Y047207
Y048073
X0645Y048424
X06345Y048774
X06255
X063233Y048073
X063666Y04764
X063233Y047207
X0628Y04764
X0637Y049924
X0638Y050824
X063
X0644Y050574
X0651Y051324
X0653Y052474
X06505Y052774
X0648Y053224
X06615Y051674
X06895Y053824
X06675Y046924
X0628Y056824
X06385Y059324
X063Y062124
X0627Y062274
X0618Y060324
X06165Y060074
X0615Y059824
X0614Y059574
X06125Y059324
X06115Y059074
X0607Y060074
X06045
X0602
X05995
X0597
X05945
X0588
X0584
X05825Y059824
X05865
X059
X0575Y060424
X056418Y060542
X056103Y060527
X0559Y060524
X05565Y060474
X0554Y060524
X0548Y060674
X05395Y060774
X0535
X05305
X0526
X05215
X05335Y062074
X0545Y062224
X0506Y062324
X053294Y057568
X053294Y05718
X0533Y056874
X054Y056924
X053994Y056668
X053994Y05718
X053994Y057568
X05825Y057774
X05865Y057624
Y057224
Y056824
X0594
Y057224
Y057624
X0593Y062374
X0566Y059824
X05805Y051674
X0589Y051324
X059Y051924
X0593
X059557
X059837
X0601Y051324
X059815Y050839
X05964Y050674
X05936
X0592Y050174
X0598Y050324
X05955Y048324
X0595Y047424
Y047174
Y046924
X05825Y047824
X05765Y048224
X0579Y048774
X0586
X06075Y048724
Y048224
X0608Y047874
X061501Y048073
X0615Y048874
X06205Y048774
X0623
X062367Y048073
Y047207
X061934Y04764
X061501Y047207
X06105Y049224
X05615Y049824
X055267Y049807
Y050241
X054833
Y049807
X054302Y049476
X05465Y048924
X05475Y048674
X05545Y048974
X056Y048424
X055798Y050572
X0557Y051124
X0553
X05485
X05445
X0545Y050772
X054022Y050152
X05395Y051774
X05195Y052924
X04905Y046924
X0485
X0481
X0393Y048674
X03845
X03755
X0367
X0358
X0322Y048424
X03135
X031313Y048114
X0313Y047874
X0315Y047308
Y047028
X03175Y047174
X03325Y046924
X03265Y051674
X0316Y051324
X0318Y052474
X03155Y052774
X0313Y053224
X03545Y053824
X0384Y052524
X0381Y058324
X03785Y058874
X03745Y059274
X0371Y058324
X0367Y058574
X03585Y059374
X03475Y059524
X0345
X03425
X03245Y059374
X0317
X03205Y058674
X0322Y058324
X03315
X03305Y058674
X0333Y060772
X03295Y061322
X03245Y060922
X0321
X0315
X031617Y062122
X03205Y061689
X032483Y062122
X033898Y061322
X034823Y061997
X035373Y061547
X0357Y061324
X0359Y060824
X0366Y061524
X036617Y062307
X036183
X03735Y061874
X037615Y061957
X037977Y062397
X03825Y061574
X039Y061174
X0394Y061624
X0391Y061924
Y062174
X0394Y062374
X040233Y062241
X040667
Y061807
X040233
X0403Y060974
X04055
X0408
X04005
X03995Y060274
X0415Y061674
Y062174
Y062424
X03075Y062122
X030317Y061689
X0299Y061324
X0296Y060774
X03035Y060872
X030617Y060905
X0309Y060922
X031183Y061689
X0295Y062124
X0292Y062274
X0283Y060324
X02815Y060074
X028Y059824
X0279Y059574
X02775Y059324
X02765Y059074
X0272Y060074
X02695
X0267
X02645
X0262
X02595
X0253
X0249
X02475Y059824
X02515
X0255
X024Y060424
X022918Y060542
X022603Y060527
X0224Y060524
X02215Y060474
X0219Y060524
X0213Y060674
X02045Y060774
X02
X01955
X0191
X01865
X01985Y062074
X021Y062224
X0171Y062324
X019794Y057568
X019794Y05718
X0198Y056874
X0205Y056924
X020494Y056668
X020494Y05718
X020494Y057568
X02475Y057774
X02515Y057624
Y057224
Y056824
X0259
Y057224
Y057624
X0293Y056824
X03035Y059324
X0258Y062374
X0231Y059824
X02455Y051674
X0254Y051324
X0255Y051924
X0258
X026057
X026337
X0266Y051324
X026315Y050839
X02614Y050674
X02586
X0257Y050174
X0263Y050324
X02605Y048324
X026Y047424
Y047174
Y046924
X02475Y047824
X02415Y048224
X0244Y048774
X0251
X02725Y048724
Y048224
X0273Y047874
X028001Y048073
X028Y048874
X02855Y048774
X0288
X02905
X028867Y048073
X029733
X030599
X031Y048424
X02995Y048774
X030166Y04764
X030599Y047207
X029733
X0293Y04764
X028867Y047207
X028434Y04764
X028001Y047207
X02755Y049224
X0302Y049924
X0303Y050824
X0295
X0309Y050574
X022298Y050572
X0222Y051124
X0218
X02135
X02095
X021Y050772
X021333Y050241
X021767
Y049807
X021333
X020802Y049476
X02115Y048924
X02125Y048674
X02195Y048974
X0225Y048424
X02265Y049824
X020522Y050152
X02045Y051774
X01845Y052924
X01555Y046924
X015
X0146
X01495Y064174
X0155Y063674
X01555Y067474
X01495
X0146
Y069074
X015
X01555
X0162Y067924
X01655Y067374
X01745
X0178Y067924
X018948Y067772
X01995Y067774
X02025Y067824
X0205Y067774
X02075
X021
X02125
X0218
X0217Y068724
X02355Y068674
X02405
X024052Y067822
X023796Y06782
X02354Y067814
X024548Y067772
X02525Y067974
Y068324
Y068574
X025Y068824
X026Y069074
Y069324
Y069574
X02605Y070474
X02725Y070374
X0273Y070024
X028001Y070223
X028Y071024
X02855Y070924
X0288
X02905
X028867Y070223
X029733
X030599
X031Y070574
X02995Y070924
X030166Y06979
X030599Y069357
Y068491
Y067625
X03075Y066924
X03035
X03
X029698Y066922
X029Y066924
X02875
X0281
X0277
X028001Y067625
X028867
X029733
X030166Y068058
Y068924
X029733Y069357
Y068491
X0293Y068924
Y06979
X028867Y069357
Y068491
X0293Y068058
X028434
Y068924
Y06979
X028001Y069357
Y068491
X0273Y068474
X02725Y068824
X02685Y067824
X0266Y067774
X02635Y067824
X0261
X025572Y067802
X0271Y067424
X02705Y064724
X026596Y064728
X025316Y06474
X02506Y064734
X024804Y064728
X024548Y064726
X024091Y064614
X0238Y064724
X022516Y06474
X02226Y064734
X022004Y064728
X021748Y064726
X0217Y064424
X021252Y064726
X020996Y064728
X02074Y064734
X020484Y06474
X020228Y064752
X01895Y064774
X01855Y063024
X0183Y062924
X017Y064024
X01655
X01605Y063674
X02055Y062524
X0215Y063474
X02255Y062674
X02285
X02315
X02335Y063024
X02475Y063224
Y062574
X02855Y063924
X02905
X02935
X02905Y064574
X02855
X0298
X02975Y065574
X03
X03025
X0305
X03075
X0309Y064622
X03075Y063855
X030317Y063422
Y062555
X03075Y062989
X031183Y062555
Y063422
X0295Y065574
X0302Y072074
X0303Y072974
X0295
X0309Y072724
X02755Y071374
X02725Y070874
X0251Y070924
X0244
X02415Y070374
X02475Y069974
X0225Y070574
X02195Y071124
X02115Y071074
X02125Y070824
X021333Y071957
Y07239
X021767
Y071957
X02265Y071974
X022298Y072722
X0222Y073274
X0218
X02135
X02095
X021Y072922
X020522Y072302
X020802Y071626
X02045Y073924
X01845Y075074
X02455Y073824
X0254Y073474
X0255Y074074
X0258
X026057
X026337
X0266Y073474
X026315Y072989
X02614Y072824
X02586
X0257Y072324
X0263Y072474
X0316Y073474
X0318Y074624
X03155Y074924
X0313Y075374
X03265Y073824
X0322Y070574
X03135
X031313Y070264
X0313Y070024
X0315Y069458
Y069178
X0313Y069024
Y068424
Y067824
Y067424
X032Y067374
X03215Y068424
X03175Y069324
X03325Y069074
X0328Y066824
X033Y066274
X0332Y064674
X0325
X0319
X03165
X031617Y063855
Y062989
X03205Y062555
Y063422
X032483Y062989
X033276Y062974
X03335Y062574
X03365
X03395
X0348Y063324
X0355Y063624
X03575Y063174
X036183Y062741
X036617
X037148Y063122
X0376Y062924
X03785Y064324
X037345Y064579
X036833Y064941
X036794Y06413
X036006Y06413
X035967Y064941
X03545Y064624
X035103Y064101
X03515Y065374
X03485
X0346
X0345Y065674
X03515Y065974
X035967Y065807
X0364Y065374
X036833Y065807
X03735Y066274
X03785Y066374
X037899Y065508
X03795Y065174
X03765
X037Y066974
X036794Y066818
X036597Y066671
X0364Y067274
X036203Y067121
X036006Y067318
X035809Y067065
X03795Y067874
X03995
X04185Y067474
X04255Y067874
X0424Y066724
X0422Y065824
X0426Y065424
X0408Y063074
X04055
X0403
X04005
X03325Y063872
X032483Y063855
X0313Y066624
X0358Y070824
X0367
X03755
X03845
X0393
X0384Y074674
X03545Y075974
X05195Y075074
X05395Y073924
X05445Y073274
X05485
X0553
X0557
X055798Y072722
X055267Y07239
X054833
Y071957
X055267
X05615Y071974
X05545Y071124
X05465Y071074
X05475Y070824
X054302Y071626
X054022Y072302
X0545Y072922
X056Y070574
X05765Y070374
X0579Y070924
X0586
X05825Y069974
X0585Y068824
X05875Y068574
Y068324
Y067974
X059072Y067802
X0596Y067824
X05985
X0601Y067774
X06035Y067824
X0606Y067424
X0612Y066924
X0616
X06225
X062367Y067625
Y068491
Y069357
Y070223
X0623Y070924
X06205
X0615Y071024
X06105Y071374
X06075Y070874
Y070374
X0608Y070024
X061501Y070223
X061934Y06979
Y068924
Y068058
X061501Y068491
X0608Y068474
X06075Y068824
X061501Y069357
Y067625
X0595Y069074
Y069324
Y069574
X05955Y070474
X0592Y072324
X05936Y072824
X05964
X059815Y072989
X0598Y072474
X0601Y073474
X059837Y074074
X059557
X0593
X059
X0589Y073474
X05805Y073824
X05755Y068674
X05705
X05704Y067814
X057296Y06782
X057552Y067822
X058048Y067772
X0553Y067774
X05475
X0545
X05425
X054
X05375Y067824
X05345Y067774
X052448Y067772
X0513Y067924
X05095Y067374
X05005
X0497Y067924
X04905Y067474
X04845
X0481
Y069074
X0485
X04905
X049Y063674
X04955
X05005Y064024
X0505
X04845Y064174
X05245Y064774
X053728Y064752
X053984Y06474
X05424Y064734
X054496Y064728
X054752Y064726
X055248
X055504Y064728
X05576Y064734
X056016Y06474
X0552Y064424
X055Y063474
X05605Y062674
X05635
X05665
X05685Y063024
X05825Y063224
Y062574
X058304Y064728
X058048Y064726
X05856Y064734
X058816Y06474
X060096Y064728
X06055Y064724
X06205Y064574
Y063924
X057591Y064614
X0573Y064724
X05405Y062524
X05205Y063024
X0518Y062924
X0552Y068724
X0628Y068924
X063666
X064099Y069357
Y070223
X0645Y070574
X06485
X064813Y070264
X0648Y070024
X065Y069458
Y069178
X0648Y069024
Y068424
Y067824
Y067424
X0655Y067374
X06565Y068424
X06525Y069324
X0657Y070574
X06675Y069074
X0663Y066824
X0665Y066274
X0667Y064674
X066
X0654
X06515
X0644Y064622
X06425Y063855
X063817Y063422
Y062555
X06425Y062989
X064683Y062555
Y063422
X065117Y062989
Y063855
X06555Y063422
Y062555
X065983Y062989
X066776Y062974
X06685Y062574
X06715
X06745
X0683Y063324
X069Y063624
X06925Y063174
X069683Y062741
X070117
X070648Y063122
X0711Y062924
X07135Y064324
X070845Y064579
X070333Y064941
X070294Y06413
X069506Y06413
X069467Y064941
X06895Y064624
X068603Y064101
X06865Y065374
X06835
X0681
X068Y065674
X06865Y065974
X069467Y065807
X0699Y065374
X070333Y065807
X07085Y066274
X07135Y066374
X071399Y065508
X07145Y065174
X07115
X0705Y066974
X070294Y066818
X070097Y066671
X0699Y067274
X069703Y067121
X069506Y067318
X069309Y067065
X07145Y067874
X07345
X07535Y067474
X07605Y067874
X0759Y066724
X0757Y065824
X0761Y065424
X0743Y063074
X07405
X0738
X07355
X06675Y063872
X065983Y063855
X06285Y063924
X06255
Y064574
X0633
X06325Y065574
X0635
X06375
X064
X06425
X063
X063198Y066922
X0635Y066924
X06385
X06425
X0648Y066624
X064099Y067625
Y068491
X063666Y068058
X063233Y068491
Y069357
X063666Y06979
X063233Y070223
X0628Y06979
X06255Y070924
X06345
X0637Y072074
X0638Y072974
X063
X0644Y072724
X0651Y073474
X0653Y074624
X06505Y074924
X0648Y075374
X06615Y073824
X06895Y075974
X0719Y074674
X07195Y070824
X0728
X07105
X0702
X0693
X063233Y067625
X0628Y068058
X0625Y066924
X0816Y067474
X08195
X08255
X08355Y067374
X08445
X0848Y067924
X085948Y067772
X08695Y067774
X08725Y067824
X0875Y067774
X08775
X088
X08825
X0888
X0887Y068724
X09055Y068674
X09105
X091052Y067822
X090796Y06782
X09054Y067814
X091548Y067772
X09225Y067974
Y068324
Y068574
X092Y068824
X093Y069074
Y069324
Y069574
X09305Y070474
X0921Y070924
X0914
X09115Y070374
X09175Y069974
X0895Y070574
X08895Y071124
X08815Y071074
X08825Y070824
X088333Y071957
Y07239
X088767
Y071957
X08965Y071974
X089298Y072722
X0892Y073274
X0888
X08835
X08795
X088Y072922
X087522Y072302
X087802Y071626
X08745Y073924
X08545Y075074
X09155Y073824
X0924Y073474
X0925Y074074
X0928
X093057
X093337
X0936Y073474
X093315Y072989
X09314Y072824
X09286
X0927Y072324
X0933Y072474
X09335Y067824
X0931
X092572Y067802
X0936Y067774
X093596Y064728
X092316Y06474
X09206Y064734
X091804Y064728
X091548Y064726
X091091Y064614
X0908Y064724
X089516Y06474
X08926Y064734
X089004Y064728
X088748Y064726
X0887Y064424
X088252Y064726
X087996Y064728
X08774Y064734
X087484Y06474
X087228Y064752
X08595Y064774
X08555Y063024
X0853Y062924
X084Y064024
X08355
X08305Y063674
X0825
X08195Y064174
X082Y069074
X0816
X08255
X0832Y067924
X08755Y062524
X0885Y063474
X08955Y062674
X08985
X09015
X09035Y063024
X09175Y063224
Y062574
X09405Y064724
X09555Y064574
X09605
Y063924
X09635
X09555
X0968Y064574
X09675Y065574
X097
X09725
X0975
X09775
X0979Y064622
X09865Y064674
X0989
X0995
X1002
X10025Y063872
X099483Y063855
X098617
X09775
X097317Y063422
Y062555
X09775Y062989
X098183Y062555
Y063422
X098617Y062989
X09905Y062555
Y063422
X099483Y062989
X100276Y062974
X10035Y062574
X10065
X10095
X1018Y063324
X1025Y063624
X10275Y063174
X103183Y062741
X103617
X104148Y063122
X1046Y062924
X10485Y064324
X104345Y064579
X103833Y064941
X103794Y06413
X103006Y06413
X102967Y064941
X10245Y064624
X102103Y064101
X10215Y065374
X10185
X1016
X1015Y065674
X10215Y065974
X102967Y065807
X1034Y065374
X103833Y065807
X10435Y066274
X10485Y066374
X104899Y065508
X10495Y065174
X10465
X104Y066974
X103794Y066818
X103597Y066671
X1034Y067274
X103203Y067121
X103006Y067318
X102809Y067065
X10495Y067874
X10695
X10885Y067474
X1092Y065824
X1078Y063074
X10755
X1073
X10705
X1063Y070824
X10545
X10455
X1037
X1028
X0992Y070574
X09835
X098313Y070264
X0983Y070024
X0985Y069458
Y069178
X0983Y069024
Y068424
Y067824
Y067424
X099Y067374
X09915Y068424
X09875Y069324
X097599Y069357
Y070223
X098Y070574
X09695Y070924
X09605
X0958
X09555
X095Y071024
X09455Y071374
X09425Y070874
Y070374
X0943Y070024
X095001Y070223
X095867
X096733
X097166Y06979
Y068924
X097599Y068491
Y067625
X09775Y066924
X09735
X097
X096698Y066922
X096Y066924
X09575
X0951
X0947
X095001Y067625
X095867
X096733
X097166Y068058
X096733Y068491
Y069357
X0963Y06979
Y068924
Y068058
X095867Y068491
Y069357
X095434Y06979
Y068924
Y068058
X095001Y068491
X0943Y068474
X09425Y068824
X095001Y069357
X09385Y067824
X0941Y067424
X0965Y065574
X0983Y066624
X0998Y066824
X1Y066274
X10025Y069074
X09965Y073824
X0986Y073474
X0988Y074624
X09855Y074924
X0983Y075374
X0979Y072724
X0973Y072974
X0965
X0972Y072074
X10245Y075974
X1054Y074674
X10955Y067874
X1094Y066724
X1096Y065424
X11545Y064174
X116Y063674
X11655
X11705Y064024
X1175
X1188Y062924
X11905Y063024
X11945Y064774
X120728Y064752
X120984Y06474
X12124Y064734
X121496Y064728
X121752Y064726
X122248
X122504Y064728
X12276Y064734
X123016Y06474
X1222Y064424
X122Y063474
X12305Y062674
X12335
X12365
X12385Y063024
X1243Y064724
X124591Y064614
X124552Y067822
X124296Y06782
X12404Y067814
X12405Y068674
X12455
X12465Y070374
X1249Y070924
X123Y070574
X12245Y071124
X12165Y071074
X12175Y070824
X121833Y071957
Y07239
X122267
Y071957
X12315Y071974
X122798Y072722
X1227Y073274
X1223
X12185
X12145
X1215Y072922
X121022Y072302
X121302Y071626
X12095Y073924
X11895Y075074
X119448Y067772
X12045Y067774
X12075Y067824
X121Y067774
X12125
X1215
X12175
X1223
X1222Y068724
X1183Y067924
X11795Y067374
X11705
X1167Y067924
X11605Y067474
X11545
X1151
Y069074
X1155
X11605
X12105Y062524
X12525Y062574
Y063224
X125304Y064728
X125048Y064726
X12556Y064734
X125816Y06474
X127096Y064728
X12755Y064724
X12905Y064574
X12955
Y063924
X12985
X12905
X1303Y064574
X13025Y065574
X1305
X13075
X131
X13125
X1314Y064622
X13215Y064674
X1324
X133
X1337
X13375Y063872
X132983Y063855
X132117
X13125
X130817Y063422
Y062555
X13125Y062989
X131683Y062555
Y063422
X132117Y062989
X13255Y062555
Y063422
X132983Y062989
X133776Y062974
X13385Y062574
X13415
X13445
X1353Y063324
X136Y063624
X13625Y063174
X136683Y062741
X137117
X137648Y063122
X1381Y062924
X13835Y064324
X137845Y064579
X137333Y064941
X137294Y06413
X136506Y06413
X136467Y064941
X13595Y064624
X135603Y064101
X13565Y065374
X13535
X1351
X135Y065674
X13565Y065974
X136467Y065807
X1369Y065374
X137333Y065807
X13785Y066274
X13835Y066374
X138399Y065508
X13845Y065174
X13815
X1375Y066974
X137294Y066818
X137097Y066671
X1369Y067274
X136703Y067121
X136506Y067318
X136309Y067065
X13845Y067874
X14045
X1398Y070824
X13895
X13805
X1372
X1363
X1327Y070574
X13185
X131813Y070264
X1318Y070024
X132Y069458
Y069178
X1318Y069024
Y068424
Y067824
Y067424
X1325Y067374
X13265Y068424
X13225Y069324
X131099Y069357
Y070223
X1315Y070574
X13045Y070924
X12955
X1293
X12905
X1285Y071024
X12805Y071374
X12775Y070874
Y070374
X1278Y070024
X128501Y070223
X129367
X130233
X130666Y06979
Y068924
X131099Y068491
Y067625
X13125Y066924
X13085
X1305
X130198Y066922
X1295Y066924
X12925
X1286
X1282
X128501Y067625
X129367
X130233
X130666Y068058
X130233Y068491
Y069357
X1298Y06979
Y068924
Y068058
X129367Y068491
Y069357
X128934Y06979
Y068924
Y068058
X128501Y068491
X1278Y068474
X12775Y068824
X128501Y069357
X1265Y069324
Y069074
Y069574
X12655Y070474
X1256Y070924
X12525Y069974
X1255Y068824
X12575Y068574
Y068324
Y067974
X126072Y067802
X1266Y067824
X12685
X1271Y067774
X12735Y067824
X1276Y067424
X125048Y067772
X1262Y072324
X12636Y072824
X12664
X126815Y072989
X1268Y072474
X1271Y073474
X126837Y074074
X126557
X1263
X126
X1259Y073474
X12505Y073824
X13Y072974
X1308
X1314Y072724
X1307Y072074
X1321Y073474
X1323Y074624
X13205Y074924
X1318Y075374
X13315Y073824
X13595Y075974
X1389Y074674
X13375Y069074
X1333Y066824
X1335Y066274
X1318Y066624
X13Y065574
X14055Y063074
X1408
X14105
X1413
X1431Y065424
X1427Y065824
X1429Y066724
X14235Y067474
X14305Y067874
X1413Y083124
X14105
X1408
X140733Y083957
X141167
Y08439
X140733
X1408Y085224
X14105
X1413
X142Y084574
Y084324
Y083824
X1431Y087574
X1427Y087974
X1429Y088874
X14235Y089624
X14305Y090024
X14045
X13845
X13835Y088524
X13785Y088424
X137333Y087957
X136467
Y087091
X13595Y086774
X135603Y086251
X136Y085774
X13625Y085324
X136683Y08489
Y084457
X137117
Y08489
X137648Y085272
X1381Y085074
X138477Y084547
X138115Y084107
X13785Y084024
X1371Y083674
X1362Y083474
X135873Y083697
X135323Y084147
X1353Y085474
X13445Y084724
X13415
X13385
X133776Y085124
X132983Y085139
X132117
X13125
X130817Y084705
Y083839
X1304Y083474
X1301Y082924
X13085Y083022
X131117Y083055
X1314Y083072
X132
X1326
X13295
X13345Y083472
X1338Y082922
X134398Y083472
X13475Y081674
X135
X13525
X13635Y081524
X1364Y082974
X1372Y080724
X1376Y080474
X1386
X13835Y081024
X13795Y081424
X13875Y083724
X1395Y083324
X1399Y083774
X1396Y084074
Y084324
X1399Y084524
X14055Y085224
Y083124
X14045Y082424
X13835Y086474
X137845Y086729
X137333Y087091
X137294Y08628
X136506Y08628
X1369Y087524
X13565
X13535
X1351
X135Y087824
X13565Y088124
X136309Y089215
X136506Y089468
X136703Y089271
X1369Y089424
X137097Y088821
X137294Y088968
X1375Y089124
X138399Y087658
X13845Y087324
X13815
X1337Y086824
X133
X1324
X13215
X1314Y086772
X13125Y086005
X130817Y085572
X131683
Y084705
X13125Y084272
X131683Y083839
X132117Y084272
X13255Y083839
Y084705
Y085572
X132117Y086005
X132983
X13375Y086022
X132983Y084272
X13295Y081524
X1322
X13255Y080824
X1327Y080474
X13365
X13355Y080824
X13085Y081474
X12825
X12815Y081224
X1284Y081724
X1285Y081974
X12865Y082224
X1288Y082474
X1277Y082224
X12745
X1272
X12695
X1267
X12645
X1258
X1254
X12525Y081974
X12565
X126
X12565Y079774
Y079374
Y078974
X1264
Y079374
Y079774
X12525Y079924
Y084724
Y085374
X125304Y086878
X125048Y086876
X12556Y086884
X125816Y08689
X127096Y086878
X12755Y086874
X12905Y086724
X12955
Y086074
X12985
X12905
X1303Y086724
X13025Y087724
X1305
X13075
X131
X13125
X13
X130198Y089072
X1305Y089074
X13085
X13125
X1318Y088774
Y089574
Y089974
Y090574
Y091174
X132Y091328
Y091608
X13225Y091474
X1318Y092174
X131813Y092414
X13185Y092724
X1315
X131099Y092373
Y091507
Y090641
Y089775
X130666Y090208
Y091074
Y09194
X130233Y092373
Y091507
Y090641
Y089775
X1298Y090208
Y091074
Y09194
X129367Y092373
X1293Y093074
X12905
X12955
X13045
X1285Y093174
X12805Y093524
X12775Y093024
Y092524
X1278Y092174
X128501Y092373
X128934Y09194
X129367Y091507
Y090641
Y089775
X12925Y089074
X1295
X1286
X1282
X128501Y089775
X128934Y090208
Y091074
X128501Y091507
Y090641
X1278Y090624
X12775Y090974
X12735Y089974
X1271Y089924
X12685Y089974
X1266
X126072Y089952
X12575Y090124
Y090474
Y090724
X1255Y090974
X1265Y091224
Y091474
Y091724
X12655Y092624
X1256Y093074
X12525Y092124
X125048Y089922
X1276Y089574
X1325Y089524
X13265Y090574
X13375Y091224
X1327Y092724
X1363Y092974
X1372
X13805
X13895
X1398
X1333Y088974
X1335Y088424
X13Y084274
X1297Y084424
X1263Y084524
X1298Y078974
X1245Y082574
X123418Y082692
X123103Y082677
X1229Y082674
X12265Y082624
X1224Y082674
X1218Y082824
X12095Y082924
X1205
X12005
X1196
X11915
X11905Y085174
X1188Y085074
X1176Y084474
X1175Y086174
X11705
X11655Y085824
X116
X11545Y086324
Y089624
X1151
X11605
X11705Y089524
X11795
X1183Y090074
X119448Y089922
X12045Y089924
X12075Y089974
X121Y089924
X12125
X1215
X12175
X1223
X1222Y090874
X12405Y090824
X12455
X124552Y089972
X124296Y08997
X12404Y089964
X12465Y092524
X1249Y093074
X123Y092724
X12245Y093274
X12165Y093224
X12175Y092974
X121752Y086876
X121496Y086878
X12124Y086884
X120984Y08689
X120728Y086902
X11945Y086924
X122248Y086876
X122504Y086878
X12276Y086884
X123016Y08689
X1222Y086574
X122Y085624
X1215Y084374
X12105Y084674
X12035Y084224
X12305Y084824
X12335
X12365
X12385Y085174
X1243Y086874
X124591Y086764
X1236Y081974
X120994Y079718
X120994Y07933
X121Y079074
X120994Y078818
X1203Y079024
X120294Y07933
X120294Y079718
X1167Y090074
X11605Y091224
X1155
X1151
X10955Y090024
X1094Y088874
X1096Y087574
X1092Y087974
X10885Y089624
X10695Y090024
X10495
X10485Y088524
X10435Y088424
X103833Y087957
X102967
Y087091
X10245Y086774
X102103Y086251
X1025Y085774
X10275Y085324
X103183Y08489
Y084457
X103617
Y08489
X104148Y085272
X1046Y085074
X104977Y084547
X104615Y084107
X10435Y084024
X1036Y083674
X1027Y083474
X102373Y083697
X101823Y084147
X1018Y085474
X10095Y084724
X10065
X10035
X100276Y085124
X099483Y085139
X098617
X09775
X097317Y084705
Y083839
X0969Y083474
X0966Y082924
X09735Y083022
X097617Y083055
X0979Y083072
X0985
X0991
X09945
X09995Y083472
X1003Y082922
X100898Y083472
X10125Y081674
X1015
X10175
X10285Y081524
X1029Y082974
X1037Y080724
X1041Y080474
X1051
X10485Y081024
X10445Y081424
X10525Y083724
X106Y083324
X1064Y083774
X1061Y084074
Y084324
X1064Y084524
X107233Y08439
X107667
Y083957
X107233
X1073Y083124
X10755
X1078
X10705
X10695Y082424
X10705Y085224
X1073
X10755
X1078
X1085Y084574
Y084324
Y083824
X10485Y086474
X104345Y086729
X103833Y087091
X103794Y08628
X103006Y08628
X1034Y087524
X10215
X10185
X1016
X1015Y087824
X10215Y088124
X102809Y089215
X103006Y089468
X103203Y089271
X1034Y089424
X103597Y088821
X103794Y088968
X104Y089124
X104899Y087658
X10495Y087324
X10465
X1002Y086824
X0995
X0989
X09865
X0979Y086772
X09775Y086005
X097317Y085572
X098183
Y084705
X09775Y084272
X098183Y083839
X098617Y084272
X09905Y083839
Y084705
Y085572
X098617Y086005
X099483
X10025Y086022
X099483Y084272
X09945Y081524
X0987
X09905Y080824
X0992Y080474
X10015
X10005Y080824
X09735Y081474
X09475
X09465Y081224
X0949Y081724
X095Y081974
X09515Y082224
X0953Y082474
X0942Y082224
X09395
X0962Y084424
X0965Y084274
X09635Y086074
X09605
X09555
Y086724
X09605
X0968
X09675Y087724
X097
X09725
X0975
X09775
X0965
X096698Y089072
X097Y089074
X09735
X09775
X0983Y088774
Y089574
Y089974
Y090574
Y091174
X0985Y091328
Y091608
X09875Y091474
X0983Y092174
X098313Y092414
X09835Y092724
X098
X097599Y092373
Y091507
Y090641
Y089775
X097166Y090208
Y091074
Y09194
X096733Y092373
Y091507
Y090641
Y089775
X0963Y090208
Y091074
Y09194
X095867Y092373
X0958Y093074
X09555
X09605
X09695
X095Y093174
X09455Y093524
X09425Y093024
Y092524
X0943Y092174
X095001Y092373
X095434Y09194
X095867Y091507
Y090641
Y089775
X09575Y089074
X096
X0951
X0947
X095001Y089775
X095434Y090208
Y091074
X095001Y091507
Y090641
X0943Y090624
X09425Y090974
X09385Y089974
X0941Y089574
X09405Y086874
X1Y088424
X0998Y088974
X099Y089524
X09915Y090574
X10025Y091224
X0992Y092724
X1028Y092974
X1037
X10455
X10545
X1063
X0963Y078974
X0929
Y079374
Y079774
X09215
Y079374
Y078974
X09175Y079924
Y081974
X0919Y082224
X0923
X09215Y081974
X0925
X09295Y082224
X0932
X09345
X0937
X091Y082574
X089918Y082692
X089603Y082677
X0894Y082674
X08915Y082624
X0889Y082674
X0883Y082824
X08745Y082924
X087
X08655
X0861
X08565
X08555Y085174
X0853Y085074
X0841Y084474
X084Y086174
X08355
X08305Y085824
X0825
X08195Y086324
Y089624
X0816
X08255
X08355Y089524
X08445
X0848Y090074
X085948Y089922
X08695Y089924
X08725Y089974
X0875Y089924
X08775
X088
X08825
X0888
X0887Y090874
X09055Y090824
X09105
X091052Y089972
X090796Y08997
X09054Y089964
X091548Y089922
X09225Y090124
Y090474
Y090724
X092Y090974
X093Y091224
Y091474
Y091724
X09305Y092624
X0921Y093074
X0914
X09115Y092524
X09175Y092124
X0895Y092724
X08895Y093274
X08815Y093224
X08825Y092974
X088252Y086876
X087996Y086878
X08774Y086884
X087484Y08689
X087228Y086902
X08595Y086924
X088748Y086876
X089004Y086878
X08926Y086884
X089516Y08689
X0887Y086574
X0885Y085624
X088Y084374
X08755Y084674
X08685Y084224
X08955Y084824
X08985
X09015
X09035Y085174
X09175Y085374
Y084724
X0928Y084524
X092316Y08689
X09206Y086884
X091804Y086878
X091548Y086876
X091091Y086764
X0908Y086874
X093596Y086878
X0936Y089924
X09335Y089974
X0931
X092572Y089952
X0832Y090074
X08255Y091224
X082
X0816
X086794Y079718
X086794Y07933
X0868Y079024
X0875Y079074
X087494Y078818
X087494Y07933
X087494Y079718
X0901Y081974
X0743Y083124
X07405
X0738
X07355
X07345Y082424
X073733Y083957
X074167
Y08439
X073733
X0738Y085224
X07405
X0743
X07355
X0729Y084524
X0726Y084324
Y084074
X0729Y083774
X0725Y083324
X07175Y083724
X071115Y084107
X07085Y084024
X0701Y083674
X070117Y084457
X069683
Y08489
X070117
X070648Y085272
X0711Y085074
X071477Y084547
X07135Y086474
X070845Y086729
X070333Y087091
X070294Y08628
X069506Y08628
X069467Y087091
X06895Y086774
X068603Y086251
X069Y085774
X06925Y085324
X0683Y085474
X068323Y084147
X068873Y083697
X0692Y083474
X0694Y082974
X06935Y081524
X06825Y081674
X068
X06775
X06595Y081524
X0652
X06555Y080824
X0657Y080474
X06665
X06655Y080824
X0668Y082922
X06645Y083472
X06595Y083072
X0656
X065
X0644
X064117Y083055
X06385Y083022
X0631Y082924
X0634Y083474
X063817Y083839
Y084705
Y085572
X06425Y085139
Y084272
X064683Y083839
Y084705
Y085572
X06425Y086005
X065117
X06515Y086824
X0654
X066
X0667
X06675Y086022
X065983Y086005
X06555Y085572
X065117Y085139
Y084272
X06555Y083839
Y084705
X065983Y084272
Y085139
X066776Y085124
X06685Y084724
X06715
X06745
X067398Y083472
X0681Y087524
X06835
X06865
Y088124
X068Y087824
X069467Y087957
X0699Y087524
X070333Y087957
X07085Y088424
X07135Y088524
X071399Y087658
X07145Y087324
X07115
X0705Y089124
X070294Y088968
X070097Y088821
X0699Y089424
X069703Y089271
X069506Y089468
X069309Y089215
X07145Y090024
X07345
X07535Y089624
X07605Y090024
X0759Y088874
X0757Y087974
X0761Y087574
X075Y084574
Y084324
Y083824
X07135Y081024
X0716Y080474
X0706
X0702Y080724
X07095Y081424
X06385Y081474
X0628Y078974
X063Y084274
X0627Y084424
X06255Y086074
X06285
X06255Y086724
X0633
X06325Y087724
X0635
X06375
X064
X06425
X0644Y086772
X063Y087724
X063198Y089072
X0635Y089074
X06385
X06425
X0648Y088774
Y089574
Y089974
Y090574
Y091174
X065Y091328
Y091608
X06525Y091474
X0648Y092174
X064813Y092414
X06485Y092724
X0645
X064099Y092373
Y091507
Y090641
Y089775
X063666Y090208
Y091074
Y09194
X063233Y092373
Y091507
Y090641
Y089775
X0628Y090208
Y091074
Y09194
X06255Y093074
X06345
X0657Y092724
X06565Y090574
X0655Y089524
X0663Y088974
X0665Y088424
X06675Y091224
X0693Y092974
X0702
X07105
X07195
X0728
X0625Y089074
X06225
X0616
X0612
X061501Y089775
X062367
Y090641
Y091507
Y092373
X0623Y093074
X06205
X0615Y093174
X06105Y093524
X06075Y093024
Y092524
X0608Y092174
X061501Y092373
X061934Y09194
Y091074
Y090208
X061501Y090641
X0608Y090624
X06075Y090974
X061501Y091507
X0595Y091474
Y091224
Y091724
X05955Y092624
X0586Y093074
X0579
X05765Y092524
X05825Y092124
X0585Y090974
X05875Y090724
Y090474
Y090124
X059072Y089952
X0596Y089974
X05985
X0601Y089924
X06035Y089974
X0606Y089574
X06055Y086874
X060096Y086878
X058816Y08689
X05856Y086884
X058304Y086878
X058048Y086876
X057591Y086764
X0573Y086874
X056016Y08689
X05576Y086884
X055504Y086878
X055248Y086876
X0552Y086574
X054752Y086876
X054496Y086878
X05424Y086884
X053984Y08689
X053728Y086902
X05245Y086924
X05205Y085174
X0518Y085074
X0506Y084474
X0505Y086174
X05005
X04955Y085824
X049
X04845Y086324
Y089624
X0481
X04905
X05005Y089524
X05095
X0513Y090074
X052448Y089922
X05345Y089924
X05375Y089974
X054Y089924
X05425
X0545
X05475
X0553
X0552Y090874
X05705Y090824
X05755
X057552Y089972
X057296Y08997
X05704Y089964
X058048Y089922
X05825Y085374
Y084724
X0593Y084524
X05945Y082224
X0597
X05995
X0602
X06045
X0607
X06165
X0618Y082474
X0615Y081974
X0614Y081724
X06125Y081474
X06115Y081224
X059Y081974
X05865
X05825
X0584Y082224
X0588
X0575Y082574
X056418Y082692
X056103Y082677
X0559Y082674
X05565Y082624
X0554Y082674
X0548Y082824
X05395Y082924
X0535
X05305
X0526
X05215
X05335Y084224
X05405Y084674
X0545Y084374
X055Y085624
X05605Y084824
X05635
X05665
X05685Y085174
X0566Y081974
X05825Y079924
X05865Y079774
Y079374
Y078974
X0594
Y079374
Y079774
X053994Y079718
X053994Y07933
X054Y079074
X053994Y078818
X0533Y079024
X053294Y07933
X053294Y079718
X0497Y090074
X04905Y091224
X0485
X0481
X05475Y092974
X05465Y093224
X05545Y093274
X056Y092724
X06205Y086724
Y086074
X0426Y087574
X0422Y087974
X0424Y088874
X04185Y089624
X04255Y090024
X03995
X03795
X03785Y088524
X03735Y088424
X036833Y087957
X035967
Y087091
X03545Y086774
X035103Y086251
X0355Y085774
X03575Y085324
X036183Y08489
Y084457
X036617
Y08489
X037148Y085272
X0376Y085074
X037977Y084547
X037615Y084107
X03735Y084024
X0366Y083674
X0357Y083474
X035373Y083697
X034823Y084147
X0348Y085474
X03395Y084724
X03365
X03335
X033276Y085124
X032483Y085139
X031617
Y084272
X03205Y083839
X0321Y083072
X03245
X03295Y083472
X0333Y082922
X033898Y083472
X03425Y081674
X0345
X03475
X03585Y081524
X0359Y082974
X0367Y080724
X0371Y080474
X0381
X03785Y081024
X03745Y081424
X03825Y083724
X039Y083324
X0394Y083774
X0391Y084074
Y084324
X0394Y084524
X040233Y08439
X040667
Y083957
X040233
X0403Y083124
X04055
X0408
X04005
X03995Y082424
X04005Y085224
X0403
X04055
X0408
X0415Y084574
Y084324
Y083824
X03785Y086474
X037345Y086729
X036833Y087091
X036794Y08628
X036006Y08628
X0364Y087524
X03515
X03485
X0346
X0345Y087824
X03515Y088124
X035809Y089215
X036006Y089468
X036203Y089271
X0364Y089424
X036597Y088821
X036794Y088968
X037Y089124
X037899Y087658
X03795Y087324
X03765
X0332Y086824
X0325
X0319
X03165
X031617Y086005
X03205Y085572
Y084705
X032483Y084272
Y086005
X03325Y086022
X033Y088424
X0328Y088974
X032Y089524
X0313Y089574
Y089974
Y090574
Y091174
X0315Y091328
Y091608
X03175Y091474
X0313Y092174
X031313Y092414
X03135Y092724
X0322
X03215Y090574
X03325Y091224
X0358Y092974
X0367
X03755
X03845
X0393
X0313Y088774
X0315Y083072
X0317Y081524
X03245
X03205Y080824
X0322Y080474
X03315
X03305Y080824
X03035Y081474
Y083022
X030617Y083055
X0309Y083072
X031183Y083839
X030317
X0299Y083474
X0296Y082924
X0295Y084274
X0292Y084424
X030317Y084705
Y085572
X03075Y085139
Y084272
X031183Y084705
Y085572
X03075Y086005
X0309Y086772
X03075Y087724
X0305
X03025
X03
X02975
X0295
X0298Y086724
X02905
X02855
Y086074
X02905
X02935
X02705Y086874
X026596Y086878
X025316Y08689
X02506Y086884
X024804Y086878
X024548Y086876
X024091Y086764
X0238Y086874
X022516Y08689
X02226Y086884
X022004Y086878
X021748Y086876
X0217Y086574
X021252Y086876
X020996Y086878
X02074Y086884
X020484Y08689
X020228Y086902
X01895Y086924
X01855Y085174
X0183Y085074
X0171Y084474
X017Y086174
X01655
X01605Y085824
X01655Y089524
X01745
X0178Y090074
X018948Y089922
X01995Y089924
X02025Y089974
X0205Y089924
X02075
X021
X02125
X0218
X0217Y090874
X02355Y090824
X02405
X024052Y089972
X023796Y08997
X02354Y089964
X024548Y089922
X02525Y090124
Y090474
Y090724
X025Y090974
X026Y091224
Y091474
Y091724
X02605Y092624
X02725Y092524
X0273Y092174
X028001Y092373
X028Y093174
X02855Y093074
X0288
X02905
X028867Y092373
X029733
X030599
X031Y092724
X02995Y093074
X030166Y09194
X030599Y091507
Y090641
Y089775
X03075Y089074
X03035
X03
X029698Y089072
X029Y089074
X02875
X0281
X0277
X028001Y089775
X028867
X029733
X030166Y090208
Y091074
X029733Y091507
Y090641
X0293Y091074
Y09194
X028867Y091507
Y090641
X0293Y090208
X028434
Y091074
Y09194
X028001Y091507
Y090641
X0273Y090624
X02725Y090974
X02685Y089974
X0266Y089924
X02635Y089974
X0261
X025572Y089952
X0271Y089574
X02725Y093024
X02755Y093524
X0251Y093074
X0244
X02415Y092524
X02475Y092124
X0225Y092724
X02195Y093274
X02115Y093224
X02125Y092974
X0215Y085624
X021Y084374
X02055Y084674
X01985Y084224
X02Y082924
X01955
X0191
X01865
X02045
X0213Y082824
X0219Y082674
X02215Y082624
X0224Y082674
X022603Y082677
X022918Y082692
X0231Y081974
X024Y082574
X0249Y082224
X02475Y081974
X02515
X0255
X0253Y082224
X02595
X0262
X02645
X0267
X02695
X0272
X02815
X0283Y082474
X028Y081974
X0279Y081724
X02775Y081474
X02765Y081224
X0259Y079774
Y079374
Y078974
X02515
Y079374
Y079774
X02475Y079924
X020494Y079718
X020494Y07933
X0205Y079074
X020494Y078818
X0198Y079024
X019794Y07933
X019794Y079718
X02255Y084824
X02285
X02315
X02335Y085174
X02475Y085374
Y084724
X0258Y084524
X0293Y078974
X0162Y090074
X01555Y089624
X01495
X0146
Y091224
X015
X01555
X0155Y085824
X01495Y086324
Y108474
X0155Y107974
X01605
X01655Y108324
X017
X0171Y106624
X0183Y107224
X01855Y107324
X01895Y109074
X020228Y109052
X020484Y10904
X02074Y109034
X020996Y109028
X021252Y109026
X021748
X022004Y109028
X02226Y109034
X022516Y10904
X0217Y108724
X0215Y107774
X021Y106524
X02055Y106824
X01985Y106374
X02Y105074
X01955
X0191
X01865
X02045
X0213Y104974
X0219Y104824
X02215Y104774
X0224Y104824
X022603Y104827
X022918Y104842
X0231Y104124
X024Y104724
X0249Y104374
X02475Y104124
X02515
X0255
X0253Y104374
X02595
X0262
X02645
X0267
X02695
X0272
X02815
X0283Y104624
X028Y104124
X0279Y103874
X02775Y103624
X02765Y103374
X03035Y103624
Y105172
X030617Y105205
X0309Y105222
X031183Y105989
X030317
X0299Y105624
X0296Y105074
X0295Y106424
X0292Y106574
X030317Y106855
Y107722
X03075Y107289
Y106422
X031183Y106855
Y107722
X03075Y108155
X0309Y108922
X0298Y108874
X02905
X02855
Y108224
X02905
X02935
X02705Y109024
X026596Y109028
X025316Y10904
X02506Y109034
X024804Y109028
X024548Y109026
X024091Y108914
X0238Y109024
X02335Y107324
X02315Y106974
X02285
X02255
X02475Y106874
Y107524
X0258Y106674
X0259Y101924
Y101524
Y101124
X02515
Y101524
Y101924
X02475Y102074
X020494Y101868
X020494Y10148
X0205Y101224
X020494Y100968
X0198Y101174
X019794Y10148
X019794Y101868
X01845Y097224
X02045Y096074
X02095Y095424
X02135
X0218
X0222
X022298Y094872
X021767Y094541
X021333
Y094107
X021767
X02265Y094124
X020802Y093776
X020522Y094452
X021Y095072
X02455Y095974
X0254Y095624
X0255Y096224
X0258
X026057
X026337
X0266Y095624
X026315Y095139
X02614Y094974
X02586
X0257Y094474
X0263Y094624
X0295Y095124
X0303
X0309Y094874
X0302Y094224
X0293Y101124
X0322Y102624
X03205Y102974
X03305
X03315Y102624
X03245Y103674
X0317
X0315Y105222
X0321
X03245
X03295Y105622
X0333Y105072
X033898Y105622
X03395Y106874
X03365
X03335
X033276Y107274
X032483Y107289
X031617
Y106422
X03205Y105989
Y106855
Y107722
X031617Y108155
X03165Y108974
X0319
X0325
X0332
X03325Y108172
X032483Y108155
Y106422
X034823Y106297
X035373Y105847
X0357Y105624
X0359Y105124
X0366Y105824
X036617Y106607
X036183
Y107041
X036617
X037148Y107422
X0376Y107224
X037977Y106697
X037615Y106257
X03735Y106174
X03825Y105874
X039Y105474
X0394Y105924
X0391Y106224
Y106474
X0394Y106674
X040233Y10654
X040667
Y106107
X040233
X0403Y105274
X04055
X0408
X04005
X03995Y104574
X04005Y107374
X0403
X04055
X0408
X0415Y106724
Y106474
Y105974
X03785Y108624
X037345Y108879
X036833Y109241
X036794Y10843
X036006Y10843
X035967Y109241
X03545Y108924
X035103Y108401
X0355Y107924
X03575Y107474
X0348Y107624
X03475Y103824
X0345
X03425
X03585Y103674
X0367Y102874
X0371Y102624
X0381
X03785Y103174
X03745Y103574
X03545Y098124
X0384Y096824
X03265Y095974
X0316Y095624
X0318Y096774
X03155Y097074
X0313Y097524
X05195Y097224
X05395Y096074
X05445Y095424
X05485
X0553
X0557
X055798Y094872
X055267Y094541
X054833
Y094107
X055267
X05615Y094124
X054302Y093776
X054022Y094452
X0545Y095072
X05805Y095974
X0589Y095624
X059Y096224
X0593
X059557
X059837
X0601Y095624
X059815Y095139
X05964Y094974
X05936
X0592Y094474
X0598Y094624
X0594Y101124
Y101524
Y101924
X05865
Y101524
Y101124
X05825Y102074
Y104124
X0584Y104374
X0588
X05865Y104124
X059
X05945Y104374
X0597
X05995
X0602
X06045
X0607
X06165
X0618Y104624
X0615Y104124
X0614Y103874
X06125Y103624
X06115Y103374
X0575Y104724
X056418Y104842
X056103Y104827
X0559Y104824
X05565Y104774
X0554Y104824
X0548Y104974
X05395Y105074
X0535
X05305
X0526
X05215
X05205Y107324
X0518Y107224
X0506Y106624
X0505Y108324
X05005
X04955Y107974
X049
X04845Y108474
X05245Y109074
X053728Y109052
X053984Y10904
X05424Y109034
X054496Y109028
X054752Y109026
X055248
X055504Y109028
X05576Y109034
X056016Y10904
X0552Y108724
X055Y107774
X0545Y106524
X05405Y106824
X05335Y106374
X05605Y106974
X05635
X05665
X05685Y107324
X05825Y107524
Y106874
X0593Y106674
X058816Y10904
X05856Y109034
X058304Y109028
X058048Y109026
X057591Y108914
X0573Y109024
X060096Y109028
X06055Y109024
X06205Y108874
Y108224
X0566Y104124
X053994Y101868
X053994Y10148
X054Y101224
X053994Y100968
X0533Y101174
X053294Y10148
X053294Y101868
X0628Y101124
X06385Y103624
X0652Y103674
X06595
X06555Y102974
X0657Y102624
X06665
X06655Y102974
X06775Y103824
X068
X06825
X06935Y103674
X0694Y105124
X0692Y105624
X068873Y105847
X068323Y106297
X0683Y107624
X069Y107924
X06925Y107474
X069683Y107041
Y106607
X070117
Y107041
X070648Y107422
X0711Y107224
X071477Y106697
X071115Y106257
X07085Y106174
X0701Y105824
X07175Y105874
X0725Y105474
X0729Y105924
X0726Y106224
Y106474
X0729Y106674
X073733Y10654
X074167
Y106107
X073733
X0738Y105274
X07405
X0743
X07355
X07345Y104574
X07355Y107374
X0738
X07405
X0743
X075Y106724
Y106474
Y105974
X07135Y108624
X070845Y108879
X070333Y109241
X070294Y10843
X069506Y10843
X069467Y109241
X06895Y108924
X068603Y108401
X06675Y108172
X065983Y108155
X066Y108974
X0654
X06515
X0644Y108922
X06425Y108155
X063817Y107722
Y106855
Y105989
X0634Y105624
X0631Y105074
X06385Y105172
X064117Y105205
X0644Y105222
X065
X0656
X06595
X06645Y105622
X0668Y105072
X067398Y105622
X06745Y106874
X06715
X06685
X066776Y107274
X065983Y107289
X065117
X06425
Y106422
X064683Y105989
Y106855
Y107722
X065117Y108155
X06555Y107722
Y106855
X065117Y106422
X06555Y105989
X065983Y106422
X063Y106424
X0627Y106574
X06255Y108224
X06285
X06255Y108874
X0633
X0667Y108974
X0702Y102874
X0706Y102624
X0716
X07135Y103174
X07095Y103574
X06895Y098124
X0719Y096824
X06615Y095974
X0651Y095624
X0653Y096774
X06505Y097074
X0648Y097524
X0644Y094874
X0638Y095124
X063
X0637Y094224
X087522Y094452
X088333Y094541
X088767
Y094107
X088333
X087802Y093776
X088Y095072
X08795Y095424
X08835
X0888
X0892
X089298Y094872
X08965Y094124
X0927Y094474
X09286Y094974
X09314
X093315Y095139
X0933Y094624
X0936Y095624
X093337Y096224
X093057
X0928
X0925
X0924Y095624
X09155Y095974
X08745Y096074
X08545Y097224
X0868Y101174
X086794Y10148
X086794Y101868
X087494
X087494Y10148
X0875Y101224
X087494Y100968
X08745Y105074
X087
X08655
X0861
X08565
X08555Y107324
X0853Y107224
X0841Y106624
X084Y108324
X08355
X08305Y107974
X0825
X08195Y108474
X08595Y109074
X087228Y109052
X087484Y10904
X08774Y109034
X087996Y109028
X088252Y109026
X088748
X089004Y109028
X08926Y109034
X089516Y10904
X0887Y108724
X0885Y107774
X088Y106524
X08755Y106824
X08685Y106374
X0883Y104974
X0889Y104824
X08915Y104774
X0894Y104824
X089603Y104827
X089918Y104842
X0901Y104124
X091Y104724
X0919Y104374
X09175Y104124
X09215
X0925
X0923Y104374
X09295
X0932
X09345
X0937
X0928Y106674
X09175Y106874
Y107524
X091804Y109028
X091548Y109026
X09206Y109034
X092316Y10904
X093596Y109028
X091091Y108914
X0908Y109024
X09035Y107324
X09015Y106974
X08985
X08955
X09175Y102074
X09215Y101924
Y101524
Y101124
X0929
Y101524
Y101924
X09465Y103374
X09475Y103624
X0949Y103874
X095Y104124
X09515Y104374
X0953Y104624
X0942Y104374
X09395
X0966Y105074
X09735Y105172
X097617Y105205
X0979Y105222
X0985
X0991
X09945
X09995Y105622
X1003Y105072
X100898Y105622
X10095Y106874
X10065
X10035
X100276Y107274
X099483Y107289
X098617
X09775
X097317Y106855
Y105989
X0969Y105624
X0965Y106424
X0962Y106574
X09775Y106422
X098183Y105989
Y106855
Y107722
X097317
X09775Y108155
X098617
X09865Y108974
X0989
X0995
X1002
X10025Y108172
X099483Y108155
X09905Y107722
Y106855
X098617Y106422
X09905Y105989
X099483Y106422
X101823Y106297
X102373Y105847
X1027Y105624
X1029Y105124
X1036Y105824
X103617Y106607
X103183
Y107041
X103617
X104148Y107422
X1046Y107224
X104977Y106697
X104615Y106257
X10435Y106174
X10525Y105874
X106Y105474
X1064Y105924
X1061Y106224
Y106474
X1064Y106674
X107233Y10654
X107667
Y106107
X107233
X1073Y105274
X10755
X1078
X10705
X10695Y104574
X10705Y107374
X1073
X10755
X1078
X1085Y106724
Y106474
Y105974
X10485Y108624
X104345Y108879
X103833Y109241
X103794Y10843
X103006Y10843
X102967Y109241
X10245Y108924
X102103Y108401
X1025Y107924
X10275Y107474
X1018Y107624
X10175Y103824
X1015
X10125
X10285Y103674
X1037Y102874
X1041Y102624
X1051
X10485Y103174
X10445Y103574
X10005Y102974
X10015Y102624
X0992
X09905Y102974
X0987Y103674
X09945
X09735Y103624
X0963Y101124
X0983Y097524
X09855Y097074
X0988Y096774
X0986Y095624
X09965Y095974
X0979Y094874
X0973Y095124
X0965
X0972Y094224
X10245Y098124
X1054Y096824
X0979Y108922
X0968Y108874
X09605
X09555
Y108224
X09605
X09635
X09405Y109024
X11545Y108474
X116Y107974
X11655
X11705Y108324
X1175
X1176Y106624
X1188Y107224
X11905Y107324
X11945Y109074
X120728Y109052
X120984Y10904
X12124Y109034
X121496Y109028
X121752Y109026
X122248
X122504Y109028
X12276Y109034
X123016Y10904
X1222Y108724
X122Y107774
X1215Y106524
X12105Y106824
X12035Y106374
X1205Y105074
X12005
X1196
X11915
X12095
X1218Y104974
X1224Y104824
X12265Y104774
X1229Y104824
X123103Y104827
X123418Y104842
X1236Y104124
X1245Y104724
X12365Y106974
X12335
X12305
X12385Y107324
X1243Y109024
X124591Y108914
X120994Y101868
X120994Y10148
X121Y101224
X120994Y100968
X1203Y101174
X120294Y10148
X120294Y101868
X11895Y097224
X12095Y096074
X12145Y095424
X12185
X1223
X1227
X122798Y094872
X122267Y094541
X121833
Y094107
X122267
X12315Y094124
X121302Y093776
X121022Y094452
X1215Y095072
X12505Y095974
X1259Y095624
X126Y096224
X1263
X126557
X126837
X1271Y095624
X126815Y095139
X12664Y094974
X12636
X1262Y094474
X1268Y094624
X13Y095124
X1308
X1314Y094874
X1307Y094224
X1321Y095624
X1323Y096774
X13205Y097074
X1318Y097524
X13315Y095974
X13595Y098124
X1389Y096824
X1386Y102624
X13835Y103174
X13795Y103574
X1376Y102624
X1372Y102874
X13635Y103674
X13525Y103824
X135
X13475
X13295Y103674
X1322
X13255Y102974
X1327Y102624
X13365
X13355Y102974
X1338Y105072
X13345Y105622
X13295Y105222
X1326
X132
X1314
X131117Y105205
X13085Y105172
X1301Y105074
X1304Y105624
X130817Y105989
Y106855
Y107722
X13125Y107289
Y106422
X131683Y105989
Y106855
Y107722
X13125Y108155
X132117
X13215Y108974
X1324
X133
X1337
X13375Y108172
X132983Y108155
X13255Y107722
X132117Y107289
Y106422
X13255Y105989
Y106855
X132983Y106422
Y107289
X133776Y107274
X13385Y106874
X13415
X13445
X134398Y105622
X135323Y106297
X135873Y105847
X1362Y105624
X1364Y105124
X1371Y105824
X137117Y106607
X136683
Y107041
X137117
X137648Y107422
X1381Y107224
X138477Y106697
X138115Y106257
X13785Y106174
X13875Y105874
X1395Y105474
X1399Y105924
X1396Y106224
Y106474
X1399Y106674
X14055Y107374
Y105274
X14045Y104574
X13835Y108624
X137845Y108879
X137333Y109241
X137294Y10843
X136506Y10843
X136467Y109241
X13595Y108924
X135603Y108401
X136Y107924
X13625Y107474
X1353Y107624
X1314Y108922
X1303Y108874
X12955
X12905
Y108224
X12955
X12985
X1297Y106574
X13Y106424
X1288Y104624
X12865Y104374
X1285Y104124
X1284Y103874
X12825Y103624
X12815Y103374
X1277Y104374
X12745
X1272
X12695
X1267
X12645
X1258
X1254
X12525Y104124
X12565
X126
X12565Y101924
Y101524
Y101124
X1264
Y101524
Y101924
X12525Y102074
Y106874
Y107524
X125304Y109028
X125048Y109026
X12556Y109034
X125816Y10904
X127096Y109028
X12755Y109024
X1263Y106674
X13085Y103624
X1298Y101124
X1408Y105274
X14105
X1413
X141167Y106107
Y10654
X140733
Y106107
X1408Y107374
X14105
X1413
X142Y106724
Y106474
Y105974
X1431Y109724
X1427Y110124
X1429Y111024
X14235Y111774
X14305Y112174
X14045
X13845
X13835Y110674
X13785Y110574
X137333Y110107
X136467
X1369Y109674
X13565
X13535
X1351
X135Y109974
X13565Y110274
X136309Y111365
X136506Y111618
X136703Y111421
X1369Y111574
X137097Y110971
X137294Y111118
X1375Y111274
X138399Y109808
X13845Y109474
X13815
X1335Y110574
X1333Y111124
X1325Y111674
X1318Y111724
Y112124
Y112724
Y113324
X132Y113478
Y113758
X13225Y113624
X1318Y114324
X131813Y114564
X13185Y114874
X1315
X131099Y114523
Y113657
Y112791
Y111925
X13125Y111224
X13085
X1305
X130198Y111222
X1295Y111224
X12925
X1286
X1282
X128501Y111925
X129367
X130233
X130666Y112358
Y113224
Y11409
X130233Y114523
Y113657
Y112791
X1298Y113224
Y11409
X129367Y114523
X1293Y115224
X12905
X12955
X13045
X1307Y116374
X1308Y117274
X13
X1314Y117024
X1321Y117774
X1323Y118924
X13205Y119224
X1318Y119674
X13315Y118124
X1327Y114874
X13265Y112724
X13375Y113374
X1363Y115124
X1372
X13805
X13895
X1398
X1389Y118974
X13595Y120274
X126837Y118374
X126557
X1263
X126
X1259Y117774
X12636Y117124
X12664
X126815Y117289
X1268Y116774
X1262Y116624
X1256Y115224
X12525Y114274
X1255Y113124
X12575Y112874
Y112624
Y112274
X126072Y112102
X1266Y112124
X12685
X1271Y112074
X12735Y112124
X1276Y111724
X1278Y112774
X12775Y113124
X128501Y112791
X129367
X1298Y112358
X128934
Y113224
X129367Y113657
X128934Y11409
X128501Y114523
X1285Y115324
X12805Y115674
X12775Y115174
Y114674
X1278Y114324
X128501Y113657
X1265Y113624
Y113374
Y113874
X12655Y114774
X1271Y117774
X12505Y118124
X125048Y112072
X13Y109874
X13025
X1305
X13075
X131
X13125
X1318Y110924
X124552Y112122
X124296Y11212
X12404Y112114
X12405Y112974
X12455
X12465Y114674
X1249Y115224
X123Y114874
X12245Y115424
X12165Y115374
X12175Y115124
X121833Y116257
Y116691
X122267
Y116257
X12315Y116274
X122798Y117022
X1227Y117574
X1223
X12185
X12145
X1215Y117222
X121022Y116602
X121302Y115926
X12095Y118224
X11895Y119374
X119448Y112072
X12045Y112074
X12075Y112124
X121Y112074
X12125
X1215
X12175
X1223
X1222Y113024
X1183Y112224
X11795Y111674
X11705
X1167Y112224
X11605Y111774
X11545
X1151
Y113374
X1155
X11605
X10955Y112174
X1094Y111024
X1096Y109724
X1092Y110124
X10885Y111774
X10695Y112174
X10495
X10485Y110674
X10435Y110574
X103833Y110107
X102967
X1034Y109674
X10215
X10185
X1016
X1015Y109974
X10215Y110274
X102809Y111365
X103006Y111618
X103203Y111421
X1034Y111574
X103597Y110971
X103794Y111118
X104Y111274
X104899Y109808
X10495Y109474
X10465
X1Y110574
X0998Y111124
X099Y111674
X0983Y111724
Y112124
Y112724
Y113324
X0985Y113478
Y113758
X09875Y113624
X0983Y114324
X098313Y114564
X09835Y114874
X098
X097599Y114523
Y113657
Y112791
Y111925
X09775Y111224
X09735
X097
X096698Y111222
X096Y111224
X09575
X0951
X0947
X095001Y111925
X095867
X096733
X097166Y112358
Y113224
Y11409
X096733Y114523
Y113657
Y112791
X0963Y113224
Y11409
X095867Y114523
X0958Y115224
X09555
X09605
X09695
X0972Y116374
X0973Y117274
X0965
X0979Y117024
X0986Y117774
X0988Y118924
X09855Y119224
X0983Y119674
X09965Y118124
X0992Y114874
X09915Y112724
X10025Y113374
X1028Y115124
X1037
X10455
X10545
X1063
X1054Y118974
X10245Y120274
X095Y115324
X09455Y115674
X09425Y115174
Y114674
X0943Y114324
X095001Y114523
X095434Y11409
X095867Y113657
Y112791
X0963Y112358
X095434
Y113224
X095001Y113657
Y112791
X0943Y112774
X09425Y113124
X09385Y112124
X0941Y111724
X0965Y109874
X09675
X097
X09725
X0975
X09775
X0983Y110924
X0936Y112074
X09335Y112124
X0931
X092572Y112102
X09225Y112274
Y112624
Y112874
X092Y113124
X09105Y112974
X09055
X09054Y112114
X090796Y11212
X091052Y112122
X091548Y112072
X09175Y114274
X09115Y114674
X0914Y115224
X0921
X09305Y114774
X093Y113874
Y113624
Y113374
X0927Y116624
X09286Y117124
X09314
X093315Y117289
X0933Y116774
X0936Y117774
X093337Y118374
X093057
X0928
X0925
X0924Y117774
X09155Y118124
X0892Y117574
X0888
X08835
X08795
X088Y117222
X088333Y116691
X088767
Y116257
X088333
X087802Y115926
X08815Y115374
X08825Y115124
X08895Y115424
X0895Y114874
X08965Y116274
X089298Y117022
X087522Y116602
X08745Y118224
X08545Y119374
X085948Y112072
X08695Y112074
X08725Y112124
X0875Y112074
X08775
X088
X08825
X0888
X0887Y113024
X0848Y112224
X08445Y111674
X08355
X0832Y112224
X08255Y111774
X08195
X0816
Y113374
X082
X08255
X07605Y112174
X07535Y111774
X0759Y111024
X0757Y110124
X0761Y109724
X071399Y109808
X07145Y109474
X07115
X07085Y110574
X07135Y110674
X0705Y111274
X070294Y111118
X070097Y110971
X0699Y111574
X069703Y111421
X069506Y111618
X069309Y111365
X069467Y110107
X0699Y109674
X070333Y110107
X06865Y110274
Y109674
X06835
X0681
X068Y109974
X0665Y110574
X0663Y111124
X0655Y111674
X0648Y111724
Y112124
Y112724
Y113324
X065Y113478
Y113758
X06525Y113624
X0648Y114324
X064813Y114564
X06485Y114874
X0645
X064099Y114523
Y113657
Y112791
Y111925
X06425Y111224
X06385
X0635
X063198Y111222
X0625Y111224
X063233Y111925
X063666Y112358
Y113224
Y11409
X063233Y114523
Y113657
Y112791
X0628Y113224
Y11409
X06255Y115224
X06345
X0637Y116374
X0638Y117274
X063
X0644Y117024
X0651Y117774
X0653Y118924
X06505Y119224
X0648Y119674
X06615Y118124
X0657Y114874
X06565Y112724
X06675Y113374
X0693Y115124
X0702
X07105
X07195
X0728
X07345Y112174
X07145
X0719Y118974
X06895Y120274
X0648Y110924
X06425Y109874
X064
X06375
X0635
X06325
X063
X0628Y112358
X062367Y112791
Y113657
Y114523
X0623Y115224
X06205
X0615Y115324
X06105Y115674
X06075Y115174
Y114674
X0608Y114324
X061501Y114523
X061934Y11409
Y113224
Y112358
X062367Y111925
X06225Y111224
X0616
X0612
X061501Y111925
Y112791
X0608Y112774
X06075Y113124
X061501Y113657
X0595Y113624
Y113374
Y113874
X05955Y114774
X0586Y115224
X0579
X05765Y114674
X05825Y114274
X0585Y113124
X05875Y112874
Y112624
Y112274
X059072Y112102
X0596Y112124
X05985
X0601Y112074
X06035Y112124
X0606Y111724
X058048Y112072
X057552Y112122
X057296Y11212
X05704Y112114
X05705Y112974
X05755
X0552Y113024
X0553Y112074
X05475
X0545
X05425
X054
X05375Y112124
X05345Y112074
X052448Y112072
X0513Y112224
X05095Y111674
X05005
X0497Y112224
X04905Y111774
X04845
X0481
Y113374
X0485
X04905
X05475Y115124
X05465Y115374
X05545Y115424
X055267Y116257
Y116691
X054833
Y116257
X054302Y115926
X054022Y116602
X0545Y117222
X05445Y117574
X05485
X0553
X0557
X055798Y117022
X05615Y116274
X056Y114874
X0592Y116624
X05936Y117124
X05964
X059815Y117289
X0598Y116774
X0601Y117774
X059837Y118374
X059557
X0593
X059
X0589Y117774
X05805Y118124
X05395Y118224
X05195Y119374
X0384Y118974
X03845Y115124
X0393
X03755
X0367
X0358
X036006Y111618
X036203Y111421
X0364Y111574
X035809Y111365
X036597Y110971
X036794Y111118
X037Y111274
X03735Y110574
X03785Y110674
X037899Y109808
X03795Y109474
X03765
X0364Y109674
X035967Y110107
X036833
X03515Y110274
Y109674
X03485
X0346
X0345Y109974
X033Y110574
X0328Y111124
X032Y111674
X0313Y111724
Y112124
Y112724
Y113324
X0315Y113478
Y113758
X03175Y113624
X0313Y114324
X031313Y114564
X03135Y114874
X0322
X03215Y112724
X03325Y113374
X0313Y110924
X0316Y117774
X0318Y118924
X03155Y119224
X0313Y119674
X03265Y118124
X03545Y120274
X03795Y112174
X03995
X04185Y111774
X04255Y112174
X0424Y111024
X0422Y110124
X0426Y109724
X03075Y109874
X0305
X03025
X03
X02975
X0295
X029698Y111222
X03Y111224
X03035
X03075
X030599Y111925
Y112791
Y113657
Y114523
X031Y114874
X02995Y115224
X02905
X0288
X02855
X028Y115324
X02755Y115674
X02725Y115174
Y114674
X0273Y114324
X028001Y114523
X028867
X029733
X030166Y11409
Y113224
Y112358
X029733Y112791
Y113657
X0293Y11409
Y113224
Y112358
X029733Y111925
X028867
X02875Y111224
X029
X0281
X0277
X028001Y111925
X028434Y112358
X028867Y112791
Y113657
X028434Y11409
Y113224
X028001Y113657
Y112791
X0273Y112774
X02725Y113124
X02685Y112124
X0266Y112074
X02635Y112124
X0261
X025572Y112102
X02525Y112274
Y112624
Y112874
X025Y113124
X02405Y112974
X02355
X02354Y112114
X023796Y11212
X024052Y112122
X024548Y112072
X02475Y114274
X02415Y114674
X0244Y115224
X0251
X02605Y114774
X026Y113874
Y113624
Y113374
X0271Y111724
X0218Y112074
X02125
X021
X02075
X0205
X02025Y112124
X01995Y112074
X018948Y112072
X0178Y112224
X01745Y111674
X01655
X0162Y112224
X0217Y113024
X02125Y115124
X02115Y115374
X02195Y115424
X021767Y116257
Y116691
X021333
Y116257
X020802Y115926
X020522Y116602
X021Y117222
X02095Y117574
X02135
X0218
X0222
X022298Y117022
X02265Y116274
X0225Y114874
X0257Y116624
X02586Y117124
X02614
X026315Y117289
X0263Y116774
X0266Y117774
X026337Y118374
X026057
X0258
X0255
X0254Y117774
X02455Y118124
X02045Y118224
X01845Y119374
X0295Y117274
X0303
X0309Y117024
X0302Y116374
X01555Y113374
X015
X0146
Y111774
X01495
X01555
T02
X119043Y019324
X119357
X085857
X085543
X052357
X052043
X018857
X018543
Y041474
X018857
X052043
X052357
X085543
X085857
X119043
X119357
X018857Y063624
X018543
X052043
X052357
X085543
X085857
X119043
X119357
Y085774
X119043
X085857
X085543
X052357
X052043
X018857
X018543
Y107924
X018857
X052043
X052357
X085543
X085857
X119043
X119357
T03
X13295Y023124
X13345
X1351
Y022624
X13563
Y023124
X134055Y022079
X1327Y029924
X1238Y029874
X1235Y028874
X1232Y028024
X1235Y026924
X12245Y030724
X11975Y030424
Y030024
X119745Y029229
X1196Y031024
X118Y031074
Y030574
X1177Y029824
X1169Y029524
X11685Y026674
X1146Y028474
X11545Y021574
Y021124
Y020624
X116Y021124
Y021574
X1199Y019074
X1197Y018824
X12035
X1204Y025174
X11975Y024724
X10213Y023124
Y022624
X1016
Y023124
X09995
X09945
X100555Y022079
X0992Y029924
X0903Y029874
X09Y028874
X0897Y028024
X09Y026924
X08895Y030724
X08625Y030424
Y030024
X086245Y029229
X0861Y031024
X0845Y031074
Y030574
X0842Y029824
X0834Y029524
X08335Y026674
X0811Y028474
X08195Y021574
Y021124
Y020624
X0825Y021124
Y021574
X0864Y019074
X0862Y018824
X08685
X0869Y025174
X08625Y024724
X06863Y023124
Y022624
X0681
Y023124
X06645
X06595
X067055Y022079
X0657Y029924
X0568Y029874
X0565Y028874
X0562Y028024
X0565Y026924
X05545Y030724
X05275Y030424
Y030024
X052745Y029229
X0526Y031024
X051Y031074
Y030574
X0507Y029824
X0499Y029524
X04985Y026674
X0476Y028474
X04845Y021574
Y021124
Y020624
X049Y021124
Y021574
X0529Y019074
X0527Y018824
X05335
X0534Y025174
X05275Y024724
X03513Y023124
Y022624
X0346
Y023124
X03295
X03245
X033555Y022079
X0322Y029924
X0233Y029874
X023Y028874
X0227Y028024
X023Y026924
X02195Y030724
X01925Y030424
Y030024
X019245Y029229
X0191Y031024
X0175Y031074
Y030574
X0172Y029824
X0164Y029524
X01635Y026674
X01925Y024724
X0199Y025174
X01985Y018824
X0192
X0194Y019074
X0155Y021124
Y021574
X01495
Y021124
Y020624
X0141Y028474
X01495Y042774
Y043274
Y043724
X0155
Y043274
X0194Y041224
X0192Y040974
X01985
X01925Y046874
X02795Y031824
X03245Y045274
X03295
X0346
Y044774
X03513
Y045274
X033555Y044229
X04845Y043724
Y043274
Y042774
X049Y043274
Y043724
X0529Y041224
X0527Y040974
X05335
X05275Y046874
X06145Y031824
X06595Y045274
X06645
X0681
Y044774
X06863
Y045274
X067055Y044229
X08195Y043724
Y043274
Y042774
X0825Y043274
Y043724
X0864Y041224
X0862Y040974
X08685
X08625Y046874
X09945Y045274
X09995
X1016
Y044774
X10213
Y045274
X100555Y044229
X09495Y031824
X11545Y042774
Y043274
Y043724
X116
Y043274
X1199Y041224
X1197Y040974
X12035
X11975Y046874
X13295Y045274
X13345
X1351
Y044774
X13563
Y045274
X134055Y044229
X12845Y031824
Y053974
X1327Y052074
X1238Y052024
X1235Y051024
X1232Y050174
X1235Y049074
X12245Y052874
X11975Y052574
Y052174
X119745Y051379
X1196Y053174
X118Y053224
Y052724
X1177Y051974
X1169Y051674
X11685Y048824
X1146Y050624
X1204Y047324
X0992Y052074
X09495Y053974
X0903Y052024
X09Y051024
X0897Y050174
X09Y049074
X08895Y052874
X08625Y052574
Y052174
X086245Y051379
X0861Y053174
X0845Y053224
Y052724
X0842Y051974
X0834Y051674
X08335Y048824
X0811Y050624
X0869Y047324
X0657Y052074
X06145Y053974
X0568Y052024
X0565Y051024
X0562Y050174
X0565Y049074
X05545Y052874
X05275Y052574
Y052174
X052745Y051379
X0526Y053174
X051Y053224
Y052724
X0507Y051974
X0499Y051674
X04985Y048824
X0476Y050624
X0534Y047324
X0322Y052074
X02795Y053974
X0233Y052024
X023Y051024
X0227Y050174
X023Y049074
X02195Y052874
X01925Y052574
Y052174
X019245Y051379
X0191Y053174
X0175Y053224
Y052724
X0172Y051974
X0164Y051674
X01635Y048824
X0199Y047324
X0141Y050624
X01495Y064924
Y065424
Y065874
X0155
Y065424
X0141Y072774
X0164Y073824
X0172Y074124
X0175Y074874
Y075374
X0191Y075324
X01925Y074724
Y074324
X019245Y073529
X023Y073174
X0227Y072324
X023Y071224
X0233Y074174
X02195Y075024
X02795Y076124
X0199Y069474
X01925Y069024
X01635Y070974
X0194Y063374
X0192Y063124
X01985
X03245Y067424
X03295
X0346
Y066924
X03513
Y067424
X033555Y066379
X0322Y074224
X0476Y072774
X0499Y073824
X0507Y074124
X051Y074874
Y075374
X0526Y075324
X05275Y074724
Y074324
X052745Y073529
X0565Y073174
X0562Y072324
X0565Y071224
X0568Y074174
X05545Y075024
X06145Y076124
X0534Y069474
X05275Y069024
X04985Y070974
X049Y065874
Y065424
X04845
Y065874
Y064924
X0529Y063374
X0527Y063124
X05335
X06595Y067424
X06645
X0681
Y066924
X06863
Y067424
X067055Y066379
X0657Y074224
X0811Y072774
X0834Y073824
X0842Y074124
X0845Y074874
Y075374
X0861Y075324
X08625Y074724
Y074324
X086245Y073529
X09Y073174
X0897Y072324
X09Y071224
X0903Y074174
X08895Y075024
X0869Y069474
X08625Y069024
X08335Y070974
X0825Y065874
Y065424
X08195
Y065874
Y064924
X0864Y063374
X0862Y063124
X08685
X09945Y067424
X09995
X1016
Y066924
X10213
Y067424
X100555Y066379
X0992Y074224
X09495Y076124
X1146Y072774
X1169Y073824
X1177Y074124
X118Y074874
Y075374
X1196Y075324
X11975Y074724
Y074324
X119745Y073529
X1235Y073174
X1232Y072324
X1235Y071224
X1238Y074174
X12245Y075024
X1204Y069474
X11975Y069024
X11685Y070974
X116Y065874
Y065424
X11545
Y065874
Y064924
X1199Y063374
X1197Y063124
X12035
X13295Y067424
X13345
X1351
Y066924
X13563
Y067424
X134055Y066379
X1327Y074224
X12845Y076124
X13295Y089574
X13345
X1351
Y089074
X13563
Y089574
X134055Y088529
X1235Y093374
X1204Y091624
X11975Y091174
X11685Y093124
X116Y088024
Y087574
X11545
Y088024
Y087074
X1199Y085524
X1197Y085274
X12035
X10213Y089074
Y089574
X1016
Y089074
X100555Y088529
X09995Y089574
X09945
X09Y093374
X0869Y091624
X08625Y091174
X08335Y093124
X0825Y088024
Y087574
X08195
Y088024
Y087074
X0864Y085524
X0862Y085274
X08685
X06863Y089074
Y089574
X0681
Y089074
X067055Y088529
X06645Y089574
X06595
X0565Y093374
X0534Y091624
X05275Y091174
X04985Y093124
X049Y088024
Y087574
X04845
Y088024
Y087074
X0529Y085524
X0527Y085274
X05335
X03513Y089074
Y089574
X0346
Y089074
X033555Y088529
X03295Y089574
X03245
X023Y093374
X0199Y091624
X01925Y091174
X01635Y093124
X0194Y085524
X0192Y085274
X01985
X0155Y087574
Y088024
X01495
Y087574
Y087074
X0141Y094924
X01495Y109224
X0194Y107674
X0192Y107424
X01985
X0191Y097474
X01925Y096874
Y096474
X019245Y095679
X0172Y096274
X0175Y097024
Y097524
X0164Y095974
X02195Y097174
X0233Y096324
X023Y095324
X0227Y094474
X02795Y098274
X0322Y096374
X0476Y094924
X0499Y095974
X0507Y096274
X051Y097024
Y097524
X0526Y097474
X05275Y096874
Y096474
X052745Y095679
X0565Y095324
X0562Y094474
X0568Y096324
X05545Y097174
X06145Y098274
X05335Y107424
X0527
X0529Y107674
X04845Y109224
X0657Y096374
X0811Y094924
X0834Y095974
X0842Y096274
X0845Y097024
Y097524
X0861Y097474
X08625Y096874
Y096474
X086245Y095679
X09Y095324
X0897Y094474
X0903Y096324
X08895Y097174
X08685Y107424
X0862
X0864Y107674
X08195Y109224
X09495Y098274
X0992Y096374
X1146Y094924
X1169Y095974
X1177Y096274
X118Y097024
Y097524
X1196Y097474
X11975Y096874
Y096474
X119745Y095679
X1235Y095324
X1232Y094474
X1238Y096324
X12245Y097174
X12035Y107424
X1197
X1199Y107674
X11545Y109224
X12845Y098274
X1327Y096374
X13295Y111724
X13345
X1351
Y111224
X13563
Y111724
X134055Y110679
X1327Y118524
X12845Y120424
X1238Y118474
X1235Y117474
X1232Y116624
X1235Y115524
X12245Y119324
X11975Y119024
Y118624
X119745Y117829
X1196Y119624
X118Y119674
Y119174
X1177Y118424
X1169Y118124
X11685Y115274
X1146Y117074
X11545Y110174
Y109724
X116
Y110174
X11975Y113324
X1204Y113774
X10213Y111724
Y111224
X1016
Y111724
X09995
X09945
X100555Y110679
X0992Y118524
X09495Y120424
X0903Y118474
X09Y117474
X0897Y116624
X09Y115524
X08895Y119324
X08625Y119024
Y118624
X086245Y117829
X0861Y119624
X0845Y119674
Y119174
X0842Y118424
X0834Y118124
X08335Y115274
X0811Y117074
X08195Y110174
Y109724
X0825
Y110174
X08625Y113324
X0869Y113774
X06863Y111724
Y111224
X0681
Y111724
X06645
X06595
X067055Y110679
X0657Y118524
X06145Y120424
X0568Y118474
X0565Y117474
X0562Y116624
X0565Y115524
X05545Y119324
X05275Y119024
Y118624
X052745Y117829
X0526Y119624
X051Y119674
Y119174
X0507Y118424
X0499Y118124
X04985Y115274
X0476Y117074
X04845Y110174
Y109724
X049
Y110174
X05275Y113324
X0534Y113774
X03513Y111724
Y111224
X0346
Y111724
X03295
X03245
X033555Y110679
X0322Y118524
X02795Y120424
X0233Y118474
X023Y117474
X0227Y116624
X023Y115524
X02195Y119324
X01925Y119024
Y118624
X019245Y117829
X0191Y119624
X0175Y119674
Y119174
X0172Y118424
X0164Y118124
X01635Y115274
X01925Y113324
X0199Y113774
X0155Y110174
Y109724
X01495
Y110174
X0141Y117074
T04
X12635Y027574
X125366Y028874
X127334
X11535Y028074
Y027074
Y026074
X093834Y028874
X091866
X09285Y027574
X08185Y028074
Y027074
Y026074
X05935Y027574
X058366Y028874
X060334
X04835Y028074
Y027074
Y026074
X02585Y027574
X024866Y028874
X026834
X01485Y028074
Y027074
Y026074
X12635Y049724
X125366Y051024
X127334
X11535Y050224
Y049224
Y048224
X093834Y051024
X091866
X09285Y049724
X08185Y050224
Y049224
Y048224
X05935Y049724
X058366Y051024
X060334
X04835Y050224
Y049224
Y048224
X02585Y049724
X024866Y051024
X026834
X01485Y050224
Y049224
Y048224
Y070374
Y071374
Y072374
X024866Y073174
X026834
X02585Y071874
X04835Y072374
Y071374
Y070374
X05935Y071874
X058366Y073174
X060334
X08185Y072374
Y071374
Y070374
X09285Y071874
X091866Y073174
X093834
X11535Y072374
Y071374
Y070374
X12635Y071874
X125366Y073174
X127334
X11535Y092524
Y093524
X08185
Y092524
X04835
Y093524
X01485
Y092524
Y094524
X024866Y095324
X026834
X02585Y094024
X04835Y094524
X058366Y095324
X060334
X05935Y094024
X08185Y094524
X091866Y095324
X09285Y094024
X093834Y095324
X11535Y094524
X125366Y095324
X127334
X12635Y094024
Y116174
X125366Y117474
X127334
X11535Y116674
Y115674
Y114674
X093834Y117474
X091866
X09285Y116174
X08185Y116674
Y115674
Y114674
X05935Y116174
X058366Y117474
X060334
X04835Y116674
Y115674
Y114674
X02585Y116174
X024866Y117474
X026834
X01485Y116674
Y115674
Y114674
T05
X14175Y025024
Y026024
X14325
Y025024
X1392Y025274
X1382
X1372
X1362
X1367Y024274
X1357
X1377
X1387
X11405Y023974
Y022974
Y021974
Y020974
Y019974
Y018974
X11305
Y019974
Y020974
Y021974
Y022974
Y023974
Y024974
X11405
Y025974
X11305
X10975Y026024
Y025024
X11305Y017774
X11405
X10825Y025024
Y026024
X1057Y025274
X1047
X1037
X1027
X1032Y024274
X1022
X1042
X1052
X08055Y023974
Y022974
Y021974
Y020974
Y019974
Y018974
X07955
Y019974
Y020974
Y021974
Y022974
Y023974
Y024974
X08055
Y025974
X07955
Y017774
X08055
X07625Y025024
Y026024
X07475
Y025024
X0722Y025274
X0712
X0702
X0692
X0697Y024274
X0687
X0707
X0717
X04705Y023974
Y022974
Y021974
Y020974
Y019974
Y018974
Y017774
Y024974
Y025974
X04605
Y024974
Y023974
Y022974
Y021974
Y020974
Y019974
Y018974
Y017774
X04275Y025024
Y026024
X04125
Y025024
X0387Y025274
X0377
X0367
X0357
X0362Y024274
X0352
X0372
X0382
X01355Y023974
Y022974
Y021974
Y020974
Y019974
Y018974
X01255
Y019974
Y020974
Y021974
Y022974
Y023974
Y024974
X01355
Y025974
X01255
Y017774
X01355
Y039924
X01255
Y041124
X01355
Y042124
Y043124
Y044124
Y045124
Y046124
X01255
Y045124
Y044124
Y043124
Y042124
X0352Y046424
X0362
X0372
X0382
X04605Y046124
Y045124
Y044124
Y043124
Y042124
Y041124
Y039924
X04705
Y041124
Y042124
Y043124
Y044124
Y045124
Y046124
X0687Y046424
X0697
X0707
X0717
X07955Y046124
X08055
Y045124
Y044124
Y043124
Y042124
Y041124
X07955
Y042124
Y043124
Y044124
Y045124
Y039924
X08055
X1022Y046424
X1032
X1042
X1052
X11305Y046124
X11405
Y045124
Y044124
Y043124
Y042124
Y041124
X11305
Y042124
Y043124
Y044124
Y045124
Y039924
X11405
X1357Y046424
X1367
X1377
X1387
X14175Y047174
Y048174
X14325
Y047174
X1392Y047424
X1382
X1372
X1362
X11405Y047124
Y048124
X11305
Y047124
X10975Y047174
Y048174
X11305Y062074
X11405
X10825Y048174
Y047174
X1057Y047424
X1047
X1037
X1027
X08055Y047124
Y048124
X07955
Y047124
Y062074
X08055
X07625Y048174
Y047174
X07475
Y048174
X0722Y047424
X0712
X0702
X0692
X04705Y047124
Y048124
Y062074
X04605
Y048124
Y047124
X04275Y047174
Y048174
X04125
Y047174
X0387Y047424
X0377
X0367
X0357
X01355Y047124
Y048124
X01255
Y047124
Y062074
X01355
Y063274
Y064274
Y065274
Y066274
Y067274
Y068274
Y069274
Y070274
X01255
Y069274
Y068274
Y067274
Y066274
Y065274
Y064274
Y063274
X0352Y068574
X0362
X0372
X0382
X0377Y069574
X0387
X0367
X0357
X04125Y069324
Y070324
X04275
Y069324
X04605Y069274
Y068274
Y067274
Y066274
Y065274
Y064274
Y063274
Y070274
X04705
Y069274
Y068274
Y067274
Y066274
Y065274
Y064274
Y063274
X0687Y068574
X0697
X0707
X0717
X0712Y069574
X0722
X0702
X0692
X07475Y069324
Y070324
X07625
Y069324
X07955Y069274
X08055
Y068274
Y067274
Y066274
Y065274
Y064274
Y063274
X07955
Y064274
Y065274
Y066274
Y067274
Y068274
Y070274
X08055
X1027Y069574
X1037
X1047
X1057
X1052Y068574
X1042
X1032
X1022
X10825Y069324
Y070324
X10975
Y069324
X11305Y069274
X11405
Y068274
Y067274
Y066274
Y065274
Y064274
Y063274
X11305
Y064274
Y065274
Y066274
Y067274
Y068274
Y070274
X11405
X1362Y069574
X1372
X1382
X1392
X1387Y068574
X1377
X1367
X1357
X14175Y069324
Y070324
X14325
Y069324
Y091474
Y092474
X14175
Y091474
X1392Y091724
X1382
X1372
X1362
X1367Y090724
X1357
X1377
X1387
X11405Y090424
Y089424
Y088424
Y087424
Y086424
Y085424
X11305
Y086424
Y087424
Y088424
Y089424
Y090424
Y091424
X11405
Y092424
X11305
X10975Y092474
Y091474
X11305Y084224
X11405
X10825Y091474
Y092474
X1057Y091724
X1047
X1037
X1027
X1032Y090724
X1022
X1042
X1052
X08055Y090424
Y089424
Y088424
Y087424
Y086424
Y085424
X07955
Y086424
Y087424
Y088424
Y089424
Y090424
Y091424
X08055
Y092424
X07955
Y084224
X08055
X07625Y091474
Y092474
X07475
Y091474
X0722Y091724
X0712
X0702
X0692
X0697Y090724
X0687
X0707
X0717
X04705Y090424
Y089424
Y088424
Y087424
Y086424
Y085424
Y084224
Y091424
Y092424
X04605
Y091424
Y090424
Y089424
Y088424
Y087424
Y086424
Y085424
Y084224
X04275Y091474
Y092474
X04125
Y091474
X0387Y091724
X0377
X0367
X0357
X0362Y090724
X0352
X0372
X0382
X01355Y090424
Y089424
Y088424
Y087424
Y086424
Y085424
X01255
Y086424
Y087424
Y088424
Y089424
Y090424
Y091424
X01355
Y092424
X01255
Y084224
X01355
Y106374
X01255
Y107574
X01355
Y108574
X01255
X04605
Y107574
Y106374
X04705
Y107574
Y108574
X07955
X08055
Y107574
X07955
Y106374
X08055
X11305
X11405
Y107574
Y108574
X11305
Y107574
X14175Y113624
Y114624
X14325
Y113624
X1392Y113874
X1382
X1372
X1362
X1367Y112874
X1357
X1377
X1387
X11405Y112574
Y111574
Y110574
Y109574
X11305
Y110574
Y111574
Y112574
Y113574
X11405
Y114574
X11305
X10975Y114624
Y113624
X10825
Y114624
X1057Y113874
X1047
X1037
X1027
X1032Y112874
X1022
X1042
X1052
X08055Y112574
Y111574
Y110574
Y109574
X07955
Y110574
Y111574
Y112574
Y113574
X08055
Y114574
X07955
X07625Y114624
Y113624
X07475
Y114624
X0722Y113874
X0712
X0702
X0692
X0697Y112874
X0687
X0707
X0717
X04705Y112574
Y111574
Y110574
Y109574
Y113574
Y114574
X04605
Y113574
Y112574
Y111574
Y110574
Y109574
X04275Y113624
Y114624
X04125
Y113624
X0387Y113874
X0377
X0367
X0357
X0362Y112874
X0352
X0372
X0382
X01355Y112574
Y111574
Y110574
Y109574
X01255
Y110574
Y111574
Y112574
Y113574
X01355
Y114574
X01255
T06
X129822Y027157
X130806
X131594
X13248
X09898
X098094
X097306
X096322
X06548
X064594
X063806
X062822
X03198
X031094
X030306
X029322
X129822Y049307
X130806
X131594
X13248
X09898
X098094
X097306
X096322
X06548
X064594
X063806
X062822
X03198
X031094
X030306
X029322
Y071457
X030306
X031094
X03198
X062822
X063806
X064594
X06548
X096322
X097306
X098094
X09898
X129822
X130806
X131594
X13248
Y093607
X131594
X130806
X129822
X09898
X098094
X097306
X096322
X06548
X064594
X063806
X062822
X03198
X031094
X030306
X029322
X129822Y115757
X130806
X131594
X13248
X09898
X098094
X097306
X096322
X06548
X064594
X063806
X062822
X03198
X031094
X030306
X029322
T07
X021764Y013074
X023536
X026764
X028536
X055264
X057036
X060264
X062036
X088764
X090536
X093764
X095536
X122264
X124036
X127264
X129036
X028536Y035224
X026764
X023536
X021764
X055264
X057036
X060264
X062036
X088764
X090536
X093764
X095536
X122264
X124036
X127264
X129036
Y057374
X127264
X124036
X122264
X095536
X093764
X090536
X088764
X062036
X060264
X057036
X055264
X028536
X026764
X023536
X021764
X127264Y079524
X129036
X124036
X122264
X095536
X093764
X090536
X088764
X062036
X060264
X057036
X055264
X028536
X026764
X023536
X021764
Y101674
X023536
X026764
X028536
X055264
X057036
X060264
X062036
X088764
X090536
X093764
X095536
X122264
X124036
X127264
X129036
T08
X13496Y029105
X13596Y029703
X13894Y029105
X13994Y029703
X10644
X10544Y029105
X10246Y029703
X10146Y029105
X07294Y029703
X07194Y029105
X06896Y029703
X06796Y029105
X03944Y029703
X03844Y029105
X03546Y029703
X03446Y029105
X13496Y051255
X13596Y051853
X13894Y051255
X13994Y051853
X10644
X10544Y051255
X10246Y051853
X10146Y051255
X07294Y051853
X07194Y051255
X06896Y051853
X06796Y051255
X03944Y051853
X03844Y051255
X03546Y051853
X03446Y051255
Y073405
X03546Y074003
X03844Y073405
X03944Y074003
X06796Y073405
X06896Y074003
X07194Y073405
X07294Y074003
X10146Y073405
X10246Y074003
X10544Y073405
X10644Y074003
X13496Y073405
X13596Y074003
X13894Y073405
X13994Y074003
X03944Y096153
X03844Y095555
X03546Y096153
X03446Y095555
X06796
X06896Y096153
X07194Y095555
X07294Y096153
X10146Y095555
X10246Y096153
X10544Y095555
X10644Y096153
X13496Y095555
X13596Y096153
X13894Y095555
X13994Y096153
Y118303
X13894Y117705
X13596Y118303
X13496Y117705
X10644Y118303
X10544Y117705
X10246Y118303
X10146Y117705
X07294Y118303
X07194Y117705
X06896Y118303
X06796Y117705
X03944Y118303
X03844Y117705
X03546Y118303
X03446Y117705
T09
X0202Y031274
X0227
X02485
X02735
X0537
X0562
X05835
X06085
X0872
X0897
X09185
X09435
X1207
X1232
X12535
X12785
Y053424
X12535
X1232
X1207
X09435
X09185
X0897
X0872
X06085
X05835
X0562
X0537
X02735
X02485
X0227
X0202
Y075574
X0227
X02485
X02735
X0537
X0562
X05835
X06085
X0872
X0897
X09185
X09435
X1207
X1232
X12535
X12785
X02735Y097724
X02485
X0227
X0202
X0537
X0562
X05835
X06085
X0872
X0897
X09185
X09435
X1207
X1232
X12535
X12785
Y119874
X12535
X1232
X1207
X09435
X09185
X0897
X0872
X06085
X05835
X0562
X0537
X02735
X02485
X0227
X0202
T10
X02127Y014054
X02403
X02627
X02903
X05477
X05753
X05977
X06253
X08827
X09103
X09327
X09603
X12177
X12453
X12677
X12953
X02903Y036204
X02627
X02403
X02127
X05477
X05753
X05977
X06253
X08827
X09103
X09327
X09603
X12177
X12453
X12677
X12953
Y058354
X12677
X12453
X12177
X09603
X09327
X09103
X08827
X06253
X05977
X05753
X05477
X02903
X02627
X02403
X02127
X12677Y080504
X12953
X12453
X12177
X09603
X09327
X09103
X08827
X06253
X05977
X05753
X05477
X02903
X02627
X02403
X02127
Y102654
X02403
X02627
X02903
X05477
X05753
X05977
X06253
X08827
X09103
X09327
X09603
X12177
X12453
X12677
X12953
T11
X13435Y026573
X14055
X11835Y026643
Y029005
X1165Y027824
X10705Y026573
X10085
X08485Y026643
Y029005
X083Y027824
X07355Y026573
X06735
X05135Y026643
Y029005
X0495Y027824
X04005Y026573
X03385
X01785Y026643
Y029005
X016Y027824
X13435Y048723
X14055
X11835Y048793
Y051155
X1165Y049974
X10705Y048723
X10085
X08485Y048793
Y051155
X083Y049974
X07355Y048723
X06735
X05135Y048793
Y051155
X0495Y049974
X04005Y048723
X03385
X01785Y048793
Y051155
X016Y049974
Y072124
X01785Y070943
Y073305
X03385Y070873
X04005
X0495Y072124
X05135Y070943
Y073305
X06735Y070873
X07355
X083Y072124
X08485Y070943
Y073305
X10085Y070873
X10705
X1165Y072124
X11835Y070943
Y073305
X13435Y070873
X14055
Y093023
X13435
X11835Y093093
X10705Y093023
X10085
X08485Y093093
X07355Y093023
X06735
X05135Y093093
X04005Y093023
X03385
X01785Y093093
Y095455
X016Y094274
X0495
X05135Y095455
X083Y094274
X08485Y095455
X1165Y094274
X11835Y095455
X13435Y115173
X14055
X11835Y115243
Y117605
X1165Y116424
X10705Y115173
X10085
X08485Y115243
Y117605
X083Y116424
X07355Y115173
X06735
X05135Y115243
Y117605
X0495Y116424
X04005Y115173
X03385
X01785Y115243
Y117605
X016Y116424
T12
X129241Y016978
X117945Y025089
X095741Y016978
X084445Y025089
X062241Y016978
X050945Y025089
X028741Y016978
X017445Y025089
X028741Y039128
X062241
X095741
X129241
Y061278
X117945Y047239
X095741Y061278
X084445Y047239
X050945
X062241Y061278
X028741
X017445Y047239
Y069389
X050945
X084445
X117945
X129241Y083428
X117945Y091539
X095741Y083428
X084445Y091539
X062241Y083428
X050945Y091539
X028741Y083428
X017445Y091539
X028741Y105578
X062241
X095741
X129241
X117945Y113689
X084445
X050945
X017445
T13
X128613Y028224
X133787
X100287
X095113
X066787
X061613
X033287
X028113
X128613Y050374
X133787
X100287
X095113
X066787
X061613
X033287
X028113
Y072524
X033287
X061613
X066787
X095113
X100287
X128613
X133787
X028113Y094674
X033287
X061613
X066787
X095113
X100287
X128613
X133787
Y116824
X128613
X100287
X095113
X066787
X061613
X033287
X028113
T14
X1352Y027774
X1397
X1062
X1017
X0727
X0682
X0392
X0347
X1352Y049924
X1397
X1062
X1017
X0727
X0682
X0392
X0347
Y072074
X0392
X0682
X0727
X1017
X1062
X1352
X1397
X0392Y094224
X0347
X0682
X0727
X1017
X1062
X1352
X1397
Y116374
X1352
X1062
X1017
X0727
X0682
X0392
X0347
T15
X143Y016274
Y027774
X1135
X1095
Y016274
X1135
X08
Y027774
X076
Y016274
X0465
X0425
Y027774
X0465
X013
Y016274
Y038424
X0425
X0465
X076
X08
X1095
X1135
X143
Y049924
Y060574
X1135
X1095
Y049924
X1135
X08
Y060574
X076
Y049924
X0465
X0425
Y060574
X0465
X013
Y049924
Y072074
X0425
X0465
X076
X08
X1095
X1135
X143
Y082724
X1135
X1095
X08
X076
X0465
X0425
X013
Y094224
Y104874
X0425
X0465
Y094224
X0425
X076
Y104874
X08
Y094224
X1095
X1135
Y104874
X1095
X143
Y094224
Y116374
X1135
X1095
X08
X076
X0465
X0425
X013
T16
X01285Y0131
X14315
Y11965
X01285
T17
X13165Y021974
X13365Y021574
Y022374
X10015
Y021574
X09815Y021974
X06665Y021574
Y022374
X06465Y021974
X03315Y021574
Y022374
X03115Y021974
Y044124
X03315Y043724
Y044524
X06465Y044124
X06665Y043724
Y044524
X09815Y044124
X10015Y043724
Y044524
X13165Y044124
X13365Y043724
Y044524
X03115Y066274
X03315Y065874
Y066674
X06465Y066274
X06665Y065874
Y066674
X09815Y066274
X10015Y065874
Y066674
X13165Y066274
X13365Y065874
Y066674
Y088024
Y088824
X13165Y088424
X10015Y088024
Y088824
X09815Y088424
X06665Y088024
Y088824
X06465Y088424
X03315Y088024
Y088824
X03115Y088424
X13165Y110574
X13365Y110174
Y110974
X10015
Y110174
X09815Y110574
X06665Y110174
Y110974
X06465Y110574
X03315Y110174
Y110974
X03115Y110574
M30
