G04 Layer_Color=16711935*
%FSLAX24Y24*%
%MOIN*%
G70*
G01*
G75*
%ADD49C,0.0100*%
%ADD103C,0.0050*%
D49*
X10000Y10000D02*
X146100D01*
Y122750D01*
X10000D02*
X146100D01*
X10000Y10000D02*
Y122750D01*
D103*
X13476Y29053D02*
G03*
X15051Y30628I0J1575D01*
G01*
X40445Y30616D02*
G03*
X42020Y29042I1575J0D01*
G01*
Y15075D02*
G03*
X40445Y13500I0J-1575D01*
G01*
X15051D02*
G03*
X13476Y15075I-1575J0D01*
G01*
X12000D02*
Y29053D01*
X15051Y32104D02*
X40434D01*
X15051Y12024D02*
X40445D01*
X43496Y15075D02*
Y29042D01*
X15051Y30628D02*
Y32104D01*
X12000Y29053D02*
X13476D01*
X42020Y29042D02*
X43496D01*
X40445Y30616D02*
Y32093D01*
Y12024D02*
Y13500D01*
X42020Y15075D02*
X43496D01*
X15051Y12024D02*
Y13500D01*
X12000Y15075D02*
X13476D01*
X46976Y29053D02*
G03*
X48551Y30628I0J1575D01*
G01*
X73945Y30616D02*
G03*
X75520Y29042I1575J0D01*
G01*
Y15075D02*
G03*
X73945Y13500I0J-1575D01*
G01*
X48551D02*
G03*
X46976Y15075I-1575J0D01*
G01*
X45500D02*
Y29053D01*
X48551Y32104D02*
X73934D01*
X48551Y12024D02*
X73945D01*
X76996Y15075D02*
Y29042D01*
X48551Y30628D02*
Y32104D01*
X45500Y29053D02*
X46976D01*
X75520Y29042D02*
X76996D01*
X73945Y30616D02*
Y32093D01*
Y12024D02*
Y13500D01*
X75520Y15075D02*
X76996D01*
X48551Y12024D02*
Y13500D01*
X45500Y15075D02*
X46976D01*
X80476Y29053D02*
G03*
X82051Y30628I0J1575D01*
G01*
X107445Y30616D02*
G03*
X109020Y29042I1575J0D01*
G01*
Y15075D02*
G03*
X107445Y13500I0J-1575D01*
G01*
X82051D02*
G03*
X80476Y15075I-1575J0D01*
G01*
X79000D02*
Y29053D01*
X82051Y32104D02*
X107434D01*
X82051Y12024D02*
X107445D01*
X110496Y15075D02*
Y29042D01*
X82051Y30628D02*
Y32104D01*
X79000Y29053D02*
X80476D01*
X109020Y29042D02*
X110496D01*
X107445Y30616D02*
Y32093D01*
Y12024D02*
Y13500D01*
X109020Y15075D02*
X110496D01*
X82051Y12024D02*
Y13500D01*
X79000Y15075D02*
X80476D01*
X113976Y29053D02*
G03*
X115551Y30628I0J1575D01*
G01*
X140945Y30616D02*
G03*
X142520Y29042I1575J0D01*
G01*
Y15075D02*
G03*
X140945Y13500I0J-1575D01*
G01*
X115551D02*
G03*
X113976Y15075I-1575J0D01*
G01*
X112500D02*
Y29053D01*
X115551Y32104D02*
X140934D01*
X115551Y12024D02*
X140945D01*
X143996Y15075D02*
Y29042D01*
X115551Y30628D02*
Y32104D01*
X112500Y29053D02*
X113976D01*
X142520Y29042D02*
X143996D01*
X140945Y30616D02*
Y32093D01*
Y12024D02*
Y13500D01*
X142520Y15075D02*
X143996D01*
X115551Y12024D02*
Y13500D01*
X112500Y15075D02*
X113976D01*
X13476Y51203D02*
G03*
X15051Y52778I0J1575D01*
G01*
X40445Y52766D02*
G03*
X42020Y51192I1575J0D01*
G01*
Y37225D02*
G03*
X40445Y35650I0J-1575D01*
G01*
X15051D02*
G03*
X13476Y37225I-1575J0D01*
G01*
X12000D02*
Y51203D01*
X15051Y54254D02*
X40434D01*
X15051Y34174D02*
X40445D01*
X43496Y37225D02*
Y51192D01*
X15051Y52778D02*
Y54254D01*
X12000Y51203D02*
X13476D01*
X42020Y51192D02*
X43496D01*
X40445Y52766D02*
Y54243D01*
Y34174D02*
Y35650D01*
X42020Y37225D02*
X43496D01*
X15051Y34174D02*
Y35650D01*
X12000Y37225D02*
X13476D01*
X46976Y51203D02*
G03*
X48551Y52778I0J1575D01*
G01*
X73945Y52766D02*
G03*
X75520Y51192I1575J0D01*
G01*
Y37225D02*
G03*
X73945Y35650I0J-1575D01*
G01*
X48551D02*
G03*
X46976Y37225I-1575J0D01*
G01*
X45500D02*
Y51203D01*
X48551Y54254D02*
X73934D01*
X48551Y34174D02*
X73945D01*
X76996Y37225D02*
Y51192D01*
X48551Y52778D02*
Y54254D01*
X45500Y51203D02*
X46976D01*
X75520Y51192D02*
X76996D01*
X73945Y52766D02*
Y54243D01*
Y34174D02*
Y35650D01*
X75520Y37225D02*
X76996D01*
X48551Y34174D02*
Y35650D01*
X45500Y37225D02*
X46976D01*
X80476Y51203D02*
G03*
X82051Y52778I0J1575D01*
G01*
X107445Y52766D02*
G03*
X109020Y51192I1575J0D01*
G01*
Y37225D02*
G03*
X107445Y35650I0J-1575D01*
G01*
X82051D02*
G03*
X80476Y37225I-1575J0D01*
G01*
X79000D02*
Y51203D01*
X82051Y54254D02*
X107434D01*
X82051Y34174D02*
X107445D01*
X110496Y37225D02*
Y51192D01*
X82051Y52778D02*
Y54254D01*
X79000Y51203D02*
X80476D01*
X109020Y51192D02*
X110496D01*
X107445Y52766D02*
Y54243D01*
Y34174D02*
Y35650D01*
X109020Y37225D02*
X110496D01*
X82051Y34174D02*
Y35650D01*
X79000Y37225D02*
X80476D01*
X113976Y51203D02*
G03*
X115551Y52778I0J1575D01*
G01*
X140945Y52766D02*
G03*
X142520Y51192I1575J0D01*
G01*
Y37225D02*
G03*
X140945Y35650I0J-1575D01*
G01*
X115551D02*
G03*
X113976Y37225I-1575J0D01*
G01*
X112500D02*
Y51203D01*
X115551Y54254D02*
X140934D01*
X115551Y34174D02*
X140945D01*
X143996Y37225D02*
Y51192D01*
X115551Y52778D02*
Y54254D01*
X112500Y51203D02*
X113976D01*
X142520Y51192D02*
X143996D01*
X140945Y52766D02*
Y54243D01*
Y34174D02*
Y35650D01*
X142520Y37225D02*
X143996D01*
X115551Y34174D02*
Y35650D01*
X112500Y37225D02*
X113976D01*
X13476Y73353D02*
G03*
X15051Y74928I0J1575D01*
G01*
X40445Y74916D02*
G03*
X42020Y73342I1575J0D01*
G01*
Y59375D02*
G03*
X40445Y57800I0J-1575D01*
G01*
X15051D02*
G03*
X13476Y59375I-1575J0D01*
G01*
X12000D02*
Y73353D01*
X15051Y76404D02*
X40434D01*
X15051Y56324D02*
X40445D01*
X43496Y59375D02*
Y73342D01*
X15051Y74928D02*
Y76404D01*
X12000Y73353D02*
X13476D01*
X42020Y73342D02*
X43496D01*
X40445Y74916D02*
Y76393D01*
Y56324D02*
Y57800D01*
X42020Y59375D02*
X43496D01*
X15051Y56324D02*
Y57800D01*
X12000Y59375D02*
X13476D01*
X46976Y73353D02*
G03*
X48551Y74928I0J1575D01*
G01*
X73945Y74916D02*
G03*
X75520Y73342I1575J0D01*
G01*
Y59375D02*
G03*
X73945Y57800I0J-1575D01*
G01*
X48551D02*
G03*
X46976Y59375I-1575J0D01*
G01*
X45500D02*
Y73353D01*
X48551Y76404D02*
X73934D01*
X48551Y56324D02*
X73945D01*
X76996Y59375D02*
Y73342D01*
X48551Y74928D02*
Y76404D01*
X45500Y73353D02*
X46976D01*
X75520Y73342D02*
X76996D01*
X73945Y74916D02*
Y76393D01*
Y56324D02*
Y57800D01*
X75520Y59375D02*
X76996D01*
X48551Y56324D02*
Y57800D01*
X45500Y59375D02*
X46976D01*
X80476Y73353D02*
G03*
X82051Y74928I0J1575D01*
G01*
X107445Y74916D02*
G03*
X109020Y73342I1575J0D01*
G01*
Y59375D02*
G03*
X107445Y57800I0J-1575D01*
G01*
X82051D02*
G03*
X80476Y59375I-1575J0D01*
G01*
X79000D02*
Y73353D01*
X82051Y76404D02*
X107434D01*
X82051Y56324D02*
X107445D01*
X110496Y59375D02*
Y73342D01*
X82051Y74928D02*
Y76404D01*
X79000Y73353D02*
X80476D01*
X109020Y73342D02*
X110496D01*
X107445Y74916D02*
Y76393D01*
Y56324D02*
Y57800D01*
X109020Y59375D02*
X110496D01*
X82051Y56324D02*
Y57800D01*
X79000Y59375D02*
X80476D01*
X113976Y73353D02*
G03*
X115551Y74928I0J1575D01*
G01*
X140945Y74916D02*
G03*
X142520Y73342I1575J0D01*
G01*
Y59375D02*
G03*
X140945Y57800I0J-1575D01*
G01*
X115551D02*
G03*
X113976Y59375I-1575J0D01*
G01*
X112500D02*
Y73353D01*
X115551Y76404D02*
X140934D01*
X115551Y56324D02*
X140945D01*
X143996Y59375D02*
Y73342D01*
X115551Y74928D02*
Y76404D01*
X112500Y73353D02*
X113976D01*
X142520Y73342D02*
X143996D01*
X140945Y74916D02*
Y76393D01*
Y56324D02*
Y57800D01*
X142520Y59375D02*
X143996D01*
X115551Y56324D02*
Y57800D01*
X112500Y59375D02*
X113976D01*
X13476Y95503D02*
G03*
X15051Y97078I0J1575D01*
G01*
X40445Y97066D02*
G03*
X42020Y95492I1575J0D01*
G01*
Y81525D02*
G03*
X40445Y79950I0J-1575D01*
G01*
X15051D02*
G03*
X13476Y81525I-1575J0D01*
G01*
X12000D02*
Y95503D01*
X15051Y98554D02*
X40434D01*
X15051Y78474D02*
X40445D01*
X43496Y81525D02*
Y95492D01*
X15051Y97078D02*
Y98554D01*
X12000Y95503D02*
X13476D01*
X42020Y95492D02*
X43496D01*
X40445Y97066D02*
Y98543D01*
Y78474D02*
Y79950D01*
X42020Y81525D02*
X43496D01*
X15051Y78474D02*
Y79950D01*
X12000Y81525D02*
X13476D01*
X46976Y95503D02*
G03*
X48551Y97078I0J1575D01*
G01*
X73945Y97066D02*
G03*
X75520Y95492I1575J0D01*
G01*
Y81525D02*
G03*
X73945Y79950I0J-1575D01*
G01*
X48551D02*
G03*
X46976Y81525I-1575J0D01*
G01*
X45500D02*
Y95503D01*
X48551Y98554D02*
X73934D01*
X48551Y78474D02*
X73945D01*
X76996Y81525D02*
Y95492D01*
X48551Y97078D02*
Y98554D01*
X45500Y95503D02*
X46976D01*
X75520Y95492D02*
X76996D01*
X73945Y97066D02*
Y98543D01*
Y78474D02*
Y79950D01*
X75520Y81525D02*
X76996D01*
X48551Y78474D02*
Y79950D01*
X45500Y81525D02*
X46976D01*
X80476Y95503D02*
G03*
X82051Y97078I0J1575D01*
G01*
X107445Y97066D02*
G03*
X109020Y95492I1575J0D01*
G01*
Y81525D02*
G03*
X107445Y79950I0J-1575D01*
G01*
X82051D02*
G03*
X80476Y81525I-1575J0D01*
G01*
X79000D02*
Y95503D01*
X82051Y98554D02*
X107434D01*
X82051Y78474D02*
X107445D01*
X110496Y81525D02*
Y95492D01*
X82051Y97078D02*
Y98554D01*
X79000Y95503D02*
X80476D01*
X109020Y95492D02*
X110496D01*
X107445Y97066D02*
Y98543D01*
Y78474D02*
Y79950D01*
X109020Y81525D02*
X110496D01*
X82051Y78474D02*
Y79950D01*
X79000Y81525D02*
X80476D01*
X113976Y95503D02*
G03*
X115551Y97078I0J1575D01*
G01*
X140945Y97066D02*
G03*
X142520Y95492I1575J0D01*
G01*
Y81525D02*
G03*
X140945Y79950I0J-1575D01*
G01*
X115551D02*
G03*
X113976Y81525I-1575J0D01*
G01*
X112500D02*
Y95503D01*
X115551Y98554D02*
X140934D01*
X115551Y78474D02*
X140945D01*
X143996Y81525D02*
Y95492D01*
X115551Y97078D02*
Y98554D01*
X112500Y95503D02*
X113976D01*
X142520Y95492D02*
X143996D01*
X140945Y97066D02*
Y98543D01*
Y78474D02*
Y79950D01*
X142520Y81525D02*
X143996D01*
X115551Y78474D02*
Y79950D01*
X112500Y81525D02*
X113976D01*
X13476Y117653D02*
G03*
X15051Y119228I0J1575D01*
G01*
X40445Y119216D02*
G03*
X42020Y117642I1575J0D01*
G01*
Y103675D02*
G03*
X40445Y102100I0J-1575D01*
G01*
X15051D02*
G03*
X13476Y103675I-1575J0D01*
G01*
X12000D02*
Y117653D01*
X15051Y120704D02*
X40434D01*
X15051Y100624D02*
X40445D01*
X43496Y103675D02*
Y117642D01*
X15051Y119228D02*
Y120704D01*
X12000Y117653D02*
X13476D01*
X42020Y117642D02*
X43496D01*
X40445Y119216D02*
Y120693D01*
Y100624D02*
Y102100D01*
X42020Y103675D02*
X43496D01*
X15051Y100624D02*
Y102100D01*
X12000Y103675D02*
X13476D01*
X46976Y117653D02*
G03*
X48551Y119228I0J1575D01*
G01*
X73945Y119216D02*
G03*
X75520Y117642I1575J0D01*
G01*
Y103675D02*
G03*
X73945Y102100I0J-1575D01*
G01*
X48551D02*
G03*
X46976Y103675I-1575J0D01*
G01*
X45500D02*
Y117653D01*
X48551Y120704D02*
X73934D01*
X48551Y100624D02*
X73945D01*
X76996Y103675D02*
Y117642D01*
X48551Y119228D02*
Y120704D01*
X45500Y117653D02*
X46976D01*
X75520Y117642D02*
X76996D01*
X73945Y119216D02*
Y120693D01*
Y100624D02*
Y102100D01*
X75520Y103675D02*
X76996D01*
X48551Y100624D02*
Y102100D01*
X45500Y103675D02*
X46976D01*
X80476Y117653D02*
G03*
X82051Y119228I0J1575D01*
G01*
X107445Y119216D02*
G03*
X109020Y117642I1575J0D01*
G01*
Y103675D02*
G03*
X107445Y102100I0J-1575D01*
G01*
X82051D02*
G03*
X80476Y103675I-1575J0D01*
G01*
X79000D02*
Y117653D01*
X82051Y120704D02*
X107434D01*
X82051Y100624D02*
X107445D01*
X110496Y103675D02*
Y117642D01*
X82051Y119228D02*
Y120704D01*
X79000Y117653D02*
X80476D01*
X109020Y117642D02*
X110496D01*
X107445Y119216D02*
Y120693D01*
Y100624D02*
Y102100D01*
X109020Y103675D02*
X110496D01*
X82051Y100624D02*
Y102100D01*
X79000Y103675D02*
X80476D01*
X113976Y117653D02*
G03*
X115551Y119228I0J1575D01*
G01*
X140945Y119216D02*
G03*
X142520Y117642I1575J0D01*
G01*
Y103675D02*
G03*
X140945Y102100I0J-1575D01*
G01*
X115551D02*
G03*
X113976Y103675I-1575J0D01*
G01*
X112500D02*
Y117653D01*
X115551Y120704D02*
X140934D01*
X115551Y100624D02*
X140945D01*
X143996Y103675D02*
Y117642D01*
X115551Y119228D02*
Y120704D01*
X112500Y117653D02*
X113976D01*
X142520Y117642D02*
X143996D01*
X140945Y119216D02*
Y120693D01*
Y100624D02*
Y102100D01*
X142520Y103675D02*
X143996D01*
X115551Y100624D02*
Y102100D01*
X112500Y103675D02*
X113976D01*
M02*
