G04 Layer_Color=128*
%FSLAX24Y24*%
%MOIN*%
G70*
G01*
G75*
%ADD11R,0.0236X0.0157*%
%ADD13O,0.0394X0.0138*%
%ADD14O,0.0138X0.0394*%
%ADD30R,0.0598X0.1598*%
%ADD32R,0.0157X0.0236*%
%ADD40R,0.0197X0.0354*%
%ADD41R,0.0354X0.0197*%
%ADD70R,0.0850X0.0850*%
%ADD71R,0.0118X0.0228*%
%ADD72R,0.0098X0.0138*%
%ADD73R,0.0630X0.0472*%
%ADD74O,0.0276X0.0098*%
%ADD75R,0.0650X0.0937*%
%ADD76R,0.0248X0.0138*%
%ADD77R,0.0236X0.0165*%
%ADD78R,0.0984X0.0669*%
%ADD79O,0.0118X0.0610*%
%ADD80R,0.1299X0.0591*%
%ADD81R,0.0394X0.0591*%
%ADD82R,0.0630X0.0354*%
%ADD83R,0.0110X0.0197*%
%ADD84R,0.0512X0.0236*%
%ADD85R,0.0492X0.1102*%
%ADD86R,0.0433X0.0669*%
%ADD87R,0.0669X0.0433*%
%ADD88R,0.0551X0.0315*%
%ADD89R,0.0709X0.0532*%
%ADD90R,0.0591X0.0457*%
%ADD91R,0.0843X0.0256*%
%ADD92R,0.0630X0.0256*%
%ADD93R,0.0512X0.0256*%
%ADD94R,0.0453X0.0236*%
%ADD95R,0.0177X0.0433*%
%ADD96R,0.0177X0.0453*%
D11*
X20950Y17451D02*
D03*
Y17097D02*
D03*
X24400Y29251D02*
D03*
Y28897D02*
D03*
X25350Y27951D02*
D03*
Y27597D02*
D03*
X35450Y30297D02*
D03*
Y30651D02*
D03*
X38400Y29697D02*
D03*
Y30051D02*
D03*
X35400Y25947D02*
D03*
Y26301D02*
D03*
X37150Y25947D02*
D03*
Y26301D02*
D03*
X36300Y25947D02*
D03*
Y26301D02*
D03*
X38900Y25947D02*
D03*
Y26301D02*
D03*
X38050Y25947D02*
D03*
Y26301D02*
D03*
X26900Y13597D02*
D03*
Y13951D02*
D03*
X21900Y13597D02*
D03*
Y13951D02*
D03*
X29900Y17551D02*
D03*
Y17197D02*
D03*
X17350Y18247D02*
D03*
Y18601D02*
D03*
X14400Y27751D02*
D03*
Y27397D02*
D03*
X37550Y26301D02*
D03*
Y25947D02*
D03*
X36700Y26301D02*
D03*
Y25947D02*
D03*
X39300Y26301D02*
D03*
Y25947D02*
D03*
X38450Y26301D02*
D03*
Y25947D02*
D03*
X35800Y26301D02*
D03*
Y25947D02*
D03*
X29950Y16447D02*
D03*
Y16801D02*
D03*
X31013Y23915D02*
D03*
Y23561D02*
D03*
X27587Y24506D02*
D03*
Y24152D02*
D03*
Y26081D02*
D03*
Y25726D02*
D03*
X31200Y16245D02*
D03*
Y16599D02*
D03*
X31800Y16245D02*
D03*
Y16599D02*
D03*
X33250Y18947D02*
D03*
Y19301D02*
D03*
X29800Y20001D02*
D03*
Y19647D02*
D03*
X16550Y20147D02*
D03*
Y20501D02*
D03*
X17950Y20197D02*
D03*
Y20551D02*
D03*
X19400Y19347D02*
D03*
Y19701D02*
D03*
X16950Y18247D02*
D03*
Y18601D02*
D03*
X17000Y20501D02*
D03*
Y20147D02*
D03*
X18500Y21301D02*
D03*
Y20947D02*
D03*
X39700Y16697D02*
D03*
Y17051D02*
D03*
X39300Y16697D02*
D03*
Y17051D02*
D03*
X54450Y17451D02*
D03*
Y17097D02*
D03*
X57900Y29251D02*
D03*
Y28897D02*
D03*
X58850Y27951D02*
D03*
Y27597D02*
D03*
X68950Y30297D02*
D03*
Y30651D02*
D03*
X71900Y29697D02*
D03*
Y30051D02*
D03*
X68900Y25947D02*
D03*
Y26301D02*
D03*
X70650Y25947D02*
D03*
Y26301D02*
D03*
X69800Y25947D02*
D03*
Y26301D02*
D03*
X72400Y25947D02*
D03*
Y26301D02*
D03*
X71550Y25947D02*
D03*
Y26301D02*
D03*
X60400Y13597D02*
D03*
Y13951D02*
D03*
X55400Y13597D02*
D03*
Y13951D02*
D03*
X63400Y17551D02*
D03*
Y17197D02*
D03*
X50850Y18247D02*
D03*
Y18601D02*
D03*
X47900Y27751D02*
D03*
Y27397D02*
D03*
X71050Y26301D02*
D03*
Y25947D02*
D03*
X70200Y26301D02*
D03*
Y25947D02*
D03*
X72800Y26301D02*
D03*
Y25947D02*
D03*
X71950Y26301D02*
D03*
Y25947D02*
D03*
X69300Y26301D02*
D03*
Y25947D02*
D03*
X63450Y16447D02*
D03*
Y16801D02*
D03*
X64513Y23915D02*
D03*
Y23561D02*
D03*
X61087Y24506D02*
D03*
Y24152D02*
D03*
Y26081D02*
D03*
Y25726D02*
D03*
X64700Y16245D02*
D03*
Y16599D02*
D03*
X65300Y16245D02*
D03*
Y16599D02*
D03*
X66750Y18947D02*
D03*
Y19301D02*
D03*
X63300Y20001D02*
D03*
Y19647D02*
D03*
X50050Y20147D02*
D03*
Y20501D02*
D03*
X51450Y20197D02*
D03*
Y20551D02*
D03*
X52900Y19347D02*
D03*
Y19701D02*
D03*
X50450Y18247D02*
D03*
Y18601D02*
D03*
X50500Y20501D02*
D03*
Y20147D02*
D03*
X52000Y21301D02*
D03*
Y20947D02*
D03*
X73200Y16697D02*
D03*
Y17051D02*
D03*
X72800Y16697D02*
D03*
Y17051D02*
D03*
X87950Y17451D02*
D03*
Y17097D02*
D03*
X91400Y29251D02*
D03*
Y28897D02*
D03*
X92350Y27951D02*
D03*
Y27597D02*
D03*
X102450Y30297D02*
D03*
Y30651D02*
D03*
X105400Y29697D02*
D03*
Y30051D02*
D03*
X102400Y25947D02*
D03*
Y26301D02*
D03*
X104150Y25947D02*
D03*
Y26301D02*
D03*
X103300Y25947D02*
D03*
Y26301D02*
D03*
X105900Y25947D02*
D03*
Y26301D02*
D03*
X105050Y25947D02*
D03*
Y26301D02*
D03*
X93900Y13597D02*
D03*
Y13951D02*
D03*
X88900Y13597D02*
D03*
Y13951D02*
D03*
X96900Y17551D02*
D03*
Y17197D02*
D03*
X84350Y18247D02*
D03*
Y18601D02*
D03*
X81400Y27751D02*
D03*
Y27397D02*
D03*
X104550Y26301D02*
D03*
Y25947D02*
D03*
X103700Y26301D02*
D03*
Y25947D02*
D03*
X106300Y26301D02*
D03*
Y25947D02*
D03*
X105450Y26301D02*
D03*
Y25947D02*
D03*
X102800Y26301D02*
D03*
Y25947D02*
D03*
X96950Y16447D02*
D03*
Y16801D02*
D03*
X98013Y23915D02*
D03*
Y23561D02*
D03*
X94587Y24506D02*
D03*
Y24152D02*
D03*
Y26081D02*
D03*
Y25726D02*
D03*
X98200Y16245D02*
D03*
Y16599D02*
D03*
X98800Y16245D02*
D03*
Y16599D02*
D03*
X100250Y18947D02*
D03*
Y19301D02*
D03*
X96800Y20001D02*
D03*
Y19647D02*
D03*
X83550Y20147D02*
D03*
Y20501D02*
D03*
X84950Y20197D02*
D03*
Y20551D02*
D03*
X86400Y19347D02*
D03*
Y19701D02*
D03*
X83950Y18247D02*
D03*
Y18601D02*
D03*
X84000Y20501D02*
D03*
Y20147D02*
D03*
X85500Y21301D02*
D03*
Y20947D02*
D03*
X106700Y16697D02*
D03*
Y17051D02*
D03*
X106300Y16697D02*
D03*
Y17051D02*
D03*
X121450Y17451D02*
D03*
Y17097D02*
D03*
X124900Y29251D02*
D03*
Y28897D02*
D03*
X125850Y27951D02*
D03*
Y27597D02*
D03*
X135950Y30297D02*
D03*
Y30651D02*
D03*
X138900Y29697D02*
D03*
Y30051D02*
D03*
X135900Y25947D02*
D03*
Y26301D02*
D03*
X137650Y25947D02*
D03*
Y26301D02*
D03*
X136800Y25947D02*
D03*
Y26301D02*
D03*
X139400Y25947D02*
D03*
Y26301D02*
D03*
X138550Y25947D02*
D03*
Y26301D02*
D03*
X127400Y13597D02*
D03*
Y13951D02*
D03*
X122400Y13597D02*
D03*
Y13951D02*
D03*
X130400Y17551D02*
D03*
Y17197D02*
D03*
X117850Y18247D02*
D03*
Y18601D02*
D03*
X114900Y27751D02*
D03*
Y27397D02*
D03*
X138050Y26301D02*
D03*
Y25947D02*
D03*
X137200Y26301D02*
D03*
Y25947D02*
D03*
X139800Y26301D02*
D03*
Y25947D02*
D03*
X138950Y26301D02*
D03*
Y25947D02*
D03*
X136300Y26301D02*
D03*
Y25947D02*
D03*
X130450Y16447D02*
D03*
Y16801D02*
D03*
X131513Y23915D02*
D03*
Y23561D02*
D03*
X128087Y24506D02*
D03*
Y24152D02*
D03*
Y26081D02*
D03*
Y25726D02*
D03*
X131700Y16245D02*
D03*
Y16599D02*
D03*
X132300Y16245D02*
D03*
Y16599D02*
D03*
X133750Y18947D02*
D03*
Y19301D02*
D03*
X130300Y20001D02*
D03*
Y19647D02*
D03*
X117050Y20147D02*
D03*
Y20501D02*
D03*
X118450Y20197D02*
D03*
Y20551D02*
D03*
X119900Y19347D02*
D03*
Y19701D02*
D03*
X117450Y18247D02*
D03*
Y18601D02*
D03*
X117500Y20501D02*
D03*
Y20147D02*
D03*
X119000Y21301D02*
D03*
Y20947D02*
D03*
X140200Y16697D02*
D03*
Y17051D02*
D03*
X139800Y16697D02*
D03*
Y17051D02*
D03*
X20950Y39601D02*
D03*
Y39247D02*
D03*
X24400Y51401D02*
D03*
Y51047D02*
D03*
X25350Y50101D02*
D03*
Y49747D02*
D03*
X35450Y52447D02*
D03*
Y52801D02*
D03*
X38400Y51847D02*
D03*
Y52201D02*
D03*
X35400Y48097D02*
D03*
Y48451D02*
D03*
X37150Y48097D02*
D03*
Y48451D02*
D03*
X36300Y48097D02*
D03*
Y48451D02*
D03*
X38900Y48097D02*
D03*
Y48451D02*
D03*
X38050Y48097D02*
D03*
Y48451D02*
D03*
X26900Y35747D02*
D03*
Y36101D02*
D03*
X21900Y35747D02*
D03*
Y36101D02*
D03*
X29900Y39701D02*
D03*
Y39347D02*
D03*
X17350Y40397D02*
D03*
Y40751D02*
D03*
X14400Y49901D02*
D03*
Y49547D02*
D03*
X37550Y48451D02*
D03*
Y48097D02*
D03*
X36700Y48451D02*
D03*
Y48097D02*
D03*
X39300Y48451D02*
D03*
Y48097D02*
D03*
X38450Y48451D02*
D03*
Y48097D02*
D03*
X35800Y48451D02*
D03*
Y48097D02*
D03*
X29950Y38597D02*
D03*
Y38951D02*
D03*
X31013Y46065D02*
D03*
Y45711D02*
D03*
X27587Y46656D02*
D03*
Y46302D02*
D03*
Y48231D02*
D03*
Y47876D02*
D03*
X31200Y38395D02*
D03*
Y38749D02*
D03*
X31800Y38395D02*
D03*
Y38749D02*
D03*
X33250Y41097D02*
D03*
Y41451D02*
D03*
X29800Y42151D02*
D03*
Y41797D02*
D03*
X16550Y42297D02*
D03*
Y42651D02*
D03*
X17950Y42347D02*
D03*
Y42701D02*
D03*
X19400Y41497D02*
D03*
Y41851D02*
D03*
X16950Y40397D02*
D03*
Y40751D02*
D03*
X17000Y42651D02*
D03*
Y42297D02*
D03*
X18500Y43451D02*
D03*
Y43097D02*
D03*
X39700Y38847D02*
D03*
Y39201D02*
D03*
X39300Y38847D02*
D03*
Y39201D02*
D03*
X54450Y39601D02*
D03*
Y39247D02*
D03*
X57900Y51401D02*
D03*
Y51047D02*
D03*
X58850Y50101D02*
D03*
Y49747D02*
D03*
X68950Y52447D02*
D03*
Y52801D02*
D03*
X71900Y51847D02*
D03*
Y52201D02*
D03*
X68900Y48097D02*
D03*
Y48451D02*
D03*
X70650Y48097D02*
D03*
Y48451D02*
D03*
X69800Y48097D02*
D03*
Y48451D02*
D03*
X72400Y48097D02*
D03*
Y48451D02*
D03*
X71550Y48097D02*
D03*
Y48451D02*
D03*
X60400Y35747D02*
D03*
Y36101D02*
D03*
X55400Y35747D02*
D03*
Y36101D02*
D03*
X63400Y39701D02*
D03*
Y39347D02*
D03*
X50850Y40397D02*
D03*
Y40751D02*
D03*
X47900Y49901D02*
D03*
Y49547D02*
D03*
X71050Y48451D02*
D03*
Y48097D02*
D03*
X70200Y48451D02*
D03*
Y48097D02*
D03*
X72800Y48451D02*
D03*
Y48097D02*
D03*
X71950Y48451D02*
D03*
Y48097D02*
D03*
X69300Y48451D02*
D03*
Y48097D02*
D03*
X63450Y38597D02*
D03*
Y38951D02*
D03*
X64513Y46065D02*
D03*
Y45711D02*
D03*
X61087Y46656D02*
D03*
Y46302D02*
D03*
Y48231D02*
D03*
Y47876D02*
D03*
X64700Y38395D02*
D03*
Y38749D02*
D03*
X65300Y38395D02*
D03*
Y38749D02*
D03*
X66750Y41097D02*
D03*
Y41451D02*
D03*
X63300Y42151D02*
D03*
Y41797D02*
D03*
X50050Y42297D02*
D03*
Y42651D02*
D03*
X51450Y42347D02*
D03*
Y42701D02*
D03*
X52900Y41497D02*
D03*
Y41851D02*
D03*
X50450Y40397D02*
D03*
Y40751D02*
D03*
X50500Y42651D02*
D03*
Y42297D02*
D03*
X52000Y43451D02*
D03*
Y43097D02*
D03*
X73200Y38847D02*
D03*
Y39201D02*
D03*
X72800Y38847D02*
D03*
Y39201D02*
D03*
X87950Y39601D02*
D03*
Y39247D02*
D03*
X91400Y51401D02*
D03*
Y51047D02*
D03*
X92350Y50101D02*
D03*
Y49747D02*
D03*
X102450Y52447D02*
D03*
Y52801D02*
D03*
X105400Y51847D02*
D03*
Y52201D02*
D03*
X102400Y48097D02*
D03*
Y48451D02*
D03*
X104150Y48097D02*
D03*
Y48451D02*
D03*
X103300Y48097D02*
D03*
Y48451D02*
D03*
X105900Y48097D02*
D03*
Y48451D02*
D03*
X105050Y48097D02*
D03*
Y48451D02*
D03*
X93900Y35747D02*
D03*
Y36101D02*
D03*
X88900Y35747D02*
D03*
Y36101D02*
D03*
X96900Y39701D02*
D03*
Y39347D02*
D03*
X84350Y40397D02*
D03*
Y40751D02*
D03*
X81400Y49901D02*
D03*
Y49547D02*
D03*
X104550Y48451D02*
D03*
Y48097D02*
D03*
X103700Y48451D02*
D03*
Y48097D02*
D03*
X106300Y48451D02*
D03*
Y48097D02*
D03*
X105450Y48451D02*
D03*
Y48097D02*
D03*
X102800Y48451D02*
D03*
Y48097D02*
D03*
X96950Y38597D02*
D03*
Y38951D02*
D03*
X98013Y46065D02*
D03*
Y45711D02*
D03*
X94587Y46656D02*
D03*
Y46302D02*
D03*
Y48231D02*
D03*
Y47876D02*
D03*
X98200Y38395D02*
D03*
Y38749D02*
D03*
X98800Y38395D02*
D03*
Y38749D02*
D03*
X100250Y41097D02*
D03*
Y41451D02*
D03*
X96800Y42151D02*
D03*
Y41797D02*
D03*
X83550Y42297D02*
D03*
Y42651D02*
D03*
X84950Y42347D02*
D03*
Y42701D02*
D03*
X86400Y41497D02*
D03*
Y41851D02*
D03*
X83950Y40397D02*
D03*
Y40751D02*
D03*
X84000Y42651D02*
D03*
Y42297D02*
D03*
X85500Y43451D02*
D03*
Y43097D02*
D03*
X106700Y38847D02*
D03*
Y39201D02*
D03*
X106300Y38847D02*
D03*
Y39201D02*
D03*
X121450Y39601D02*
D03*
Y39247D02*
D03*
X124900Y51401D02*
D03*
Y51047D02*
D03*
X125850Y50101D02*
D03*
Y49747D02*
D03*
X135950Y52447D02*
D03*
Y52801D02*
D03*
X138900Y51847D02*
D03*
Y52201D02*
D03*
X135900Y48097D02*
D03*
Y48451D02*
D03*
X137650Y48097D02*
D03*
Y48451D02*
D03*
X136800Y48097D02*
D03*
Y48451D02*
D03*
X139400Y48097D02*
D03*
Y48451D02*
D03*
X138550Y48097D02*
D03*
Y48451D02*
D03*
X127400Y35747D02*
D03*
Y36101D02*
D03*
X122400Y35747D02*
D03*
Y36101D02*
D03*
X130400Y39701D02*
D03*
Y39347D02*
D03*
X117850Y40397D02*
D03*
Y40751D02*
D03*
X114900Y49901D02*
D03*
Y49547D02*
D03*
X138050Y48451D02*
D03*
Y48097D02*
D03*
X137200Y48451D02*
D03*
Y48097D02*
D03*
X139800Y48451D02*
D03*
Y48097D02*
D03*
X138950Y48451D02*
D03*
Y48097D02*
D03*
X136300Y48451D02*
D03*
Y48097D02*
D03*
X130450Y38597D02*
D03*
Y38951D02*
D03*
X131513Y46065D02*
D03*
Y45711D02*
D03*
X128087Y46656D02*
D03*
Y46302D02*
D03*
Y48231D02*
D03*
Y47876D02*
D03*
X131700Y38395D02*
D03*
Y38749D02*
D03*
X132300Y38395D02*
D03*
Y38749D02*
D03*
X133750Y41097D02*
D03*
Y41451D02*
D03*
X130300Y42151D02*
D03*
Y41797D02*
D03*
X117050Y42297D02*
D03*
Y42651D02*
D03*
X118450Y42347D02*
D03*
Y42701D02*
D03*
X119900Y41497D02*
D03*
Y41851D02*
D03*
X117450Y40397D02*
D03*
Y40751D02*
D03*
X117500Y42651D02*
D03*
Y42297D02*
D03*
X119000Y43451D02*
D03*
Y43097D02*
D03*
X140200Y38847D02*
D03*
Y39201D02*
D03*
X139800Y38847D02*
D03*
Y39201D02*
D03*
X20950Y61751D02*
D03*
Y61397D02*
D03*
X24400Y73551D02*
D03*
Y73197D02*
D03*
X25350Y72251D02*
D03*
Y71897D02*
D03*
X35450Y74597D02*
D03*
Y74951D02*
D03*
X38400Y73997D02*
D03*
Y74351D02*
D03*
X35400Y70247D02*
D03*
Y70601D02*
D03*
X37150Y70247D02*
D03*
Y70601D02*
D03*
X36300Y70247D02*
D03*
Y70601D02*
D03*
X38900Y70247D02*
D03*
Y70601D02*
D03*
X38050Y70247D02*
D03*
Y70601D02*
D03*
X26900Y57897D02*
D03*
Y58251D02*
D03*
X21900Y57897D02*
D03*
Y58251D02*
D03*
X29900Y61851D02*
D03*
Y61497D02*
D03*
X17350Y62547D02*
D03*
Y62901D02*
D03*
X14400Y72051D02*
D03*
Y71697D02*
D03*
X37550Y70601D02*
D03*
Y70247D02*
D03*
X36700Y70601D02*
D03*
Y70247D02*
D03*
X39300Y70601D02*
D03*
Y70247D02*
D03*
X38450Y70601D02*
D03*
Y70247D02*
D03*
X35800Y70601D02*
D03*
Y70247D02*
D03*
X29950Y60747D02*
D03*
Y61101D02*
D03*
X31013Y68215D02*
D03*
Y67861D02*
D03*
X27587Y68806D02*
D03*
Y68452D02*
D03*
Y70381D02*
D03*
Y70026D02*
D03*
X31200Y60545D02*
D03*
Y60899D02*
D03*
X31800Y60545D02*
D03*
Y60899D02*
D03*
X33250Y63247D02*
D03*
Y63601D02*
D03*
X29800Y64301D02*
D03*
Y63947D02*
D03*
X16550Y64447D02*
D03*
Y64801D02*
D03*
X17950Y64497D02*
D03*
Y64851D02*
D03*
X19400Y63647D02*
D03*
Y64001D02*
D03*
X16950Y62547D02*
D03*
Y62901D02*
D03*
X17000Y64801D02*
D03*
Y64447D02*
D03*
X18500Y65601D02*
D03*
Y65247D02*
D03*
X39700Y60997D02*
D03*
Y61351D02*
D03*
X39300Y60997D02*
D03*
Y61351D02*
D03*
X54450Y61751D02*
D03*
Y61397D02*
D03*
X57900Y73551D02*
D03*
Y73197D02*
D03*
X58850Y72251D02*
D03*
Y71897D02*
D03*
X68950Y74597D02*
D03*
Y74951D02*
D03*
X71900Y73997D02*
D03*
Y74351D02*
D03*
X68900Y70247D02*
D03*
Y70601D02*
D03*
X70650Y70247D02*
D03*
Y70601D02*
D03*
X69800Y70247D02*
D03*
Y70601D02*
D03*
X72400Y70247D02*
D03*
Y70601D02*
D03*
X71550Y70247D02*
D03*
Y70601D02*
D03*
X60400Y57897D02*
D03*
Y58251D02*
D03*
X55400Y57897D02*
D03*
Y58251D02*
D03*
X63400Y61851D02*
D03*
Y61497D02*
D03*
X50850Y62547D02*
D03*
Y62901D02*
D03*
X47900Y72051D02*
D03*
Y71697D02*
D03*
X71050Y70601D02*
D03*
Y70247D02*
D03*
X70200Y70601D02*
D03*
Y70247D02*
D03*
X72800Y70601D02*
D03*
Y70247D02*
D03*
X71950Y70601D02*
D03*
Y70247D02*
D03*
X69300Y70601D02*
D03*
Y70247D02*
D03*
X63450Y60747D02*
D03*
Y61101D02*
D03*
X64513Y68215D02*
D03*
Y67861D02*
D03*
X61087Y68806D02*
D03*
Y68452D02*
D03*
Y70381D02*
D03*
Y70026D02*
D03*
X64700Y60545D02*
D03*
Y60899D02*
D03*
X65300Y60545D02*
D03*
Y60899D02*
D03*
X66750Y63247D02*
D03*
Y63601D02*
D03*
X63300Y64301D02*
D03*
Y63947D02*
D03*
X50050Y64447D02*
D03*
Y64801D02*
D03*
X51450Y64497D02*
D03*
Y64851D02*
D03*
X52900Y63647D02*
D03*
Y64001D02*
D03*
X50450Y62547D02*
D03*
Y62901D02*
D03*
X50500Y64801D02*
D03*
Y64447D02*
D03*
X52000Y65601D02*
D03*
Y65247D02*
D03*
X73200Y60997D02*
D03*
Y61351D02*
D03*
X72800Y60997D02*
D03*
Y61351D02*
D03*
X87950Y61751D02*
D03*
Y61397D02*
D03*
X91400Y73551D02*
D03*
Y73197D02*
D03*
X92350Y72251D02*
D03*
Y71897D02*
D03*
X102450Y74597D02*
D03*
Y74951D02*
D03*
X105400Y73997D02*
D03*
Y74351D02*
D03*
X102400Y70247D02*
D03*
Y70601D02*
D03*
X104150Y70247D02*
D03*
Y70601D02*
D03*
X103300Y70247D02*
D03*
Y70601D02*
D03*
X105900Y70247D02*
D03*
Y70601D02*
D03*
X105050Y70247D02*
D03*
Y70601D02*
D03*
X93900Y57897D02*
D03*
Y58251D02*
D03*
X88900Y57897D02*
D03*
Y58251D02*
D03*
X96900Y61851D02*
D03*
Y61497D02*
D03*
X84350Y62547D02*
D03*
Y62901D02*
D03*
X81400Y72051D02*
D03*
Y71697D02*
D03*
X104550Y70601D02*
D03*
Y70247D02*
D03*
X103700Y70601D02*
D03*
Y70247D02*
D03*
X106300Y70601D02*
D03*
Y70247D02*
D03*
X105450Y70601D02*
D03*
Y70247D02*
D03*
X102800Y70601D02*
D03*
Y70247D02*
D03*
X96950Y60747D02*
D03*
Y61101D02*
D03*
X98013Y68215D02*
D03*
Y67861D02*
D03*
X94587Y68806D02*
D03*
Y68452D02*
D03*
Y70381D02*
D03*
Y70026D02*
D03*
X98200Y60545D02*
D03*
Y60899D02*
D03*
X98800Y60545D02*
D03*
Y60899D02*
D03*
X100250Y63247D02*
D03*
Y63601D02*
D03*
X96800Y64301D02*
D03*
Y63947D02*
D03*
X83550Y64447D02*
D03*
Y64801D02*
D03*
X84950Y64497D02*
D03*
Y64851D02*
D03*
X86400Y63647D02*
D03*
Y64001D02*
D03*
X83950Y62547D02*
D03*
Y62901D02*
D03*
X84000Y64801D02*
D03*
Y64447D02*
D03*
X85500Y65601D02*
D03*
Y65247D02*
D03*
X106700Y60997D02*
D03*
Y61351D02*
D03*
X106300Y60997D02*
D03*
Y61351D02*
D03*
X121450Y61751D02*
D03*
Y61397D02*
D03*
X124900Y73551D02*
D03*
Y73197D02*
D03*
X125850Y72251D02*
D03*
Y71897D02*
D03*
X135950Y74597D02*
D03*
Y74951D02*
D03*
X138900Y73997D02*
D03*
Y74351D02*
D03*
X135900Y70247D02*
D03*
Y70601D02*
D03*
X137650Y70247D02*
D03*
Y70601D02*
D03*
X136800Y70247D02*
D03*
Y70601D02*
D03*
X139400Y70247D02*
D03*
Y70601D02*
D03*
X138550Y70247D02*
D03*
Y70601D02*
D03*
X127400Y57897D02*
D03*
Y58251D02*
D03*
X122400Y57897D02*
D03*
Y58251D02*
D03*
X130400Y61851D02*
D03*
Y61497D02*
D03*
X117850Y62547D02*
D03*
Y62901D02*
D03*
X114900Y72051D02*
D03*
Y71697D02*
D03*
X138050Y70601D02*
D03*
Y70247D02*
D03*
X137200Y70601D02*
D03*
Y70247D02*
D03*
X139800Y70601D02*
D03*
Y70247D02*
D03*
X138950Y70601D02*
D03*
Y70247D02*
D03*
X136300Y70601D02*
D03*
Y70247D02*
D03*
X130450Y60747D02*
D03*
Y61101D02*
D03*
X131513Y68215D02*
D03*
Y67861D02*
D03*
X128087Y68806D02*
D03*
Y68452D02*
D03*
Y70381D02*
D03*
Y70026D02*
D03*
X131700Y60545D02*
D03*
Y60899D02*
D03*
X132300Y60545D02*
D03*
Y60899D02*
D03*
X133750Y63247D02*
D03*
Y63601D02*
D03*
X130300Y64301D02*
D03*
Y63947D02*
D03*
X117050Y64447D02*
D03*
Y64801D02*
D03*
X118450Y64497D02*
D03*
Y64851D02*
D03*
X119900Y63647D02*
D03*
Y64001D02*
D03*
X117450Y62547D02*
D03*
Y62901D02*
D03*
X117500Y64801D02*
D03*
Y64447D02*
D03*
X119000Y65601D02*
D03*
Y65247D02*
D03*
X140200Y60997D02*
D03*
Y61351D02*
D03*
X139800Y60997D02*
D03*
Y61351D02*
D03*
X20950Y83901D02*
D03*
Y83547D02*
D03*
X24400Y95701D02*
D03*
Y95347D02*
D03*
X25350Y94401D02*
D03*
Y94047D02*
D03*
X35450Y96747D02*
D03*
Y97101D02*
D03*
X38400Y96147D02*
D03*
Y96501D02*
D03*
X35400Y92397D02*
D03*
Y92751D02*
D03*
X37150Y92397D02*
D03*
Y92751D02*
D03*
X36300Y92397D02*
D03*
Y92751D02*
D03*
X38900Y92397D02*
D03*
Y92751D02*
D03*
X38050Y92397D02*
D03*
Y92751D02*
D03*
X26900Y80047D02*
D03*
Y80401D02*
D03*
X21900Y80047D02*
D03*
Y80401D02*
D03*
X29900Y84001D02*
D03*
Y83647D02*
D03*
X17350Y84697D02*
D03*
Y85051D02*
D03*
X14400Y94201D02*
D03*
Y93847D02*
D03*
X37550Y92751D02*
D03*
Y92397D02*
D03*
X36700Y92751D02*
D03*
Y92397D02*
D03*
X39300Y92751D02*
D03*
Y92397D02*
D03*
X38450Y92751D02*
D03*
Y92397D02*
D03*
X35800Y92751D02*
D03*
Y92397D02*
D03*
X29950Y82897D02*
D03*
Y83251D02*
D03*
X31013Y90365D02*
D03*
Y90011D02*
D03*
X27587Y90956D02*
D03*
Y90602D02*
D03*
Y92531D02*
D03*
Y92176D02*
D03*
X31200Y82695D02*
D03*
Y83049D02*
D03*
X31800Y82695D02*
D03*
Y83049D02*
D03*
X33250Y85397D02*
D03*
Y85751D02*
D03*
X29800Y86451D02*
D03*
Y86097D02*
D03*
X16550Y86597D02*
D03*
Y86951D02*
D03*
X17950Y86647D02*
D03*
Y87001D02*
D03*
X19400Y85797D02*
D03*
Y86151D02*
D03*
X16950Y84697D02*
D03*
Y85051D02*
D03*
X17000Y86951D02*
D03*
Y86597D02*
D03*
X18500Y87751D02*
D03*
Y87397D02*
D03*
X39700Y83147D02*
D03*
Y83501D02*
D03*
X39300Y83147D02*
D03*
Y83501D02*
D03*
X54450Y83901D02*
D03*
Y83547D02*
D03*
X57900Y95701D02*
D03*
Y95347D02*
D03*
X58850Y94401D02*
D03*
Y94047D02*
D03*
X68950Y96747D02*
D03*
Y97101D02*
D03*
X71900Y96147D02*
D03*
Y96501D02*
D03*
X68900Y92397D02*
D03*
Y92751D02*
D03*
X70650Y92397D02*
D03*
Y92751D02*
D03*
X69800Y92397D02*
D03*
Y92751D02*
D03*
X72400Y92397D02*
D03*
Y92751D02*
D03*
X71550Y92397D02*
D03*
Y92751D02*
D03*
X60400Y80047D02*
D03*
Y80401D02*
D03*
X55400Y80047D02*
D03*
Y80401D02*
D03*
X63400Y84001D02*
D03*
Y83647D02*
D03*
X50850Y84697D02*
D03*
Y85051D02*
D03*
X47900Y94201D02*
D03*
Y93847D02*
D03*
X71050Y92751D02*
D03*
Y92397D02*
D03*
X70200Y92751D02*
D03*
Y92397D02*
D03*
X72800Y92751D02*
D03*
Y92397D02*
D03*
X71950Y92751D02*
D03*
Y92397D02*
D03*
X69300Y92751D02*
D03*
Y92397D02*
D03*
X63450Y82897D02*
D03*
Y83251D02*
D03*
X64513Y90365D02*
D03*
Y90011D02*
D03*
X61087Y90956D02*
D03*
Y90602D02*
D03*
Y92531D02*
D03*
Y92176D02*
D03*
X64700Y82695D02*
D03*
Y83049D02*
D03*
X65300Y82695D02*
D03*
Y83049D02*
D03*
X66750Y85397D02*
D03*
Y85751D02*
D03*
X63300Y86451D02*
D03*
Y86097D02*
D03*
X50050Y86597D02*
D03*
Y86951D02*
D03*
X51450Y86647D02*
D03*
Y87001D02*
D03*
X52900Y85797D02*
D03*
Y86151D02*
D03*
X50450Y84697D02*
D03*
Y85051D02*
D03*
X50500Y86951D02*
D03*
Y86597D02*
D03*
X52000Y87751D02*
D03*
Y87397D02*
D03*
X73200Y83147D02*
D03*
Y83501D02*
D03*
X72800Y83147D02*
D03*
Y83501D02*
D03*
X87950Y83901D02*
D03*
Y83547D02*
D03*
X91400Y95701D02*
D03*
Y95347D02*
D03*
X92350Y94401D02*
D03*
Y94047D02*
D03*
X102450Y96747D02*
D03*
Y97101D02*
D03*
X105400Y96147D02*
D03*
Y96501D02*
D03*
X102400Y92397D02*
D03*
Y92751D02*
D03*
X104150Y92397D02*
D03*
Y92751D02*
D03*
X103300Y92397D02*
D03*
Y92751D02*
D03*
X105900Y92397D02*
D03*
Y92751D02*
D03*
X105050Y92397D02*
D03*
Y92751D02*
D03*
X93900Y80047D02*
D03*
Y80401D02*
D03*
X88900Y80047D02*
D03*
Y80401D02*
D03*
X96900Y84001D02*
D03*
Y83647D02*
D03*
X84350Y84697D02*
D03*
Y85051D02*
D03*
X81400Y94201D02*
D03*
Y93847D02*
D03*
X104550Y92751D02*
D03*
Y92397D02*
D03*
X103700Y92751D02*
D03*
Y92397D02*
D03*
X106300Y92751D02*
D03*
Y92397D02*
D03*
X105450Y92751D02*
D03*
Y92397D02*
D03*
X102800Y92751D02*
D03*
Y92397D02*
D03*
X96950Y82897D02*
D03*
Y83251D02*
D03*
X98013Y90365D02*
D03*
Y90011D02*
D03*
X94587Y90956D02*
D03*
Y90602D02*
D03*
Y92531D02*
D03*
Y92176D02*
D03*
X98200Y82695D02*
D03*
Y83049D02*
D03*
X98800Y82695D02*
D03*
Y83049D02*
D03*
X100250Y85397D02*
D03*
Y85751D02*
D03*
X96800Y86451D02*
D03*
Y86097D02*
D03*
X83550Y86597D02*
D03*
Y86951D02*
D03*
X84950Y86647D02*
D03*
Y87001D02*
D03*
X86400Y85797D02*
D03*
Y86151D02*
D03*
X83950Y84697D02*
D03*
Y85051D02*
D03*
X84000Y86951D02*
D03*
Y86597D02*
D03*
X85500Y87751D02*
D03*
Y87397D02*
D03*
X106700Y83147D02*
D03*
Y83501D02*
D03*
X106300Y83147D02*
D03*
Y83501D02*
D03*
X121450Y83901D02*
D03*
Y83547D02*
D03*
X124900Y95701D02*
D03*
Y95347D02*
D03*
X125850Y94401D02*
D03*
Y94047D02*
D03*
X135950Y96747D02*
D03*
Y97101D02*
D03*
X138900Y96147D02*
D03*
Y96501D02*
D03*
X135900Y92397D02*
D03*
Y92751D02*
D03*
X137650Y92397D02*
D03*
Y92751D02*
D03*
X136800Y92397D02*
D03*
Y92751D02*
D03*
X139400Y92397D02*
D03*
Y92751D02*
D03*
X138550Y92397D02*
D03*
Y92751D02*
D03*
X127400Y80047D02*
D03*
Y80401D02*
D03*
X122400Y80047D02*
D03*
Y80401D02*
D03*
X130400Y84001D02*
D03*
Y83647D02*
D03*
X117850Y84697D02*
D03*
Y85051D02*
D03*
X114900Y94201D02*
D03*
Y93847D02*
D03*
X138050Y92751D02*
D03*
Y92397D02*
D03*
X137200Y92751D02*
D03*
Y92397D02*
D03*
X139800Y92751D02*
D03*
Y92397D02*
D03*
X138950Y92751D02*
D03*
Y92397D02*
D03*
X136300Y92751D02*
D03*
Y92397D02*
D03*
X130450Y82897D02*
D03*
Y83251D02*
D03*
X131513Y90365D02*
D03*
Y90011D02*
D03*
X128087Y90956D02*
D03*
Y90602D02*
D03*
Y92531D02*
D03*
Y92176D02*
D03*
X131700Y82695D02*
D03*
Y83049D02*
D03*
X132300Y82695D02*
D03*
Y83049D02*
D03*
X133750Y85397D02*
D03*
Y85751D02*
D03*
X130300Y86451D02*
D03*
Y86097D02*
D03*
X117050Y86597D02*
D03*
Y86951D02*
D03*
X118450Y86647D02*
D03*
Y87001D02*
D03*
X119900Y85797D02*
D03*
Y86151D02*
D03*
X117450Y84697D02*
D03*
Y85051D02*
D03*
X117500Y86951D02*
D03*
Y86597D02*
D03*
X119000Y87751D02*
D03*
Y87397D02*
D03*
X140200Y83147D02*
D03*
Y83501D02*
D03*
X139800Y83147D02*
D03*
Y83501D02*
D03*
X20950Y106051D02*
D03*
Y105697D02*
D03*
X24400Y117851D02*
D03*
Y117497D02*
D03*
X25350Y116551D02*
D03*
Y116197D02*
D03*
X35450Y118897D02*
D03*
Y119251D02*
D03*
X38400Y118297D02*
D03*
Y118651D02*
D03*
X35400Y114547D02*
D03*
Y114901D02*
D03*
X37150Y114547D02*
D03*
Y114901D02*
D03*
X36300Y114547D02*
D03*
Y114901D02*
D03*
X38900Y114547D02*
D03*
Y114901D02*
D03*
X38050Y114547D02*
D03*
Y114901D02*
D03*
X26900Y102197D02*
D03*
Y102551D02*
D03*
X21900Y102197D02*
D03*
Y102551D02*
D03*
X29900Y106151D02*
D03*
Y105797D02*
D03*
X17350Y106847D02*
D03*
Y107201D02*
D03*
X14400Y116351D02*
D03*
Y115997D02*
D03*
X37550Y114901D02*
D03*
Y114547D02*
D03*
X36700Y114901D02*
D03*
Y114547D02*
D03*
X39300Y114901D02*
D03*
Y114547D02*
D03*
X38450Y114901D02*
D03*
Y114547D02*
D03*
X35800Y114901D02*
D03*
Y114547D02*
D03*
X29950Y105047D02*
D03*
Y105401D02*
D03*
X31013Y112515D02*
D03*
Y112161D02*
D03*
X27587Y113106D02*
D03*
Y112752D02*
D03*
Y114681D02*
D03*
Y114326D02*
D03*
X31200Y104845D02*
D03*
Y105199D02*
D03*
X31800Y104845D02*
D03*
Y105199D02*
D03*
X33250Y107547D02*
D03*
Y107901D02*
D03*
X29800Y108601D02*
D03*
Y108247D02*
D03*
X16550Y108747D02*
D03*
Y109101D02*
D03*
X17950Y108797D02*
D03*
Y109151D02*
D03*
X19400Y107947D02*
D03*
Y108301D02*
D03*
X16950Y106847D02*
D03*
Y107201D02*
D03*
X17000Y109101D02*
D03*
Y108747D02*
D03*
X18500Y109901D02*
D03*
Y109547D02*
D03*
X39700Y105297D02*
D03*
Y105651D02*
D03*
X39300Y105297D02*
D03*
Y105651D02*
D03*
X54450Y106051D02*
D03*
Y105697D02*
D03*
X57900Y117851D02*
D03*
Y117497D02*
D03*
X58850Y116551D02*
D03*
Y116197D02*
D03*
X68950Y118897D02*
D03*
Y119251D02*
D03*
X71900Y118297D02*
D03*
Y118651D02*
D03*
X68900Y114547D02*
D03*
Y114901D02*
D03*
X70650Y114547D02*
D03*
Y114901D02*
D03*
X69800Y114547D02*
D03*
Y114901D02*
D03*
X72400Y114547D02*
D03*
Y114901D02*
D03*
X71550Y114547D02*
D03*
Y114901D02*
D03*
X60400Y102197D02*
D03*
Y102551D02*
D03*
X55400Y102197D02*
D03*
Y102551D02*
D03*
X63400Y106151D02*
D03*
Y105797D02*
D03*
X50850Y106847D02*
D03*
Y107201D02*
D03*
X47900Y116351D02*
D03*
Y115997D02*
D03*
X71050Y114901D02*
D03*
Y114547D02*
D03*
X70200Y114901D02*
D03*
Y114547D02*
D03*
X72800Y114901D02*
D03*
Y114547D02*
D03*
X71950Y114901D02*
D03*
Y114547D02*
D03*
X69300Y114901D02*
D03*
Y114547D02*
D03*
X63450Y105047D02*
D03*
Y105401D02*
D03*
X64513Y112515D02*
D03*
Y112161D02*
D03*
X61087Y113106D02*
D03*
Y112752D02*
D03*
Y114681D02*
D03*
Y114326D02*
D03*
X64700Y104845D02*
D03*
Y105199D02*
D03*
X65300Y104845D02*
D03*
Y105199D02*
D03*
X66750Y107547D02*
D03*
Y107901D02*
D03*
X63300Y108601D02*
D03*
Y108247D02*
D03*
X50050Y108747D02*
D03*
Y109101D02*
D03*
X51450Y108797D02*
D03*
Y109151D02*
D03*
X52900Y107947D02*
D03*
Y108301D02*
D03*
X50450Y106847D02*
D03*
Y107201D02*
D03*
X50500Y109101D02*
D03*
Y108747D02*
D03*
X52000Y109901D02*
D03*
Y109547D02*
D03*
X73200Y105297D02*
D03*
Y105651D02*
D03*
X72800Y105297D02*
D03*
Y105651D02*
D03*
X87950Y106051D02*
D03*
Y105697D02*
D03*
X91400Y117851D02*
D03*
Y117497D02*
D03*
X92350Y116551D02*
D03*
Y116197D02*
D03*
X102450Y118897D02*
D03*
Y119251D02*
D03*
X105400Y118297D02*
D03*
Y118651D02*
D03*
X102400Y114547D02*
D03*
Y114901D02*
D03*
X104150Y114547D02*
D03*
Y114901D02*
D03*
X103300Y114547D02*
D03*
Y114901D02*
D03*
X105900Y114547D02*
D03*
Y114901D02*
D03*
X105050Y114547D02*
D03*
Y114901D02*
D03*
X93900Y102197D02*
D03*
Y102551D02*
D03*
X88900Y102197D02*
D03*
Y102551D02*
D03*
X96900Y106151D02*
D03*
Y105797D02*
D03*
X84350Y106847D02*
D03*
Y107201D02*
D03*
X81400Y116351D02*
D03*
Y115997D02*
D03*
X104550Y114901D02*
D03*
Y114547D02*
D03*
X103700Y114901D02*
D03*
Y114547D02*
D03*
X106300Y114901D02*
D03*
Y114547D02*
D03*
X105450Y114901D02*
D03*
Y114547D02*
D03*
X102800Y114901D02*
D03*
Y114547D02*
D03*
X96950Y105047D02*
D03*
Y105401D02*
D03*
X98013Y112515D02*
D03*
Y112161D02*
D03*
X94587Y113106D02*
D03*
Y112752D02*
D03*
Y114681D02*
D03*
Y114326D02*
D03*
X98200Y104845D02*
D03*
Y105199D02*
D03*
X98800Y104845D02*
D03*
Y105199D02*
D03*
X100250Y107547D02*
D03*
Y107901D02*
D03*
X96800Y108601D02*
D03*
Y108247D02*
D03*
X83550Y108747D02*
D03*
Y109101D02*
D03*
X84950Y108797D02*
D03*
Y109151D02*
D03*
X86400Y107947D02*
D03*
Y108301D02*
D03*
X83950Y106847D02*
D03*
Y107201D02*
D03*
X84000Y109101D02*
D03*
Y108747D02*
D03*
X85500Y109901D02*
D03*
Y109547D02*
D03*
X106700Y105297D02*
D03*
Y105651D02*
D03*
X106300Y105297D02*
D03*
Y105651D02*
D03*
X121450Y106051D02*
D03*
Y105697D02*
D03*
X124900Y117851D02*
D03*
Y117497D02*
D03*
X125850Y116551D02*
D03*
Y116197D02*
D03*
X135950Y118897D02*
D03*
Y119251D02*
D03*
X138900Y118297D02*
D03*
Y118651D02*
D03*
X135900Y114547D02*
D03*
Y114901D02*
D03*
X137650Y114547D02*
D03*
Y114901D02*
D03*
X136800Y114547D02*
D03*
Y114901D02*
D03*
X139400Y114547D02*
D03*
Y114901D02*
D03*
X138550Y114547D02*
D03*
Y114901D02*
D03*
X127400Y102197D02*
D03*
Y102551D02*
D03*
X122400Y102197D02*
D03*
Y102551D02*
D03*
X130400Y106151D02*
D03*
Y105797D02*
D03*
X117850Y106847D02*
D03*
Y107201D02*
D03*
X114900Y116351D02*
D03*
Y115997D02*
D03*
X138050Y114901D02*
D03*
Y114547D02*
D03*
X137200Y114901D02*
D03*
Y114547D02*
D03*
X139800Y114901D02*
D03*
Y114547D02*
D03*
X138950Y114901D02*
D03*
Y114547D02*
D03*
X136300Y114901D02*
D03*
Y114547D02*
D03*
X130450Y105047D02*
D03*
Y105401D02*
D03*
X131513Y112515D02*
D03*
Y112161D02*
D03*
X128087Y113106D02*
D03*
Y112752D02*
D03*
Y114681D02*
D03*
Y114326D02*
D03*
X131700Y104845D02*
D03*
Y105199D02*
D03*
X132300Y104845D02*
D03*
Y105199D02*
D03*
X133750Y107547D02*
D03*
Y107901D02*
D03*
X130300Y108601D02*
D03*
Y108247D02*
D03*
X117050Y108747D02*
D03*
Y109101D02*
D03*
X118450Y108797D02*
D03*
Y109151D02*
D03*
X119900Y107947D02*
D03*
Y108301D02*
D03*
X117450Y106847D02*
D03*
Y107201D02*
D03*
X117500Y109101D02*
D03*
Y108747D02*
D03*
X119000Y109901D02*
D03*
Y109547D02*
D03*
X140200Y105297D02*
D03*
Y105651D02*
D03*
X139800Y105297D02*
D03*
Y105651D02*
D03*
D13*
X22298Y27490D02*
D03*
Y27746D02*
D03*
Y28002D02*
D03*
Y28258D02*
D03*
X20802D02*
D03*
Y28002D02*
D03*
Y27746D02*
D03*
Y27490D02*
D03*
X55798D02*
D03*
Y27746D02*
D03*
Y28002D02*
D03*
Y28258D02*
D03*
X54302D02*
D03*
Y28002D02*
D03*
Y27746D02*
D03*
Y27490D02*
D03*
X89298D02*
D03*
Y27746D02*
D03*
Y28002D02*
D03*
Y28258D02*
D03*
X87802D02*
D03*
Y28002D02*
D03*
Y27746D02*
D03*
Y27490D02*
D03*
X122798D02*
D03*
Y27746D02*
D03*
Y28002D02*
D03*
Y28258D02*
D03*
X121302D02*
D03*
Y28002D02*
D03*
Y27746D02*
D03*
Y27490D02*
D03*
X22298Y49640D02*
D03*
Y49896D02*
D03*
Y50152D02*
D03*
Y50408D02*
D03*
X20802D02*
D03*
Y50152D02*
D03*
Y49896D02*
D03*
Y49640D02*
D03*
X55798D02*
D03*
Y49896D02*
D03*
Y50152D02*
D03*
Y50408D02*
D03*
X54302D02*
D03*
Y50152D02*
D03*
Y49896D02*
D03*
Y49640D02*
D03*
X89298D02*
D03*
Y49896D02*
D03*
Y50152D02*
D03*
Y50408D02*
D03*
X87802D02*
D03*
Y50152D02*
D03*
Y49896D02*
D03*
Y49640D02*
D03*
X122798D02*
D03*
Y49896D02*
D03*
Y50152D02*
D03*
Y50408D02*
D03*
X121302D02*
D03*
Y50152D02*
D03*
Y49896D02*
D03*
Y49640D02*
D03*
X22298Y71790D02*
D03*
Y72046D02*
D03*
Y72302D02*
D03*
Y72558D02*
D03*
X20802D02*
D03*
Y72302D02*
D03*
Y72046D02*
D03*
Y71790D02*
D03*
X55798D02*
D03*
Y72046D02*
D03*
Y72302D02*
D03*
Y72558D02*
D03*
X54302D02*
D03*
Y72302D02*
D03*
Y72046D02*
D03*
Y71790D02*
D03*
X89298D02*
D03*
Y72046D02*
D03*
Y72302D02*
D03*
Y72558D02*
D03*
X87802D02*
D03*
Y72302D02*
D03*
Y72046D02*
D03*
Y71790D02*
D03*
X122798D02*
D03*
Y72046D02*
D03*
Y72302D02*
D03*
Y72558D02*
D03*
X121302D02*
D03*
Y72302D02*
D03*
Y72046D02*
D03*
Y71790D02*
D03*
X22298Y93940D02*
D03*
Y94196D02*
D03*
Y94452D02*
D03*
Y94708D02*
D03*
X20802D02*
D03*
Y94452D02*
D03*
Y94196D02*
D03*
Y93940D02*
D03*
X55798D02*
D03*
Y94196D02*
D03*
Y94452D02*
D03*
Y94708D02*
D03*
X54302D02*
D03*
Y94452D02*
D03*
Y94196D02*
D03*
Y93940D02*
D03*
X89298D02*
D03*
Y94196D02*
D03*
Y94452D02*
D03*
Y94708D02*
D03*
X87802D02*
D03*
Y94452D02*
D03*
Y94196D02*
D03*
Y93940D02*
D03*
X122798D02*
D03*
Y94196D02*
D03*
Y94452D02*
D03*
Y94708D02*
D03*
X121302D02*
D03*
Y94452D02*
D03*
Y94196D02*
D03*
Y93940D02*
D03*
X22298Y116090D02*
D03*
Y116346D02*
D03*
Y116602D02*
D03*
Y116858D02*
D03*
X20802D02*
D03*
Y116602D02*
D03*
Y116346D02*
D03*
Y116090D02*
D03*
X55798D02*
D03*
Y116346D02*
D03*
Y116602D02*
D03*
Y116858D02*
D03*
X54302D02*
D03*
Y116602D02*
D03*
Y116346D02*
D03*
Y116090D02*
D03*
X89298D02*
D03*
Y116346D02*
D03*
Y116602D02*
D03*
Y116858D02*
D03*
X87802D02*
D03*
Y116602D02*
D03*
Y116346D02*
D03*
Y116090D02*
D03*
X122798D02*
D03*
Y116346D02*
D03*
Y116602D02*
D03*
Y116858D02*
D03*
X121302D02*
D03*
Y116602D02*
D03*
Y116346D02*
D03*
Y116090D02*
D03*
D14*
X21166Y27126D02*
D03*
X21422D02*
D03*
X21678D02*
D03*
X21934D02*
D03*
Y28622D02*
D03*
X21678D02*
D03*
X21422D02*
D03*
X21166D02*
D03*
X54666Y27126D02*
D03*
X54922D02*
D03*
X55178D02*
D03*
X55434D02*
D03*
Y28622D02*
D03*
X55178D02*
D03*
X54922D02*
D03*
X54666D02*
D03*
X88166Y27126D02*
D03*
X88422D02*
D03*
X88678D02*
D03*
X88934D02*
D03*
Y28622D02*
D03*
X88678D02*
D03*
X88422D02*
D03*
X88166D02*
D03*
X121666Y27126D02*
D03*
X121922D02*
D03*
X122178D02*
D03*
X122434D02*
D03*
Y28622D02*
D03*
X122178D02*
D03*
X121922D02*
D03*
X121666D02*
D03*
X21166Y49276D02*
D03*
X21422D02*
D03*
X21678D02*
D03*
X21934D02*
D03*
Y50772D02*
D03*
X21678D02*
D03*
X21422D02*
D03*
X21166D02*
D03*
X54666Y49276D02*
D03*
X54922D02*
D03*
X55178D02*
D03*
X55434D02*
D03*
Y50772D02*
D03*
X55178D02*
D03*
X54922D02*
D03*
X54666D02*
D03*
X88166Y49276D02*
D03*
X88422D02*
D03*
X88678D02*
D03*
X88934D02*
D03*
Y50772D02*
D03*
X88678D02*
D03*
X88422D02*
D03*
X88166D02*
D03*
X121666Y49276D02*
D03*
X121922D02*
D03*
X122178D02*
D03*
X122434D02*
D03*
Y50772D02*
D03*
X122178D02*
D03*
X121922D02*
D03*
X121666D02*
D03*
X21166Y71426D02*
D03*
X21422D02*
D03*
X21678D02*
D03*
X21934D02*
D03*
Y72922D02*
D03*
X21678D02*
D03*
X21422D02*
D03*
X21166D02*
D03*
X54666Y71426D02*
D03*
X54922D02*
D03*
X55178D02*
D03*
X55434D02*
D03*
Y72922D02*
D03*
X55178D02*
D03*
X54922D02*
D03*
X54666D02*
D03*
X88166Y71426D02*
D03*
X88422D02*
D03*
X88678D02*
D03*
X88934D02*
D03*
Y72922D02*
D03*
X88678D02*
D03*
X88422D02*
D03*
X88166D02*
D03*
X121666Y71426D02*
D03*
X121922D02*
D03*
X122178D02*
D03*
X122434D02*
D03*
Y72922D02*
D03*
X122178D02*
D03*
X121922D02*
D03*
X121666D02*
D03*
X21166Y93576D02*
D03*
X21422D02*
D03*
X21678D02*
D03*
X21934D02*
D03*
Y95072D02*
D03*
X21678D02*
D03*
X21422D02*
D03*
X21166D02*
D03*
X54666Y93576D02*
D03*
X54922D02*
D03*
X55178D02*
D03*
X55434D02*
D03*
Y95072D02*
D03*
X55178D02*
D03*
X54922D02*
D03*
X54666D02*
D03*
X88166Y93576D02*
D03*
X88422D02*
D03*
X88678D02*
D03*
X88934D02*
D03*
Y95072D02*
D03*
X88678D02*
D03*
X88422D02*
D03*
X88166D02*
D03*
X121666Y93576D02*
D03*
X121922D02*
D03*
X122178D02*
D03*
X122434D02*
D03*
Y95072D02*
D03*
X122178D02*
D03*
X121922D02*
D03*
X121666D02*
D03*
X21166Y115726D02*
D03*
X21422D02*
D03*
X21678D02*
D03*
X21934D02*
D03*
Y117222D02*
D03*
X21678D02*
D03*
X21422D02*
D03*
X21166D02*
D03*
X54666Y115726D02*
D03*
X54922D02*
D03*
X55178D02*
D03*
X55434D02*
D03*
Y117222D02*
D03*
X55178D02*
D03*
X54922D02*
D03*
X54666D02*
D03*
X88166Y115726D02*
D03*
X88422D02*
D03*
X88678D02*
D03*
X88934D02*
D03*
Y117222D02*
D03*
X88678D02*
D03*
X88422D02*
D03*
X88166D02*
D03*
X121666Y115726D02*
D03*
X121922D02*
D03*
X122178D02*
D03*
X122434D02*
D03*
Y117222D02*
D03*
X122178D02*
D03*
X121922D02*
D03*
X121666D02*
D03*
D30*
X36650Y12924D02*
D03*
X38650D02*
D03*
X31650D02*
D03*
X33650D02*
D03*
X70150D02*
D03*
X72150D02*
D03*
X65150D02*
D03*
X67150D02*
D03*
X103650D02*
D03*
X105650D02*
D03*
X98650D02*
D03*
X100650D02*
D03*
X137150D02*
D03*
X139150D02*
D03*
X132150D02*
D03*
X134150D02*
D03*
X36650Y35074D02*
D03*
X38650D02*
D03*
X31650D02*
D03*
X33650D02*
D03*
X70150D02*
D03*
X72150D02*
D03*
X65150D02*
D03*
X67150D02*
D03*
X103650D02*
D03*
X105650D02*
D03*
X98650D02*
D03*
X100650D02*
D03*
X137150D02*
D03*
X139150D02*
D03*
X132150D02*
D03*
X134150D02*
D03*
X36650Y57224D02*
D03*
X38650D02*
D03*
X31650D02*
D03*
X33650D02*
D03*
X70150D02*
D03*
X72150D02*
D03*
X65150D02*
D03*
X67150D02*
D03*
X103650D02*
D03*
X105650D02*
D03*
X98650D02*
D03*
X100650D02*
D03*
X137150D02*
D03*
X139150D02*
D03*
X132150D02*
D03*
X134150D02*
D03*
X36650Y79374D02*
D03*
X38650D02*
D03*
X31650D02*
D03*
X33650D02*
D03*
X70150D02*
D03*
X72150D02*
D03*
X65150D02*
D03*
X67150D02*
D03*
X103650D02*
D03*
X105650D02*
D03*
X98650D02*
D03*
X100650D02*
D03*
X137150D02*
D03*
X139150D02*
D03*
X132150D02*
D03*
X134150D02*
D03*
X36650Y101524D02*
D03*
X38650D02*
D03*
X31650D02*
D03*
X33650D02*
D03*
X70150D02*
D03*
X72150D02*
D03*
X65150D02*
D03*
X67150D02*
D03*
X103650D02*
D03*
X105650D02*
D03*
X98650D02*
D03*
X100650D02*
D03*
X137150D02*
D03*
X139150D02*
D03*
X132150D02*
D03*
X134150D02*
D03*
D32*
X30673Y22924D02*
D03*
X31027D02*
D03*
X27603Y16074D02*
D03*
X27957D02*
D03*
X19027Y30424D02*
D03*
X18673D02*
D03*
X31977Y26024D02*
D03*
X31623D02*
D03*
X24927Y26624D02*
D03*
X24573D02*
D03*
X26473Y28174D02*
D03*
X26827D02*
D03*
X28423Y27074D02*
D03*
X28777D02*
D03*
X14773Y23724D02*
D03*
X15127D02*
D03*
X14773Y24174D02*
D03*
X15127D02*
D03*
X25677Y13324D02*
D03*
X25323D02*
D03*
Y12924D02*
D03*
X25677D02*
D03*
X25323Y12524D02*
D03*
X25677D02*
D03*
X16473Y17924D02*
D03*
X16827D02*
D03*
X35073Y20024D02*
D03*
X35427D02*
D03*
X36773Y17224D02*
D03*
X37127D02*
D03*
X34723Y21374D02*
D03*
X35077D02*
D03*
X33077Y16472D02*
D03*
X32723D02*
D03*
X31773Y29174D02*
D03*
X32127D02*
D03*
X31773Y30624D02*
D03*
X32127D02*
D03*
X24823Y29374D02*
D03*
X25177D02*
D03*
X27723Y27074D02*
D03*
X28077D02*
D03*
X33627Y17022D02*
D03*
X33273D02*
D03*
X31927Y24574D02*
D03*
X31573D02*
D03*
X31927Y24124D02*
D03*
X31573D02*
D03*
X31377Y26524D02*
D03*
X31023D02*
D03*
X29277Y26324D02*
D03*
X28923D02*
D03*
X29623D02*
D03*
X29977D02*
D03*
X30009Y22911D02*
D03*
X30363D02*
D03*
X29477Y22924D02*
D03*
X29123D02*
D03*
X28177D02*
D03*
X27823D02*
D03*
X30523Y16922D02*
D03*
X30877D02*
D03*
X31977Y25624D02*
D03*
X31623D02*
D03*
X28473Y22924D02*
D03*
X28827D02*
D03*
X27623Y26474D02*
D03*
X27977D02*
D03*
X29173Y18224D02*
D03*
X29527D02*
D03*
X31479Y20324D02*
D03*
X31124D02*
D03*
X30273Y16322D02*
D03*
X30627D02*
D03*
X32673Y20324D02*
D03*
X33027D02*
D03*
X19027Y30024D02*
D03*
X18673D02*
D03*
X39973Y16374D02*
D03*
X40327D02*
D03*
X64173Y22924D02*
D03*
X64527D02*
D03*
X61103Y16074D02*
D03*
X61457D02*
D03*
X52527Y30424D02*
D03*
X52173D02*
D03*
X65477Y26024D02*
D03*
X65123D02*
D03*
X58427Y26624D02*
D03*
X58073D02*
D03*
X59973Y28174D02*
D03*
X60327D02*
D03*
X61923Y27074D02*
D03*
X62277D02*
D03*
X48273Y23724D02*
D03*
X48627D02*
D03*
X48273Y24174D02*
D03*
X48627D02*
D03*
X59177Y13324D02*
D03*
X58823D02*
D03*
Y12924D02*
D03*
X59177D02*
D03*
X58823Y12524D02*
D03*
X59177D02*
D03*
X49973Y17924D02*
D03*
X50327D02*
D03*
X68573Y20024D02*
D03*
X68927D02*
D03*
X70273Y17224D02*
D03*
X70627D02*
D03*
X68223Y21374D02*
D03*
X68577D02*
D03*
X66577Y16472D02*
D03*
X66223D02*
D03*
X65273Y29174D02*
D03*
X65627D02*
D03*
X65273Y30624D02*
D03*
X65627D02*
D03*
X58323Y29374D02*
D03*
X58677D02*
D03*
X61223Y27074D02*
D03*
X61577D02*
D03*
X67127Y17022D02*
D03*
X66773D02*
D03*
X65427Y24574D02*
D03*
X65073D02*
D03*
X65427Y24124D02*
D03*
X65073D02*
D03*
X64877Y26524D02*
D03*
X64523D02*
D03*
X62777Y26324D02*
D03*
X62423D02*
D03*
X63123D02*
D03*
X63477D02*
D03*
X63509Y22911D02*
D03*
X63863D02*
D03*
X62977Y22924D02*
D03*
X62623D02*
D03*
X61677D02*
D03*
X61323D02*
D03*
X64023Y16922D02*
D03*
X64377D02*
D03*
X65477Y25624D02*
D03*
X65123D02*
D03*
X61973Y22924D02*
D03*
X62327D02*
D03*
X61123Y26474D02*
D03*
X61477D02*
D03*
X62673Y18224D02*
D03*
X63027D02*
D03*
X64979Y20324D02*
D03*
X64624D02*
D03*
X63773Y16322D02*
D03*
X64127D02*
D03*
X66173Y20324D02*
D03*
X66527D02*
D03*
X52527Y30024D02*
D03*
X52173D02*
D03*
X73473Y16374D02*
D03*
X73827D02*
D03*
X97673Y22924D02*
D03*
X98027D02*
D03*
X94603Y16074D02*
D03*
X94957D02*
D03*
X86027Y30424D02*
D03*
X85673D02*
D03*
X98977Y26024D02*
D03*
X98623D02*
D03*
X91927Y26624D02*
D03*
X91573D02*
D03*
X93473Y28174D02*
D03*
X93827D02*
D03*
X95423Y27074D02*
D03*
X95777D02*
D03*
X81773Y23724D02*
D03*
X82127D02*
D03*
X81773Y24174D02*
D03*
X82127D02*
D03*
X92677Y13324D02*
D03*
X92323D02*
D03*
Y12924D02*
D03*
X92677D02*
D03*
X92323Y12524D02*
D03*
X92677D02*
D03*
X83473Y17924D02*
D03*
X83827D02*
D03*
X102073Y20024D02*
D03*
X102427D02*
D03*
X103773Y17224D02*
D03*
X104127D02*
D03*
X101723Y21374D02*
D03*
X102077D02*
D03*
X100077Y16472D02*
D03*
X99723D02*
D03*
X98773Y29174D02*
D03*
X99127D02*
D03*
X98773Y30624D02*
D03*
X99127D02*
D03*
X91823Y29374D02*
D03*
X92177D02*
D03*
X94723Y27074D02*
D03*
X95077D02*
D03*
X100627Y17022D02*
D03*
X100273D02*
D03*
X98927Y24574D02*
D03*
X98573D02*
D03*
X98927Y24124D02*
D03*
X98573D02*
D03*
X98377Y26524D02*
D03*
X98023D02*
D03*
X96277Y26324D02*
D03*
X95923D02*
D03*
X96623D02*
D03*
X96977D02*
D03*
X97009Y22911D02*
D03*
X97363D02*
D03*
X96477Y22924D02*
D03*
X96123D02*
D03*
X95177D02*
D03*
X94823D02*
D03*
X97523Y16922D02*
D03*
X97877D02*
D03*
X98977Y25624D02*
D03*
X98623D02*
D03*
X95473Y22924D02*
D03*
X95827D02*
D03*
X94623Y26474D02*
D03*
X94977D02*
D03*
X96173Y18224D02*
D03*
X96527D02*
D03*
X98479Y20324D02*
D03*
X98124D02*
D03*
X97273Y16322D02*
D03*
X97627D02*
D03*
X99673Y20324D02*
D03*
X100027D02*
D03*
X86027Y30024D02*
D03*
X85673D02*
D03*
X106973Y16374D02*
D03*
X107327D02*
D03*
X131173Y22924D02*
D03*
X131527D02*
D03*
X128103Y16074D02*
D03*
X128457D02*
D03*
X119527Y30424D02*
D03*
X119173D02*
D03*
X132477Y26024D02*
D03*
X132123D02*
D03*
X125427Y26624D02*
D03*
X125073D02*
D03*
X126973Y28174D02*
D03*
X127327D02*
D03*
X128923Y27074D02*
D03*
X129277D02*
D03*
X115273Y23724D02*
D03*
X115627D02*
D03*
X115273Y24174D02*
D03*
X115627D02*
D03*
X126177Y13324D02*
D03*
X125823D02*
D03*
Y12924D02*
D03*
X126177D02*
D03*
X125823Y12524D02*
D03*
X126177D02*
D03*
X116973Y17924D02*
D03*
X117327D02*
D03*
X135573Y20024D02*
D03*
X135927D02*
D03*
X137273Y17224D02*
D03*
X137627D02*
D03*
X135223Y21374D02*
D03*
X135577D02*
D03*
X133577Y16472D02*
D03*
X133223D02*
D03*
X132273Y29174D02*
D03*
X132627D02*
D03*
X132273Y30624D02*
D03*
X132627D02*
D03*
X125323Y29374D02*
D03*
X125677D02*
D03*
X128223Y27074D02*
D03*
X128577D02*
D03*
X134127Y17022D02*
D03*
X133773D02*
D03*
X132427Y24574D02*
D03*
X132073D02*
D03*
X132427Y24124D02*
D03*
X132073D02*
D03*
X131877Y26524D02*
D03*
X131523D02*
D03*
X129777Y26324D02*
D03*
X129423D02*
D03*
X130123D02*
D03*
X130477D02*
D03*
X130509Y22911D02*
D03*
X130863D02*
D03*
X129977Y22924D02*
D03*
X129623D02*
D03*
X128677D02*
D03*
X128323D02*
D03*
X131023Y16922D02*
D03*
X131377D02*
D03*
X132477Y25624D02*
D03*
X132123D02*
D03*
X128973Y22924D02*
D03*
X129327D02*
D03*
X128123Y26474D02*
D03*
X128477D02*
D03*
X129673Y18224D02*
D03*
X130027D02*
D03*
X131979Y20324D02*
D03*
X131624D02*
D03*
X130773Y16322D02*
D03*
X131127D02*
D03*
X133173Y20324D02*
D03*
X133527D02*
D03*
X119527Y30024D02*
D03*
X119173D02*
D03*
X140473Y16374D02*
D03*
X140827D02*
D03*
X30673Y45074D02*
D03*
X31027D02*
D03*
X27603Y38224D02*
D03*
X27957D02*
D03*
X19027Y52574D02*
D03*
X18673D02*
D03*
X31977Y48174D02*
D03*
X31623D02*
D03*
X24927Y48774D02*
D03*
X24573D02*
D03*
X26473Y50324D02*
D03*
X26827D02*
D03*
X28423Y49224D02*
D03*
X28777D02*
D03*
X14773Y45874D02*
D03*
X15127D02*
D03*
X14773Y46324D02*
D03*
X15127D02*
D03*
X25677Y35474D02*
D03*
X25323D02*
D03*
Y35074D02*
D03*
X25677D02*
D03*
X25323Y34674D02*
D03*
X25677D02*
D03*
X16473Y40074D02*
D03*
X16827D02*
D03*
X35073Y42174D02*
D03*
X35427D02*
D03*
X36773Y39374D02*
D03*
X37127D02*
D03*
X34723Y43524D02*
D03*
X35077D02*
D03*
X33077Y38622D02*
D03*
X32723D02*
D03*
X31773Y51324D02*
D03*
X32127D02*
D03*
X31773Y52774D02*
D03*
X32127D02*
D03*
X24823Y51524D02*
D03*
X25177D02*
D03*
X27723Y49224D02*
D03*
X28077D02*
D03*
X33627Y39172D02*
D03*
X33273D02*
D03*
X31927Y46724D02*
D03*
X31573D02*
D03*
X31927Y46274D02*
D03*
X31573D02*
D03*
X31377Y48674D02*
D03*
X31023D02*
D03*
X29277Y48474D02*
D03*
X28923D02*
D03*
X29623D02*
D03*
X29977D02*
D03*
X30009Y45061D02*
D03*
X30363D02*
D03*
X29477Y45074D02*
D03*
X29123D02*
D03*
X28177D02*
D03*
X27823D02*
D03*
X30523Y39072D02*
D03*
X30877D02*
D03*
X31977Y47774D02*
D03*
X31623D02*
D03*
X28473Y45074D02*
D03*
X28827D02*
D03*
X27623Y48624D02*
D03*
X27977D02*
D03*
X29173Y40374D02*
D03*
X29527D02*
D03*
X31479Y42474D02*
D03*
X31124D02*
D03*
X30273Y38472D02*
D03*
X30627D02*
D03*
X32673Y42474D02*
D03*
X33027D02*
D03*
X19027Y52174D02*
D03*
X18673D02*
D03*
X39973Y38524D02*
D03*
X40327D02*
D03*
X64173Y45074D02*
D03*
X64527D02*
D03*
X61103Y38224D02*
D03*
X61457D02*
D03*
X52527Y52574D02*
D03*
X52173D02*
D03*
X65477Y48174D02*
D03*
X65123D02*
D03*
X58427Y48774D02*
D03*
X58073D02*
D03*
X59973Y50324D02*
D03*
X60327D02*
D03*
X61923Y49224D02*
D03*
X62277D02*
D03*
X48273Y45874D02*
D03*
X48627D02*
D03*
X48273Y46324D02*
D03*
X48627D02*
D03*
X59177Y35474D02*
D03*
X58823D02*
D03*
Y35074D02*
D03*
X59177D02*
D03*
X58823Y34674D02*
D03*
X59177D02*
D03*
X49973Y40074D02*
D03*
X50327D02*
D03*
X68573Y42174D02*
D03*
X68927D02*
D03*
X70273Y39374D02*
D03*
X70627D02*
D03*
X68223Y43524D02*
D03*
X68577D02*
D03*
X66577Y38622D02*
D03*
X66223D02*
D03*
X65273Y51324D02*
D03*
X65627D02*
D03*
X65273Y52774D02*
D03*
X65627D02*
D03*
X58323Y51524D02*
D03*
X58677D02*
D03*
X61223Y49224D02*
D03*
X61577D02*
D03*
X67127Y39172D02*
D03*
X66773D02*
D03*
X65427Y46724D02*
D03*
X65073D02*
D03*
X65427Y46274D02*
D03*
X65073D02*
D03*
X64877Y48674D02*
D03*
X64523D02*
D03*
X62777Y48474D02*
D03*
X62423D02*
D03*
X63123D02*
D03*
X63477D02*
D03*
X63509Y45061D02*
D03*
X63863D02*
D03*
X62977Y45074D02*
D03*
X62623D02*
D03*
X61677D02*
D03*
X61323D02*
D03*
X64023Y39072D02*
D03*
X64377D02*
D03*
X65477Y47774D02*
D03*
X65123D02*
D03*
X61973Y45074D02*
D03*
X62327D02*
D03*
X61123Y48624D02*
D03*
X61477D02*
D03*
X62673Y40374D02*
D03*
X63027D02*
D03*
X64979Y42474D02*
D03*
X64624D02*
D03*
X63773Y38472D02*
D03*
X64127D02*
D03*
X66173Y42474D02*
D03*
X66527D02*
D03*
X52527Y52174D02*
D03*
X52173D02*
D03*
X73473Y38524D02*
D03*
X73827D02*
D03*
X97673Y45074D02*
D03*
X98027D02*
D03*
X94603Y38224D02*
D03*
X94957D02*
D03*
X86027Y52574D02*
D03*
X85673D02*
D03*
X98977Y48174D02*
D03*
X98623D02*
D03*
X91927Y48774D02*
D03*
X91573D02*
D03*
X93473Y50324D02*
D03*
X93827D02*
D03*
X95423Y49224D02*
D03*
X95777D02*
D03*
X81773Y45874D02*
D03*
X82127D02*
D03*
X81773Y46324D02*
D03*
X82127D02*
D03*
X92677Y35474D02*
D03*
X92323D02*
D03*
Y35074D02*
D03*
X92677D02*
D03*
X92323Y34674D02*
D03*
X92677D02*
D03*
X83473Y40074D02*
D03*
X83827D02*
D03*
X102073Y42174D02*
D03*
X102427D02*
D03*
X103773Y39374D02*
D03*
X104127D02*
D03*
X101723Y43524D02*
D03*
X102077D02*
D03*
X100077Y38622D02*
D03*
X99723D02*
D03*
X98773Y51324D02*
D03*
X99127D02*
D03*
X98773Y52774D02*
D03*
X99127D02*
D03*
X91823Y51524D02*
D03*
X92177D02*
D03*
X94723Y49224D02*
D03*
X95077D02*
D03*
X100627Y39172D02*
D03*
X100273D02*
D03*
X98927Y46724D02*
D03*
X98573D02*
D03*
X98927Y46274D02*
D03*
X98573D02*
D03*
X98377Y48674D02*
D03*
X98023D02*
D03*
X96277Y48474D02*
D03*
X95923D02*
D03*
X96623D02*
D03*
X96977D02*
D03*
X97009Y45061D02*
D03*
X97363D02*
D03*
X96477Y45074D02*
D03*
X96123D02*
D03*
X95177D02*
D03*
X94823D02*
D03*
X97523Y39072D02*
D03*
X97877D02*
D03*
X98977Y47774D02*
D03*
X98623D02*
D03*
X95473Y45074D02*
D03*
X95827D02*
D03*
X94623Y48624D02*
D03*
X94977D02*
D03*
X96173Y40374D02*
D03*
X96527D02*
D03*
X98479Y42474D02*
D03*
X98124D02*
D03*
X97273Y38472D02*
D03*
X97627D02*
D03*
X99673Y42474D02*
D03*
X100027D02*
D03*
X86027Y52174D02*
D03*
X85673D02*
D03*
X106973Y38524D02*
D03*
X107327D02*
D03*
X131173Y45074D02*
D03*
X131527D02*
D03*
X128103Y38224D02*
D03*
X128457D02*
D03*
X119527Y52574D02*
D03*
X119173D02*
D03*
X132477Y48174D02*
D03*
X132123D02*
D03*
X125427Y48774D02*
D03*
X125073D02*
D03*
X126973Y50324D02*
D03*
X127327D02*
D03*
X128923Y49224D02*
D03*
X129277D02*
D03*
X115273Y45874D02*
D03*
X115627D02*
D03*
X115273Y46324D02*
D03*
X115627D02*
D03*
X126177Y35474D02*
D03*
X125823D02*
D03*
Y35074D02*
D03*
X126177D02*
D03*
X125823Y34674D02*
D03*
X126177D02*
D03*
X116973Y40074D02*
D03*
X117327D02*
D03*
X135573Y42174D02*
D03*
X135927D02*
D03*
X137273Y39374D02*
D03*
X137627D02*
D03*
X135223Y43524D02*
D03*
X135577D02*
D03*
X133577Y38622D02*
D03*
X133223D02*
D03*
X132273Y51324D02*
D03*
X132627D02*
D03*
X132273Y52774D02*
D03*
X132627D02*
D03*
X125323Y51524D02*
D03*
X125677D02*
D03*
X128223Y49224D02*
D03*
X128577D02*
D03*
X134127Y39172D02*
D03*
X133773D02*
D03*
X132427Y46724D02*
D03*
X132073D02*
D03*
X132427Y46274D02*
D03*
X132073D02*
D03*
X131877Y48674D02*
D03*
X131523D02*
D03*
X129777Y48474D02*
D03*
X129423D02*
D03*
X130123D02*
D03*
X130477D02*
D03*
X130509Y45061D02*
D03*
X130863D02*
D03*
X129977Y45074D02*
D03*
X129623D02*
D03*
X128677D02*
D03*
X128323D02*
D03*
X131023Y39072D02*
D03*
X131377D02*
D03*
X132477Y47774D02*
D03*
X132123D02*
D03*
X128973Y45074D02*
D03*
X129327D02*
D03*
X128123Y48624D02*
D03*
X128477D02*
D03*
X129673Y40374D02*
D03*
X130027D02*
D03*
X131979Y42474D02*
D03*
X131624D02*
D03*
X130773Y38472D02*
D03*
X131127D02*
D03*
X133173Y42474D02*
D03*
X133527D02*
D03*
X119527Y52174D02*
D03*
X119173D02*
D03*
X140473Y38524D02*
D03*
X140827D02*
D03*
X30673Y67224D02*
D03*
X31027D02*
D03*
X27603Y60374D02*
D03*
X27957D02*
D03*
X19027Y74724D02*
D03*
X18673D02*
D03*
X31977Y70324D02*
D03*
X31623D02*
D03*
X24927Y70924D02*
D03*
X24573D02*
D03*
X26473Y72474D02*
D03*
X26827D02*
D03*
X28423Y71374D02*
D03*
X28777D02*
D03*
X14773Y68024D02*
D03*
X15127D02*
D03*
X14773Y68474D02*
D03*
X15127D02*
D03*
X25677Y57624D02*
D03*
X25323D02*
D03*
Y57224D02*
D03*
X25677D02*
D03*
X25323Y56824D02*
D03*
X25677D02*
D03*
X16473Y62224D02*
D03*
X16827D02*
D03*
X35073Y64324D02*
D03*
X35427D02*
D03*
X36773Y61524D02*
D03*
X37127D02*
D03*
X34723Y65674D02*
D03*
X35077D02*
D03*
X33077Y60772D02*
D03*
X32723D02*
D03*
X31773Y73474D02*
D03*
X32127D02*
D03*
X31773Y74924D02*
D03*
X32127D02*
D03*
X24823Y73674D02*
D03*
X25177D02*
D03*
X27723Y71374D02*
D03*
X28077D02*
D03*
X33627Y61322D02*
D03*
X33273D02*
D03*
X31927Y68874D02*
D03*
X31573D02*
D03*
X31927Y68424D02*
D03*
X31573D02*
D03*
X31377Y70824D02*
D03*
X31023D02*
D03*
X29277Y70624D02*
D03*
X28923D02*
D03*
X29623D02*
D03*
X29977D02*
D03*
X30009Y67211D02*
D03*
X30363D02*
D03*
X29477Y67224D02*
D03*
X29123D02*
D03*
X28177D02*
D03*
X27823D02*
D03*
X30523Y61222D02*
D03*
X30877D02*
D03*
X31977Y69924D02*
D03*
X31623D02*
D03*
X28473Y67224D02*
D03*
X28827D02*
D03*
X27623Y70774D02*
D03*
X27977D02*
D03*
X29173Y62524D02*
D03*
X29527D02*
D03*
X31479Y64624D02*
D03*
X31124D02*
D03*
X30273Y60622D02*
D03*
X30627D02*
D03*
X32673Y64624D02*
D03*
X33027D02*
D03*
X19027Y74324D02*
D03*
X18673D02*
D03*
X39973Y60674D02*
D03*
X40327D02*
D03*
X64173Y67224D02*
D03*
X64527D02*
D03*
X61103Y60374D02*
D03*
X61457D02*
D03*
X52527Y74724D02*
D03*
X52173D02*
D03*
X65477Y70324D02*
D03*
X65123D02*
D03*
X58427Y70924D02*
D03*
X58073D02*
D03*
X59973Y72474D02*
D03*
X60327D02*
D03*
X61923Y71374D02*
D03*
X62277D02*
D03*
X48273Y68024D02*
D03*
X48627D02*
D03*
X48273Y68474D02*
D03*
X48627D02*
D03*
X59177Y57624D02*
D03*
X58823D02*
D03*
Y57224D02*
D03*
X59177D02*
D03*
X58823Y56824D02*
D03*
X59177D02*
D03*
X49973Y62224D02*
D03*
X50327D02*
D03*
X68573Y64324D02*
D03*
X68927D02*
D03*
X70273Y61524D02*
D03*
X70627D02*
D03*
X68223Y65674D02*
D03*
X68577D02*
D03*
X66577Y60772D02*
D03*
X66223D02*
D03*
X65273Y73474D02*
D03*
X65627D02*
D03*
X65273Y74924D02*
D03*
X65627D02*
D03*
X58323Y73674D02*
D03*
X58677D02*
D03*
X61223Y71374D02*
D03*
X61577D02*
D03*
X67127Y61322D02*
D03*
X66773D02*
D03*
X65427Y68874D02*
D03*
X65073D02*
D03*
X65427Y68424D02*
D03*
X65073D02*
D03*
X64877Y70824D02*
D03*
X64523D02*
D03*
X62777Y70624D02*
D03*
X62423D02*
D03*
X63123D02*
D03*
X63477D02*
D03*
X63509Y67211D02*
D03*
X63863D02*
D03*
X62977Y67224D02*
D03*
X62623D02*
D03*
X61677D02*
D03*
X61323D02*
D03*
X64023Y61222D02*
D03*
X64377D02*
D03*
X65477Y69924D02*
D03*
X65123D02*
D03*
X61973Y67224D02*
D03*
X62327D02*
D03*
X61123Y70774D02*
D03*
X61477D02*
D03*
X62673Y62524D02*
D03*
X63027D02*
D03*
X64979Y64624D02*
D03*
X64624D02*
D03*
X63773Y60622D02*
D03*
X64127D02*
D03*
X66173Y64624D02*
D03*
X66527D02*
D03*
X52527Y74324D02*
D03*
X52173D02*
D03*
X73473Y60674D02*
D03*
X73827D02*
D03*
X97673Y67224D02*
D03*
X98027D02*
D03*
X94603Y60374D02*
D03*
X94957D02*
D03*
X86027Y74724D02*
D03*
X85673D02*
D03*
X98977Y70324D02*
D03*
X98623D02*
D03*
X91927Y70924D02*
D03*
X91573D02*
D03*
X93473Y72474D02*
D03*
X93827D02*
D03*
X95423Y71374D02*
D03*
X95777D02*
D03*
X81773Y68024D02*
D03*
X82127D02*
D03*
X81773Y68474D02*
D03*
X82127D02*
D03*
X92677Y57624D02*
D03*
X92323D02*
D03*
Y57224D02*
D03*
X92677D02*
D03*
X92323Y56824D02*
D03*
X92677D02*
D03*
X83473Y62224D02*
D03*
X83827D02*
D03*
X102073Y64324D02*
D03*
X102427D02*
D03*
X103773Y61524D02*
D03*
X104127D02*
D03*
X101723Y65674D02*
D03*
X102077D02*
D03*
X100077Y60772D02*
D03*
X99723D02*
D03*
X98773Y73474D02*
D03*
X99127D02*
D03*
X98773Y74924D02*
D03*
X99127D02*
D03*
X91823Y73674D02*
D03*
X92177D02*
D03*
X94723Y71374D02*
D03*
X95077D02*
D03*
X100627Y61322D02*
D03*
X100273D02*
D03*
X98927Y68874D02*
D03*
X98573D02*
D03*
X98927Y68424D02*
D03*
X98573D02*
D03*
X98377Y70824D02*
D03*
X98023D02*
D03*
X96277Y70624D02*
D03*
X95923D02*
D03*
X96623D02*
D03*
X96977D02*
D03*
X97009Y67211D02*
D03*
X97363D02*
D03*
X96477Y67224D02*
D03*
X96123D02*
D03*
X95177D02*
D03*
X94823D02*
D03*
X97523Y61222D02*
D03*
X97877D02*
D03*
X98977Y69924D02*
D03*
X98623D02*
D03*
X95473Y67224D02*
D03*
X95827D02*
D03*
X94623Y70774D02*
D03*
X94977D02*
D03*
X96173Y62524D02*
D03*
X96527D02*
D03*
X98479Y64624D02*
D03*
X98124D02*
D03*
X97273Y60622D02*
D03*
X97627D02*
D03*
X99673Y64624D02*
D03*
X100027D02*
D03*
X86027Y74324D02*
D03*
X85673D02*
D03*
X106973Y60674D02*
D03*
X107327D02*
D03*
X131173Y67224D02*
D03*
X131527D02*
D03*
X128103Y60374D02*
D03*
X128457D02*
D03*
X119527Y74724D02*
D03*
X119173D02*
D03*
X132477Y70324D02*
D03*
X132123D02*
D03*
X125427Y70924D02*
D03*
X125073D02*
D03*
X126973Y72474D02*
D03*
X127327D02*
D03*
X128923Y71374D02*
D03*
X129277D02*
D03*
X115273Y68024D02*
D03*
X115627D02*
D03*
X115273Y68474D02*
D03*
X115627D02*
D03*
X126177Y57624D02*
D03*
X125823D02*
D03*
Y57224D02*
D03*
X126177D02*
D03*
X125823Y56824D02*
D03*
X126177D02*
D03*
X116973Y62224D02*
D03*
X117327D02*
D03*
X135573Y64324D02*
D03*
X135927D02*
D03*
X137273Y61524D02*
D03*
X137627D02*
D03*
X135223Y65674D02*
D03*
X135577D02*
D03*
X133577Y60772D02*
D03*
X133223D02*
D03*
X132273Y73474D02*
D03*
X132627D02*
D03*
X132273Y74924D02*
D03*
X132627D02*
D03*
X125323Y73674D02*
D03*
X125677D02*
D03*
X128223Y71374D02*
D03*
X128577D02*
D03*
X134127Y61322D02*
D03*
X133773D02*
D03*
X132427Y68874D02*
D03*
X132073D02*
D03*
X132427Y68424D02*
D03*
X132073D02*
D03*
X131877Y70824D02*
D03*
X131523D02*
D03*
X129777Y70624D02*
D03*
X129423D02*
D03*
X130123D02*
D03*
X130477D02*
D03*
X130509Y67211D02*
D03*
X130863D02*
D03*
X129977Y67224D02*
D03*
X129623D02*
D03*
X128677D02*
D03*
X128323D02*
D03*
X131023Y61222D02*
D03*
X131377D02*
D03*
X132477Y69924D02*
D03*
X132123D02*
D03*
X128973Y67224D02*
D03*
X129327D02*
D03*
X128123Y70774D02*
D03*
X128477D02*
D03*
X129673Y62524D02*
D03*
X130027D02*
D03*
X131979Y64624D02*
D03*
X131624D02*
D03*
X130773Y60622D02*
D03*
X131127D02*
D03*
X133173Y64624D02*
D03*
X133527D02*
D03*
X119527Y74324D02*
D03*
X119173D02*
D03*
X140473Y60674D02*
D03*
X140827D02*
D03*
X30673Y89374D02*
D03*
X31027D02*
D03*
X27603Y82524D02*
D03*
X27957D02*
D03*
X19027Y96874D02*
D03*
X18673D02*
D03*
X31977Y92474D02*
D03*
X31623D02*
D03*
X24927Y93074D02*
D03*
X24573D02*
D03*
X26473Y94624D02*
D03*
X26827D02*
D03*
X28423Y93524D02*
D03*
X28777D02*
D03*
X14773Y90174D02*
D03*
X15127D02*
D03*
X14773Y90624D02*
D03*
X15127D02*
D03*
X25677Y79774D02*
D03*
X25323D02*
D03*
Y79374D02*
D03*
X25677D02*
D03*
X25323Y78974D02*
D03*
X25677D02*
D03*
X16473Y84374D02*
D03*
X16827D02*
D03*
X35073Y86474D02*
D03*
X35427D02*
D03*
X36773Y83674D02*
D03*
X37127D02*
D03*
X34723Y87824D02*
D03*
X35077D02*
D03*
X33077Y82922D02*
D03*
X32723D02*
D03*
X31773Y95624D02*
D03*
X32127D02*
D03*
X31773Y97074D02*
D03*
X32127D02*
D03*
X24823Y95824D02*
D03*
X25177D02*
D03*
X27723Y93524D02*
D03*
X28077D02*
D03*
X33627Y83472D02*
D03*
X33273D02*
D03*
X31927Y91024D02*
D03*
X31573D02*
D03*
X31927Y90574D02*
D03*
X31573D02*
D03*
X31377Y92974D02*
D03*
X31023D02*
D03*
X29277Y92774D02*
D03*
X28923D02*
D03*
X29623D02*
D03*
X29977D02*
D03*
X30009Y89361D02*
D03*
X30363D02*
D03*
X29477Y89374D02*
D03*
X29123D02*
D03*
X28177D02*
D03*
X27823D02*
D03*
X30523Y83372D02*
D03*
X30877D02*
D03*
X31977Y92074D02*
D03*
X31623D02*
D03*
X28473Y89374D02*
D03*
X28827D02*
D03*
X27623Y92924D02*
D03*
X27977D02*
D03*
X29173Y84674D02*
D03*
X29527D02*
D03*
X31479Y86774D02*
D03*
X31124D02*
D03*
X30273Y82772D02*
D03*
X30627D02*
D03*
X32673Y86774D02*
D03*
X33027D02*
D03*
X19027Y96474D02*
D03*
X18673D02*
D03*
X39973Y82824D02*
D03*
X40327D02*
D03*
X64173Y89374D02*
D03*
X64527D02*
D03*
X61103Y82524D02*
D03*
X61457D02*
D03*
X52527Y96874D02*
D03*
X52173D02*
D03*
X65477Y92474D02*
D03*
X65123D02*
D03*
X58427Y93074D02*
D03*
X58073D02*
D03*
X59973Y94624D02*
D03*
X60327D02*
D03*
X61923Y93524D02*
D03*
X62277D02*
D03*
X48273Y90174D02*
D03*
X48627D02*
D03*
X48273Y90624D02*
D03*
X48627D02*
D03*
X59177Y79774D02*
D03*
X58823D02*
D03*
Y79374D02*
D03*
X59177D02*
D03*
X58823Y78974D02*
D03*
X59177D02*
D03*
X49973Y84374D02*
D03*
X50327D02*
D03*
X68573Y86474D02*
D03*
X68927D02*
D03*
X70273Y83674D02*
D03*
X70627D02*
D03*
X68223Y87824D02*
D03*
X68577D02*
D03*
X66577Y82922D02*
D03*
X66223D02*
D03*
X65273Y95624D02*
D03*
X65627D02*
D03*
X65273Y97074D02*
D03*
X65627D02*
D03*
X58323Y95824D02*
D03*
X58677D02*
D03*
X61223Y93524D02*
D03*
X61577D02*
D03*
X67127Y83472D02*
D03*
X66773D02*
D03*
X65427Y91024D02*
D03*
X65073D02*
D03*
X65427Y90574D02*
D03*
X65073D02*
D03*
X64877Y92974D02*
D03*
X64523D02*
D03*
X62777Y92774D02*
D03*
X62423D02*
D03*
X63123D02*
D03*
X63477D02*
D03*
X63509Y89361D02*
D03*
X63863D02*
D03*
X62977Y89374D02*
D03*
X62623D02*
D03*
X61677D02*
D03*
X61323D02*
D03*
X64023Y83372D02*
D03*
X64377D02*
D03*
X65477Y92074D02*
D03*
X65123D02*
D03*
X61973Y89374D02*
D03*
X62327D02*
D03*
X61123Y92924D02*
D03*
X61477D02*
D03*
X62673Y84674D02*
D03*
X63027D02*
D03*
X64979Y86774D02*
D03*
X64624D02*
D03*
X63773Y82772D02*
D03*
X64127D02*
D03*
X66173Y86774D02*
D03*
X66527D02*
D03*
X52527Y96474D02*
D03*
X52173D02*
D03*
X73473Y82824D02*
D03*
X73827D02*
D03*
X97673Y89374D02*
D03*
X98027D02*
D03*
X94603Y82524D02*
D03*
X94957D02*
D03*
X86027Y96874D02*
D03*
X85673D02*
D03*
X98977Y92474D02*
D03*
X98623D02*
D03*
X91927Y93074D02*
D03*
X91573D02*
D03*
X93473Y94624D02*
D03*
X93827D02*
D03*
X95423Y93524D02*
D03*
X95777D02*
D03*
X81773Y90174D02*
D03*
X82127D02*
D03*
X81773Y90624D02*
D03*
X82127D02*
D03*
X92677Y79774D02*
D03*
X92323D02*
D03*
Y79374D02*
D03*
X92677D02*
D03*
X92323Y78974D02*
D03*
X92677D02*
D03*
X83473Y84374D02*
D03*
X83827D02*
D03*
X102073Y86474D02*
D03*
X102427D02*
D03*
X103773Y83674D02*
D03*
X104127D02*
D03*
X101723Y87824D02*
D03*
X102077D02*
D03*
X100077Y82922D02*
D03*
X99723D02*
D03*
X98773Y95624D02*
D03*
X99127D02*
D03*
X98773Y97074D02*
D03*
X99127D02*
D03*
X91823Y95824D02*
D03*
X92177D02*
D03*
X94723Y93524D02*
D03*
X95077D02*
D03*
X100627Y83472D02*
D03*
X100273D02*
D03*
X98927Y91024D02*
D03*
X98573D02*
D03*
X98927Y90574D02*
D03*
X98573D02*
D03*
X98377Y92974D02*
D03*
X98023D02*
D03*
X96277Y92774D02*
D03*
X95923D02*
D03*
X96623D02*
D03*
X96977D02*
D03*
X97009Y89361D02*
D03*
X97363D02*
D03*
X96477Y89374D02*
D03*
X96123D02*
D03*
X95177D02*
D03*
X94823D02*
D03*
X97523Y83372D02*
D03*
X97877D02*
D03*
X98977Y92074D02*
D03*
X98623D02*
D03*
X95473Y89374D02*
D03*
X95827D02*
D03*
X94623Y92924D02*
D03*
X94977D02*
D03*
X96173Y84674D02*
D03*
X96527D02*
D03*
X98479Y86774D02*
D03*
X98124D02*
D03*
X97273Y82772D02*
D03*
X97627D02*
D03*
X99673Y86774D02*
D03*
X100027D02*
D03*
X86027Y96474D02*
D03*
X85673D02*
D03*
X106973Y82824D02*
D03*
X107327D02*
D03*
X131173Y89374D02*
D03*
X131527D02*
D03*
X128103Y82524D02*
D03*
X128457D02*
D03*
X119527Y96874D02*
D03*
X119173D02*
D03*
X132477Y92474D02*
D03*
X132123D02*
D03*
X125427Y93074D02*
D03*
X125073D02*
D03*
X126973Y94624D02*
D03*
X127327D02*
D03*
X128923Y93524D02*
D03*
X129277D02*
D03*
X115273Y90174D02*
D03*
X115627D02*
D03*
X115273Y90624D02*
D03*
X115627D02*
D03*
X126177Y79774D02*
D03*
X125823D02*
D03*
Y79374D02*
D03*
X126177D02*
D03*
X125823Y78974D02*
D03*
X126177D02*
D03*
X116973Y84374D02*
D03*
X117327D02*
D03*
X135573Y86474D02*
D03*
X135927D02*
D03*
X137273Y83674D02*
D03*
X137627D02*
D03*
X135223Y87824D02*
D03*
X135577D02*
D03*
X133577Y82922D02*
D03*
X133223D02*
D03*
X132273Y95624D02*
D03*
X132627D02*
D03*
X132273Y97074D02*
D03*
X132627D02*
D03*
X125323Y95824D02*
D03*
X125677D02*
D03*
X128223Y93524D02*
D03*
X128577D02*
D03*
X134127Y83472D02*
D03*
X133773D02*
D03*
X132427Y91024D02*
D03*
X132073D02*
D03*
X132427Y90574D02*
D03*
X132073D02*
D03*
X131877Y92974D02*
D03*
X131523D02*
D03*
X129777Y92774D02*
D03*
X129423D02*
D03*
X130123D02*
D03*
X130477D02*
D03*
X130509Y89361D02*
D03*
X130863D02*
D03*
X129977Y89374D02*
D03*
X129623D02*
D03*
X128677D02*
D03*
X128323D02*
D03*
X131023Y83372D02*
D03*
X131377D02*
D03*
X132477Y92074D02*
D03*
X132123D02*
D03*
X128973Y89374D02*
D03*
X129327D02*
D03*
X128123Y92924D02*
D03*
X128477D02*
D03*
X129673Y84674D02*
D03*
X130027D02*
D03*
X131979Y86774D02*
D03*
X131624D02*
D03*
X130773Y82772D02*
D03*
X131127D02*
D03*
X133173Y86774D02*
D03*
X133527D02*
D03*
X119527Y96474D02*
D03*
X119173D02*
D03*
X140473Y82824D02*
D03*
X140827D02*
D03*
X30673Y111524D02*
D03*
X31027D02*
D03*
X27603Y104674D02*
D03*
X27957D02*
D03*
X19027Y119024D02*
D03*
X18673D02*
D03*
X31977Y114624D02*
D03*
X31623D02*
D03*
X24927Y115224D02*
D03*
X24573D02*
D03*
X26473Y116774D02*
D03*
X26827D02*
D03*
X28423Y115674D02*
D03*
X28777D02*
D03*
X14773Y112324D02*
D03*
X15127D02*
D03*
X14773Y112774D02*
D03*
X15127D02*
D03*
X25677Y101924D02*
D03*
X25323D02*
D03*
Y101524D02*
D03*
X25677D02*
D03*
X25323Y101124D02*
D03*
X25677D02*
D03*
X16473Y106524D02*
D03*
X16827D02*
D03*
X35073Y108624D02*
D03*
X35427D02*
D03*
X36773Y105824D02*
D03*
X37127D02*
D03*
X34723Y109974D02*
D03*
X35077D02*
D03*
X33077Y105072D02*
D03*
X32723D02*
D03*
X31773Y117774D02*
D03*
X32127D02*
D03*
X31773Y119224D02*
D03*
X32127D02*
D03*
X24823Y117974D02*
D03*
X25177D02*
D03*
X27723Y115674D02*
D03*
X28077D02*
D03*
X33627Y105622D02*
D03*
X33273D02*
D03*
X31927Y113174D02*
D03*
X31573D02*
D03*
X31927Y112724D02*
D03*
X31573D02*
D03*
X31377Y115124D02*
D03*
X31023D02*
D03*
X29277Y114924D02*
D03*
X28923D02*
D03*
X29623D02*
D03*
X29977D02*
D03*
X30009Y111511D02*
D03*
X30363D02*
D03*
X29477Y111524D02*
D03*
X29123D02*
D03*
X28177D02*
D03*
X27823D02*
D03*
X30523Y105522D02*
D03*
X30877D02*
D03*
X31977Y114224D02*
D03*
X31623D02*
D03*
X28473Y111524D02*
D03*
X28827D02*
D03*
X27623Y115074D02*
D03*
X27977D02*
D03*
X29173Y106824D02*
D03*
X29527D02*
D03*
X31479Y108924D02*
D03*
X31124D02*
D03*
X30273Y104922D02*
D03*
X30627D02*
D03*
X32673Y108924D02*
D03*
X33027D02*
D03*
X19027Y118624D02*
D03*
X18673D02*
D03*
X39973Y104974D02*
D03*
X40327D02*
D03*
X64173Y111524D02*
D03*
X64527D02*
D03*
X61103Y104674D02*
D03*
X61457D02*
D03*
X52527Y119024D02*
D03*
X52173D02*
D03*
X65477Y114624D02*
D03*
X65123D02*
D03*
X58427Y115224D02*
D03*
X58073D02*
D03*
X59973Y116774D02*
D03*
X60327D02*
D03*
X61923Y115674D02*
D03*
X62277D02*
D03*
X48273Y112324D02*
D03*
X48627D02*
D03*
X48273Y112774D02*
D03*
X48627D02*
D03*
X59177Y101924D02*
D03*
X58823D02*
D03*
Y101524D02*
D03*
X59177D02*
D03*
X58823Y101124D02*
D03*
X59177D02*
D03*
X49973Y106524D02*
D03*
X50327D02*
D03*
X68573Y108624D02*
D03*
X68927D02*
D03*
X70273Y105824D02*
D03*
X70627D02*
D03*
X68223Y109974D02*
D03*
X68577D02*
D03*
X66577Y105072D02*
D03*
X66223D02*
D03*
X65273Y117774D02*
D03*
X65627D02*
D03*
X65273Y119224D02*
D03*
X65627D02*
D03*
X58323Y117974D02*
D03*
X58677D02*
D03*
X61223Y115674D02*
D03*
X61577D02*
D03*
X67127Y105622D02*
D03*
X66773D02*
D03*
X65427Y113174D02*
D03*
X65073D02*
D03*
X65427Y112724D02*
D03*
X65073D02*
D03*
X64877Y115124D02*
D03*
X64523D02*
D03*
X62777Y114924D02*
D03*
X62423D02*
D03*
X63123D02*
D03*
X63477D02*
D03*
X63509Y111511D02*
D03*
X63863D02*
D03*
X62977Y111524D02*
D03*
X62623D02*
D03*
X61677D02*
D03*
X61323D02*
D03*
X64023Y105522D02*
D03*
X64377D02*
D03*
X65477Y114224D02*
D03*
X65123D02*
D03*
X61973Y111524D02*
D03*
X62327D02*
D03*
X61123Y115074D02*
D03*
X61477D02*
D03*
X62673Y106824D02*
D03*
X63027D02*
D03*
X64979Y108924D02*
D03*
X64624D02*
D03*
X63773Y104922D02*
D03*
X64127D02*
D03*
X66173Y108924D02*
D03*
X66527D02*
D03*
X52527Y118624D02*
D03*
X52173D02*
D03*
X73473Y104974D02*
D03*
X73827D02*
D03*
X97673Y111524D02*
D03*
X98027D02*
D03*
X94603Y104674D02*
D03*
X94957D02*
D03*
X86027Y119024D02*
D03*
X85673D02*
D03*
X98977Y114624D02*
D03*
X98623D02*
D03*
X91927Y115224D02*
D03*
X91573D02*
D03*
X93473Y116774D02*
D03*
X93827D02*
D03*
X95423Y115674D02*
D03*
X95777D02*
D03*
X81773Y112324D02*
D03*
X82127D02*
D03*
X81773Y112774D02*
D03*
X82127D02*
D03*
X92677Y101924D02*
D03*
X92323D02*
D03*
Y101524D02*
D03*
X92677D02*
D03*
X92323Y101124D02*
D03*
X92677D02*
D03*
X83473Y106524D02*
D03*
X83827D02*
D03*
X102073Y108624D02*
D03*
X102427D02*
D03*
X103773Y105824D02*
D03*
X104127D02*
D03*
X101723Y109974D02*
D03*
X102077D02*
D03*
X100077Y105072D02*
D03*
X99723D02*
D03*
X98773Y117774D02*
D03*
X99127D02*
D03*
X98773Y119224D02*
D03*
X99127D02*
D03*
X91823Y117974D02*
D03*
X92177D02*
D03*
X94723Y115674D02*
D03*
X95077D02*
D03*
X100627Y105622D02*
D03*
X100273D02*
D03*
X98927Y113174D02*
D03*
X98573D02*
D03*
X98927Y112724D02*
D03*
X98573D02*
D03*
X98377Y115124D02*
D03*
X98023D02*
D03*
X96277Y114924D02*
D03*
X95923D02*
D03*
X96623D02*
D03*
X96977D02*
D03*
X97009Y111511D02*
D03*
X97363D02*
D03*
X96477Y111524D02*
D03*
X96123D02*
D03*
X95177D02*
D03*
X94823D02*
D03*
X97523Y105522D02*
D03*
X97877D02*
D03*
X98977Y114224D02*
D03*
X98623D02*
D03*
X95473Y111524D02*
D03*
X95827D02*
D03*
X94623Y115074D02*
D03*
X94977D02*
D03*
X96173Y106824D02*
D03*
X96527D02*
D03*
X98479Y108924D02*
D03*
X98124D02*
D03*
X97273Y104922D02*
D03*
X97627D02*
D03*
X99673Y108924D02*
D03*
X100027D02*
D03*
X86027Y118624D02*
D03*
X85673D02*
D03*
X106973Y104974D02*
D03*
X107327D02*
D03*
X131173Y111524D02*
D03*
X131527D02*
D03*
X128103Y104674D02*
D03*
X128457D02*
D03*
X119527Y119024D02*
D03*
X119173D02*
D03*
X132477Y114624D02*
D03*
X132123D02*
D03*
X125427Y115224D02*
D03*
X125073D02*
D03*
X126973Y116774D02*
D03*
X127327D02*
D03*
X128923Y115674D02*
D03*
X129277D02*
D03*
X115273Y112324D02*
D03*
X115627D02*
D03*
X115273Y112774D02*
D03*
X115627D02*
D03*
X126177Y101924D02*
D03*
X125823D02*
D03*
Y101524D02*
D03*
X126177D02*
D03*
X125823Y101124D02*
D03*
X126177D02*
D03*
X116973Y106524D02*
D03*
X117327D02*
D03*
X135573Y108624D02*
D03*
X135927D02*
D03*
X137273Y105824D02*
D03*
X137627D02*
D03*
X135223Y109974D02*
D03*
X135577D02*
D03*
X133577Y105072D02*
D03*
X133223D02*
D03*
X132273Y117774D02*
D03*
X132627D02*
D03*
X132273Y119224D02*
D03*
X132627D02*
D03*
X125323Y117974D02*
D03*
X125677D02*
D03*
X128223Y115674D02*
D03*
X128577D02*
D03*
X134127Y105622D02*
D03*
X133773D02*
D03*
X132427Y113174D02*
D03*
X132073D02*
D03*
X132427Y112724D02*
D03*
X132073D02*
D03*
X131877Y115124D02*
D03*
X131523D02*
D03*
X129777Y114924D02*
D03*
X129423D02*
D03*
X130123D02*
D03*
X130477D02*
D03*
X130509Y111511D02*
D03*
X130863D02*
D03*
X129977Y111524D02*
D03*
X129623D02*
D03*
X128677D02*
D03*
X128323D02*
D03*
X131023Y105522D02*
D03*
X131377D02*
D03*
X132477Y114224D02*
D03*
X132123D02*
D03*
X128973Y111524D02*
D03*
X129327D02*
D03*
X128123Y115074D02*
D03*
X128477D02*
D03*
X129673Y106824D02*
D03*
X130027D02*
D03*
X131979Y108924D02*
D03*
X131624D02*
D03*
X130773Y104922D02*
D03*
X131127D02*
D03*
X133173Y108924D02*
D03*
X133527D02*
D03*
X119527Y118624D02*
D03*
X119173D02*
D03*
X140473Y104974D02*
D03*
X140827D02*
D03*
D40*
X21355Y30224D02*
D03*
X21945D02*
D03*
X18495Y17124D02*
D03*
X17905D02*
D03*
X32095Y28724D02*
D03*
X31505D02*
D03*
X32095Y31124D02*
D03*
X31505D02*
D03*
X25145Y29824D02*
D03*
X24555D02*
D03*
X18655Y29574D02*
D03*
X19245D02*
D03*
X17195Y26674D02*
D03*
X16605D02*
D03*
X18045Y29824D02*
D03*
X17455D02*
D03*
X18505Y31324D02*
D03*
X19095D02*
D03*
X54855Y30224D02*
D03*
X55445D02*
D03*
X51995Y17124D02*
D03*
X51405D02*
D03*
X65595Y28724D02*
D03*
X65005D02*
D03*
X65595Y31124D02*
D03*
X65005D02*
D03*
X58645Y29824D02*
D03*
X58055D02*
D03*
X52155Y29574D02*
D03*
X52745D02*
D03*
X50695Y26674D02*
D03*
X50105D02*
D03*
X51545Y29824D02*
D03*
X50955D02*
D03*
X52005Y31324D02*
D03*
X52595D02*
D03*
X88355Y30224D02*
D03*
X88945D02*
D03*
X85495Y17124D02*
D03*
X84905D02*
D03*
X99095Y28724D02*
D03*
X98505D02*
D03*
X99095Y31124D02*
D03*
X98505D02*
D03*
X92145Y29824D02*
D03*
X91555D02*
D03*
X85655Y29574D02*
D03*
X86245D02*
D03*
X84195Y26674D02*
D03*
X83605D02*
D03*
X85045Y29824D02*
D03*
X84455D02*
D03*
X85505Y31324D02*
D03*
X86095D02*
D03*
X121855Y30224D02*
D03*
X122445D02*
D03*
X118995Y17124D02*
D03*
X118405D02*
D03*
X132595Y28724D02*
D03*
X132005D02*
D03*
X132595Y31124D02*
D03*
X132005D02*
D03*
X125645Y29824D02*
D03*
X125055D02*
D03*
X119155Y29574D02*
D03*
X119745D02*
D03*
X117695Y26674D02*
D03*
X117105D02*
D03*
X118545Y29824D02*
D03*
X117955D02*
D03*
X119005Y31324D02*
D03*
X119595D02*
D03*
X21355Y52374D02*
D03*
X21945D02*
D03*
X18495Y39274D02*
D03*
X17905D02*
D03*
X32095Y50874D02*
D03*
X31505D02*
D03*
X32095Y53274D02*
D03*
X31505D02*
D03*
X25145Y51974D02*
D03*
X24555D02*
D03*
X18655Y51724D02*
D03*
X19245D02*
D03*
X17195Y48824D02*
D03*
X16605D02*
D03*
X18045Y51974D02*
D03*
X17455D02*
D03*
X18505Y53474D02*
D03*
X19095D02*
D03*
X54855Y52374D02*
D03*
X55445D02*
D03*
X51995Y39274D02*
D03*
X51405D02*
D03*
X65595Y50874D02*
D03*
X65005D02*
D03*
X65595Y53274D02*
D03*
X65005D02*
D03*
X58645Y51974D02*
D03*
X58055D02*
D03*
X52155Y51724D02*
D03*
X52745D02*
D03*
X50695Y48824D02*
D03*
X50105D02*
D03*
X51545Y51974D02*
D03*
X50955D02*
D03*
X52005Y53474D02*
D03*
X52595D02*
D03*
X88355Y52374D02*
D03*
X88945D02*
D03*
X85495Y39274D02*
D03*
X84905D02*
D03*
X99095Y50874D02*
D03*
X98505D02*
D03*
X99095Y53274D02*
D03*
X98505D02*
D03*
X92145Y51974D02*
D03*
X91555D02*
D03*
X85655Y51724D02*
D03*
X86245D02*
D03*
X84195Y48824D02*
D03*
X83605D02*
D03*
X85045Y51974D02*
D03*
X84455D02*
D03*
X85505Y53474D02*
D03*
X86095D02*
D03*
X121855Y52374D02*
D03*
X122445D02*
D03*
X118995Y39274D02*
D03*
X118405D02*
D03*
X132595Y50874D02*
D03*
X132005D02*
D03*
X132595Y53274D02*
D03*
X132005D02*
D03*
X125645Y51974D02*
D03*
X125055D02*
D03*
X119155Y51724D02*
D03*
X119745D02*
D03*
X117695Y48824D02*
D03*
X117105D02*
D03*
X118545Y51974D02*
D03*
X117955D02*
D03*
X119005Y53474D02*
D03*
X119595D02*
D03*
X21355Y74524D02*
D03*
X21945D02*
D03*
X18495Y61424D02*
D03*
X17905D02*
D03*
X32095Y73024D02*
D03*
X31505D02*
D03*
X32095Y75424D02*
D03*
X31505D02*
D03*
X25145Y74124D02*
D03*
X24555D02*
D03*
X18655Y73874D02*
D03*
X19245D02*
D03*
X17195Y70974D02*
D03*
X16605D02*
D03*
X18045Y74124D02*
D03*
X17455D02*
D03*
X18505Y75624D02*
D03*
X19095D02*
D03*
X54855Y74524D02*
D03*
X55445D02*
D03*
X51995Y61424D02*
D03*
X51405D02*
D03*
X65595Y73024D02*
D03*
X65005D02*
D03*
X65595Y75424D02*
D03*
X65005D02*
D03*
X58645Y74124D02*
D03*
X58055D02*
D03*
X52155Y73874D02*
D03*
X52745D02*
D03*
X50695Y70974D02*
D03*
X50105D02*
D03*
X51545Y74124D02*
D03*
X50955D02*
D03*
X52005Y75624D02*
D03*
X52595D02*
D03*
X88355Y74524D02*
D03*
X88945D02*
D03*
X85495Y61424D02*
D03*
X84905D02*
D03*
X99095Y73024D02*
D03*
X98505D02*
D03*
X99095Y75424D02*
D03*
X98505D02*
D03*
X92145Y74124D02*
D03*
X91555D02*
D03*
X85655Y73874D02*
D03*
X86245D02*
D03*
X84195Y70974D02*
D03*
X83605D02*
D03*
X85045Y74124D02*
D03*
X84455D02*
D03*
X85505Y75624D02*
D03*
X86095D02*
D03*
X121855Y74524D02*
D03*
X122445D02*
D03*
X118995Y61424D02*
D03*
X118405D02*
D03*
X132595Y73024D02*
D03*
X132005D02*
D03*
X132595Y75424D02*
D03*
X132005D02*
D03*
X125645Y74124D02*
D03*
X125055D02*
D03*
X119155Y73874D02*
D03*
X119745D02*
D03*
X117695Y70974D02*
D03*
X117105D02*
D03*
X118545Y74124D02*
D03*
X117955D02*
D03*
X119005Y75624D02*
D03*
X119595D02*
D03*
X21355Y96674D02*
D03*
X21945D02*
D03*
X18495Y83574D02*
D03*
X17905D02*
D03*
X32095Y95174D02*
D03*
X31505D02*
D03*
X32095Y97574D02*
D03*
X31505D02*
D03*
X25145Y96274D02*
D03*
X24555D02*
D03*
X18655Y96024D02*
D03*
X19245D02*
D03*
X17195Y93124D02*
D03*
X16605D02*
D03*
X18045Y96274D02*
D03*
X17455D02*
D03*
X18505Y97774D02*
D03*
X19095D02*
D03*
X54855Y96674D02*
D03*
X55445D02*
D03*
X51995Y83574D02*
D03*
X51405D02*
D03*
X65595Y95174D02*
D03*
X65005D02*
D03*
X65595Y97574D02*
D03*
X65005D02*
D03*
X58645Y96274D02*
D03*
X58055D02*
D03*
X52155Y96024D02*
D03*
X52745D02*
D03*
X50695Y93124D02*
D03*
X50105D02*
D03*
X51545Y96274D02*
D03*
X50955D02*
D03*
X52005Y97774D02*
D03*
X52595D02*
D03*
X88355Y96674D02*
D03*
X88945D02*
D03*
X85495Y83574D02*
D03*
X84905D02*
D03*
X99095Y95174D02*
D03*
X98505D02*
D03*
X99095Y97574D02*
D03*
X98505D02*
D03*
X92145Y96274D02*
D03*
X91555D02*
D03*
X85655Y96024D02*
D03*
X86245D02*
D03*
X84195Y93124D02*
D03*
X83605D02*
D03*
X85045Y96274D02*
D03*
X84455D02*
D03*
X85505Y97774D02*
D03*
X86095D02*
D03*
X121855Y96674D02*
D03*
X122445D02*
D03*
X118995Y83574D02*
D03*
X118405D02*
D03*
X132595Y95174D02*
D03*
X132005D02*
D03*
X132595Y97574D02*
D03*
X132005D02*
D03*
X125645Y96274D02*
D03*
X125055D02*
D03*
X119155Y96024D02*
D03*
X119745D02*
D03*
X117695Y93124D02*
D03*
X117105D02*
D03*
X118545Y96274D02*
D03*
X117955D02*
D03*
X119005Y97774D02*
D03*
X119595D02*
D03*
X21355Y118824D02*
D03*
X21945D02*
D03*
X18495Y105724D02*
D03*
X17905D02*
D03*
X32095Y117324D02*
D03*
X31505D02*
D03*
X32095Y119724D02*
D03*
X31505D02*
D03*
X25145Y118424D02*
D03*
X24555D02*
D03*
X18655Y118174D02*
D03*
X19245D02*
D03*
X17195Y115274D02*
D03*
X16605D02*
D03*
X18045Y118424D02*
D03*
X17455D02*
D03*
X18505Y119924D02*
D03*
X19095D02*
D03*
X54855Y118824D02*
D03*
X55445D02*
D03*
X51995Y105724D02*
D03*
X51405D02*
D03*
X65595Y117324D02*
D03*
X65005D02*
D03*
X65595Y119724D02*
D03*
X65005D02*
D03*
X58645Y118424D02*
D03*
X58055D02*
D03*
X52155Y118174D02*
D03*
X52745D02*
D03*
X50695Y115274D02*
D03*
X50105D02*
D03*
X51545Y118424D02*
D03*
X50955D02*
D03*
X52005Y119924D02*
D03*
X52595D02*
D03*
X88355Y118824D02*
D03*
X88945D02*
D03*
X85495Y105724D02*
D03*
X84905D02*
D03*
X99095Y117324D02*
D03*
X98505D02*
D03*
X99095Y119724D02*
D03*
X98505D02*
D03*
X92145Y118424D02*
D03*
X91555D02*
D03*
X85655Y118174D02*
D03*
X86245D02*
D03*
X84195Y115274D02*
D03*
X83605D02*
D03*
X85045Y118424D02*
D03*
X84455D02*
D03*
X85505Y119924D02*
D03*
X86095D02*
D03*
X121855Y118824D02*
D03*
X122445D02*
D03*
X118995Y105724D02*
D03*
X118405D02*
D03*
X132595Y117324D02*
D03*
X132005D02*
D03*
X132595Y119724D02*
D03*
X132005D02*
D03*
X125645Y118424D02*
D03*
X125055D02*
D03*
X119155Y118174D02*
D03*
X119745D02*
D03*
X117695Y115274D02*
D03*
X117105D02*
D03*
X118545Y118424D02*
D03*
X117955D02*
D03*
X119005Y119924D02*
D03*
X119595D02*
D03*
D41*
X31650Y22979D02*
D03*
Y23569D02*
D03*
X29900Y27779D02*
D03*
Y28369D02*
D03*
X18800Y28119D02*
D03*
Y27529D02*
D03*
X16050Y20469D02*
D03*
Y19879D02*
D03*
X17500Y20519D02*
D03*
Y19929D02*
D03*
X16400Y30369D02*
D03*
Y29779D02*
D03*
X19850Y19669D02*
D03*
Y19079D02*
D03*
X20500Y17129D02*
D03*
Y17719D02*
D03*
X17950Y18979D02*
D03*
Y19569D02*
D03*
X15500Y19879D02*
D03*
Y20469D02*
D03*
X65150Y22979D02*
D03*
Y23569D02*
D03*
X63400Y27779D02*
D03*
Y28369D02*
D03*
X52300Y28119D02*
D03*
Y27529D02*
D03*
X49550Y20469D02*
D03*
Y19879D02*
D03*
X51000Y20519D02*
D03*
Y19929D02*
D03*
X49900Y30369D02*
D03*
Y29779D02*
D03*
X53350Y19669D02*
D03*
Y19079D02*
D03*
X54000Y17129D02*
D03*
Y17719D02*
D03*
X51450Y18979D02*
D03*
Y19569D02*
D03*
X49000Y19879D02*
D03*
Y20469D02*
D03*
X98650Y22979D02*
D03*
Y23569D02*
D03*
X96900Y27779D02*
D03*
Y28369D02*
D03*
X85800Y28119D02*
D03*
Y27529D02*
D03*
X83050Y20469D02*
D03*
Y19879D02*
D03*
X84500Y20519D02*
D03*
Y19929D02*
D03*
X83400Y30369D02*
D03*
Y29779D02*
D03*
X86850Y19669D02*
D03*
Y19079D02*
D03*
X87500Y17129D02*
D03*
Y17719D02*
D03*
X84950Y18979D02*
D03*
Y19569D02*
D03*
X82500Y19879D02*
D03*
Y20469D02*
D03*
X132150Y22979D02*
D03*
Y23569D02*
D03*
X130400Y27779D02*
D03*
Y28369D02*
D03*
X119300Y28119D02*
D03*
Y27529D02*
D03*
X116550Y20469D02*
D03*
Y19879D02*
D03*
X118000Y20519D02*
D03*
Y19929D02*
D03*
X116900Y30369D02*
D03*
Y29779D02*
D03*
X120350Y19669D02*
D03*
Y19079D02*
D03*
X121000Y17129D02*
D03*
Y17719D02*
D03*
X118450Y18979D02*
D03*
Y19569D02*
D03*
X116000Y19879D02*
D03*
Y20469D02*
D03*
X31650Y45129D02*
D03*
Y45719D02*
D03*
X29900Y49929D02*
D03*
Y50519D02*
D03*
X18800Y50269D02*
D03*
Y49679D02*
D03*
X16050Y42619D02*
D03*
Y42029D02*
D03*
X17500Y42669D02*
D03*
Y42079D02*
D03*
X16400Y52519D02*
D03*
Y51929D02*
D03*
X19850Y41819D02*
D03*
Y41229D02*
D03*
X20500Y39279D02*
D03*
Y39869D02*
D03*
X17950Y41129D02*
D03*
Y41719D02*
D03*
X15500Y42029D02*
D03*
Y42619D02*
D03*
X65150Y45129D02*
D03*
Y45719D02*
D03*
X63400Y49929D02*
D03*
Y50519D02*
D03*
X52300Y50269D02*
D03*
Y49679D02*
D03*
X49550Y42619D02*
D03*
Y42029D02*
D03*
X51000Y42669D02*
D03*
Y42079D02*
D03*
X49900Y52519D02*
D03*
Y51929D02*
D03*
X53350Y41819D02*
D03*
Y41229D02*
D03*
X54000Y39279D02*
D03*
Y39869D02*
D03*
X51450Y41129D02*
D03*
Y41719D02*
D03*
X49000Y42029D02*
D03*
Y42619D02*
D03*
X98650Y45129D02*
D03*
Y45719D02*
D03*
X96900Y49929D02*
D03*
Y50519D02*
D03*
X85800Y50269D02*
D03*
Y49679D02*
D03*
X83050Y42619D02*
D03*
Y42029D02*
D03*
X84500Y42669D02*
D03*
Y42079D02*
D03*
X83400Y52519D02*
D03*
Y51929D02*
D03*
X86850Y41819D02*
D03*
Y41229D02*
D03*
X87500Y39279D02*
D03*
Y39869D02*
D03*
X84950Y41129D02*
D03*
Y41719D02*
D03*
X82500Y42029D02*
D03*
Y42619D02*
D03*
X132150Y45129D02*
D03*
Y45719D02*
D03*
X130400Y49929D02*
D03*
Y50519D02*
D03*
X119300Y50269D02*
D03*
Y49679D02*
D03*
X116550Y42619D02*
D03*
Y42029D02*
D03*
X118000Y42669D02*
D03*
Y42079D02*
D03*
X116900Y52519D02*
D03*
Y51929D02*
D03*
X120350Y41819D02*
D03*
Y41229D02*
D03*
X121000Y39279D02*
D03*
Y39869D02*
D03*
X118450Y41129D02*
D03*
Y41719D02*
D03*
X116000Y42029D02*
D03*
Y42619D02*
D03*
X31650Y67279D02*
D03*
Y67869D02*
D03*
X29900Y72079D02*
D03*
Y72669D02*
D03*
X18800Y72419D02*
D03*
Y71829D02*
D03*
X16050Y64769D02*
D03*
Y64179D02*
D03*
X17500Y64819D02*
D03*
Y64229D02*
D03*
X16400Y74669D02*
D03*
Y74079D02*
D03*
X19850Y63969D02*
D03*
Y63379D02*
D03*
X20500Y61429D02*
D03*
Y62019D02*
D03*
X17950Y63279D02*
D03*
Y63869D02*
D03*
X15500Y64179D02*
D03*
Y64769D02*
D03*
X65150Y67279D02*
D03*
Y67869D02*
D03*
X63400Y72079D02*
D03*
Y72669D02*
D03*
X52300Y72419D02*
D03*
Y71829D02*
D03*
X49550Y64769D02*
D03*
Y64179D02*
D03*
X51000Y64819D02*
D03*
Y64229D02*
D03*
X49900Y74669D02*
D03*
Y74079D02*
D03*
X53350Y63969D02*
D03*
Y63379D02*
D03*
X54000Y61429D02*
D03*
Y62019D02*
D03*
X51450Y63279D02*
D03*
Y63869D02*
D03*
X49000Y64179D02*
D03*
Y64769D02*
D03*
X98650Y67279D02*
D03*
Y67869D02*
D03*
X96900Y72079D02*
D03*
Y72669D02*
D03*
X85800Y72419D02*
D03*
Y71829D02*
D03*
X83050Y64769D02*
D03*
Y64179D02*
D03*
X84500Y64819D02*
D03*
Y64229D02*
D03*
X83400Y74669D02*
D03*
Y74079D02*
D03*
X86850Y63969D02*
D03*
Y63379D02*
D03*
X87500Y61429D02*
D03*
Y62019D02*
D03*
X84950Y63279D02*
D03*
Y63869D02*
D03*
X82500Y64179D02*
D03*
Y64769D02*
D03*
X132150Y67279D02*
D03*
Y67869D02*
D03*
X130400Y72079D02*
D03*
Y72669D02*
D03*
X119300Y72419D02*
D03*
Y71829D02*
D03*
X116550Y64769D02*
D03*
Y64179D02*
D03*
X118000Y64819D02*
D03*
Y64229D02*
D03*
X116900Y74669D02*
D03*
Y74079D02*
D03*
X120350Y63969D02*
D03*
Y63379D02*
D03*
X121000Y61429D02*
D03*
Y62019D02*
D03*
X118450Y63279D02*
D03*
Y63869D02*
D03*
X116000Y64179D02*
D03*
Y64769D02*
D03*
X31650Y89429D02*
D03*
Y90019D02*
D03*
X29900Y94229D02*
D03*
Y94819D02*
D03*
X18800Y94569D02*
D03*
Y93979D02*
D03*
X16050Y86919D02*
D03*
Y86329D02*
D03*
X17500Y86969D02*
D03*
Y86379D02*
D03*
X16400Y96819D02*
D03*
Y96229D02*
D03*
X19850Y86119D02*
D03*
Y85529D02*
D03*
X20500Y83579D02*
D03*
Y84169D02*
D03*
X17950Y85429D02*
D03*
Y86019D02*
D03*
X15500Y86329D02*
D03*
Y86919D02*
D03*
X65150Y89429D02*
D03*
Y90019D02*
D03*
X63400Y94229D02*
D03*
Y94819D02*
D03*
X52300Y94569D02*
D03*
Y93979D02*
D03*
X49550Y86919D02*
D03*
Y86329D02*
D03*
X51000Y86969D02*
D03*
Y86379D02*
D03*
X49900Y96819D02*
D03*
Y96229D02*
D03*
X53350Y86119D02*
D03*
Y85529D02*
D03*
X54000Y83579D02*
D03*
Y84169D02*
D03*
X51450Y85429D02*
D03*
Y86019D02*
D03*
X49000Y86329D02*
D03*
Y86919D02*
D03*
X98650Y89429D02*
D03*
Y90019D02*
D03*
X96900Y94229D02*
D03*
Y94819D02*
D03*
X85800Y94569D02*
D03*
Y93979D02*
D03*
X83050Y86919D02*
D03*
Y86329D02*
D03*
X84500Y86969D02*
D03*
Y86379D02*
D03*
X83400Y96819D02*
D03*
Y96229D02*
D03*
X86850Y86119D02*
D03*
Y85529D02*
D03*
X87500Y83579D02*
D03*
Y84169D02*
D03*
X84950Y85429D02*
D03*
Y86019D02*
D03*
X82500Y86329D02*
D03*
Y86919D02*
D03*
X132150Y89429D02*
D03*
Y90019D02*
D03*
X130400Y94229D02*
D03*
Y94819D02*
D03*
X119300Y94569D02*
D03*
Y93979D02*
D03*
X116550Y86919D02*
D03*
Y86329D02*
D03*
X118000Y86969D02*
D03*
Y86379D02*
D03*
X116900Y96819D02*
D03*
Y96229D02*
D03*
X120350Y86119D02*
D03*
Y85529D02*
D03*
X121000Y83579D02*
D03*
Y84169D02*
D03*
X118450Y85429D02*
D03*
Y86019D02*
D03*
X116000Y86329D02*
D03*
Y86919D02*
D03*
X31650Y111579D02*
D03*
Y112169D02*
D03*
X29900Y116379D02*
D03*
Y116969D02*
D03*
X18800Y116719D02*
D03*
Y116129D02*
D03*
X16050Y109069D02*
D03*
Y108479D02*
D03*
X17500Y109119D02*
D03*
Y108529D02*
D03*
X16400Y118969D02*
D03*
Y118379D02*
D03*
X19850Y108269D02*
D03*
Y107679D02*
D03*
X20500Y105729D02*
D03*
Y106319D02*
D03*
X17950Y107579D02*
D03*
Y108169D02*
D03*
X15500Y108479D02*
D03*
Y109069D02*
D03*
X65150Y111579D02*
D03*
Y112169D02*
D03*
X63400Y116379D02*
D03*
Y116969D02*
D03*
X52300Y116719D02*
D03*
Y116129D02*
D03*
X49550Y109069D02*
D03*
Y108479D02*
D03*
X51000Y109119D02*
D03*
Y108529D02*
D03*
X49900Y118969D02*
D03*
Y118379D02*
D03*
X53350Y108269D02*
D03*
Y107679D02*
D03*
X54000Y105729D02*
D03*
Y106319D02*
D03*
X51450Y107579D02*
D03*
Y108169D02*
D03*
X49000Y108479D02*
D03*
Y109069D02*
D03*
X98650Y111579D02*
D03*
Y112169D02*
D03*
X96900Y116379D02*
D03*
Y116969D02*
D03*
X85800Y116719D02*
D03*
Y116129D02*
D03*
X83050Y109069D02*
D03*
Y108479D02*
D03*
X84500Y109119D02*
D03*
Y108529D02*
D03*
X83400Y118969D02*
D03*
Y118379D02*
D03*
X86850Y108269D02*
D03*
Y107679D02*
D03*
X87500Y105729D02*
D03*
Y106319D02*
D03*
X84950Y107579D02*
D03*
Y108169D02*
D03*
X82500Y108479D02*
D03*
Y109069D02*
D03*
X132150Y111579D02*
D03*
Y112169D02*
D03*
X130400Y116379D02*
D03*
Y116969D02*
D03*
X119300Y116719D02*
D03*
Y116129D02*
D03*
X116550Y109069D02*
D03*
Y108479D02*
D03*
X118000Y109119D02*
D03*
Y108529D02*
D03*
X116900Y118969D02*
D03*
Y118379D02*
D03*
X120350Y108269D02*
D03*
Y107679D02*
D03*
X121000Y105729D02*
D03*
Y106319D02*
D03*
X118450Y107579D02*
D03*
Y108169D02*
D03*
X116000Y108479D02*
D03*
Y109069D02*
D03*
D70*
X21550Y27874D02*
D03*
X55050D02*
D03*
X88550D02*
D03*
X122050D02*
D03*
X21550Y50024D02*
D03*
X55050D02*
D03*
X88550D02*
D03*
X122050D02*
D03*
X21550Y72174D02*
D03*
X55050D02*
D03*
X88550D02*
D03*
X122050D02*
D03*
X21550Y94324D02*
D03*
X55050D02*
D03*
X88550D02*
D03*
X122050D02*
D03*
X21550Y116474D02*
D03*
X55050D02*
D03*
X88550D02*
D03*
X122050D02*
D03*
D71*
X26098Y29424D02*
D03*
X26295D02*
D03*
X25705D02*
D03*
X25902D02*
D03*
X25705Y28924D02*
D03*
X25902D02*
D03*
X26098D02*
D03*
X26295D02*
D03*
X59598Y29424D02*
D03*
X59795D02*
D03*
X59205D02*
D03*
X59402D02*
D03*
X59205Y28924D02*
D03*
X59402D02*
D03*
X59598D02*
D03*
X59795D02*
D03*
X93098Y29424D02*
D03*
X93295D02*
D03*
X92705D02*
D03*
X92902D02*
D03*
X92705Y28924D02*
D03*
X92902D02*
D03*
X93098D02*
D03*
X93295D02*
D03*
X126598Y29424D02*
D03*
X126795D02*
D03*
X126205D02*
D03*
X126402D02*
D03*
X126205Y28924D02*
D03*
X126402D02*
D03*
X126598D02*
D03*
X126795D02*
D03*
X26098Y51574D02*
D03*
X26295D02*
D03*
X25705D02*
D03*
X25902D02*
D03*
X25705Y51074D02*
D03*
X25902D02*
D03*
X26098D02*
D03*
X26295D02*
D03*
X59598Y51574D02*
D03*
X59795D02*
D03*
X59205D02*
D03*
X59402D02*
D03*
X59205Y51074D02*
D03*
X59402D02*
D03*
X59598D02*
D03*
X59795D02*
D03*
X93098Y51574D02*
D03*
X93295D02*
D03*
X92705D02*
D03*
X92902D02*
D03*
X92705Y51074D02*
D03*
X92902D02*
D03*
X93098D02*
D03*
X93295D02*
D03*
X126598Y51574D02*
D03*
X126795D02*
D03*
X126205D02*
D03*
X126402D02*
D03*
X126205Y51074D02*
D03*
X126402D02*
D03*
X126598D02*
D03*
X126795D02*
D03*
X26098Y73724D02*
D03*
X26295D02*
D03*
X25705D02*
D03*
X25902D02*
D03*
X25705Y73224D02*
D03*
X25902D02*
D03*
X26098D02*
D03*
X26295D02*
D03*
X59598Y73724D02*
D03*
X59795D02*
D03*
X59205D02*
D03*
X59402D02*
D03*
X59205Y73224D02*
D03*
X59402D02*
D03*
X59598D02*
D03*
X59795D02*
D03*
X93098Y73724D02*
D03*
X93295D02*
D03*
X92705D02*
D03*
X92902D02*
D03*
X92705Y73224D02*
D03*
X92902D02*
D03*
X93098D02*
D03*
X93295D02*
D03*
X126598Y73724D02*
D03*
X126795D02*
D03*
X126205D02*
D03*
X126402D02*
D03*
X126205Y73224D02*
D03*
X126402D02*
D03*
X126598D02*
D03*
X126795D02*
D03*
X26098Y95874D02*
D03*
X26295D02*
D03*
X25705D02*
D03*
X25902D02*
D03*
X25705Y95374D02*
D03*
X25902D02*
D03*
X26098D02*
D03*
X26295D02*
D03*
X59598Y95874D02*
D03*
X59795D02*
D03*
X59205D02*
D03*
X59402D02*
D03*
X59205Y95374D02*
D03*
X59402D02*
D03*
X59598D02*
D03*
X59795D02*
D03*
X93098Y95874D02*
D03*
X93295D02*
D03*
X92705D02*
D03*
X92902D02*
D03*
X92705Y95374D02*
D03*
X92902D02*
D03*
X93098D02*
D03*
X93295D02*
D03*
X126598Y95874D02*
D03*
X126795D02*
D03*
X126205D02*
D03*
X126402D02*
D03*
X126205Y95374D02*
D03*
X126402D02*
D03*
X126598D02*
D03*
X126795D02*
D03*
X26098Y118024D02*
D03*
X26295D02*
D03*
X25705D02*
D03*
X25902D02*
D03*
X25705Y117524D02*
D03*
X25902D02*
D03*
X26098D02*
D03*
X26295D02*
D03*
X59598Y118024D02*
D03*
X59795D02*
D03*
X59205D02*
D03*
X59402D02*
D03*
X59205Y117524D02*
D03*
X59402D02*
D03*
X59598D02*
D03*
X59795D02*
D03*
X93098Y118024D02*
D03*
X93295D02*
D03*
X92705D02*
D03*
X92902D02*
D03*
X92705Y117524D02*
D03*
X92902D02*
D03*
X93098D02*
D03*
X93295D02*
D03*
X126598Y118024D02*
D03*
X126795D02*
D03*
X126205D02*
D03*
X126402D02*
D03*
X126205Y117524D02*
D03*
X126402D02*
D03*
X126598D02*
D03*
X126795D02*
D03*
D72*
X32003Y29540D02*
D03*
Y30308D02*
D03*
X32200D02*
D03*
X32397D02*
D03*
X32200Y29540D02*
D03*
X32397D02*
D03*
X65503D02*
D03*
Y30308D02*
D03*
X65700D02*
D03*
X65897D02*
D03*
X65700Y29540D02*
D03*
X65897D02*
D03*
X99003D02*
D03*
Y30308D02*
D03*
X99200D02*
D03*
X99397D02*
D03*
X99200Y29540D02*
D03*
X99397D02*
D03*
X132503D02*
D03*
Y30308D02*
D03*
X132700D02*
D03*
X132897D02*
D03*
X132700Y29540D02*
D03*
X132897D02*
D03*
X32003Y51690D02*
D03*
Y52458D02*
D03*
X32200D02*
D03*
X32397D02*
D03*
X32200Y51690D02*
D03*
X32397D02*
D03*
X65503D02*
D03*
Y52458D02*
D03*
X65700D02*
D03*
X65897D02*
D03*
X65700Y51690D02*
D03*
X65897D02*
D03*
X99003D02*
D03*
Y52458D02*
D03*
X99200D02*
D03*
X99397D02*
D03*
X99200Y51690D02*
D03*
X99397D02*
D03*
X132503D02*
D03*
Y52458D02*
D03*
X132700D02*
D03*
X132897D02*
D03*
X132700Y51690D02*
D03*
X132897D02*
D03*
X32003Y73840D02*
D03*
Y74608D02*
D03*
X32200D02*
D03*
X32397D02*
D03*
X32200Y73840D02*
D03*
X32397D02*
D03*
X65503D02*
D03*
Y74608D02*
D03*
X65700D02*
D03*
X65897D02*
D03*
X65700Y73840D02*
D03*
X65897D02*
D03*
X99003D02*
D03*
Y74608D02*
D03*
X99200D02*
D03*
X99397D02*
D03*
X99200Y73840D02*
D03*
X99397D02*
D03*
X132503D02*
D03*
Y74608D02*
D03*
X132700D02*
D03*
X132897D02*
D03*
X132700Y73840D02*
D03*
X132897D02*
D03*
X32003Y95990D02*
D03*
Y96758D02*
D03*
X32200D02*
D03*
X32397D02*
D03*
X32200Y95990D02*
D03*
X32397D02*
D03*
X65503D02*
D03*
Y96758D02*
D03*
X65700D02*
D03*
X65897D02*
D03*
X65700Y95990D02*
D03*
X65897D02*
D03*
X99003D02*
D03*
Y96758D02*
D03*
X99200D02*
D03*
X99397D02*
D03*
X99200Y95990D02*
D03*
X99397D02*
D03*
X132503D02*
D03*
Y96758D02*
D03*
X132700D02*
D03*
X132897D02*
D03*
X132700Y95990D02*
D03*
X132897D02*
D03*
X32003Y118140D02*
D03*
Y118908D02*
D03*
X32200D02*
D03*
X32397D02*
D03*
X32200Y118140D02*
D03*
X32397D02*
D03*
X65503D02*
D03*
Y118908D02*
D03*
X65700D02*
D03*
X65897D02*
D03*
X65700Y118140D02*
D03*
X65897D02*
D03*
X99003D02*
D03*
Y118908D02*
D03*
X99200D02*
D03*
X99397D02*
D03*
X99200Y118140D02*
D03*
X99397D02*
D03*
X132503D02*
D03*
Y118908D02*
D03*
X132700D02*
D03*
X132897D02*
D03*
X132700Y118140D02*
D03*
X132897D02*
D03*
D73*
X32200Y29924D02*
D03*
X65700D02*
D03*
X99200D02*
D03*
X132700D02*
D03*
X32200Y52074D02*
D03*
X65700D02*
D03*
X99200D02*
D03*
X132700D02*
D03*
X32200Y74224D02*
D03*
X65700D02*
D03*
X99200D02*
D03*
X132700D02*
D03*
X32200Y96374D02*
D03*
X65700D02*
D03*
X99200D02*
D03*
X132700D02*
D03*
X32200Y118524D02*
D03*
X65700D02*
D03*
X99200D02*
D03*
X132700D02*
D03*
D74*
X18061Y31218D02*
D03*
Y31021D02*
D03*
Y30824D02*
D03*
Y30627D02*
D03*
Y30430D02*
D03*
X16939D02*
D03*
Y30627D02*
D03*
Y30824D02*
D03*
Y31021D02*
D03*
Y31218D02*
D03*
X51561D02*
D03*
Y31021D02*
D03*
Y30824D02*
D03*
Y30627D02*
D03*
Y30430D02*
D03*
X50439D02*
D03*
Y30627D02*
D03*
Y30824D02*
D03*
Y31021D02*
D03*
Y31218D02*
D03*
X85061D02*
D03*
Y31021D02*
D03*
Y30824D02*
D03*
Y30627D02*
D03*
Y30430D02*
D03*
X83939D02*
D03*
Y30627D02*
D03*
Y30824D02*
D03*
Y31021D02*
D03*
Y31218D02*
D03*
X118561D02*
D03*
Y31021D02*
D03*
Y30824D02*
D03*
Y30627D02*
D03*
Y30430D02*
D03*
X117439D02*
D03*
Y30627D02*
D03*
Y30824D02*
D03*
Y31021D02*
D03*
Y31218D02*
D03*
X18061Y53368D02*
D03*
Y53171D02*
D03*
Y52974D02*
D03*
Y52777D02*
D03*
Y52580D02*
D03*
X16939D02*
D03*
Y52777D02*
D03*
Y52974D02*
D03*
Y53171D02*
D03*
Y53368D02*
D03*
X51561D02*
D03*
Y53171D02*
D03*
Y52974D02*
D03*
Y52777D02*
D03*
Y52580D02*
D03*
X50439D02*
D03*
Y52777D02*
D03*
Y52974D02*
D03*
Y53171D02*
D03*
Y53368D02*
D03*
X85061D02*
D03*
Y53171D02*
D03*
Y52974D02*
D03*
Y52777D02*
D03*
Y52580D02*
D03*
X83939D02*
D03*
Y52777D02*
D03*
Y52974D02*
D03*
Y53171D02*
D03*
Y53368D02*
D03*
X118561D02*
D03*
Y53171D02*
D03*
Y52974D02*
D03*
Y52777D02*
D03*
Y52580D02*
D03*
X117439D02*
D03*
Y52777D02*
D03*
Y52974D02*
D03*
Y53171D02*
D03*
Y53368D02*
D03*
X18061Y75518D02*
D03*
Y75321D02*
D03*
Y75124D02*
D03*
Y74927D02*
D03*
Y74730D02*
D03*
X16939D02*
D03*
Y74927D02*
D03*
Y75124D02*
D03*
Y75321D02*
D03*
Y75518D02*
D03*
X51561D02*
D03*
Y75321D02*
D03*
Y75124D02*
D03*
Y74927D02*
D03*
Y74730D02*
D03*
X50439D02*
D03*
Y74927D02*
D03*
Y75124D02*
D03*
Y75321D02*
D03*
Y75518D02*
D03*
X85061D02*
D03*
Y75321D02*
D03*
Y75124D02*
D03*
Y74927D02*
D03*
Y74730D02*
D03*
X83939D02*
D03*
Y74927D02*
D03*
Y75124D02*
D03*
Y75321D02*
D03*
Y75518D02*
D03*
X118561D02*
D03*
Y75321D02*
D03*
Y75124D02*
D03*
Y74927D02*
D03*
Y74730D02*
D03*
X117439D02*
D03*
Y74927D02*
D03*
Y75124D02*
D03*
Y75321D02*
D03*
Y75518D02*
D03*
X18061Y97668D02*
D03*
Y97471D02*
D03*
Y97274D02*
D03*
Y97077D02*
D03*
Y96880D02*
D03*
X16939D02*
D03*
Y97077D02*
D03*
Y97274D02*
D03*
Y97471D02*
D03*
Y97668D02*
D03*
X51561D02*
D03*
Y97471D02*
D03*
Y97274D02*
D03*
Y97077D02*
D03*
Y96880D02*
D03*
X50439D02*
D03*
Y97077D02*
D03*
Y97274D02*
D03*
Y97471D02*
D03*
Y97668D02*
D03*
X85061D02*
D03*
Y97471D02*
D03*
Y97274D02*
D03*
Y97077D02*
D03*
Y96880D02*
D03*
X83939D02*
D03*
Y97077D02*
D03*
Y97274D02*
D03*
Y97471D02*
D03*
Y97668D02*
D03*
X118561D02*
D03*
Y97471D02*
D03*
Y97274D02*
D03*
Y97077D02*
D03*
Y96880D02*
D03*
X117439D02*
D03*
Y97077D02*
D03*
Y97274D02*
D03*
Y97471D02*
D03*
Y97668D02*
D03*
X18061Y119818D02*
D03*
Y119621D02*
D03*
Y119424D02*
D03*
Y119227D02*
D03*
Y119030D02*
D03*
X16939D02*
D03*
Y119227D02*
D03*
Y119424D02*
D03*
Y119621D02*
D03*
Y119818D02*
D03*
X51561D02*
D03*
Y119621D02*
D03*
Y119424D02*
D03*
Y119227D02*
D03*
Y119030D02*
D03*
X50439D02*
D03*
Y119227D02*
D03*
Y119424D02*
D03*
Y119621D02*
D03*
Y119818D02*
D03*
X85061D02*
D03*
Y119621D02*
D03*
Y119424D02*
D03*
Y119227D02*
D03*
Y119030D02*
D03*
X83939D02*
D03*
Y119227D02*
D03*
Y119424D02*
D03*
Y119621D02*
D03*
Y119818D02*
D03*
X118561D02*
D03*
Y119621D02*
D03*
Y119424D02*
D03*
Y119227D02*
D03*
Y119030D02*
D03*
X117439D02*
D03*
Y119227D02*
D03*
Y119424D02*
D03*
Y119621D02*
D03*
Y119818D02*
D03*
D75*
X17500Y30824D02*
D03*
X51000D02*
D03*
X84500D02*
D03*
X118000D02*
D03*
X17500Y52974D02*
D03*
X51000D02*
D03*
X84500D02*
D03*
X118000D02*
D03*
X17500Y75124D02*
D03*
X51000D02*
D03*
X84500D02*
D03*
X118000D02*
D03*
X17500Y97274D02*
D03*
X51000D02*
D03*
X84500D02*
D03*
X118000D02*
D03*
X17500Y119424D02*
D03*
X51000D02*
D03*
X84500D02*
D03*
X118000D02*
D03*
D76*
X26339Y29174D02*
D03*
X25661D02*
D03*
X59839D02*
D03*
X59161D02*
D03*
X93339D02*
D03*
X92661D02*
D03*
X126839D02*
D03*
X126161D02*
D03*
X26339Y51324D02*
D03*
X25661D02*
D03*
X59839D02*
D03*
X59161D02*
D03*
X93339D02*
D03*
X92661D02*
D03*
X126839D02*
D03*
X126161D02*
D03*
X26339Y73474D02*
D03*
X25661D02*
D03*
X59839D02*
D03*
X59161D02*
D03*
X93339D02*
D03*
X92661D02*
D03*
X126839D02*
D03*
X126161D02*
D03*
X26339Y95624D02*
D03*
X25661D02*
D03*
X59839D02*
D03*
X59161D02*
D03*
X93339D02*
D03*
X92661D02*
D03*
X126839D02*
D03*
X126161D02*
D03*
X26339Y117774D02*
D03*
X25661D02*
D03*
X59839D02*
D03*
X59161D02*
D03*
X93339D02*
D03*
X92661D02*
D03*
X126839D02*
D03*
X126161D02*
D03*
D77*
X20224Y13268D02*
D03*
Y13524D02*
D03*
Y13780D02*
D03*
X19476D02*
D03*
Y13268D02*
D03*
X20224Y12368D02*
D03*
Y12624D02*
D03*
Y12880D02*
D03*
X19476D02*
D03*
Y12368D02*
D03*
X53724Y13268D02*
D03*
Y13524D02*
D03*
Y13780D02*
D03*
X52976D02*
D03*
Y13268D02*
D03*
X53724Y12368D02*
D03*
Y12624D02*
D03*
Y12880D02*
D03*
X52976D02*
D03*
Y12368D02*
D03*
X87224Y13268D02*
D03*
Y13524D02*
D03*
Y13780D02*
D03*
X86476D02*
D03*
Y13268D02*
D03*
X87224Y12368D02*
D03*
Y12624D02*
D03*
Y12880D02*
D03*
X86476D02*
D03*
Y12368D02*
D03*
X120724Y13268D02*
D03*
Y13524D02*
D03*
Y13780D02*
D03*
X119976D02*
D03*
Y13268D02*
D03*
X120724Y12368D02*
D03*
Y12624D02*
D03*
Y12880D02*
D03*
X119976D02*
D03*
Y12368D02*
D03*
X20224Y35418D02*
D03*
Y35674D02*
D03*
Y35930D02*
D03*
X19476D02*
D03*
Y35418D02*
D03*
X20224Y34518D02*
D03*
Y34774D02*
D03*
Y35030D02*
D03*
X19476D02*
D03*
Y34518D02*
D03*
X53724Y35418D02*
D03*
Y35674D02*
D03*
Y35930D02*
D03*
X52976D02*
D03*
Y35418D02*
D03*
X53724Y34518D02*
D03*
Y34774D02*
D03*
Y35030D02*
D03*
X52976D02*
D03*
Y34518D02*
D03*
X87224Y35418D02*
D03*
Y35674D02*
D03*
Y35930D02*
D03*
X86476D02*
D03*
Y35418D02*
D03*
X87224Y34518D02*
D03*
Y34774D02*
D03*
Y35030D02*
D03*
X86476D02*
D03*
Y34518D02*
D03*
X120724Y35418D02*
D03*
Y35674D02*
D03*
Y35930D02*
D03*
X119976D02*
D03*
Y35418D02*
D03*
X120724Y34518D02*
D03*
Y34774D02*
D03*
Y35030D02*
D03*
X119976D02*
D03*
Y34518D02*
D03*
X20224Y57568D02*
D03*
Y57824D02*
D03*
Y58080D02*
D03*
X19476D02*
D03*
Y57568D02*
D03*
X20224Y56668D02*
D03*
Y56924D02*
D03*
Y57180D02*
D03*
X19476D02*
D03*
Y56668D02*
D03*
X53724Y57568D02*
D03*
Y57824D02*
D03*
Y58080D02*
D03*
X52976D02*
D03*
Y57568D02*
D03*
X53724Y56668D02*
D03*
Y56924D02*
D03*
Y57180D02*
D03*
X52976D02*
D03*
Y56668D02*
D03*
X87224Y57568D02*
D03*
Y57824D02*
D03*
Y58080D02*
D03*
X86476D02*
D03*
Y57568D02*
D03*
X87224Y56668D02*
D03*
Y56924D02*
D03*
Y57180D02*
D03*
X86476D02*
D03*
Y56668D02*
D03*
X120724Y57568D02*
D03*
Y57824D02*
D03*
Y58080D02*
D03*
X119976D02*
D03*
Y57568D02*
D03*
X120724Y56668D02*
D03*
Y56924D02*
D03*
Y57180D02*
D03*
X119976D02*
D03*
Y56668D02*
D03*
X20224Y79718D02*
D03*
Y79974D02*
D03*
Y80230D02*
D03*
X19476D02*
D03*
Y79718D02*
D03*
X20224Y78818D02*
D03*
Y79074D02*
D03*
Y79330D02*
D03*
X19476D02*
D03*
Y78818D02*
D03*
X53724Y79718D02*
D03*
Y79974D02*
D03*
Y80230D02*
D03*
X52976D02*
D03*
Y79718D02*
D03*
X53724Y78818D02*
D03*
Y79074D02*
D03*
Y79330D02*
D03*
X52976D02*
D03*
Y78818D02*
D03*
X87224Y79718D02*
D03*
Y79974D02*
D03*
Y80230D02*
D03*
X86476D02*
D03*
Y79718D02*
D03*
X87224Y78818D02*
D03*
Y79074D02*
D03*
Y79330D02*
D03*
X86476D02*
D03*
Y78818D02*
D03*
X120724Y79718D02*
D03*
Y79974D02*
D03*
Y80230D02*
D03*
X119976D02*
D03*
Y79718D02*
D03*
X120724Y78818D02*
D03*
Y79074D02*
D03*
Y79330D02*
D03*
X119976D02*
D03*
Y78818D02*
D03*
X20224Y101868D02*
D03*
Y102124D02*
D03*
Y102380D02*
D03*
X19476D02*
D03*
Y101868D02*
D03*
X20224Y100968D02*
D03*
Y101224D02*
D03*
Y101480D02*
D03*
X19476D02*
D03*
Y100968D02*
D03*
X53724Y101868D02*
D03*
Y102124D02*
D03*
Y102380D02*
D03*
X52976D02*
D03*
Y101868D02*
D03*
X53724Y100968D02*
D03*
Y101224D02*
D03*
Y101480D02*
D03*
X52976D02*
D03*
Y100968D02*
D03*
X87224Y101868D02*
D03*
Y102124D02*
D03*
Y102380D02*
D03*
X86476D02*
D03*
Y101868D02*
D03*
X87224Y100968D02*
D03*
Y101224D02*
D03*
Y101480D02*
D03*
X86476D02*
D03*
Y100968D02*
D03*
X120724Y101868D02*
D03*
Y102124D02*
D03*
Y102380D02*
D03*
X119976D02*
D03*
Y101868D02*
D03*
X120724Y100968D02*
D03*
Y101224D02*
D03*
Y101480D02*
D03*
X119976D02*
D03*
Y100968D02*
D03*
D78*
X19250Y26761D02*
D03*
Y25187D02*
D03*
X52750Y26761D02*
D03*
Y25187D02*
D03*
X86250Y26761D02*
D03*
Y25187D02*
D03*
X119750Y26761D02*
D03*
Y25187D02*
D03*
X19250Y48911D02*
D03*
Y47337D02*
D03*
X52750Y48911D02*
D03*
Y47337D02*
D03*
X86250Y48911D02*
D03*
Y47337D02*
D03*
X119750Y48911D02*
D03*
Y47337D02*
D03*
X19250Y71061D02*
D03*
Y69487D02*
D03*
X52750Y71061D02*
D03*
Y69487D02*
D03*
X86250Y71061D02*
D03*
Y69487D02*
D03*
X119750Y71061D02*
D03*
Y69487D02*
D03*
X19250Y93211D02*
D03*
Y91637D02*
D03*
X52750Y93211D02*
D03*
Y91637D02*
D03*
X86250Y93211D02*
D03*
Y91637D02*
D03*
X119750Y93211D02*
D03*
Y91637D02*
D03*
X19250Y115361D02*
D03*
Y113787D02*
D03*
X52750Y115361D02*
D03*
Y113787D02*
D03*
X86250Y115361D02*
D03*
Y113787D02*
D03*
X119750Y115361D02*
D03*
Y113787D02*
D03*
D79*
X18948Y23076D02*
D03*
X19204D02*
D03*
X19460D02*
D03*
X19716D02*
D03*
X19972D02*
D03*
X20228D02*
D03*
X20484D02*
D03*
X20740D02*
D03*
X20996D02*
D03*
X21252D02*
D03*
X18948Y20872D02*
D03*
X19204D02*
D03*
X19460D02*
D03*
X19716D02*
D03*
X19972D02*
D03*
X20228D02*
D03*
X20484D02*
D03*
X20740D02*
D03*
X20996D02*
D03*
X21252D02*
D03*
X24548Y23076D02*
D03*
X24804D02*
D03*
X25060D02*
D03*
X25316D02*
D03*
X25572D02*
D03*
X25828D02*
D03*
X26084D02*
D03*
X26340D02*
D03*
X26596D02*
D03*
X26852D02*
D03*
X24548Y20872D02*
D03*
X24804D02*
D03*
X25060D02*
D03*
X25316D02*
D03*
X25572D02*
D03*
X25828D02*
D03*
X26084D02*
D03*
X26340D02*
D03*
X26596D02*
D03*
X26852D02*
D03*
X21748Y23076D02*
D03*
X22004D02*
D03*
X22260D02*
D03*
X22516D02*
D03*
X22772D02*
D03*
X23028D02*
D03*
X23284D02*
D03*
X23540D02*
D03*
X23796D02*
D03*
X24052D02*
D03*
X21748Y20872D02*
D03*
X22004D02*
D03*
X22260D02*
D03*
X22516D02*
D03*
X22772D02*
D03*
X23028D02*
D03*
X23284D02*
D03*
X23540D02*
D03*
X23796D02*
D03*
X24052D02*
D03*
X52448Y23076D02*
D03*
X52704D02*
D03*
X52960D02*
D03*
X53216D02*
D03*
X53472D02*
D03*
X53728D02*
D03*
X53984D02*
D03*
X54240D02*
D03*
X54496D02*
D03*
X54752D02*
D03*
X52448Y20872D02*
D03*
X52704D02*
D03*
X52960D02*
D03*
X53216D02*
D03*
X53472D02*
D03*
X53728D02*
D03*
X53984D02*
D03*
X54240D02*
D03*
X54496D02*
D03*
X54752D02*
D03*
X58048Y23076D02*
D03*
X58304D02*
D03*
X58560D02*
D03*
X58816D02*
D03*
X59072D02*
D03*
X59328D02*
D03*
X59584D02*
D03*
X59840D02*
D03*
X60096D02*
D03*
X60352D02*
D03*
X58048Y20872D02*
D03*
X58304D02*
D03*
X58560D02*
D03*
X58816D02*
D03*
X59072D02*
D03*
X59328D02*
D03*
X59584D02*
D03*
X59840D02*
D03*
X60096D02*
D03*
X60352D02*
D03*
X55248Y23076D02*
D03*
X55504D02*
D03*
X55760D02*
D03*
X56016D02*
D03*
X56272D02*
D03*
X56528D02*
D03*
X56784D02*
D03*
X57040D02*
D03*
X57296D02*
D03*
X57552D02*
D03*
X55248Y20872D02*
D03*
X55504D02*
D03*
X55760D02*
D03*
X56016D02*
D03*
X56272D02*
D03*
X56528D02*
D03*
X56784D02*
D03*
X57040D02*
D03*
X57296D02*
D03*
X57552D02*
D03*
X85948Y23076D02*
D03*
X86204D02*
D03*
X86460D02*
D03*
X86716D02*
D03*
X86972D02*
D03*
X87228D02*
D03*
X87484D02*
D03*
X87740D02*
D03*
X87996D02*
D03*
X88252D02*
D03*
X85948Y20872D02*
D03*
X86204D02*
D03*
X86460D02*
D03*
X86716D02*
D03*
X86972D02*
D03*
X87228D02*
D03*
X87484D02*
D03*
X87740D02*
D03*
X87996D02*
D03*
X88252D02*
D03*
X91548Y23076D02*
D03*
X91804D02*
D03*
X92060D02*
D03*
X92316D02*
D03*
X92572D02*
D03*
X92828D02*
D03*
X93084D02*
D03*
X93340D02*
D03*
X93596D02*
D03*
X93852D02*
D03*
X91548Y20872D02*
D03*
X91804D02*
D03*
X92060D02*
D03*
X92316D02*
D03*
X92572D02*
D03*
X92828D02*
D03*
X93084D02*
D03*
X93340D02*
D03*
X93596D02*
D03*
X93852D02*
D03*
X88748Y23076D02*
D03*
X89004D02*
D03*
X89260D02*
D03*
X89516D02*
D03*
X89772D02*
D03*
X90028D02*
D03*
X90284D02*
D03*
X90540D02*
D03*
X90796D02*
D03*
X91052D02*
D03*
X88748Y20872D02*
D03*
X89004D02*
D03*
X89260D02*
D03*
X89516D02*
D03*
X89772D02*
D03*
X90028D02*
D03*
X90284D02*
D03*
X90540D02*
D03*
X90796D02*
D03*
X91052D02*
D03*
X119448Y23076D02*
D03*
X119704D02*
D03*
X119960D02*
D03*
X120216D02*
D03*
X120472D02*
D03*
X120728D02*
D03*
X120984D02*
D03*
X121240D02*
D03*
X121496D02*
D03*
X121752D02*
D03*
X119448Y20872D02*
D03*
X119704D02*
D03*
X119960D02*
D03*
X120216D02*
D03*
X120472D02*
D03*
X120728D02*
D03*
X120984D02*
D03*
X121240D02*
D03*
X121496D02*
D03*
X121752D02*
D03*
X125048Y23076D02*
D03*
X125304D02*
D03*
X125560D02*
D03*
X125816D02*
D03*
X126072D02*
D03*
X126328D02*
D03*
X126584D02*
D03*
X126840D02*
D03*
X127096D02*
D03*
X127352D02*
D03*
X125048Y20872D02*
D03*
X125304D02*
D03*
X125560D02*
D03*
X125816D02*
D03*
X126072D02*
D03*
X126328D02*
D03*
X126584D02*
D03*
X126840D02*
D03*
X127096D02*
D03*
X127352D02*
D03*
X122248Y23076D02*
D03*
X122504D02*
D03*
X122760D02*
D03*
X123016D02*
D03*
X123272D02*
D03*
X123528D02*
D03*
X123784D02*
D03*
X124040D02*
D03*
X124296D02*
D03*
X124552D02*
D03*
X122248Y20872D02*
D03*
X122504D02*
D03*
X122760D02*
D03*
X123016D02*
D03*
X123272D02*
D03*
X123528D02*
D03*
X123784D02*
D03*
X124040D02*
D03*
X124296D02*
D03*
X124552D02*
D03*
X18948Y45226D02*
D03*
X19204D02*
D03*
X19460D02*
D03*
X19716D02*
D03*
X19972D02*
D03*
X20228D02*
D03*
X20484D02*
D03*
X20740D02*
D03*
X20996D02*
D03*
X21252D02*
D03*
X18948Y43022D02*
D03*
X19204D02*
D03*
X19460D02*
D03*
X19716D02*
D03*
X19972D02*
D03*
X20228D02*
D03*
X20484D02*
D03*
X20740D02*
D03*
X20996D02*
D03*
X21252D02*
D03*
X24548Y45226D02*
D03*
X24804D02*
D03*
X25060D02*
D03*
X25316D02*
D03*
X25572D02*
D03*
X25828D02*
D03*
X26084D02*
D03*
X26340D02*
D03*
X26596D02*
D03*
X26852D02*
D03*
X24548Y43022D02*
D03*
X24804D02*
D03*
X25060D02*
D03*
X25316D02*
D03*
X25572D02*
D03*
X25828D02*
D03*
X26084D02*
D03*
X26340D02*
D03*
X26596D02*
D03*
X26852D02*
D03*
X21748Y45226D02*
D03*
X22004D02*
D03*
X22260D02*
D03*
X22516D02*
D03*
X22772D02*
D03*
X23028D02*
D03*
X23284D02*
D03*
X23540D02*
D03*
X23796D02*
D03*
X24052D02*
D03*
X21748Y43022D02*
D03*
X22004D02*
D03*
X22260D02*
D03*
X22516D02*
D03*
X22772D02*
D03*
X23028D02*
D03*
X23284D02*
D03*
X23540D02*
D03*
X23796D02*
D03*
X24052D02*
D03*
X52448Y45226D02*
D03*
X52704D02*
D03*
X52960D02*
D03*
X53216D02*
D03*
X53472D02*
D03*
X53728D02*
D03*
X53984D02*
D03*
X54240D02*
D03*
X54496D02*
D03*
X54752D02*
D03*
X52448Y43022D02*
D03*
X52704D02*
D03*
X52960D02*
D03*
X53216D02*
D03*
X53472D02*
D03*
X53728D02*
D03*
X53984D02*
D03*
X54240D02*
D03*
X54496D02*
D03*
X54752D02*
D03*
X58048Y45226D02*
D03*
X58304D02*
D03*
X58560D02*
D03*
X58816D02*
D03*
X59072D02*
D03*
X59328D02*
D03*
X59584D02*
D03*
X59840D02*
D03*
X60096D02*
D03*
X60352D02*
D03*
X58048Y43022D02*
D03*
X58304D02*
D03*
X58560D02*
D03*
X58816D02*
D03*
X59072D02*
D03*
X59328D02*
D03*
X59584D02*
D03*
X59840D02*
D03*
X60096D02*
D03*
X60352D02*
D03*
X55248Y45226D02*
D03*
X55504D02*
D03*
X55760D02*
D03*
X56016D02*
D03*
X56272D02*
D03*
X56528D02*
D03*
X56784D02*
D03*
X57040D02*
D03*
X57296D02*
D03*
X57552D02*
D03*
X55248Y43022D02*
D03*
X55504D02*
D03*
X55760D02*
D03*
X56016D02*
D03*
X56272D02*
D03*
X56528D02*
D03*
X56784D02*
D03*
X57040D02*
D03*
X57296D02*
D03*
X57552D02*
D03*
X85948Y45226D02*
D03*
X86204D02*
D03*
X86460D02*
D03*
X86716D02*
D03*
X86972D02*
D03*
X87228D02*
D03*
X87484D02*
D03*
X87740D02*
D03*
X87996D02*
D03*
X88252D02*
D03*
X85948Y43022D02*
D03*
X86204D02*
D03*
X86460D02*
D03*
X86716D02*
D03*
X86972D02*
D03*
X87228D02*
D03*
X87484D02*
D03*
X87740D02*
D03*
X87996D02*
D03*
X88252D02*
D03*
X91548Y45226D02*
D03*
X91804D02*
D03*
X92060D02*
D03*
X92316D02*
D03*
X92572D02*
D03*
X92828D02*
D03*
X93084D02*
D03*
X93340D02*
D03*
X93596D02*
D03*
X93852D02*
D03*
X91548Y43022D02*
D03*
X91804D02*
D03*
X92060D02*
D03*
X92316D02*
D03*
X92572D02*
D03*
X92828D02*
D03*
X93084D02*
D03*
X93340D02*
D03*
X93596D02*
D03*
X93852D02*
D03*
X88748Y45226D02*
D03*
X89004D02*
D03*
X89260D02*
D03*
X89516D02*
D03*
X89772D02*
D03*
X90028D02*
D03*
X90284D02*
D03*
X90540D02*
D03*
X90796D02*
D03*
X91052D02*
D03*
X88748Y43022D02*
D03*
X89004D02*
D03*
X89260D02*
D03*
X89516D02*
D03*
X89772D02*
D03*
X90028D02*
D03*
X90284D02*
D03*
X90540D02*
D03*
X90796D02*
D03*
X91052D02*
D03*
X119448Y45226D02*
D03*
X119704D02*
D03*
X119960D02*
D03*
X120216D02*
D03*
X120472D02*
D03*
X120728D02*
D03*
X120984D02*
D03*
X121240D02*
D03*
X121496D02*
D03*
X121752D02*
D03*
X119448Y43022D02*
D03*
X119704D02*
D03*
X119960D02*
D03*
X120216D02*
D03*
X120472D02*
D03*
X120728D02*
D03*
X120984D02*
D03*
X121240D02*
D03*
X121496D02*
D03*
X121752D02*
D03*
X125048Y45226D02*
D03*
X125304D02*
D03*
X125560D02*
D03*
X125816D02*
D03*
X126072D02*
D03*
X126328D02*
D03*
X126584D02*
D03*
X126840D02*
D03*
X127096D02*
D03*
X127352D02*
D03*
X125048Y43022D02*
D03*
X125304D02*
D03*
X125560D02*
D03*
X125816D02*
D03*
X126072D02*
D03*
X126328D02*
D03*
X126584D02*
D03*
X126840D02*
D03*
X127096D02*
D03*
X127352D02*
D03*
X122248Y45226D02*
D03*
X122504D02*
D03*
X122760D02*
D03*
X123016D02*
D03*
X123272D02*
D03*
X123528D02*
D03*
X123784D02*
D03*
X124040D02*
D03*
X124296D02*
D03*
X124552D02*
D03*
X122248Y43022D02*
D03*
X122504D02*
D03*
X122760D02*
D03*
X123016D02*
D03*
X123272D02*
D03*
X123528D02*
D03*
X123784D02*
D03*
X124040D02*
D03*
X124296D02*
D03*
X124552D02*
D03*
X18948Y67376D02*
D03*
X19204D02*
D03*
X19460D02*
D03*
X19716D02*
D03*
X19972D02*
D03*
X20228D02*
D03*
X20484D02*
D03*
X20740D02*
D03*
X20996D02*
D03*
X21252D02*
D03*
X18948Y65172D02*
D03*
X19204D02*
D03*
X19460D02*
D03*
X19716D02*
D03*
X19972D02*
D03*
X20228D02*
D03*
X20484D02*
D03*
X20740D02*
D03*
X20996D02*
D03*
X21252D02*
D03*
X24548Y67376D02*
D03*
X24804D02*
D03*
X25060D02*
D03*
X25316D02*
D03*
X25572D02*
D03*
X25828D02*
D03*
X26084D02*
D03*
X26340D02*
D03*
X26596D02*
D03*
X26852D02*
D03*
X24548Y65172D02*
D03*
X24804D02*
D03*
X25060D02*
D03*
X25316D02*
D03*
X25572D02*
D03*
X25828D02*
D03*
X26084D02*
D03*
X26340D02*
D03*
X26596D02*
D03*
X26852D02*
D03*
X21748Y67376D02*
D03*
X22004D02*
D03*
X22260D02*
D03*
X22516D02*
D03*
X22772D02*
D03*
X23028D02*
D03*
X23284D02*
D03*
X23540D02*
D03*
X23796D02*
D03*
X24052D02*
D03*
X21748Y65172D02*
D03*
X22004D02*
D03*
X22260D02*
D03*
X22516D02*
D03*
X22772D02*
D03*
X23028D02*
D03*
X23284D02*
D03*
X23540D02*
D03*
X23796D02*
D03*
X24052D02*
D03*
X52448Y67376D02*
D03*
X52704D02*
D03*
X52960D02*
D03*
X53216D02*
D03*
X53472D02*
D03*
X53728D02*
D03*
X53984D02*
D03*
X54240D02*
D03*
X54496D02*
D03*
X54752D02*
D03*
X52448Y65172D02*
D03*
X52704D02*
D03*
X52960D02*
D03*
X53216D02*
D03*
X53472D02*
D03*
X53728D02*
D03*
X53984D02*
D03*
X54240D02*
D03*
X54496D02*
D03*
X54752D02*
D03*
X58048Y67376D02*
D03*
X58304D02*
D03*
X58560D02*
D03*
X58816D02*
D03*
X59072D02*
D03*
X59328D02*
D03*
X59584D02*
D03*
X59840D02*
D03*
X60096D02*
D03*
X60352D02*
D03*
X58048Y65172D02*
D03*
X58304D02*
D03*
X58560D02*
D03*
X58816D02*
D03*
X59072D02*
D03*
X59328D02*
D03*
X59584D02*
D03*
X59840D02*
D03*
X60096D02*
D03*
X60352D02*
D03*
X55248Y67376D02*
D03*
X55504D02*
D03*
X55760D02*
D03*
X56016D02*
D03*
X56272D02*
D03*
X56528D02*
D03*
X56784D02*
D03*
X57040D02*
D03*
X57296D02*
D03*
X57552D02*
D03*
X55248Y65172D02*
D03*
X55504D02*
D03*
X55760D02*
D03*
X56016D02*
D03*
X56272D02*
D03*
X56528D02*
D03*
X56784D02*
D03*
X57040D02*
D03*
X57296D02*
D03*
X57552D02*
D03*
X85948Y67376D02*
D03*
X86204D02*
D03*
X86460D02*
D03*
X86716D02*
D03*
X86972D02*
D03*
X87228D02*
D03*
X87484D02*
D03*
X87740D02*
D03*
X87996D02*
D03*
X88252D02*
D03*
X85948Y65172D02*
D03*
X86204D02*
D03*
X86460D02*
D03*
X86716D02*
D03*
X86972D02*
D03*
X87228D02*
D03*
X87484D02*
D03*
X87740D02*
D03*
X87996D02*
D03*
X88252D02*
D03*
X91548Y67376D02*
D03*
X91804D02*
D03*
X92060D02*
D03*
X92316D02*
D03*
X92572D02*
D03*
X92828D02*
D03*
X93084D02*
D03*
X93340D02*
D03*
X93596D02*
D03*
X93852D02*
D03*
X91548Y65172D02*
D03*
X91804D02*
D03*
X92060D02*
D03*
X92316D02*
D03*
X92572D02*
D03*
X92828D02*
D03*
X93084D02*
D03*
X93340D02*
D03*
X93596D02*
D03*
X93852D02*
D03*
X88748Y67376D02*
D03*
X89004D02*
D03*
X89260D02*
D03*
X89516D02*
D03*
X89772D02*
D03*
X90028D02*
D03*
X90284D02*
D03*
X90540D02*
D03*
X90796D02*
D03*
X91052D02*
D03*
X88748Y65172D02*
D03*
X89004D02*
D03*
X89260D02*
D03*
X89516D02*
D03*
X89772D02*
D03*
X90028D02*
D03*
X90284D02*
D03*
X90540D02*
D03*
X90796D02*
D03*
X91052D02*
D03*
X119448Y67376D02*
D03*
X119704D02*
D03*
X119960D02*
D03*
X120216D02*
D03*
X120472D02*
D03*
X120728D02*
D03*
X120984D02*
D03*
X121240D02*
D03*
X121496D02*
D03*
X121752D02*
D03*
X119448Y65172D02*
D03*
X119704D02*
D03*
X119960D02*
D03*
X120216D02*
D03*
X120472D02*
D03*
X120728D02*
D03*
X120984D02*
D03*
X121240D02*
D03*
X121496D02*
D03*
X121752D02*
D03*
X125048Y67376D02*
D03*
X125304D02*
D03*
X125560D02*
D03*
X125816D02*
D03*
X126072D02*
D03*
X126328D02*
D03*
X126584D02*
D03*
X126840D02*
D03*
X127096D02*
D03*
X127352D02*
D03*
X125048Y65172D02*
D03*
X125304D02*
D03*
X125560D02*
D03*
X125816D02*
D03*
X126072D02*
D03*
X126328D02*
D03*
X126584D02*
D03*
X126840D02*
D03*
X127096D02*
D03*
X127352D02*
D03*
X122248Y67376D02*
D03*
X122504D02*
D03*
X122760D02*
D03*
X123016D02*
D03*
X123272D02*
D03*
X123528D02*
D03*
X123784D02*
D03*
X124040D02*
D03*
X124296D02*
D03*
X124552D02*
D03*
X122248Y65172D02*
D03*
X122504D02*
D03*
X122760D02*
D03*
X123016D02*
D03*
X123272D02*
D03*
X123528D02*
D03*
X123784D02*
D03*
X124040D02*
D03*
X124296D02*
D03*
X124552D02*
D03*
X18948Y89526D02*
D03*
X19204D02*
D03*
X19460D02*
D03*
X19716D02*
D03*
X19972D02*
D03*
X20228D02*
D03*
X20484D02*
D03*
X20740D02*
D03*
X20996D02*
D03*
X21252D02*
D03*
X18948Y87322D02*
D03*
X19204D02*
D03*
X19460D02*
D03*
X19716D02*
D03*
X19972D02*
D03*
X20228D02*
D03*
X20484D02*
D03*
X20740D02*
D03*
X20996D02*
D03*
X21252D02*
D03*
X24548Y89526D02*
D03*
X24804D02*
D03*
X25060D02*
D03*
X25316D02*
D03*
X25572D02*
D03*
X25828D02*
D03*
X26084D02*
D03*
X26340D02*
D03*
X26596D02*
D03*
X26852D02*
D03*
X24548Y87322D02*
D03*
X24804D02*
D03*
X25060D02*
D03*
X25316D02*
D03*
X25572D02*
D03*
X25828D02*
D03*
X26084D02*
D03*
X26340D02*
D03*
X26596D02*
D03*
X26852D02*
D03*
X21748Y89526D02*
D03*
X22004D02*
D03*
X22260D02*
D03*
X22516D02*
D03*
X22772D02*
D03*
X23028D02*
D03*
X23284D02*
D03*
X23540D02*
D03*
X23796D02*
D03*
X24052D02*
D03*
X21748Y87322D02*
D03*
X22004D02*
D03*
X22260D02*
D03*
X22516D02*
D03*
X22772D02*
D03*
X23028D02*
D03*
X23284D02*
D03*
X23540D02*
D03*
X23796D02*
D03*
X24052D02*
D03*
X52448Y89526D02*
D03*
X52704D02*
D03*
X52960D02*
D03*
X53216D02*
D03*
X53472D02*
D03*
X53728D02*
D03*
X53984D02*
D03*
X54240D02*
D03*
X54496D02*
D03*
X54752D02*
D03*
X52448Y87322D02*
D03*
X52704D02*
D03*
X52960D02*
D03*
X53216D02*
D03*
X53472D02*
D03*
X53728D02*
D03*
X53984D02*
D03*
X54240D02*
D03*
X54496D02*
D03*
X54752D02*
D03*
X58048Y89526D02*
D03*
X58304D02*
D03*
X58560D02*
D03*
X58816D02*
D03*
X59072D02*
D03*
X59328D02*
D03*
X59584D02*
D03*
X59840D02*
D03*
X60096D02*
D03*
X60352D02*
D03*
X58048Y87322D02*
D03*
X58304D02*
D03*
X58560D02*
D03*
X58816D02*
D03*
X59072D02*
D03*
X59328D02*
D03*
X59584D02*
D03*
X59840D02*
D03*
X60096D02*
D03*
X60352D02*
D03*
X55248Y89526D02*
D03*
X55504D02*
D03*
X55760D02*
D03*
X56016D02*
D03*
X56272D02*
D03*
X56528D02*
D03*
X56784D02*
D03*
X57040D02*
D03*
X57296D02*
D03*
X57552D02*
D03*
X55248Y87322D02*
D03*
X55504D02*
D03*
X55760D02*
D03*
X56016D02*
D03*
X56272D02*
D03*
X56528D02*
D03*
X56784D02*
D03*
X57040D02*
D03*
X57296D02*
D03*
X57552D02*
D03*
X85948Y89526D02*
D03*
X86204D02*
D03*
X86460D02*
D03*
X86716D02*
D03*
X86972D02*
D03*
X87228D02*
D03*
X87484D02*
D03*
X87740D02*
D03*
X87996D02*
D03*
X88252D02*
D03*
X85948Y87322D02*
D03*
X86204D02*
D03*
X86460D02*
D03*
X86716D02*
D03*
X86972D02*
D03*
X87228D02*
D03*
X87484D02*
D03*
X87740D02*
D03*
X87996D02*
D03*
X88252D02*
D03*
X91548Y89526D02*
D03*
X91804D02*
D03*
X92060D02*
D03*
X92316D02*
D03*
X92572D02*
D03*
X92828D02*
D03*
X93084D02*
D03*
X93340D02*
D03*
X93596D02*
D03*
X93852D02*
D03*
X91548Y87322D02*
D03*
X91804D02*
D03*
X92060D02*
D03*
X92316D02*
D03*
X92572D02*
D03*
X92828D02*
D03*
X93084D02*
D03*
X93340D02*
D03*
X93596D02*
D03*
X93852D02*
D03*
X88748Y89526D02*
D03*
X89004D02*
D03*
X89260D02*
D03*
X89516D02*
D03*
X89772D02*
D03*
X90028D02*
D03*
X90284D02*
D03*
X90540D02*
D03*
X90796D02*
D03*
X91052D02*
D03*
X88748Y87322D02*
D03*
X89004D02*
D03*
X89260D02*
D03*
X89516D02*
D03*
X89772D02*
D03*
X90028D02*
D03*
X90284D02*
D03*
X90540D02*
D03*
X90796D02*
D03*
X91052D02*
D03*
X119448Y89526D02*
D03*
X119704D02*
D03*
X119960D02*
D03*
X120216D02*
D03*
X120472D02*
D03*
X120728D02*
D03*
X120984D02*
D03*
X121240D02*
D03*
X121496D02*
D03*
X121752D02*
D03*
X119448Y87322D02*
D03*
X119704D02*
D03*
X119960D02*
D03*
X120216D02*
D03*
X120472D02*
D03*
X120728D02*
D03*
X120984D02*
D03*
X121240D02*
D03*
X121496D02*
D03*
X121752D02*
D03*
X125048Y89526D02*
D03*
X125304D02*
D03*
X125560D02*
D03*
X125816D02*
D03*
X126072D02*
D03*
X126328D02*
D03*
X126584D02*
D03*
X126840D02*
D03*
X127096D02*
D03*
X127352D02*
D03*
X125048Y87322D02*
D03*
X125304D02*
D03*
X125560D02*
D03*
X125816D02*
D03*
X126072D02*
D03*
X126328D02*
D03*
X126584D02*
D03*
X126840D02*
D03*
X127096D02*
D03*
X127352D02*
D03*
X122248Y89526D02*
D03*
X122504D02*
D03*
X122760D02*
D03*
X123016D02*
D03*
X123272D02*
D03*
X123528D02*
D03*
X123784D02*
D03*
X124040D02*
D03*
X124296D02*
D03*
X124552D02*
D03*
X122248Y87322D02*
D03*
X122504D02*
D03*
X122760D02*
D03*
X123016D02*
D03*
X123272D02*
D03*
X123528D02*
D03*
X123784D02*
D03*
X124040D02*
D03*
X124296D02*
D03*
X124552D02*
D03*
X18948Y111676D02*
D03*
X19204D02*
D03*
X19460D02*
D03*
X19716D02*
D03*
X19972D02*
D03*
X20228D02*
D03*
X20484D02*
D03*
X20740D02*
D03*
X20996D02*
D03*
X21252D02*
D03*
X18948Y109472D02*
D03*
X19204D02*
D03*
X19460D02*
D03*
X19716D02*
D03*
X19972D02*
D03*
X20228D02*
D03*
X20484D02*
D03*
X20740D02*
D03*
X20996D02*
D03*
X21252D02*
D03*
X24548Y111676D02*
D03*
X24804D02*
D03*
X25060D02*
D03*
X25316D02*
D03*
X25572D02*
D03*
X25828D02*
D03*
X26084D02*
D03*
X26340D02*
D03*
X26596D02*
D03*
X26852D02*
D03*
X24548Y109472D02*
D03*
X24804D02*
D03*
X25060D02*
D03*
X25316D02*
D03*
X25572D02*
D03*
X25828D02*
D03*
X26084D02*
D03*
X26340D02*
D03*
X26596D02*
D03*
X26852D02*
D03*
X21748Y111676D02*
D03*
X22004D02*
D03*
X22260D02*
D03*
X22516D02*
D03*
X22772D02*
D03*
X23028D02*
D03*
X23284D02*
D03*
X23540D02*
D03*
X23796D02*
D03*
X24052D02*
D03*
X21748Y109472D02*
D03*
X22004D02*
D03*
X22260D02*
D03*
X22516D02*
D03*
X22772D02*
D03*
X23028D02*
D03*
X23284D02*
D03*
X23540D02*
D03*
X23796D02*
D03*
X24052D02*
D03*
X52448Y111676D02*
D03*
X52704D02*
D03*
X52960D02*
D03*
X53216D02*
D03*
X53472D02*
D03*
X53728D02*
D03*
X53984D02*
D03*
X54240D02*
D03*
X54496D02*
D03*
X54752D02*
D03*
X52448Y109472D02*
D03*
X52704D02*
D03*
X52960D02*
D03*
X53216D02*
D03*
X53472D02*
D03*
X53728D02*
D03*
X53984D02*
D03*
X54240D02*
D03*
X54496D02*
D03*
X54752D02*
D03*
X58048Y111676D02*
D03*
X58304D02*
D03*
X58560D02*
D03*
X58816D02*
D03*
X59072D02*
D03*
X59328D02*
D03*
X59584D02*
D03*
X59840D02*
D03*
X60096D02*
D03*
X60352D02*
D03*
X58048Y109472D02*
D03*
X58304D02*
D03*
X58560D02*
D03*
X58816D02*
D03*
X59072D02*
D03*
X59328D02*
D03*
X59584D02*
D03*
X59840D02*
D03*
X60096D02*
D03*
X60352D02*
D03*
X55248Y111676D02*
D03*
X55504D02*
D03*
X55760D02*
D03*
X56016D02*
D03*
X56272D02*
D03*
X56528D02*
D03*
X56784D02*
D03*
X57040D02*
D03*
X57296D02*
D03*
X57552D02*
D03*
X55248Y109472D02*
D03*
X55504D02*
D03*
X55760D02*
D03*
X56016D02*
D03*
X56272D02*
D03*
X56528D02*
D03*
X56784D02*
D03*
X57040D02*
D03*
X57296D02*
D03*
X57552D02*
D03*
X85948Y111676D02*
D03*
X86204D02*
D03*
X86460D02*
D03*
X86716D02*
D03*
X86972D02*
D03*
X87228D02*
D03*
X87484D02*
D03*
X87740D02*
D03*
X87996D02*
D03*
X88252D02*
D03*
X85948Y109472D02*
D03*
X86204D02*
D03*
X86460D02*
D03*
X86716D02*
D03*
X86972D02*
D03*
X87228D02*
D03*
X87484D02*
D03*
X87740D02*
D03*
X87996D02*
D03*
X88252D02*
D03*
X91548Y111676D02*
D03*
X91804D02*
D03*
X92060D02*
D03*
X92316D02*
D03*
X92572D02*
D03*
X92828D02*
D03*
X93084D02*
D03*
X93340D02*
D03*
X93596D02*
D03*
X93852D02*
D03*
X91548Y109472D02*
D03*
X91804D02*
D03*
X92060D02*
D03*
X92316D02*
D03*
X92572D02*
D03*
X92828D02*
D03*
X93084D02*
D03*
X93340D02*
D03*
X93596D02*
D03*
X93852D02*
D03*
X88748Y111676D02*
D03*
X89004D02*
D03*
X89260D02*
D03*
X89516D02*
D03*
X89772D02*
D03*
X90028D02*
D03*
X90284D02*
D03*
X90540D02*
D03*
X90796D02*
D03*
X91052D02*
D03*
X88748Y109472D02*
D03*
X89004D02*
D03*
X89260D02*
D03*
X89516D02*
D03*
X89772D02*
D03*
X90028D02*
D03*
X90284D02*
D03*
X90540D02*
D03*
X90796D02*
D03*
X91052D02*
D03*
X119448Y111676D02*
D03*
X119704D02*
D03*
X119960D02*
D03*
X120216D02*
D03*
X120472D02*
D03*
X120728D02*
D03*
X120984D02*
D03*
X121240D02*
D03*
X121496D02*
D03*
X121752D02*
D03*
X119448Y109472D02*
D03*
X119704D02*
D03*
X119960D02*
D03*
X120216D02*
D03*
X120472D02*
D03*
X120728D02*
D03*
X120984D02*
D03*
X121240D02*
D03*
X121496D02*
D03*
X121752D02*
D03*
X125048Y111676D02*
D03*
X125304D02*
D03*
X125560D02*
D03*
X125816D02*
D03*
X126072D02*
D03*
X126328D02*
D03*
X126584D02*
D03*
X126840D02*
D03*
X127096D02*
D03*
X127352D02*
D03*
X125048Y109472D02*
D03*
X125304D02*
D03*
X125560D02*
D03*
X125816D02*
D03*
X126072D02*
D03*
X126328D02*
D03*
X126584D02*
D03*
X126840D02*
D03*
X127096D02*
D03*
X127352D02*
D03*
X122248Y111676D02*
D03*
X122504D02*
D03*
X122760D02*
D03*
X123016D02*
D03*
X123272D02*
D03*
X123528D02*
D03*
X123784D02*
D03*
X124040D02*
D03*
X124296D02*
D03*
X124552D02*
D03*
X122248Y109472D02*
D03*
X122504D02*
D03*
X122760D02*
D03*
X123016D02*
D03*
X123272D02*
D03*
X123528D02*
D03*
X123784D02*
D03*
X124040D02*
D03*
X124296D02*
D03*
X124552D02*
D03*
D80*
X17000Y23614D02*
D03*
X50500D02*
D03*
X84000D02*
D03*
X117500D02*
D03*
X17000Y45764D02*
D03*
X50500D02*
D03*
X84000D02*
D03*
X117500D02*
D03*
X17000Y67914D02*
D03*
X50500D02*
D03*
X84000D02*
D03*
X117500D02*
D03*
X17000Y90064D02*
D03*
X50500D02*
D03*
X84000D02*
D03*
X117500D02*
D03*
X17000Y112214D02*
D03*
X50500D02*
D03*
X84000D02*
D03*
X117500D02*
D03*
D81*
X16114Y21134D02*
D03*
X16705D02*
D03*
X17295D02*
D03*
X17886D02*
D03*
X49614D02*
D03*
X50205D02*
D03*
X50795D02*
D03*
X51386D02*
D03*
X83114D02*
D03*
X83705D02*
D03*
X84295D02*
D03*
X84886D02*
D03*
X116614D02*
D03*
X117205D02*
D03*
X117795D02*
D03*
X118386D02*
D03*
X16114Y43284D02*
D03*
X16705D02*
D03*
X17295D02*
D03*
X17886D02*
D03*
X49614D02*
D03*
X50205D02*
D03*
X50795D02*
D03*
X51386D02*
D03*
X83114D02*
D03*
X83705D02*
D03*
X84295D02*
D03*
X84886D02*
D03*
X116614D02*
D03*
X117205D02*
D03*
X117795D02*
D03*
X118386D02*
D03*
X16114Y65434D02*
D03*
X16705D02*
D03*
X17295D02*
D03*
X17886D02*
D03*
X49614D02*
D03*
X50205D02*
D03*
X50795D02*
D03*
X51386D02*
D03*
X83114D02*
D03*
X83705D02*
D03*
X84295D02*
D03*
X84886D02*
D03*
X116614D02*
D03*
X117205D02*
D03*
X117795D02*
D03*
X118386D02*
D03*
X16114Y87584D02*
D03*
X16705D02*
D03*
X17295D02*
D03*
X17886D02*
D03*
X49614D02*
D03*
X50205D02*
D03*
X50795D02*
D03*
X51386D02*
D03*
X83114D02*
D03*
X83705D02*
D03*
X84295D02*
D03*
X84886D02*
D03*
X116614D02*
D03*
X117205D02*
D03*
X117795D02*
D03*
X118386D02*
D03*
X16114Y109734D02*
D03*
X16705D02*
D03*
X17295D02*
D03*
X17886D02*
D03*
X49614D02*
D03*
X50205D02*
D03*
X50795D02*
D03*
X51386D02*
D03*
X83114D02*
D03*
X83705D02*
D03*
X84295D02*
D03*
X84886D02*
D03*
X116614D02*
D03*
X117205D02*
D03*
X117795D02*
D03*
X118386D02*
D03*
D82*
X18700Y19324D02*
D03*
X52200D02*
D03*
X85700D02*
D03*
X119200D02*
D03*
X18700Y41474D02*
D03*
X52200D02*
D03*
X85700D02*
D03*
X119200D02*
D03*
X18700Y63624D02*
D03*
X52200D02*
D03*
X85700D02*
D03*
X119200D02*
D03*
X18700Y85774D02*
D03*
X52200D02*
D03*
X85700D02*
D03*
X119200D02*
D03*
X18700Y107924D02*
D03*
X52200D02*
D03*
X85700D02*
D03*
X119200D02*
D03*
D83*
X18405Y19698D02*
D03*
X18602D02*
D03*
X18798D02*
D03*
X18995D02*
D03*
X18405Y18950D02*
D03*
X18602D02*
D03*
X18798D02*
D03*
X18995D02*
D03*
X51905Y19698D02*
D03*
X52102D02*
D03*
X52298D02*
D03*
X52495D02*
D03*
X51905Y18950D02*
D03*
X52102D02*
D03*
X52298D02*
D03*
X52495D02*
D03*
X85405Y19698D02*
D03*
X85602D02*
D03*
X85798D02*
D03*
X85995D02*
D03*
X85405Y18950D02*
D03*
X85602D02*
D03*
X85798D02*
D03*
X85995D02*
D03*
X118905Y19698D02*
D03*
X119102D02*
D03*
X119298D02*
D03*
X119495D02*
D03*
X118905Y18950D02*
D03*
X119102D02*
D03*
X119298D02*
D03*
X119495D02*
D03*
X18405Y41848D02*
D03*
X18602D02*
D03*
X18798D02*
D03*
X18995D02*
D03*
X18405Y41100D02*
D03*
X18602D02*
D03*
X18798D02*
D03*
X18995D02*
D03*
X51905Y41848D02*
D03*
X52102D02*
D03*
X52298D02*
D03*
X52495D02*
D03*
X51905Y41100D02*
D03*
X52102D02*
D03*
X52298D02*
D03*
X52495D02*
D03*
X85405Y41848D02*
D03*
X85602D02*
D03*
X85798D02*
D03*
X85995D02*
D03*
X85405Y41100D02*
D03*
X85602D02*
D03*
X85798D02*
D03*
X85995D02*
D03*
X118905Y41848D02*
D03*
X119102D02*
D03*
X119298D02*
D03*
X119495D02*
D03*
X118905Y41100D02*
D03*
X119102D02*
D03*
X119298D02*
D03*
X119495D02*
D03*
X18405Y63998D02*
D03*
X18602D02*
D03*
X18798D02*
D03*
X18995D02*
D03*
X18405Y63250D02*
D03*
X18602D02*
D03*
X18798D02*
D03*
X18995D02*
D03*
X51905Y63998D02*
D03*
X52102D02*
D03*
X52298D02*
D03*
X52495D02*
D03*
X51905Y63250D02*
D03*
X52102D02*
D03*
X52298D02*
D03*
X52495D02*
D03*
X85405Y63998D02*
D03*
X85602D02*
D03*
X85798D02*
D03*
X85995D02*
D03*
X85405Y63250D02*
D03*
X85602D02*
D03*
X85798D02*
D03*
X85995D02*
D03*
X118905Y63998D02*
D03*
X119102D02*
D03*
X119298D02*
D03*
X119495D02*
D03*
X118905Y63250D02*
D03*
X119102D02*
D03*
X119298D02*
D03*
X119495D02*
D03*
X18405Y86148D02*
D03*
X18602D02*
D03*
X18798D02*
D03*
X18995D02*
D03*
X18405Y85400D02*
D03*
X18602D02*
D03*
X18798D02*
D03*
X18995D02*
D03*
X51905Y86148D02*
D03*
X52102D02*
D03*
X52298D02*
D03*
X52495D02*
D03*
X51905Y85400D02*
D03*
X52102D02*
D03*
X52298D02*
D03*
X52495D02*
D03*
X85405Y86148D02*
D03*
X85602D02*
D03*
X85798D02*
D03*
X85995D02*
D03*
X85405Y85400D02*
D03*
X85602D02*
D03*
X85798D02*
D03*
X85995D02*
D03*
X118905Y86148D02*
D03*
X119102D02*
D03*
X119298D02*
D03*
X119495D02*
D03*
X118905Y85400D02*
D03*
X119102D02*
D03*
X119298D02*
D03*
X119495D02*
D03*
X18405Y108298D02*
D03*
X18602D02*
D03*
X18798D02*
D03*
X18995D02*
D03*
X18405Y107550D02*
D03*
X18602D02*
D03*
X18798D02*
D03*
X18995D02*
D03*
X51905Y108298D02*
D03*
X52102D02*
D03*
X52298D02*
D03*
X52495D02*
D03*
X51905Y107550D02*
D03*
X52102D02*
D03*
X52298D02*
D03*
X52495D02*
D03*
X85405Y108298D02*
D03*
X85602D02*
D03*
X85798D02*
D03*
X85995D02*
D03*
X85405Y107550D02*
D03*
X85602D02*
D03*
X85798D02*
D03*
X85995D02*
D03*
X118905Y108298D02*
D03*
X119102D02*
D03*
X119298D02*
D03*
X119495D02*
D03*
X118905Y107550D02*
D03*
X119102D02*
D03*
X119298D02*
D03*
X119495D02*
D03*
D84*
X25237Y26274D02*
D03*
X26063Y25900D02*
D03*
Y26648D02*
D03*
X58737Y26274D02*
D03*
X59563Y25900D02*
D03*
Y26648D02*
D03*
X92237Y26274D02*
D03*
X93063Y25900D02*
D03*
Y26648D02*
D03*
X125737Y26274D02*
D03*
X126563Y25900D02*
D03*
Y26648D02*
D03*
X25237Y48424D02*
D03*
X26063Y48050D02*
D03*
Y48798D02*
D03*
X58737Y48424D02*
D03*
X59563Y48050D02*
D03*
Y48798D02*
D03*
X92237Y48424D02*
D03*
X93063Y48050D02*
D03*
Y48798D02*
D03*
X125737Y48424D02*
D03*
X126563Y48050D02*
D03*
Y48798D02*
D03*
X25237Y70574D02*
D03*
X26063Y70200D02*
D03*
Y70948D02*
D03*
X58737Y70574D02*
D03*
X59563Y70200D02*
D03*
Y70948D02*
D03*
X92237Y70574D02*
D03*
X93063Y70200D02*
D03*
Y70948D02*
D03*
X125737Y70574D02*
D03*
X126563Y70200D02*
D03*
Y70948D02*
D03*
X25237Y92724D02*
D03*
X26063Y92350D02*
D03*
Y93098D02*
D03*
X58737Y92724D02*
D03*
X59563Y92350D02*
D03*
Y93098D02*
D03*
X92237Y92724D02*
D03*
X93063Y92350D02*
D03*
Y93098D02*
D03*
X125737Y92724D02*
D03*
X126563Y92350D02*
D03*
Y93098D02*
D03*
X25237Y114874D02*
D03*
X26063Y114500D02*
D03*
Y115248D02*
D03*
X58737Y114874D02*
D03*
X59563Y114500D02*
D03*
Y115248D02*
D03*
X92237Y114874D02*
D03*
X93063Y114500D02*
D03*
Y115248D02*
D03*
X125737Y114874D02*
D03*
X126563Y114500D02*
D03*
Y115248D02*
D03*
D85*
X17900Y18084D02*
D03*
X19100D02*
D03*
X51400D02*
D03*
X52600D02*
D03*
X84900D02*
D03*
X86100D02*
D03*
X118400D02*
D03*
X119600D02*
D03*
X17900Y40234D02*
D03*
X19100D02*
D03*
X51400D02*
D03*
X52600D02*
D03*
X84900D02*
D03*
X86100D02*
D03*
X118400D02*
D03*
X119600D02*
D03*
X17900Y62384D02*
D03*
X19100D02*
D03*
X51400D02*
D03*
X52600D02*
D03*
X84900D02*
D03*
X86100D02*
D03*
X118400D02*
D03*
X119600D02*
D03*
X17900Y84534D02*
D03*
X19100D02*
D03*
X51400D02*
D03*
X52600D02*
D03*
X84900D02*
D03*
X86100D02*
D03*
X118400D02*
D03*
X119600D02*
D03*
X17900Y106684D02*
D03*
X19100D02*
D03*
X51400D02*
D03*
X52600D02*
D03*
X84900D02*
D03*
X86100D02*
D03*
X118400D02*
D03*
X119600D02*
D03*
D86*
X31981Y27974D02*
D03*
X30919D02*
D03*
X18082Y27824D02*
D03*
X17019D02*
D03*
X65482Y27974D02*
D03*
X64419D02*
D03*
X51582Y27824D02*
D03*
X50518D02*
D03*
X98982Y27974D02*
D03*
X97919D02*
D03*
X85082Y27824D02*
D03*
X84018D02*
D03*
X132481Y27974D02*
D03*
X131419D02*
D03*
X118581Y27824D02*
D03*
X117519D02*
D03*
X31981Y50124D02*
D03*
X30919D02*
D03*
X18082Y49974D02*
D03*
X17019D02*
D03*
X65482Y50124D02*
D03*
X64419D02*
D03*
X51582Y49974D02*
D03*
X50518D02*
D03*
X98982Y50124D02*
D03*
X97919D02*
D03*
X85082Y49974D02*
D03*
X84018D02*
D03*
X132481Y50124D02*
D03*
X131419D02*
D03*
X118581Y49974D02*
D03*
X117519D02*
D03*
X31981Y72274D02*
D03*
X30919D02*
D03*
X18082Y72124D02*
D03*
X17019D02*
D03*
X65482Y72274D02*
D03*
X64419D02*
D03*
X51582Y72124D02*
D03*
X50518D02*
D03*
X98982Y72274D02*
D03*
X97919D02*
D03*
X85082Y72124D02*
D03*
X84018D02*
D03*
X132481Y72274D02*
D03*
X131419D02*
D03*
X118581Y72124D02*
D03*
X117519D02*
D03*
X31981Y94424D02*
D03*
X30919D02*
D03*
X18082Y94274D02*
D03*
X17019D02*
D03*
X65482Y94424D02*
D03*
X64419D02*
D03*
X51582Y94274D02*
D03*
X50518D02*
D03*
X98982Y94424D02*
D03*
X97919D02*
D03*
X85082Y94274D02*
D03*
X84018D02*
D03*
X132481Y94424D02*
D03*
X131419D02*
D03*
X118581Y94274D02*
D03*
X117519D02*
D03*
X31981Y116574D02*
D03*
X30919D02*
D03*
X18082Y116424D02*
D03*
X17019D02*
D03*
X65482Y116574D02*
D03*
X64419D02*
D03*
X51582Y116424D02*
D03*
X50518D02*
D03*
X98982Y116574D02*
D03*
X97919D02*
D03*
X85082Y116424D02*
D03*
X84018D02*
D03*
X132481Y116574D02*
D03*
X131419D02*
D03*
X118581Y116424D02*
D03*
X117519D02*
D03*
D87*
X19850Y17242D02*
D03*
Y18305D02*
D03*
X53350Y17242D02*
D03*
Y18305D02*
D03*
X86850Y17242D02*
D03*
Y18305D02*
D03*
X120350Y17242D02*
D03*
Y18305D02*
D03*
X19850Y39392D02*
D03*
Y40455D02*
D03*
X53350Y39392D02*
D03*
Y40455D02*
D03*
X86850Y39392D02*
D03*
Y40455D02*
D03*
X120350Y39392D02*
D03*
Y40455D02*
D03*
X19850Y61542D02*
D03*
Y62605D02*
D03*
X53350Y61542D02*
D03*
Y62605D02*
D03*
X86850Y61542D02*
D03*
Y62605D02*
D03*
X120350Y61542D02*
D03*
Y62605D02*
D03*
X19850Y83692D02*
D03*
Y84755D02*
D03*
X53350Y83692D02*
D03*
Y84755D02*
D03*
X86850Y83692D02*
D03*
Y84755D02*
D03*
X120350Y83692D02*
D03*
Y84755D02*
D03*
X19850Y105842D02*
D03*
Y106905D02*
D03*
X53350Y105842D02*
D03*
Y106905D02*
D03*
X86850Y105842D02*
D03*
Y106905D02*
D03*
X120350Y105842D02*
D03*
Y106905D02*
D03*
D88*
X41776Y22840D02*
D03*
Y22407D02*
D03*
Y21974D02*
D03*
Y21541D02*
D03*
Y21107D02*
D03*
Y20674D02*
D03*
Y20241D02*
D03*
Y19808D02*
D03*
X75276Y22840D02*
D03*
Y22407D02*
D03*
Y21974D02*
D03*
Y21541D02*
D03*
Y21107D02*
D03*
Y20674D02*
D03*
Y20241D02*
D03*
Y19808D02*
D03*
X108776Y22840D02*
D03*
Y22407D02*
D03*
Y21974D02*
D03*
Y21541D02*
D03*
Y21107D02*
D03*
Y20674D02*
D03*
Y20241D02*
D03*
Y19808D02*
D03*
X142276Y22840D02*
D03*
Y22407D02*
D03*
Y21974D02*
D03*
Y21541D02*
D03*
Y21107D02*
D03*
Y20674D02*
D03*
Y20241D02*
D03*
Y19808D02*
D03*
X41776Y44990D02*
D03*
Y44557D02*
D03*
Y44124D02*
D03*
Y43691D02*
D03*
Y43257D02*
D03*
Y42824D02*
D03*
Y42391D02*
D03*
Y41958D02*
D03*
X75276Y44990D02*
D03*
Y44557D02*
D03*
Y44124D02*
D03*
Y43691D02*
D03*
Y43257D02*
D03*
Y42824D02*
D03*
Y42391D02*
D03*
Y41958D02*
D03*
X108776Y44990D02*
D03*
Y44557D02*
D03*
Y44124D02*
D03*
Y43691D02*
D03*
Y43257D02*
D03*
Y42824D02*
D03*
Y42391D02*
D03*
Y41958D02*
D03*
X142276Y44990D02*
D03*
Y44557D02*
D03*
Y44124D02*
D03*
Y43691D02*
D03*
Y43257D02*
D03*
Y42824D02*
D03*
Y42391D02*
D03*
Y41958D02*
D03*
X41776Y67140D02*
D03*
Y66707D02*
D03*
Y66274D02*
D03*
Y65841D02*
D03*
Y65407D02*
D03*
Y64974D02*
D03*
Y64541D02*
D03*
Y64108D02*
D03*
X75276Y67140D02*
D03*
Y66707D02*
D03*
Y66274D02*
D03*
Y65841D02*
D03*
Y65407D02*
D03*
Y64974D02*
D03*
Y64541D02*
D03*
Y64108D02*
D03*
X108776Y67140D02*
D03*
Y66707D02*
D03*
Y66274D02*
D03*
Y65841D02*
D03*
Y65407D02*
D03*
Y64974D02*
D03*
Y64541D02*
D03*
Y64108D02*
D03*
X142276Y67140D02*
D03*
Y66707D02*
D03*
Y66274D02*
D03*
Y65841D02*
D03*
Y65407D02*
D03*
Y64974D02*
D03*
Y64541D02*
D03*
Y64108D02*
D03*
X41776Y89290D02*
D03*
Y88857D02*
D03*
Y88424D02*
D03*
Y87991D02*
D03*
Y87557D02*
D03*
Y87124D02*
D03*
Y86691D02*
D03*
Y86258D02*
D03*
X75276Y89290D02*
D03*
Y88857D02*
D03*
Y88424D02*
D03*
Y87991D02*
D03*
Y87557D02*
D03*
Y87124D02*
D03*
Y86691D02*
D03*
Y86258D02*
D03*
X108776Y89290D02*
D03*
Y88857D02*
D03*
Y88424D02*
D03*
Y87991D02*
D03*
Y87557D02*
D03*
Y87124D02*
D03*
Y86691D02*
D03*
Y86258D02*
D03*
X142276Y89290D02*
D03*
Y88857D02*
D03*
Y88424D02*
D03*
Y87991D02*
D03*
Y87557D02*
D03*
Y87124D02*
D03*
Y86691D02*
D03*
Y86258D02*
D03*
X41776Y111440D02*
D03*
Y111007D02*
D03*
Y110574D02*
D03*
Y110140D02*
D03*
Y109707D02*
D03*
Y109274D02*
D03*
Y108841D02*
D03*
Y108408D02*
D03*
X75276Y111440D02*
D03*
Y111007D02*
D03*
Y110574D02*
D03*
Y110140D02*
D03*
Y109707D02*
D03*
Y109274D02*
D03*
Y108841D02*
D03*
Y108408D02*
D03*
X108776Y111440D02*
D03*
Y111007D02*
D03*
Y110574D02*
D03*
Y110140D02*
D03*
Y109707D02*
D03*
Y109274D02*
D03*
Y108841D02*
D03*
Y108408D02*
D03*
X142276Y111440D02*
D03*
Y111007D02*
D03*
Y110574D02*
D03*
Y110140D02*
D03*
Y109707D02*
D03*
Y109274D02*
D03*
Y108841D02*
D03*
Y108408D02*
D03*
D89*
X42583Y23190D02*
D03*
X76083D02*
D03*
X109583D02*
D03*
X143083D02*
D03*
X42583Y45340D02*
D03*
X76083D02*
D03*
X109583D02*
D03*
X143083D02*
D03*
X42583Y67490D02*
D03*
X76083D02*
D03*
X109583D02*
D03*
X143083D02*
D03*
X42583Y89640D02*
D03*
X76083D02*
D03*
X109583D02*
D03*
X143083D02*
D03*
X42583Y111790D02*
D03*
X76083D02*
D03*
X109583D02*
D03*
X143083D02*
D03*
D90*
X42681Y17946D02*
D03*
X76181D02*
D03*
X109681D02*
D03*
X143181D02*
D03*
X42681Y40096D02*
D03*
X76181D02*
D03*
X109681D02*
D03*
X143181D02*
D03*
X42681Y62246D02*
D03*
X76181D02*
D03*
X109681D02*
D03*
X143181D02*
D03*
X42681Y84396D02*
D03*
X76181D02*
D03*
X109681D02*
D03*
X143181D02*
D03*
X42681Y106546D02*
D03*
X76181D02*
D03*
X109681D02*
D03*
X143181D02*
D03*
D91*
X39972Y23318D02*
D03*
X73472D02*
D03*
X106972D02*
D03*
X140472D02*
D03*
X39972Y45468D02*
D03*
X73472D02*
D03*
X106972D02*
D03*
X140472D02*
D03*
X39972Y67618D02*
D03*
X73472D02*
D03*
X106972D02*
D03*
X140472D02*
D03*
X39972Y89768D02*
D03*
X73472D02*
D03*
X106972D02*
D03*
X140472D02*
D03*
X39972Y111918D02*
D03*
X73472D02*
D03*
X106972D02*
D03*
X140472D02*
D03*
D92*
X37972Y23318D02*
D03*
X71472D02*
D03*
X104972D02*
D03*
X138472D02*
D03*
X37972Y45468D02*
D03*
X71472D02*
D03*
X104972D02*
D03*
X138472D02*
D03*
X37972Y67618D02*
D03*
X71472D02*
D03*
X104972D02*
D03*
X138472D02*
D03*
X37972Y89768D02*
D03*
X71472D02*
D03*
X104972D02*
D03*
X138472D02*
D03*
X37972Y111918D02*
D03*
X71472D02*
D03*
X104972D02*
D03*
X138472D02*
D03*
D93*
X37209Y17846D02*
D03*
X70709D02*
D03*
X104209D02*
D03*
X137709D02*
D03*
X37209Y39996D02*
D03*
X70709D02*
D03*
X104209D02*
D03*
X137709D02*
D03*
X37209Y62146D02*
D03*
X70709D02*
D03*
X104209D02*
D03*
X137709D02*
D03*
X37209Y84296D02*
D03*
X70709D02*
D03*
X104209D02*
D03*
X137709D02*
D03*
X37209Y106446D02*
D03*
X70709D02*
D03*
X104209D02*
D03*
X137709D02*
D03*
D94*
X39541Y17836D02*
D03*
X73041D02*
D03*
X106541D02*
D03*
X140041D02*
D03*
X39541Y39986D02*
D03*
X73041D02*
D03*
X106541D02*
D03*
X140041D02*
D03*
X39541Y62136D02*
D03*
X73041D02*
D03*
X106541D02*
D03*
X140041D02*
D03*
X39541Y84286D02*
D03*
X73041D02*
D03*
X106541D02*
D03*
X140041D02*
D03*
X39541Y106436D02*
D03*
X73041D02*
D03*
X106541D02*
D03*
X140041D02*
D03*
D95*
X37380Y23229D02*
D03*
X70880D02*
D03*
X104380D02*
D03*
X137880D02*
D03*
X37380Y45379D02*
D03*
X70880D02*
D03*
X104380D02*
D03*
X137880D02*
D03*
X37380Y67529D02*
D03*
X70880D02*
D03*
X104380D02*
D03*
X137880D02*
D03*
X37380Y89679D02*
D03*
X70880D02*
D03*
X104380D02*
D03*
X137880D02*
D03*
X37380Y111829D02*
D03*
X70880D02*
D03*
X104380D02*
D03*
X137880D02*
D03*
D96*
X37120Y23220D02*
D03*
X70620D02*
D03*
X104120D02*
D03*
X137620D02*
D03*
X37120Y45370D02*
D03*
X70620D02*
D03*
X104120D02*
D03*
X137620D02*
D03*
X37120Y67520D02*
D03*
X70620D02*
D03*
X104120D02*
D03*
X137620D02*
D03*
X37120Y89670D02*
D03*
X70620D02*
D03*
X104120D02*
D03*
X137620D02*
D03*
X37120Y111820D02*
D03*
X70620D02*
D03*
X104120D02*
D03*
X137620D02*
D03*
M02*
