G04 Layer_Color=13278208*
%FSLAX24Y24*%
%MOIN*%
G70*
G01*
G75*
%ADD63C,0.0100*%
%ADD219C,0.1575*%
D63*
X4724Y34064D02*
X5124D01*
X4924D01*
Y33465D01*
X5324D02*
Y33864D01*
X5524Y34064D01*
X5724Y33864D01*
Y33465D01*
Y33764D01*
X5324D01*
X5924Y34064D02*
Y33465D01*
X6224D01*
X6324Y33565D01*
Y33665D01*
X6224Y33764D01*
X5924D01*
X6224D01*
X6324Y33864D01*
Y33964D01*
X6224Y34064D01*
X5924D01*
X7124Y33465D02*
Y34064D01*
X7424D01*
X7523Y33964D01*
Y33764D01*
X7424Y33665D01*
X7124D01*
X7324D02*
X7523Y33465D01*
X7823D02*
X8023D01*
X8123Y33565D01*
Y33764D01*
X8023Y33864D01*
X7823D01*
X7723Y33764D01*
Y33565D01*
X7823Y33465D01*
X8323Y33864D02*
Y33565D01*
X8423Y33465D01*
X8723D01*
Y33864D01*
X9023Y33964D02*
Y33864D01*
X8923D01*
X9123D01*
X9023D01*
Y33565D01*
X9123Y33465D01*
X9723D02*
X9523D01*
X9423Y33565D01*
Y33764D01*
X9523Y33864D01*
X9723D01*
X9823Y33764D01*
Y33665D01*
X9423D01*
D219*
X3740Y32283D02*
X83661D01*
X3740Y38583D02*
X83661D01*
M02*
