G04 Layer_Color=16711935*
%FSLAX24Y24*%
%MOIN*%
G70*
G01*
G75*
%ADD129R,0.0296X0.0217*%
%ADD130R,0.0414X0.0257*%
%ADD134R,0.0493X0.0729*%
%ADD136R,0.0217X0.0296*%
%ADD137R,0.0296X0.0225*%
%ADD141C,0.0370*%
%ADD150R,0.0257X0.0414*%
%ADD159O,0.0375X0.0158*%
%ADD160O,0.0158X0.0375*%
%ADD171R,0.0232X0.0252*%
%ADD172R,0.0390X0.0409*%
%ADD177C,0.0080*%
%ADD178C,0.1005*%
%ADD179C,0.0946*%
%ADD180C,0.0060*%
%ADD181C,0.1340*%
%ADD182C,0.0572*%
%ADD183R,0.0926X0.0926*%
%ADD184C,0.0651*%
%ADD185R,0.0651X0.0651*%
%ADD186C,0.0556*%
%ADD187C,0.0623*%
%ADD188R,0.0651X0.0651*%
%ADD189C,0.0690*%
%ADD190C,0.0513*%
%ADD191R,0.0513X0.0513*%
%ADD192R,0.0690X0.0981*%
%ADD193R,0.0316X0.0178*%
%ADD194R,0.0193X0.0331*%
%ADD195R,0.0572X0.0296*%
%ADD196R,0.0375X0.0611*%
%ADD197R,0.0592X0.0769*%
%ADD198R,0.0517X0.0651*%
%ADD199R,0.0316X0.0903*%
%ADD200R,0.0316X0.0690*%
%ADD201R,0.0316X0.0572*%
%ADD202R,0.0296X0.0513*%
%ADD203R,0.0493X0.0237*%
%ADD204R,0.0513X0.0237*%
%ADD205R,0.0291X0.0154*%
%ADD206O,0.0291X0.0154*%
%ADD207R,0.0646X0.0173*%
%ADD208R,0.1044X0.0729*%
%ADD209R,0.0847X0.0847*%
%ADD210R,0.1399X0.0906*%
%ADD211R,0.0981X0.0690*%
%ADD212R,0.0178X0.0316*%
%ADD213R,0.0540X0.0304*%
%ADD214R,0.0906X0.1399*%
%ADD215R,0.0170X0.0395*%
%ADD216R,0.1005X0.0710*%
%ADD217R,0.0257X0.0257*%
G36*
X46963Y70064D02*
X46968Y70062D01*
X46972Y70061D01*
X46976Y70058D01*
X46980Y70055D01*
X46983Y70052D01*
X46985Y70048D01*
X46987Y70043D01*
X46988Y70039D01*
X46988Y70034D01*
Y69246D01*
X46988Y69242D01*
X46987Y69237D01*
X46985Y69233D01*
X46983Y69229D01*
X46980Y69225D01*
X46976Y69222D01*
X46972Y69220D01*
X46968Y69218D01*
X46963Y69217D01*
X46958Y69216D01*
X46571D01*
X46569Y69216D01*
X46569Y69216D01*
X46569Y69216D01*
X46567Y69215D01*
X46565Y69215D01*
X46565Y69215D01*
X46565Y69215D01*
X46562Y69214D01*
X46560Y69214D01*
X46560Y69214D01*
X46560Y69214D01*
X46558Y69215D01*
X46555Y69215D01*
X46555Y69215D01*
X46555Y69215D01*
X46553Y69215D01*
X46551Y69216D01*
X46551Y69216D01*
X46551Y69216D01*
X46549Y69217D01*
X46547Y69218D01*
X46546Y69218D01*
X46546Y69218D01*
X46544Y69219D01*
X46542Y69220D01*
X46542Y69220D01*
X46542Y69220D01*
X46541Y69222D01*
X46539Y69223D01*
X46539Y69223D01*
X46539Y69223D01*
X46537Y69225D01*
X46536Y69227D01*
X46536Y69227D01*
X46536Y69227D01*
X46535Y69229D01*
X46533Y69231D01*
X46503Y69289D01*
X46428Y69395D01*
X46335Y69484D01*
X46226Y69554D01*
X46106Y69602D01*
X45980Y69627D01*
X45850D01*
X45724Y69602D01*
X45604Y69554D01*
X45495Y69484D01*
X45402Y69395D01*
X45326Y69289D01*
X45297Y69231D01*
X45295Y69229D01*
X45294Y69227D01*
X45294Y69227D01*
X45294Y69227D01*
X45293Y69225D01*
X45291Y69223D01*
X45291Y69223D01*
X45291Y69223D01*
X45289Y69222D01*
X45288Y69220D01*
X45287Y69220D01*
X45287Y69220D01*
X45285Y69219D01*
X45283Y69218D01*
X45283Y69218D01*
X45283Y69218D01*
X45281Y69217D01*
X45279Y69216D01*
X45279Y69216D01*
X45279Y69216D01*
X45277Y69215D01*
X45275Y69215D01*
X45274Y69215D01*
X45274Y69215D01*
X45272Y69215D01*
X45270Y69214D01*
X44872D01*
X44867Y69215D01*
X44862Y69216D01*
X44858Y69218D01*
X44854Y69220D01*
X44850Y69223D01*
X44847Y69227D01*
X44845Y69231D01*
X44843Y69235D01*
X44842Y69240D01*
X44842Y69244D01*
Y70034D01*
X44842Y70039D01*
X44843Y70043D01*
X44845Y70048D01*
X44847Y70052D01*
X44850Y70055D01*
X44854Y70058D01*
X44858Y70061D01*
X44862Y70062D01*
X44867Y70064D01*
X44872Y70064D01*
X46958D01*
X46963Y70064D01*
D02*
G37*
G36*
X7593D02*
X7597Y70062D01*
X7602Y70061D01*
X7606Y70058D01*
X7609Y70055D01*
X7613Y70052D01*
X7615Y70048D01*
X7617Y70043D01*
X7618Y70039D01*
X7618Y70034D01*
Y69246D01*
X7618Y69242D01*
X7617Y69237D01*
X7615Y69233D01*
X7613Y69229D01*
X7609Y69225D01*
X7606Y69222D01*
X7602Y69220D01*
X7597Y69218D01*
X7593Y69217D01*
X7588Y69216D01*
X7201D01*
X7199Y69216D01*
X7199Y69216D01*
X7199Y69216D01*
X7197Y69215D01*
X7195Y69215D01*
X7195Y69215D01*
X7195Y69215D01*
X7192Y69214D01*
X7190Y69214D01*
X7190Y69214D01*
X7190Y69214D01*
X7188Y69215D01*
X7185Y69215D01*
X7185Y69215D01*
X7185Y69215D01*
X7183Y69215D01*
X7181Y69216D01*
X7181Y69216D01*
X7181Y69216D01*
X7179Y69217D01*
X7176Y69218D01*
X7176Y69218D01*
X7176Y69218D01*
X7174Y69219D01*
X7172Y69220D01*
X7172Y69220D01*
X7172Y69220D01*
X7171Y69222D01*
X7169Y69223D01*
X7169Y69223D01*
X7169Y69223D01*
X7167Y69225D01*
X7166Y69227D01*
X7166Y69227D01*
X7166Y69227D01*
X7165Y69229D01*
X7163Y69231D01*
X7133Y69289D01*
X7058Y69395D01*
X6965Y69484D01*
X6856Y69554D01*
X6736Y69602D01*
X6609Y69627D01*
X6480D01*
X6353Y69602D01*
X6234Y69554D01*
X6125Y69484D01*
X6032Y69395D01*
X5956Y69289D01*
X5927Y69231D01*
X5925Y69229D01*
X5924Y69227D01*
X5924Y69227D01*
X5924Y69227D01*
X5923Y69225D01*
X5921Y69223D01*
X5921Y69223D01*
X5921Y69223D01*
X5919Y69222D01*
X5917Y69220D01*
X5917Y69220D01*
X5917Y69220D01*
X5915Y69219D01*
X5913Y69218D01*
X5913Y69218D01*
X5913Y69218D01*
X5911Y69217D01*
X5909Y69216D01*
X5909Y69216D01*
X5909Y69216D01*
X5907Y69215D01*
X5904Y69215D01*
X5904Y69215D01*
X5904Y69215D01*
X5902Y69215D01*
X5900Y69214D01*
X5502D01*
X5497Y69215D01*
X5492Y69216D01*
X5488Y69218D01*
X5484Y69220D01*
X5480Y69223D01*
X5477Y69227D01*
X5475Y69231D01*
X5473Y69235D01*
X5472Y69240D01*
X5471Y69244D01*
Y70034D01*
X5472Y70039D01*
X5473Y70043D01*
X5475Y70048D01*
X5477Y70052D01*
X5480Y70055D01*
X5484Y70058D01*
X5488Y70061D01*
X5492Y70062D01*
X5497Y70064D01*
X5502Y70064D01*
X7588D01*
X7593Y70064D01*
D02*
G37*
G36*
X46963Y68688D02*
X46968Y68687D01*
X46972Y68685D01*
X46976Y68682D01*
X46980Y68679D01*
X46983Y68676D01*
X46985Y68672D01*
X46987Y68667D01*
X46988Y68663D01*
X46988Y68658D01*
Y67868D01*
X46988Y67864D01*
X46987Y67859D01*
X46985Y67855D01*
X46983Y67851D01*
X46980Y67847D01*
X46976Y67844D01*
X46972Y67842D01*
X46968Y67840D01*
X46963Y67839D01*
X46958Y67838D01*
X44872D01*
X44867Y67839D01*
X44862Y67840D01*
X44858Y67842D01*
X44854Y67844D01*
X44850Y67847D01*
X44847Y67851D01*
X44845Y67855D01*
X44843Y67859D01*
X44842Y67864D01*
X44842Y67868D01*
Y68656D01*
X44842Y68661D01*
X44843Y68665D01*
X44845Y68670D01*
X44847Y68674D01*
X44850Y68677D01*
X44854Y68680D01*
X44858Y68683D01*
X44862Y68685D01*
X44867Y68686D01*
X44872Y68686D01*
X45259D01*
X45260Y68687D01*
X45260Y68687D01*
X45261Y68687D01*
X45263Y68687D01*
X45265Y68688D01*
X45265Y68688D01*
X45265Y68688D01*
X45268Y68688D01*
X45270Y68688D01*
X45270Y68688D01*
X45270Y68688D01*
X45273Y68688D01*
X45274Y68688D01*
X45274Y68688D01*
X45275Y68688D01*
X45277Y68687D01*
X45279Y68687D01*
X45279Y68687D01*
X45279Y68687D01*
X45282Y68686D01*
X45283Y68685D01*
X45283Y68685D01*
X45283Y68685D01*
X45286Y68683D01*
X45287Y68682D01*
X45287Y68682D01*
X45288Y68682D01*
X45290Y68680D01*
X45291Y68679D01*
X45291Y68679D01*
X45291Y68679D01*
X45293Y68677D01*
X45294Y68676D01*
X45294Y68676D01*
X45294Y68676D01*
X45296Y68673D01*
X45297Y68672D01*
X45297Y68672D01*
X45297Y68672D01*
X45297Y68672D01*
X45326Y68614D01*
X45402Y68508D01*
X45495Y68418D01*
X45604Y68348D01*
X45724Y68300D01*
X45850Y68276D01*
X45980D01*
X46106Y68300D01*
X46226Y68348D01*
X46335Y68418D01*
X46428Y68508D01*
X46503Y68614D01*
X46533Y68672D01*
X46535Y68674D01*
X46536Y68676D01*
X46536Y68676D01*
X46536Y68676D01*
X46537Y68677D01*
X46539Y68679D01*
X46539Y68679D01*
X46539Y68679D01*
X46541Y68681D01*
X46542Y68682D01*
X46542Y68682D01*
X46542Y68682D01*
X46544Y68684D01*
X46546Y68685D01*
X46546Y68685D01*
X46547Y68685D01*
X46549Y68686D01*
X46551Y68687D01*
X46551Y68687D01*
X46551Y68687D01*
X46553Y68687D01*
X46555Y68688D01*
X46555Y68688D01*
X46555Y68688D01*
X46558Y68688D01*
X46560Y68688D01*
X46958Y68688D01*
X46963Y68688D01*
D02*
G37*
G36*
X7593D02*
X7597Y68687D01*
X7602Y68685D01*
X7606Y68682D01*
X7609Y68679D01*
X7613Y68676D01*
X7615Y68672D01*
X7617Y68667D01*
X7618Y68663D01*
X7618Y68658D01*
Y67868D01*
X7618Y67864D01*
X7617Y67859D01*
X7615Y67855D01*
X7613Y67851D01*
X7609Y67847D01*
X7606Y67844D01*
X7602Y67842D01*
X7597Y67840D01*
X7593Y67839D01*
X7588Y67838D01*
X5502D01*
X5497Y67839D01*
X5492Y67840D01*
X5488Y67842D01*
X5484Y67844D01*
X5480Y67847D01*
X5477Y67851D01*
X5475Y67855D01*
X5473Y67859D01*
X5472Y67864D01*
X5471Y67868D01*
Y68656D01*
X5472Y68661D01*
X5473Y68665D01*
X5475Y68670D01*
X5477Y68674D01*
X5480Y68677D01*
X5484Y68680D01*
X5488Y68683D01*
X5492Y68685D01*
X5497Y68686D01*
X5502Y68686D01*
X5889D01*
X5890Y68687D01*
X5890Y68687D01*
X5890Y68687D01*
X5893Y68687D01*
X5895Y68688D01*
X5895Y68688D01*
X5895Y68688D01*
X5898Y68688D01*
X5900Y68688D01*
X5900Y68688D01*
X5900Y68688D01*
X5903Y68688D01*
X5904Y68688D01*
X5904Y68688D01*
X5904Y68688D01*
X5907Y68687D01*
X5909Y68687D01*
X5909Y68687D01*
X5909Y68687D01*
X5912Y68686D01*
X5913Y68685D01*
X5913Y68685D01*
X5913Y68685D01*
X5916Y68683D01*
X5917Y68682D01*
X5917Y68682D01*
X5917Y68682D01*
X5920Y68680D01*
X5921Y68679D01*
X5921Y68679D01*
X5921Y68679D01*
X5923Y68677D01*
X5924Y68676D01*
X5924Y68676D01*
X5924Y68676D01*
X5925Y68673D01*
X5927Y68672D01*
X5927Y68672D01*
X5927Y68672D01*
X5927Y68672D01*
X5956Y68614D01*
X6032Y68508D01*
X6125Y68418D01*
X6234Y68348D01*
X6353Y68300D01*
X6480Y68276D01*
X6609D01*
X6736Y68300D01*
X6856Y68348D01*
X6965Y68418D01*
X7058Y68508D01*
X7133Y68614D01*
X7163Y68672D01*
X7164Y68674D01*
X7166Y68676D01*
X7166Y68676D01*
X7166Y68676D01*
X7167Y68677D01*
X7169Y68679D01*
X7169Y68679D01*
X7169Y68679D01*
X7170Y68681D01*
X7172Y68682D01*
X7172Y68682D01*
X7172Y68682D01*
X7174Y68684D01*
X7176Y68685D01*
X7176Y68685D01*
X7176Y68685D01*
X7179Y68686D01*
X7181Y68687D01*
X7181Y68687D01*
X7181Y68687D01*
X7183Y68687D01*
X7185Y68688D01*
X7185Y68688D01*
X7185Y68688D01*
X7188Y68688D01*
X7190Y68688D01*
X7588Y68688D01*
X7593Y68688D01*
D02*
G37*
G36*
X46963Y30694D02*
X46968Y30692D01*
X46972Y30691D01*
X46976Y30688D01*
X46980Y30685D01*
X46983Y30681D01*
X46985Y30677D01*
X46987Y30673D01*
X46988Y30668D01*
X46988Y30664D01*
Y29876D01*
X46988Y29872D01*
X46987Y29867D01*
X46985Y29863D01*
X46983Y29859D01*
X46980Y29855D01*
X46976Y29852D01*
X46972Y29850D01*
X46968Y29848D01*
X46963Y29847D01*
X46958Y29846D01*
X46571D01*
X46569Y29846D01*
X46569Y29846D01*
X46569Y29846D01*
X46567Y29845D01*
X46565Y29845D01*
X46565Y29845D01*
X46565Y29845D01*
X46562Y29844D01*
X46560Y29844D01*
X46560Y29844D01*
X46560Y29844D01*
X46558Y29844D01*
X46555Y29845D01*
X46555Y29845D01*
X46555Y29845D01*
X46553Y29845D01*
X46551Y29846D01*
X46551Y29846D01*
X46551Y29846D01*
X46549Y29847D01*
X46547Y29847D01*
X46546Y29848D01*
X46546Y29848D01*
X46544Y29849D01*
X46542Y29850D01*
X46542Y29850D01*
X46542Y29850D01*
X46541Y29852D01*
X46539Y29853D01*
X46539Y29853D01*
X46539Y29853D01*
X46537Y29855D01*
X46536Y29857D01*
X46536Y29857D01*
X46536Y29857D01*
X46535Y29859D01*
X46533Y29861D01*
X46503Y29919D01*
X46428Y30025D01*
X46335Y30114D01*
X46226Y30184D01*
X46106Y30232D01*
X45980Y30256D01*
X45850D01*
X45724Y30232D01*
X45604Y30184D01*
X45495Y30114D01*
X45402Y30025D01*
X45326Y29919D01*
X45297Y29861D01*
X45295Y29859D01*
X45294Y29857D01*
X45294Y29857D01*
X45294Y29857D01*
X45293Y29855D01*
X45291Y29853D01*
X45291Y29853D01*
X45291Y29853D01*
X45289Y29852D01*
X45288Y29850D01*
X45287Y29850D01*
X45287Y29850D01*
X45285Y29849D01*
X45283Y29848D01*
X45283Y29848D01*
X45283Y29847D01*
X45281Y29847D01*
X45279Y29846D01*
X45279Y29846D01*
X45279Y29846D01*
X45277Y29845D01*
X45275Y29845D01*
X45274Y29845D01*
X45274Y29845D01*
X45272Y29844D01*
X45270Y29844D01*
X44872D01*
X44867Y29845D01*
X44862Y29846D01*
X44858Y29848D01*
X44854Y29850D01*
X44850Y29853D01*
X44847Y29857D01*
X44845Y29861D01*
X44843Y29865D01*
X44842Y29870D01*
X44842Y29874D01*
Y30664D01*
X44842Y30668D01*
X44843Y30673D01*
X44845Y30677D01*
X44847Y30681D01*
X44850Y30685D01*
X44854Y30688D01*
X44858Y30691D01*
X44862Y30692D01*
X44867Y30694D01*
X44872Y30694D01*
X46958D01*
X46963Y30694D01*
D02*
G37*
G36*
X7593D02*
X7597Y30692D01*
X7602Y30691D01*
X7606Y30688D01*
X7609Y30685D01*
X7613Y30681D01*
X7615Y30677D01*
X7617Y30673D01*
X7618Y30668D01*
X7618Y30664D01*
Y29876D01*
X7618Y29872D01*
X7617Y29867D01*
X7615Y29863D01*
X7613Y29859D01*
X7609Y29855D01*
X7606Y29852D01*
X7602Y29850D01*
X7597Y29848D01*
X7593Y29847D01*
X7588Y29846D01*
X7201D01*
X7199Y29846D01*
X7199Y29846D01*
X7199Y29846D01*
X7197Y29845D01*
X7195Y29845D01*
X7195Y29845D01*
X7195Y29845D01*
X7192Y29844D01*
X7190Y29844D01*
X7190Y29844D01*
X7190Y29844D01*
X7188Y29844D01*
X7185Y29845D01*
X7185Y29845D01*
X7185Y29845D01*
X7183Y29845D01*
X7181Y29846D01*
X7181Y29846D01*
X7181Y29846D01*
X7179Y29847D01*
X7176Y29847D01*
X7176Y29848D01*
X7176Y29848D01*
X7174Y29849D01*
X7172Y29850D01*
X7172Y29850D01*
X7172Y29850D01*
X7171Y29852D01*
X7169Y29853D01*
X7169Y29853D01*
X7169Y29853D01*
X7167Y29855D01*
X7166Y29857D01*
X7166Y29857D01*
X7166Y29857D01*
X7165Y29859D01*
X7163Y29861D01*
X7133Y29919D01*
X7058Y30025D01*
X6965Y30114D01*
X6856Y30184D01*
X6736Y30232D01*
X6609Y30256D01*
X6480D01*
X6353Y30232D01*
X6234Y30184D01*
X6125Y30114D01*
X6032Y30025D01*
X5956Y29919D01*
X5927Y29861D01*
X5925Y29859D01*
X5924Y29857D01*
X5924Y29857D01*
X5924Y29857D01*
X5923Y29855D01*
X5921Y29853D01*
X5921Y29853D01*
X5921Y29853D01*
X5919Y29852D01*
X5917Y29850D01*
X5917Y29850D01*
X5917Y29850D01*
X5915Y29849D01*
X5913Y29848D01*
X5913Y29848D01*
X5913Y29847D01*
X5911Y29847D01*
X5909Y29846D01*
X5909Y29846D01*
X5909Y29846D01*
X5907Y29845D01*
X5904Y29845D01*
X5904Y29845D01*
X5904Y29845D01*
X5902Y29844D01*
X5900Y29844D01*
X5502D01*
X5497Y29845D01*
X5492Y29846D01*
X5488Y29848D01*
X5484Y29850D01*
X5480Y29853D01*
X5477Y29857D01*
X5475Y29861D01*
X5473Y29865D01*
X5472Y29870D01*
X5471Y29874D01*
Y30664D01*
X5472Y30668D01*
X5473Y30673D01*
X5475Y30677D01*
X5477Y30681D01*
X5480Y30685D01*
X5484Y30688D01*
X5488Y30691D01*
X5492Y30692D01*
X5497Y30694D01*
X5502Y30694D01*
X7588D01*
X7593Y30694D01*
D02*
G37*
G36*
X46963Y29318D02*
X46968Y29316D01*
X46972Y29315D01*
X46976Y29312D01*
X46980Y29309D01*
X46983Y29306D01*
X46985Y29302D01*
X46987Y29297D01*
X46988Y29293D01*
X46988Y29288D01*
Y28498D01*
X46988Y28494D01*
X46987Y28489D01*
X46985Y28485D01*
X46983Y28481D01*
X46980Y28477D01*
X46976Y28474D01*
X46972Y28472D01*
X46968Y28470D01*
X46963Y28469D01*
X46958Y28468D01*
X44872D01*
X44867Y28469D01*
X44862Y28470D01*
X44858Y28472D01*
X44854Y28474D01*
X44850Y28477D01*
X44847Y28481D01*
X44845Y28485D01*
X44843Y28489D01*
X44842Y28494D01*
X44842Y28498D01*
Y29286D01*
X44842Y29291D01*
X44843Y29295D01*
X44845Y29299D01*
X44847Y29304D01*
X44850Y29307D01*
X44854Y29310D01*
X44858Y29313D01*
X44862Y29314D01*
X44867Y29316D01*
X44872Y29316D01*
X45259D01*
X45260Y29316D01*
X45260Y29316D01*
X45261Y29316D01*
X45263Y29317D01*
X45265Y29318D01*
X45265Y29318D01*
X45265Y29318D01*
X45268Y29318D01*
X45270Y29318D01*
X45270Y29318D01*
X45270Y29318D01*
X45273Y29318D01*
X45274Y29318D01*
X45274Y29318D01*
X45275Y29318D01*
X45277Y29317D01*
X45279Y29316D01*
X45279Y29316D01*
X45279Y29316D01*
X45282Y29315D01*
X45283Y29315D01*
X45283Y29315D01*
X45283Y29315D01*
X45286Y29313D01*
X45287Y29312D01*
X45287Y29312D01*
X45288Y29312D01*
X45290Y29310D01*
X45291Y29309D01*
X45291Y29309D01*
X45291Y29309D01*
X45293Y29307D01*
X45294Y29306D01*
X45294Y29306D01*
X45294Y29306D01*
X45296Y29303D01*
X45297Y29302D01*
X45297Y29302D01*
X45297Y29302D01*
X45297Y29302D01*
X45326Y29243D01*
X45402Y29138D01*
X45495Y29048D01*
X45604Y28978D01*
X45724Y28930D01*
X45850Y28906D01*
X45980D01*
X46106Y28930D01*
X46226Y28978D01*
X46335Y29048D01*
X46428Y29138D01*
X46503Y29243D01*
X46533Y29302D01*
X46535Y29304D01*
X46536Y29306D01*
X46536Y29306D01*
X46536Y29306D01*
X46537Y29307D01*
X46539Y29309D01*
X46539Y29309D01*
X46539Y29309D01*
X46541Y29311D01*
X46542Y29312D01*
X46542Y29312D01*
X46542Y29312D01*
X46544Y29313D01*
X46546Y29315D01*
X46546Y29315D01*
X46547Y29315D01*
X46549Y29316D01*
X46551Y29316D01*
X46551Y29316D01*
X46551Y29316D01*
X46553Y29317D01*
X46555Y29318D01*
X46555Y29318D01*
X46555Y29318D01*
X46558Y29318D01*
X46560Y29318D01*
X46958Y29318D01*
X46963Y29318D01*
D02*
G37*
G36*
X7593D02*
X7597Y29316D01*
X7602Y29315D01*
X7606Y29312D01*
X7609Y29309D01*
X7613Y29306D01*
X7615Y29302D01*
X7617Y29297D01*
X7618Y29293D01*
X7618Y29288D01*
Y28498D01*
X7618Y28494D01*
X7617Y28489D01*
X7615Y28485D01*
X7613Y28481D01*
X7609Y28477D01*
X7606Y28474D01*
X7602Y28472D01*
X7597Y28470D01*
X7593Y28469D01*
X7588Y28468D01*
X5502D01*
X5497Y28469D01*
X5492Y28470D01*
X5488Y28472D01*
X5484Y28474D01*
X5480Y28477D01*
X5477Y28481D01*
X5475Y28485D01*
X5473Y28489D01*
X5472Y28494D01*
X5471Y28498D01*
Y29286D01*
X5472Y29291D01*
X5473Y29295D01*
X5475Y29299D01*
X5477Y29304D01*
X5480Y29307D01*
X5484Y29310D01*
X5488Y29313D01*
X5492Y29314D01*
X5497Y29316D01*
X5502Y29316D01*
X5889D01*
X5890Y29316D01*
X5890Y29316D01*
X5890Y29316D01*
X5893Y29317D01*
X5895Y29318D01*
X5895Y29318D01*
X5895Y29318D01*
X5898Y29318D01*
X5900Y29318D01*
X5900Y29318D01*
X5900Y29318D01*
X5903Y29318D01*
X5904Y29318D01*
X5904Y29318D01*
X5904Y29318D01*
X5907Y29317D01*
X5909Y29316D01*
X5909Y29316D01*
X5909Y29316D01*
X5912Y29315D01*
X5913Y29315D01*
X5913Y29315D01*
X5913Y29315D01*
X5916Y29313D01*
X5917Y29312D01*
X5917Y29312D01*
X5917Y29312D01*
X5920Y29310D01*
X5921Y29309D01*
X5921Y29309D01*
X5921Y29309D01*
X5923Y29307D01*
X5924Y29306D01*
X5924Y29306D01*
X5924Y29306D01*
X5925Y29303D01*
X5927Y29302D01*
X5927Y29302D01*
X5927Y29302D01*
X5927Y29302D01*
X5956Y29243D01*
X6032Y29138D01*
X6125Y29048D01*
X6234Y28978D01*
X6353Y28930D01*
X6480Y28906D01*
X6609D01*
X6736Y28930D01*
X6856Y28978D01*
X6965Y29048D01*
X7058Y29138D01*
X7133Y29243D01*
X7163Y29302D01*
X7164Y29304D01*
X7166Y29306D01*
X7166Y29306D01*
X7166Y29306D01*
X7167Y29307D01*
X7169Y29309D01*
X7169Y29309D01*
X7169Y29309D01*
X7170Y29311D01*
X7172Y29312D01*
X7172Y29312D01*
X7172Y29312D01*
X7174Y29313D01*
X7176Y29315D01*
X7176Y29315D01*
X7176Y29315D01*
X7179Y29316D01*
X7181Y29316D01*
X7181Y29316D01*
X7181Y29316D01*
X7183Y29317D01*
X7185Y29318D01*
X7185Y29318D01*
X7185Y29318D01*
X7188Y29318D01*
X7190Y29318D01*
X7588Y29318D01*
X7593Y29318D01*
D02*
G37*
D129*
X38932Y19429D02*
D03*
Y19783D02*
D03*
X30582Y7623D02*
D03*
Y7977D02*
D03*
X28982Y6723D02*
D03*
Y7077D02*
D03*
X28632Y6723D02*
D03*
Y7077D02*
D03*
X27782D02*
D03*
Y6723D02*
D03*
X12729Y8827D02*
D03*
Y8473D02*
D03*
X9532Y13227D02*
D03*
Y12873D02*
D03*
X9582Y17927D02*
D03*
Y17573D02*
D03*
X10222Y29968D02*
D03*
Y29614D02*
D03*
X9822D02*
D03*
Y29968D02*
D03*
X17682Y29977D02*
D03*
Y29623D02*
D03*
X22882Y29827D02*
D03*
Y29473D02*
D03*
X24982Y22827D02*
D03*
Y22473D02*
D03*
X26582Y22223D02*
D03*
Y22577D02*
D03*
X27332Y22223D02*
D03*
Y22577D02*
D03*
X22432Y17127D02*
D03*
Y16773D02*
D03*
X25732Y17127D02*
D03*
Y16773D02*
D03*
Y17523D02*
D03*
Y17877D02*
D03*
X39232Y26623D02*
D03*
Y26977D02*
D03*
X38832D02*
D03*
Y26623D02*
D03*
X38432Y26977D02*
D03*
Y26623D02*
D03*
X38032D02*
D03*
Y26977D02*
D03*
X37482Y26623D02*
D03*
Y26977D02*
D03*
X37082D02*
D03*
Y26623D02*
D03*
X36682Y26977D02*
D03*
Y26623D02*
D03*
X36282D02*
D03*
Y26977D02*
D03*
X35732D02*
D03*
Y26623D02*
D03*
X35332D02*
D03*
Y26977D02*
D03*
X30979Y26677D02*
D03*
Y26323D02*
D03*
X33068Y16990D02*
D03*
Y17344D02*
D03*
X32632Y16723D02*
D03*
Y17077D02*
D03*
X32232Y16723D02*
D03*
Y17077D02*
D03*
X31632Y16723D02*
D03*
Y17077D02*
D03*
X31032Y16723D02*
D03*
Y17077D02*
D03*
X30682Y16723D02*
D03*
Y17077D02*
D03*
X31032Y19777D02*
D03*
Y19423D02*
D03*
X28332Y22223D02*
D03*
Y22577D02*
D03*
X27982Y22223D02*
D03*
Y22577D02*
D03*
X26282Y25677D02*
D03*
Y25323D02*
D03*
X27482Y25677D02*
D03*
Y25323D02*
D03*
X28032Y25677D02*
D03*
Y25323D02*
D03*
X18282Y17127D02*
D03*
Y16773D02*
D03*
X16982Y29977D02*
D03*
Y29623D02*
D03*
X17332Y29977D02*
D03*
Y29623D02*
D03*
X16632Y29977D02*
D03*
Y29623D02*
D03*
X78302Y19429D02*
D03*
Y19783D02*
D03*
X69952Y7623D02*
D03*
Y7977D02*
D03*
X68352Y6723D02*
D03*
Y7077D02*
D03*
X68002Y6723D02*
D03*
Y7077D02*
D03*
X67152D02*
D03*
Y6723D02*
D03*
X52099Y8827D02*
D03*
Y8473D02*
D03*
X48902Y13227D02*
D03*
Y12873D02*
D03*
X48952Y17927D02*
D03*
Y17573D02*
D03*
X49592Y29968D02*
D03*
Y29614D02*
D03*
X49192D02*
D03*
Y29968D02*
D03*
X57052Y29977D02*
D03*
Y29623D02*
D03*
X62252Y29827D02*
D03*
Y29473D02*
D03*
X64352Y22827D02*
D03*
Y22473D02*
D03*
X65952Y22223D02*
D03*
Y22577D02*
D03*
X66702Y22223D02*
D03*
Y22577D02*
D03*
X61802Y17127D02*
D03*
Y16773D02*
D03*
X65102Y17127D02*
D03*
Y16773D02*
D03*
Y17523D02*
D03*
Y17877D02*
D03*
X78602Y26623D02*
D03*
Y26977D02*
D03*
X78202D02*
D03*
Y26623D02*
D03*
X77802Y26977D02*
D03*
Y26623D02*
D03*
X77402D02*
D03*
Y26977D02*
D03*
X76852Y26623D02*
D03*
Y26977D02*
D03*
X76452D02*
D03*
Y26623D02*
D03*
X76052Y26977D02*
D03*
Y26623D02*
D03*
X75652D02*
D03*
Y26977D02*
D03*
X75102D02*
D03*
Y26623D02*
D03*
X74702D02*
D03*
Y26977D02*
D03*
X70349Y26677D02*
D03*
Y26323D02*
D03*
X72438Y16990D02*
D03*
Y17344D02*
D03*
X72002Y16723D02*
D03*
Y17077D02*
D03*
X71602Y16723D02*
D03*
Y17077D02*
D03*
X71002Y16723D02*
D03*
Y17077D02*
D03*
X70402Y16723D02*
D03*
Y17077D02*
D03*
X70052Y16723D02*
D03*
Y17077D02*
D03*
X70402Y19777D02*
D03*
Y19423D02*
D03*
X67702Y22223D02*
D03*
Y22577D02*
D03*
X67352Y22223D02*
D03*
Y22577D02*
D03*
X65652Y25677D02*
D03*
Y25323D02*
D03*
X66852Y25677D02*
D03*
Y25323D02*
D03*
X67402Y25677D02*
D03*
Y25323D02*
D03*
X57652Y17127D02*
D03*
Y16773D02*
D03*
X56352Y29977D02*
D03*
Y29623D02*
D03*
X56702Y29977D02*
D03*
Y29623D02*
D03*
X56002Y29977D02*
D03*
Y29623D02*
D03*
X38932Y58799D02*
D03*
Y59154D02*
D03*
X30582Y46993D02*
D03*
Y47347D02*
D03*
X28982Y46093D02*
D03*
Y46447D02*
D03*
X28632Y46093D02*
D03*
Y46447D02*
D03*
X27782D02*
D03*
Y46093D02*
D03*
X12729Y48197D02*
D03*
Y47843D02*
D03*
X9532Y52597D02*
D03*
Y52243D02*
D03*
X9582Y57297D02*
D03*
Y56943D02*
D03*
X10222Y69338D02*
D03*
Y68984D02*
D03*
X9822D02*
D03*
Y69338D02*
D03*
X17682Y69347D02*
D03*
Y68993D02*
D03*
X22882Y69197D02*
D03*
Y68843D02*
D03*
X24982Y62197D02*
D03*
Y61843D02*
D03*
X26582Y61593D02*
D03*
Y61947D02*
D03*
X27332Y61593D02*
D03*
Y61947D02*
D03*
X22432Y56497D02*
D03*
Y56143D02*
D03*
X25732Y56497D02*
D03*
Y56143D02*
D03*
Y56893D02*
D03*
Y57247D02*
D03*
X39232Y65993D02*
D03*
Y66347D02*
D03*
X38832D02*
D03*
Y65993D02*
D03*
X38432Y66347D02*
D03*
Y65993D02*
D03*
X38032D02*
D03*
Y66347D02*
D03*
X37482Y65993D02*
D03*
Y66347D02*
D03*
X37082D02*
D03*
Y65993D02*
D03*
X36682Y66347D02*
D03*
Y65993D02*
D03*
X36282D02*
D03*
Y66347D02*
D03*
X35732D02*
D03*
Y65993D02*
D03*
X35332D02*
D03*
Y66347D02*
D03*
X30979Y66047D02*
D03*
Y65693D02*
D03*
X33068Y56360D02*
D03*
Y56715D02*
D03*
X32632Y56093D02*
D03*
Y56447D02*
D03*
X32232Y56093D02*
D03*
Y56447D02*
D03*
X31632Y56093D02*
D03*
Y56447D02*
D03*
X31032Y56093D02*
D03*
Y56447D02*
D03*
X30682Y56093D02*
D03*
Y56447D02*
D03*
X31032Y59147D02*
D03*
Y58793D02*
D03*
X28332Y61593D02*
D03*
Y61947D02*
D03*
X27982Y61593D02*
D03*
Y61947D02*
D03*
X26282Y65047D02*
D03*
Y64693D02*
D03*
X27482Y65047D02*
D03*
Y64693D02*
D03*
X28032Y65047D02*
D03*
Y64693D02*
D03*
X18282Y56497D02*
D03*
Y56143D02*
D03*
X16982Y69347D02*
D03*
Y68993D02*
D03*
X17332Y69347D02*
D03*
Y68993D02*
D03*
X16632Y69347D02*
D03*
Y68993D02*
D03*
X78302Y58799D02*
D03*
Y59154D02*
D03*
X69952Y46993D02*
D03*
Y47347D02*
D03*
X68352Y46093D02*
D03*
Y46447D02*
D03*
X68002Y46093D02*
D03*
Y46447D02*
D03*
X67152D02*
D03*
Y46093D02*
D03*
X52099Y48197D02*
D03*
Y47843D02*
D03*
X48902Y52597D02*
D03*
Y52243D02*
D03*
X48952Y57297D02*
D03*
Y56943D02*
D03*
X49592Y69338D02*
D03*
Y68984D02*
D03*
X49192D02*
D03*
Y69338D02*
D03*
X57052Y69347D02*
D03*
Y68993D02*
D03*
X62252Y69197D02*
D03*
Y68843D02*
D03*
X64352Y62197D02*
D03*
Y61843D02*
D03*
X65952Y61593D02*
D03*
Y61947D02*
D03*
X66702Y61593D02*
D03*
Y61947D02*
D03*
X61802Y56497D02*
D03*
Y56143D02*
D03*
X65102Y56497D02*
D03*
Y56143D02*
D03*
Y56893D02*
D03*
Y57247D02*
D03*
X78602Y65993D02*
D03*
Y66347D02*
D03*
X78202D02*
D03*
Y65993D02*
D03*
X77802Y66347D02*
D03*
Y65993D02*
D03*
X77402D02*
D03*
Y66347D02*
D03*
X76852Y65993D02*
D03*
Y66347D02*
D03*
X76452D02*
D03*
Y65993D02*
D03*
X76052Y66347D02*
D03*
Y65993D02*
D03*
X75652D02*
D03*
Y66347D02*
D03*
X75102D02*
D03*
Y65993D02*
D03*
X74702D02*
D03*
Y66347D02*
D03*
X70349Y66047D02*
D03*
Y65693D02*
D03*
X72438Y56360D02*
D03*
Y56715D02*
D03*
X72002Y56093D02*
D03*
Y56447D02*
D03*
X71602Y56093D02*
D03*
Y56447D02*
D03*
X71002Y56093D02*
D03*
Y56447D02*
D03*
X70402Y56093D02*
D03*
Y56447D02*
D03*
X70052Y56093D02*
D03*
Y56447D02*
D03*
X70402Y59147D02*
D03*
Y58793D02*
D03*
X67702Y61593D02*
D03*
Y61947D02*
D03*
X67352Y61593D02*
D03*
Y61947D02*
D03*
X65652Y65047D02*
D03*
Y64693D02*
D03*
X66852Y65047D02*
D03*
Y64693D02*
D03*
X67402Y65047D02*
D03*
Y64693D02*
D03*
X57652Y56497D02*
D03*
Y56143D02*
D03*
X56352Y69347D02*
D03*
Y68993D02*
D03*
X56702Y69347D02*
D03*
Y68993D02*
D03*
X56002Y69347D02*
D03*
Y68993D02*
D03*
D130*
X10082Y17305D02*
D03*
Y17895D02*
D03*
X8222Y29846D02*
D03*
Y30436D02*
D03*
X7979Y28295D02*
D03*
Y27705D02*
D03*
X12132Y27555D02*
D03*
Y28145D02*
D03*
X13063Y28133D02*
D03*
Y27542D02*
D03*
X15782Y30245D02*
D03*
Y29655D02*
D03*
X20532Y30295D02*
D03*
Y29705D02*
D03*
X21932Y16555D02*
D03*
Y17145D02*
D03*
X25232Y16505D02*
D03*
Y17095D02*
D03*
X30479Y26105D02*
D03*
Y26695D02*
D03*
X18832Y16555D02*
D03*
Y17145D02*
D03*
X49452Y17305D02*
D03*
Y17895D02*
D03*
X47592Y29846D02*
D03*
Y30436D02*
D03*
X47349Y28295D02*
D03*
Y27705D02*
D03*
X51502Y27555D02*
D03*
Y28145D02*
D03*
X52433Y28133D02*
D03*
Y27542D02*
D03*
X55152Y30245D02*
D03*
Y29655D02*
D03*
X59902Y30295D02*
D03*
Y29705D02*
D03*
X61302Y16555D02*
D03*
Y17145D02*
D03*
X64602Y16505D02*
D03*
Y17095D02*
D03*
X69849Y26105D02*
D03*
Y26695D02*
D03*
X58202Y16555D02*
D03*
Y17145D02*
D03*
X10082Y56675D02*
D03*
Y57265D02*
D03*
X8222Y69216D02*
D03*
Y69806D02*
D03*
X7979Y67665D02*
D03*
Y67075D02*
D03*
X12132Y66925D02*
D03*
Y67515D02*
D03*
X13063Y67503D02*
D03*
Y66912D02*
D03*
X15782Y69615D02*
D03*
Y69025D02*
D03*
X20532Y69665D02*
D03*
Y69075D02*
D03*
X21932Y55925D02*
D03*
Y56515D02*
D03*
X25232Y55875D02*
D03*
Y56465D02*
D03*
X30479Y65475D02*
D03*
Y66065D02*
D03*
X18832Y55925D02*
D03*
Y56515D02*
D03*
X49452Y56675D02*
D03*
Y57265D02*
D03*
X47592Y69216D02*
D03*
Y69806D02*
D03*
X47349Y67665D02*
D03*
Y67075D02*
D03*
X51502Y66925D02*
D03*
Y67515D02*
D03*
X52433Y67503D02*
D03*
Y66912D02*
D03*
X55152Y69615D02*
D03*
Y69025D02*
D03*
X59902Y69665D02*
D03*
Y69075D02*
D03*
X61302Y55925D02*
D03*
Y56515D02*
D03*
X64602Y55875D02*
D03*
Y56465D02*
D03*
X69849Y65475D02*
D03*
Y66065D02*
D03*
X58202Y55925D02*
D03*
Y56515D02*
D03*
D134*
X11498Y30500D02*
D03*
X12561D02*
D03*
X7998Y26950D02*
D03*
X9061D02*
D03*
X9104Y28991D02*
D03*
X8041D02*
D03*
X50868Y30500D02*
D03*
X51931D02*
D03*
X47368Y26950D02*
D03*
X48431D02*
D03*
X48474Y28991D02*
D03*
X47411D02*
D03*
X11498Y69870D02*
D03*
X12561D02*
D03*
X7998Y66320D02*
D03*
X9061D02*
D03*
X9104Y68361D02*
D03*
X8041D02*
D03*
X50868Y69870D02*
D03*
X51931D02*
D03*
X47368Y66320D02*
D03*
X48431D02*
D03*
X48474Y68361D02*
D03*
X47411D02*
D03*
D136*
X11352Y31200D02*
D03*
X11706D02*
D03*
X26609Y14100D02*
D03*
X26255D02*
D03*
X39809Y20306D02*
D03*
X39455D02*
D03*
X38055Y21056D02*
D03*
X38409D02*
D03*
X30555Y9000D02*
D03*
X30909D02*
D03*
X27755Y9150D02*
D03*
X28109D02*
D03*
X12224Y8178D02*
D03*
X12578D02*
D03*
X11156Y8200D02*
D03*
X10802D02*
D03*
X9959Y16350D02*
D03*
X9605D02*
D03*
X9959Y19500D02*
D03*
X9605D02*
D03*
X9918Y30331D02*
D03*
X10272D02*
D03*
X8102Y25700D02*
D03*
X8456D02*
D03*
X20905Y28700D02*
D03*
X21259D02*
D03*
X25555Y22900D02*
D03*
X25909D02*
D03*
X26305Y18300D02*
D03*
X26659D02*
D03*
X27655Y15050D02*
D03*
X28009D02*
D03*
X27659Y13000D02*
D03*
X27305D02*
D03*
X28609Y16700D02*
D03*
X28255D02*
D03*
X27955Y17700D02*
D03*
X28309D02*
D03*
X30005Y17000D02*
D03*
X30359D02*
D03*
X30005Y17350D02*
D03*
X30359D02*
D03*
X30005Y17700D02*
D03*
X30359D02*
D03*
X33059Y19350D02*
D03*
X32705D02*
D03*
X29809Y20050D02*
D03*
X29455D02*
D03*
X28809Y19950D02*
D03*
X28455D02*
D03*
X29009Y22850D02*
D03*
X28655D02*
D03*
X25555Y23850D02*
D03*
X25909D02*
D03*
X25555Y24650D02*
D03*
X25909D02*
D03*
X25555Y25050D02*
D03*
X25909D02*
D03*
X25555Y25500D02*
D03*
X25909D02*
D03*
X29009Y24950D02*
D03*
X28655D02*
D03*
X18759Y14000D02*
D03*
X18405D02*
D03*
X18759Y14800D02*
D03*
X18405D02*
D03*
X18909Y27750D02*
D03*
X18555D02*
D03*
X18909Y28200D02*
D03*
X18555D02*
D03*
X50722Y31200D02*
D03*
X51076D02*
D03*
X65980Y14100D02*
D03*
X65625D02*
D03*
X79180Y20306D02*
D03*
X78825D02*
D03*
X77425Y21056D02*
D03*
X77780D02*
D03*
X69925Y9000D02*
D03*
X70280D02*
D03*
X67125Y9150D02*
D03*
X67480D02*
D03*
X51594Y8178D02*
D03*
X51948D02*
D03*
X50526Y8200D02*
D03*
X50172D02*
D03*
X49330Y16350D02*
D03*
X48975D02*
D03*
X49330Y19500D02*
D03*
X48975D02*
D03*
X49288Y30331D02*
D03*
X49642D02*
D03*
X47472Y25700D02*
D03*
X47826D02*
D03*
X60275Y28700D02*
D03*
X60630D02*
D03*
X64925Y22900D02*
D03*
X65280D02*
D03*
X65675Y18300D02*
D03*
X66030D02*
D03*
X67025Y15050D02*
D03*
X67380D02*
D03*
X67030Y13000D02*
D03*
X66675D02*
D03*
X67980Y16700D02*
D03*
X67625D02*
D03*
X67325Y17700D02*
D03*
X67680D02*
D03*
X69375Y17000D02*
D03*
X69730D02*
D03*
X69375Y17350D02*
D03*
X69730D02*
D03*
X69375Y17700D02*
D03*
X69730D02*
D03*
X72430Y19350D02*
D03*
X72075D02*
D03*
X69180Y20050D02*
D03*
X68825D02*
D03*
X68180Y19950D02*
D03*
X67825D02*
D03*
X68380Y22850D02*
D03*
X68025D02*
D03*
X64925Y23850D02*
D03*
X65280D02*
D03*
X64925Y24650D02*
D03*
X65280D02*
D03*
X64925Y25050D02*
D03*
X65280D02*
D03*
X64925Y25500D02*
D03*
X65280D02*
D03*
X68380Y24950D02*
D03*
X68025D02*
D03*
X58130Y14000D02*
D03*
X57775D02*
D03*
X58130Y14800D02*
D03*
X57775D02*
D03*
X58280Y27750D02*
D03*
X57925D02*
D03*
X58280Y28200D02*
D03*
X57925D02*
D03*
X11352Y70570D02*
D03*
X11706D02*
D03*
X26609Y53470D02*
D03*
X26255D02*
D03*
X39809Y59676D02*
D03*
X39455D02*
D03*
X38055Y60426D02*
D03*
X38409D02*
D03*
X30555Y48370D02*
D03*
X30909D02*
D03*
X27755Y48520D02*
D03*
X28109D02*
D03*
X12224Y47548D02*
D03*
X12578D02*
D03*
X11156Y47570D02*
D03*
X10802D02*
D03*
X9959Y55720D02*
D03*
X9605D02*
D03*
X9959Y58870D02*
D03*
X9605D02*
D03*
X9918Y69701D02*
D03*
X10272D02*
D03*
X8102Y65070D02*
D03*
X8456D02*
D03*
X20905Y68070D02*
D03*
X21259D02*
D03*
X25555Y62270D02*
D03*
X25909D02*
D03*
X26305Y57670D02*
D03*
X26659D02*
D03*
X27655Y54420D02*
D03*
X28009D02*
D03*
X27659Y52370D02*
D03*
X27305D02*
D03*
X28609Y56070D02*
D03*
X28255D02*
D03*
X27955Y57070D02*
D03*
X28309D02*
D03*
X30005Y56370D02*
D03*
X30359D02*
D03*
X30005Y56720D02*
D03*
X30359D02*
D03*
X30005Y57070D02*
D03*
X30359D02*
D03*
X33059Y58720D02*
D03*
X32705D02*
D03*
X29809Y59420D02*
D03*
X29455D02*
D03*
X28809Y59320D02*
D03*
X28455D02*
D03*
X29009Y62220D02*
D03*
X28655D02*
D03*
X25555Y63220D02*
D03*
X25909D02*
D03*
X25555Y64020D02*
D03*
X25909D02*
D03*
X25555Y64420D02*
D03*
X25909D02*
D03*
X25555Y64870D02*
D03*
X25909D02*
D03*
X29009Y64320D02*
D03*
X28655D02*
D03*
X18759Y53370D02*
D03*
X18405D02*
D03*
X18759Y54170D02*
D03*
X18405D02*
D03*
X18909Y67120D02*
D03*
X18555D02*
D03*
X18909Y67570D02*
D03*
X18555D02*
D03*
X50722Y70570D02*
D03*
X51076D02*
D03*
X65980Y53470D02*
D03*
X65625D02*
D03*
X79180Y59676D02*
D03*
X78825D02*
D03*
X77425Y60426D02*
D03*
X77780D02*
D03*
X69925Y48370D02*
D03*
X70280D02*
D03*
X67125Y48520D02*
D03*
X67480D02*
D03*
X51594Y47548D02*
D03*
X51948D02*
D03*
X50526Y47570D02*
D03*
X50172D02*
D03*
X49330Y55720D02*
D03*
X48975D02*
D03*
X49330Y58870D02*
D03*
X48975D02*
D03*
X49288Y69701D02*
D03*
X49642D02*
D03*
X47472Y65070D02*
D03*
X47826D02*
D03*
X60275Y68070D02*
D03*
X60630D02*
D03*
X64925Y62270D02*
D03*
X65280D02*
D03*
X65675Y57670D02*
D03*
X66030D02*
D03*
X67025Y54420D02*
D03*
X67380D02*
D03*
X67030Y52370D02*
D03*
X66675D02*
D03*
X67980Y56070D02*
D03*
X67625D02*
D03*
X67325Y57070D02*
D03*
X67680D02*
D03*
X69375Y56370D02*
D03*
X69730D02*
D03*
X69375Y56720D02*
D03*
X69730D02*
D03*
X69375Y57070D02*
D03*
X69730D02*
D03*
X72430Y58720D02*
D03*
X72075D02*
D03*
X69180Y59420D02*
D03*
X68825D02*
D03*
X68180Y59320D02*
D03*
X67825D02*
D03*
X68380Y62220D02*
D03*
X68025D02*
D03*
X64925Y63220D02*
D03*
X65280D02*
D03*
X64925Y64020D02*
D03*
X65280D02*
D03*
X64925Y64420D02*
D03*
X65280D02*
D03*
X64925Y64870D02*
D03*
X65280D02*
D03*
X68380Y64320D02*
D03*
X68025D02*
D03*
X58130Y53370D02*
D03*
X57775D02*
D03*
X58130Y54170D02*
D03*
X57775D02*
D03*
X58280Y67120D02*
D03*
X57925D02*
D03*
X58280Y67570D02*
D03*
X57925D02*
D03*
D137*
X21306Y28306D02*
D03*
Y27794D02*
D03*
X20558D02*
D03*
Y28050D02*
D03*
Y28306D02*
D03*
X26956Y16144D02*
D03*
Y16400D02*
D03*
Y16656D02*
D03*
X26208D02*
D03*
Y16144D02*
D03*
X60676Y28306D02*
D03*
Y27794D02*
D03*
X59928D02*
D03*
Y28050D02*
D03*
Y28306D02*
D03*
X66326Y16144D02*
D03*
Y16400D02*
D03*
Y16656D02*
D03*
X65578D02*
D03*
Y16144D02*
D03*
X21306Y67676D02*
D03*
Y67164D02*
D03*
X20558D02*
D03*
Y67420D02*
D03*
Y67676D02*
D03*
X26956Y55514D02*
D03*
Y55770D02*
D03*
Y56026D02*
D03*
X26208D02*
D03*
Y55514D02*
D03*
X60676Y67676D02*
D03*
Y67164D02*
D03*
X59928D02*
D03*
Y67420D02*
D03*
Y67676D02*
D03*
X66326Y55514D02*
D03*
Y55770D02*
D03*
Y56026D02*
D03*
X65578D02*
D03*
Y55514D02*
D03*
D141*
X32932Y21900D02*
D03*
X32432D02*
D03*
X31932D02*
D03*
Y21400D02*
D03*
X32432D02*
D03*
X32932D02*
D03*
X72302Y21900D02*
D03*
X71802D02*
D03*
X71302D02*
D03*
Y21400D02*
D03*
X71802D02*
D03*
X72302D02*
D03*
X32932Y61270D02*
D03*
X32432D02*
D03*
X31932D02*
D03*
Y60770D02*
D03*
X32432D02*
D03*
X32932D02*
D03*
X72302Y61270D02*
D03*
X71802D02*
D03*
X71302D02*
D03*
Y60770D02*
D03*
X71802D02*
D03*
X72302D02*
D03*
D150*
X38578Y20306D02*
D03*
X37987D02*
D03*
X8674Y26200D02*
D03*
X8084D02*
D03*
X12224Y29800D02*
D03*
X11634D02*
D03*
X27337Y16650D02*
D03*
X27928D02*
D03*
X28528Y17250D02*
D03*
X27937D02*
D03*
X12224Y29250D02*
D03*
X11634D02*
D03*
X77948Y20306D02*
D03*
X77357D02*
D03*
X48044Y26200D02*
D03*
X47454D02*
D03*
X51594Y29800D02*
D03*
X51004D02*
D03*
X66707Y16650D02*
D03*
X67298D02*
D03*
X67898Y17250D02*
D03*
X67307D02*
D03*
X51594Y29250D02*
D03*
X51004D02*
D03*
X38578Y59676D02*
D03*
X37987D02*
D03*
X8674Y65570D02*
D03*
X8084D02*
D03*
X12224Y69170D02*
D03*
X11634D02*
D03*
X27337Y56020D02*
D03*
X27928D02*
D03*
X28528Y56620D02*
D03*
X27937D02*
D03*
X12224Y68620D02*
D03*
X11634D02*
D03*
X77948Y59676D02*
D03*
X77357D02*
D03*
X48044Y65570D02*
D03*
X47454D02*
D03*
X51594Y69170D02*
D03*
X51004D02*
D03*
X66707Y56020D02*
D03*
X67298D02*
D03*
X67898Y56620D02*
D03*
X67307D02*
D03*
X51594Y68620D02*
D03*
X51004D02*
D03*
D159*
X16245Y28006D02*
D03*
Y28203D02*
D03*
Y28400D02*
D03*
Y28597D02*
D03*
Y28794D02*
D03*
X17820D02*
D03*
Y28597D02*
D03*
Y28400D02*
D03*
Y28203D02*
D03*
Y28006D02*
D03*
X55615D02*
D03*
Y28203D02*
D03*
Y28400D02*
D03*
Y28597D02*
D03*
Y28794D02*
D03*
X57190D02*
D03*
Y28597D02*
D03*
Y28400D02*
D03*
Y28203D02*
D03*
Y28006D02*
D03*
X16245Y67376D02*
D03*
Y67573D02*
D03*
Y67770D02*
D03*
Y67967D02*
D03*
Y68164D02*
D03*
X17820D02*
D03*
Y67967D02*
D03*
Y67770D02*
D03*
Y67573D02*
D03*
Y67376D02*
D03*
X55615D02*
D03*
Y67573D02*
D03*
Y67770D02*
D03*
Y67967D02*
D03*
Y68164D02*
D03*
X57190D02*
D03*
Y67967D02*
D03*
Y67770D02*
D03*
Y67573D02*
D03*
Y67376D02*
D03*
D160*
X16639Y29187D02*
D03*
X16835D02*
D03*
X17032D02*
D03*
X17229D02*
D03*
X17426D02*
D03*
Y27613D02*
D03*
X17229D02*
D03*
X17032D02*
D03*
X16835D02*
D03*
X16639D02*
D03*
X56009Y29187D02*
D03*
X56206D02*
D03*
X56402D02*
D03*
X56599D02*
D03*
X56796D02*
D03*
Y27613D02*
D03*
X56599D02*
D03*
X56402D02*
D03*
X56206D02*
D03*
X56009D02*
D03*
X16639Y68557D02*
D03*
X16835D02*
D03*
X17032D02*
D03*
X17229D02*
D03*
X17426D02*
D03*
Y66983D02*
D03*
X17229D02*
D03*
X17032D02*
D03*
X16835D02*
D03*
X16639D02*
D03*
X56009Y68557D02*
D03*
X56206D02*
D03*
X56402D02*
D03*
X56599D02*
D03*
X56796D02*
D03*
Y66983D02*
D03*
X56599D02*
D03*
X56402D02*
D03*
X56206D02*
D03*
X56009D02*
D03*
D171*
X16865Y31062D02*
D03*
X17200D02*
D03*
X56235D02*
D03*
X56570D02*
D03*
X16865Y70432D02*
D03*
X17200D02*
D03*
X56235D02*
D03*
X56570D02*
D03*
D172*
X17554Y31200D02*
D03*
X16511D02*
D03*
X56924D02*
D03*
X55881D02*
D03*
X17554Y70570D02*
D03*
X16511D02*
D03*
X56924D02*
D03*
X55881D02*
D03*
D177*
X85236Y2165D02*
D03*
Y68701D02*
D03*
X2165D02*
D03*
Y2165D02*
D03*
D178*
X24979Y3650D02*
D03*
Y1650D02*
D03*
X26979D02*
D03*
Y3650D02*
D03*
X22729D02*
D03*
Y1650D02*
D03*
X20729D02*
D03*
Y3650D02*
D03*
X16479D02*
D03*
Y1650D02*
D03*
X18479D02*
D03*
Y3650D02*
D03*
X31229D02*
D03*
Y1650D02*
D03*
X29229D02*
D03*
Y3650D02*
D03*
X33479D02*
D03*
Y1650D02*
D03*
X35479D02*
D03*
Y3650D02*
D03*
X39729D02*
D03*
Y1650D02*
D03*
X37729D02*
D03*
Y3650D02*
D03*
X64349D02*
D03*
Y1650D02*
D03*
X66349D02*
D03*
Y3650D02*
D03*
X62099D02*
D03*
Y1650D02*
D03*
X60099D02*
D03*
Y3650D02*
D03*
X55849D02*
D03*
Y1650D02*
D03*
X57849D02*
D03*
Y3650D02*
D03*
X70599D02*
D03*
Y1650D02*
D03*
X68599D02*
D03*
Y3650D02*
D03*
X72849D02*
D03*
Y1650D02*
D03*
X74849D02*
D03*
Y3650D02*
D03*
X79099D02*
D03*
Y1650D02*
D03*
X77099D02*
D03*
Y3650D02*
D03*
X24979Y43020D02*
D03*
Y41020D02*
D03*
X26979D02*
D03*
Y43020D02*
D03*
X22729D02*
D03*
Y41020D02*
D03*
X20729D02*
D03*
Y43020D02*
D03*
X16479D02*
D03*
Y41020D02*
D03*
X18479D02*
D03*
Y43020D02*
D03*
X31229D02*
D03*
Y41020D02*
D03*
X29229D02*
D03*
Y43020D02*
D03*
X33479D02*
D03*
Y41020D02*
D03*
X35479D02*
D03*
Y43020D02*
D03*
X39729D02*
D03*
Y41020D02*
D03*
X37729D02*
D03*
Y43020D02*
D03*
X64349D02*
D03*
Y41020D02*
D03*
X66349D02*
D03*
Y43020D02*
D03*
X62099D02*
D03*
Y41020D02*
D03*
X60099D02*
D03*
Y43020D02*
D03*
X55849D02*
D03*
Y41020D02*
D03*
X57849D02*
D03*
Y43020D02*
D03*
X70599D02*
D03*
Y41020D02*
D03*
X68599D02*
D03*
Y43020D02*
D03*
X72849D02*
D03*
Y41020D02*
D03*
X74849D02*
D03*
Y43020D02*
D03*
X79099D02*
D03*
Y41020D02*
D03*
X77099D02*
D03*
Y43020D02*
D03*
D179*
X25979Y2650D02*
D03*
X21729D02*
D03*
X17479D02*
D03*
X30229D02*
D03*
X34479D02*
D03*
X38729D02*
D03*
X33832Y26799D02*
D03*
X40033D02*
D03*
X65349Y2650D02*
D03*
X61099D02*
D03*
X56849D02*
D03*
X69599D02*
D03*
X73849D02*
D03*
X78099D02*
D03*
X73202Y26799D02*
D03*
X79403D02*
D03*
X25979Y42020D02*
D03*
X21729D02*
D03*
X17479D02*
D03*
X30229D02*
D03*
X34479D02*
D03*
X38729D02*
D03*
X33832Y66169D02*
D03*
X40033D02*
D03*
X65349Y42020D02*
D03*
X61099D02*
D03*
X56849D02*
D03*
X69599D02*
D03*
X73849D02*
D03*
X78099D02*
D03*
X73202Y66169D02*
D03*
X79403D02*
D03*
D180*
X41532Y24100D02*
D03*
Y1400D02*
D03*
X6532D02*
D03*
Y24100D02*
D03*
X32073Y10954D02*
D03*
X20778Y19065D02*
D03*
X34682Y28000D02*
D03*
X39182D02*
D03*
X80902Y24100D02*
D03*
Y1400D02*
D03*
X45902D02*
D03*
Y24100D02*
D03*
X71443Y10954D02*
D03*
X60148Y19065D02*
D03*
X74052Y28000D02*
D03*
X78552D02*
D03*
X41532Y63470D02*
D03*
Y40770D02*
D03*
X6532D02*
D03*
Y63470D02*
D03*
X32073Y50324D02*
D03*
X20778Y58435D02*
D03*
X34682Y67370D02*
D03*
X39182D02*
D03*
X80902Y63470D02*
D03*
Y40770D02*
D03*
X45902D02*
D03*
Y63470D02*
D03*
X71443Y50324D02*
D03*
X60148Y58435D02*
D03*
X74052Y67370D02*
D03*
X78552D02*
D03*
D181*
X31119Y28500D02*
D03*
X25946D02*
D03*
X70489D02*
D03*
X65316D02*
D03*
X31119Y67870D02*
D03*
X25946D02*
D03*
X70489D02*
D03*
X65316D02*
D03*
D182*
X29812Y27433D02*
D03*
X28926D02*
D03*
X28139D02*
D03*
X27154D02*
D03*
X69182D02*
D03*
X68296D02*
D03*
X67509D02*
D03*
X66524D02*
D03*
X29812Y66803D02*
D03*
X28926D02*
D03*
X28139D02*
D03*
X27154D02*
D03*
X69182D02*
D03*
X68296D02*
D03*
X67509D02*
D03*
X66524D02*
D03*
D183*
X12863Y27014D02*
D03*
Y29376D02*
D03*
X11013Y28195D02*
D03*
X52233Y27014D02*
D03*
Y29376D02*
D03*
X50383Y28195D02*
D03*
X12863Y66384D02*
D03*
Y68746D02*
D03*
X11013Y67565D02*
D03*
X52233Y66384D02*
D03*
Y68746D02*
D03*
X50383Y67565D02*
D03*
D184*
X5682Y13700D02*
D03*
Y3250D02*
D03*
X41382Y28000D02*
D03*
X6682Y15050D02*
D03*
Y16050D02*
D03*
Y17050D02*
D03*
Y18050D02*
D03*
Y19050D02*
D03*
Y20050D02*
D03*
Y21050D02*
D03*
Y22050D02*
D03*
X5682Y15050D02*
D03*
Y16050D02*
D03*
Y17050D02*
D03*
Y18050D02*
D03*
Y19050D02*
D03*
Y20050D02*
D03*
Y21050D02*
D03*
X41382Y3250D02*
D03*
X45052Y13700D02*
D03*
Y3250D02*
D03*
X80752Y28000D02*
D03*
X46052Y15050D02*
D03*
Y16050D02*
D03*
Y17050D02*
D03*
Y18050D02*
D03*
Y19050D02*
D03*
Y20050D02*
D03*
Y21050D02*
D03*
Y22050D02*
D03*
X45052Y15050D02*
D03*
Y16050D02*
D03*
Y17050D02*
D03*
Y18050D02*
D03*
Y19050D02*
D03*
Y20050D02*
D03*
Y21050D02*
D03*
X80752Y3250D02*
D03*
X5682Y53070D02*
D03*
Y42620D02*
D03*
X41382Y67370D02*
D03*
X6682Y54420D02*
D03*
Y55420D02*
D03*
Y56420D02*
D03*
Y57420D02*
D03*
Y58420D02*
D03*
Y59420D02*
D03*
Y60420D02*
D03*
Y61420D02*
D03*
X5682Y54420D02*
D03*
Y55420D02*
D03*
Y56420D02*
D03*
Y57420D02*
D03*
Y58420D02*
D03*
Y59420D02*
D03*
Y60420D02*
D03*
X41382Y42620D02*
D03*
X45052Y53070D02*
D03*
Y42620D02*
D03*
X80752Y67370D02*
D03*
X46052Y54420D02*
D03*
Y55420D02*
D03*
Y56420D02*
D03*
Y57420D02*
D03*
Y58420D02*
D03*
Y59420D02*
D03*
Y60420D02*
D03*
Y61420D02*
D03*
X45052Y54420D02*
D03*
Y55420D02*
D03*
Y56420D02*
D03*
Y57420D02*
D03*
Y58420D02*
D03*
Y59420D02*
D03*
Y60420D02*
D03*
X80752Y42620D02*
D03*
D185*
X6682Y13700D02*
D03*
Y3250D02*
D03*
X42382Y28000D02*
D03*
Y3250D02*
D03*
X46052Y13700D02*
D03*
Y3250D02*
D03*
X81752Y28000D02*
D03*
Y3250D02*
D03*
X6682Y53070D02*
D03*
Y42620D02*
D03*
X42382Y67370D02*
D03*
Y42620D02*
D03*
X46052Y53070D02*
D03*
Y42620D02*
D03*
X81752Y67370D02*
D03*
Y42620D02*
D03*
D186*
X37682Y25500D02*
D03*
X36682D02*
D03*
X35682D02*
D03*
X38682D02*
D03*
X38182Y24500D02*
D03*
X37182D02*
D03*
X36182D02*
D03*
X35182D02*
D03*
X77052Y25500D02*
D03*
X76052D02*
D03*
X75052D02*
D03*
X78052D02*
D03*
X77552Y24500D02*
D03*
X76552D02*
D03*
X75552D02*
D03*
X74552D02*
D03*
X37682Y64870D02*
D03*
X36682D02*
D03*
X35682D02*
D03*
X38682D02*
D03*
X38182Y63870D02*
D03*
X37182D02*
D03*
X36182D02*
D03*
X35182D02*
D03*
X77052Y64870D02*
D03*
X76052D02*
D03*
X75052D02*
D03*
X78052D02*
D03*
X77552Y63870D02*
D03*
X76552D02*
D03*
X75552D02*
D03*
X74552D02*
D03*
D187*
X35442Y29929D02*
D03*
X38422Y29331D02*
D03*
X39422Y29929D02*
D03*
X34442Y29331D02*
D03*
X74812Y29929D02*
D03*
X77793Y29331D02*
D03*
X78793Y29929D02*
D03*
X73812Y29331D02*
D03*
X35442Y69299D02*
D03*
X38422Y68701D02*
D03*
X39422Y69299D02*
D03*
X34442Y68701D02*
D03*
X74812Y69299D02*
D03*
X77793Y68701D02*
D03*
X78793Y69299D02*
D03*
X73812Y68701D02*
D03*
D188*
X5682Y22050D02*
D03*
X45052D02*
D03*
X5682Y61420D02*
D03*
X45052D02*
D03*
D189*
X20532Y30900D02*
D03*
X23032D02*
D03*
X18282D02*
D03*
X15782D02*
D03*
X59902D02*
D03*
X62402D02*
D03*
X57652D02*
D03*
X55152D02*
D03*
X20532Y70270D02*
D03*
X23032D02*
D03*
X18282D02*
D03*
X15782D02*
D03*
X59902D02*
D03*
X62402D02*
D03*
X57652D02*
D03*
X55152D02*
D03*
D190*
X17455Y20293D02*
D03*
Y19506D02*
D03*
Y18719D02*
D03*
Y17931D02*
D03*
Y17144D02*
D03*
Y16356D02*
D03*
Y15569D02*
D03*
Y14782D02*
D03*
Y13994D02*
D03*
X8709Y20293D02*
D03*
Y19506D02*
D03*
Y18719D02*
D03*
Y17931D02*
D03*
Y17144D02*
D03*
Y16356D02*
D03*
Y15569D02*
D03*
Y14782D02*
D03*
Y13994D02*
D03*
Y13207D02*
D03*
X56825Y20293D02*
D03*
Y19506D02*
D03*
Y18719D02*
D03*
Y17931D02*
D03*
Y17144D02*
D03*
Y16356D02*
D03*
Y15569D02*
D03*
Y14782D02*
D03*
Y13994D02*
D03*
X48079Y20293D02*
D03*
Y19506D02*
D03*
Y18719D02*
D03*
Y17931D02*
D03*
Y17144D02*
D03*
Y16356D02*
D03*
Y15569D02*
D03*
Y14782D02*
D03*
Y13994D02*
D03*
Y13207D02*
D03*
X17455Y59663D02*
D03*
Y58876D02*
D03*
Y58089D02*
D03*
Y57301D02*
D03*
Y56514D02*
D03*
Y55726D02*
D03*
Y54939D02*
D03*
Y54152D02*
D03*
Y53364D02*
D03*
X8709Y59663D02*
D03*
Y58876D02*
D03*
Y58089D02*
D03*
Y57301D02*
D03*
Y56514D02*
D03*
Y55726D02*
D03*
Y54939D02*
D03*
Y54152D02*
D03*
Y53364D02*
D03*
Y52577D02*
D03*
X56825Y59663D02*
D03*
Y58876D02*
D03*
Y58089D02*
D03*
Y57301D02*
D03*
Y56514D02*
D03*
Y55726D02*
D03*
Y54939D02*
D03*
Y54152D02*
D03*
Y53364D02*
D03*
X48079Y59663D02*
D03*
Y58876D02*
D03*
Y58089D02*
D03*
Y57301D02*
D03*
Y56514D02*
D03*
Y55726D02*
D03*
Y54939D02*
D03*
Y54152D02*
D03*
Y53364D02*
D03*
Y52577D02*
D03*
D191*
X17455Y13207D02*
D03*
X56825D02*
D03*
X17455Y52577D02*
D03*
X56825D02*
D03*
D192*
X31929Y26800D02*
D03*
X71299D02*
D03*
X31929Y66170D02*
D03*
X71299D02*
D03*
D193*
X31388Y26416D02*
D03*
Y26672D02*
D03*
Y26928D02*
D03*
X32470Y26416D02*
D03*
Y26672D02*
D03*
Y26928D02*
D03*
Y27184D02*
D03*
X31388D02*
D03*
X70758Y26416D02*
D03*
Y26672D02*
D03*
Y26928D02*
D03*
X71841Y26416D02*
D03*
Y26672D02*
D03*
Y26928D02*
D03*
Y27184D02*
D03*
X70758D02*
D03*
X31388Y65786D02*
D03*
Y66042D02*
D03*
Y66298D02*
D03*
X32470Y65786D02*
D03*
Y66042D02*
D03*
Y66298D02*
D03*
Y66554D02*
D03*
X31388D02*
D03*
X70758Y65786D02*
D03*
Y66042D02*
D03*
Y66298D02*
D03*
X71841Y65786D02*
D03*
Y66042D02*
D03*
Y66298D02*
D03*
Y66554D02*
D03*
X70758D02*
D03*
D194*
X13145Y31200D02*
D03*
X12613D02*
D03*
X52515D02*
D03*
X51983D02*
D03*
X13145Y70570D02*
D03*
X12613D02*
D03*
X52515D02*
D03*
X51983D02*
D03*
D195*
X26646Y15100D02*
D03*
X25819Y15474D02*
D03*
Y14726D02*
D03*
X66016Y15100D02*
D03*
X65189Y15474D02*
D03*
Y14726D02*
D03*
X26646Y54470D02*
D03*
X25819Y54844D02*
D03*
Y54096D02*
D03*
X66016Y54470D02*
D03*
X65189Y54844D02*
D03*
Y54096D02*
D03*
D196*
X13945Y1374D02*
D03*
X13512D02*
D03*
X13079D02*
D03*
X12646D02*
D03*
X12213D02*
D03*
X11780D02*
D03*
X11346D02*
D03*
X10913D02*
D03*
X53315D02*
D03*
X52882D02*
D03*
X52449D02*
D03*
X52016D02*
D03*
X51583D02*
D03*
X51150D02*
D03*
X50717D02*
D03*
X50283D02*
D03*
X13945Y40744D02*
D03*
X13512D02*
D03*
X13079D02*
D03*
X12646D02*
D03*
X12213D02*
D03*
X11780D02*
D03*
X11346D02*
D03*
X10913D02*
D03*
X53315D02*
D03*
X52882D02*
D03*
X52449D02*
D03*
X52016D02*
D03*
X51583D02*
D03*
X51150D02*
D03*
X50717D02*
D03*
X50283D02*
D03*
D197*
X14295Y567D02*
D03*
X53665D02*
D03*
X14295Y39937D02*
D03*
X53665D02*
D03*
D198*
X9051Y469D02*
D03*
X48421D02*
D03*
X9051Y39839D02*
D03*
X48421D02*
D03*
D199*
X14423Y3178D02*
D03*
X53793D02*
D03*
X14423Y42548D02*
D03*
X53793D02*
D03*
D200*
X14423Y5178D02*
D03*
X53793D02*
D03*
X14423Y44548D02*
D03*
X53793D02*
D03*
D201*
X8951Y5941D02*
D03*
X48321D02*
D03*
X8951Y45311D02*
D03*
X48321D02*
D03*
D202*
X8941Y3609D02*
D03*
X48311D02*
D03*
X8941Y42979D02*
D03*
X48311D02*
D03*
D203*
X14335Y5770D02*
D03*
X53705D02*
D03*
X14335Y45140D02*
D03*
X53705D02*
D03*
D204*
X14325Y6030D02*
D03*
X53695D02*
D03*
X14325Y45400D02*
D03*
X53695D02*
D03*
D205*
X9426Y30436D02*
D03*
X48796D02*
D03*
X9426Y69806D02*
D03*
X48796D02*
D03*
D206*
X9426Y30240D02*
D03*
Y30043D02*
D03*
Y29846D02*
D03*
X48796Y30240D02*
D03*
Y30043D02*
D03*
Y29846D02*
D03*
X9426Y69610D02*
D03*
Y69413D02*
D03*
Y69216D02*
D03*
X48796Y69610D02*
D03*
Y69413D02*
D03*
Y69216D02*
D03*
D207*
X8895Y29905D02*
D03*
Y30141D02*
D03*
Y30377D02*
D03*
X48265Y29905D02*
D03*
Y30141D02*
D03*
Y30377D02*
D03*
X8895Y69275D02*
D03*
Y69511D02*
D03*
Y69747D02*
D03*
X48265Y69275D02*
D03*
Y69511D02*
D03*
Y69747D02*
D03*
D208*
X13963Y26850D02*
D03*
Y28425D02*
D03*
X53333Y26850D02*
D03*
Y28425D02*
D03*
X13963Y66220D02*
D03*
Y67795D02*
D03*
X53333Y66220D02*
D03*
Y67795D02*
D03*
D209*
X17032Y28400D02*
D03*
X56402D02*
D03*
X17032Y67770D02*
D03*
X56402D02*
D03*
D210*
X23482Y17035D02*
D03*
Y15165D02*
D03*
X62852Y17035D02*
D03*
Y15165D02*
D03*
X23482Y56405D02*
D03*
Y54535D02*
D03*
X62852Y56405D02*
D03*
Y54535D02*
D03*
D211*
X24882Y18050D02*
D03*
X64252D02*
D03*
X24882Y57420D02*
D03*
X64252D02*
D03*
D212*
X25266Y17509D02*
D03*
X25010D02*
D03*
X24754D02*
D03*
X25266Y18591D02*
D03*
X25010D02*
D03*
X24754D02*
D03*
X24498D02*
D03*
Y17509D02*
D03*
X64636D02*
D03*
X64380D02*
D03*
X64124D02*
D03*
X64636Y18591D02*
D03*
X64380D02*
D03*
X64124D02*
D03*
X63868D02*
D03*
Y17509D02*
D03*
X25266Y56879D02*
D03*
X25010D02*
D03*
X24754D02*
D03*
X25266Y57961D02*
D03*
X25010D02*
D03*
X24754D02*
D03*
X24498D02*
D03*
Y56879D02*
D03*
X64636D02*
D03*
X64380D02*
D03*
X64124D02*
D03*
X64636Y57961D02*
D03*
X64380D02*
D03*
X64124D02*
D03*
X63868D02*
D03*
Y56879D02*
D03*
D213*
X26267Y17500D02*
D03*
Y17874D02*
D03*
Y17126D02*
D03*
X27298D02*
D03*
Y17500D02*
D03*
Y17874D02*
D03*
X65637Y17500D02*
D03*
Y17874D02*
D03*
Y17126D02*
D03*
X66668D02*
D03*
Y17500D02*
D03*
Y17874D02*
D03*
X26267Y56870D02*
D03*
Y57244D02*
D03*
Y56496D02*
D03*
X27298D02*
D03*
Y56870D02*
D03*
Y57244D02*
D03*
X65637Y56870D02*
D03*
Y57244D02*
D03*
Y56496D02*
D03*
X66668D02*
D03*
Y56870D02*
D03*
Y57244D02*
D03*
D214*
X29717Y28600D02*
D03*
X27847D02*
D03*
X69087D02*
D03*
X67217D02*
D03*
X29717Y67970D02*
D03*
X27847D02*
D03*
X69087D02*
D03*
X67217D02*
D03*
D215*
X21889Y28831D02*
D03*
X22085D02*
D03*
X22282D02*
D03*
X22479D02*
D03*
X22676D02*
D03*
X21889Y27669D02*
D03*
X22085D02*
D03*
X22282D02*
D03*
X22479D02*
D03*
X22676D02*
D03*
X61259Y28831D02*
D03*
X61456D02*
D03*
X61652D02*
D03*
X61849D02*
D03*
X62046D02*
D03*
X61259Y27669D02*
D03*
X61456D02*
D03*
X61652D02*
D03*
X61849D02*
D03*
X62046D02*
D03*
X21889Y68201D02*
D03*
X22085D02*
D03*
X22282D02*
D03*
X22479D02*
D03*
X22676D02*
D03*
X21889Y67039D02*
D03*
X22085D02*
D03*
X22282D02*
D03*
X22479D02*
D03*
X22676D02*
D03*
X61259Y68201D02*
D03*
X61456D02*
D03*
X61652D02*
D03*
X61849D02*
D03*
X62046D02*
D03*
X61259Y67039D02*
D03*
X61456D02*
D03*
X61652D02*
D03*
X61849D02*
D03*
X62046D02*
D03*
D216*
X22282Y28250D02*
D03*
X61652D02*
D03*
X22282Y67620D02*
D03*
X61652D02*
D03*
D217*
X6545Y30487D02*
D03*
Y28676D02*
D03*
X45915Y30487D02*
D03*
Y28676D02*
D03*
X6545Y69857D02*
D03*
Y68046D02*
D03*
X45915Y69857D02*
D03*
Y68046D02*
D03*
M02*
