G04 Layer_Color=8421504*
%FSLAX24Y24*%
%MOIN*%
G70*
G01*
G75*
%ADD10R,0.0800X0.0800*%
%ADD11C,0.0800*%
%ADD13R,0.0236X0.0157*%
%ADD14R,0.0354X0.0197*%
%ADD15R,0.0413X0.0866*%
%ADD16R,0.0394X0.0413*%
%ADD17R,0.0374X0.0335*%
%ADD18R,0.0433X0.0669*%
%ADD19R,0.0669X0.0433*%
%ADD20R,0.0157X0.0236*%
%ADD21R,0.0236X0.0165*%
%ADD22R,0.0157X0.0532*%
%ADD23R,0.0079X0.0449*%
%ADD24R,0.0413X0.0512*%
%ADD26R,0.0748X0.0630*%
%ADD27R,0.0630X0.0551*%
%ADD28O,0.0138X0.0394*%
%ADD29O,0.0394X0.0138*%
%ADD30R,0.0850X0.0850*%
%ADD31O,0.0110X0.0394*%
%ADD32O,0.0394X0.0110*%
%ADD33R,0.1240X0.1240*%
%ADD34R,0.0197X0.0354*%
%ADD35R,0.0295X0.0118*%
%ADD36R,0.0394X0.0197*%
%ADD37R,0.2598X0.2598*%
%ADD38O,0.0236X0.0098*%
%ADD39O,0.0098X0.0236*%
%ADD40O,0.0118X0.0610*%
%ADD41R,0.0413X0.0236*%
%ADD43O,0.0315X0.0098*%
%ADD44O,0.0098X0.0315*%
%ADD45R,0.2874X0.2874*%
%ADD46O,0.0295X0.0110*%
%ADD47O,0.0110X0.0295*%
%ADD48R,0.0236X0.0413*%
%ADD49R,0.0591X0.0394*%
%ADD50R,0.0591X0.1299*%
%ADD51R,0.0413X0.0256*%
%ADD52O,0.0394X0.0118*%
%ADD53O,0.0118X0.0394*%
%ADD54R,0.0827X0.0827*%
%ADD55R,0.0177X0.0197*%
%ADD56R,0.0335X0.0354*%
%ADD57R,0.0165X0.0236*%
%ADD58R,0.0475X0.1480*%
%ADD59R,0.0575X0.1650*%
%ADD60R,0.2100X0.1100*%
%ADD126R,0.0709X0.0709*%
D10*
X2165Y4921D02*
D03*
D11*
Y65945D02*
D03*
X85236D02*
D03*
Y4921D02*
D03*
D13*
X32479Y26923D02*
D03*
Y27277D02*
D03*
X21882Y27077D02*
D03*
Y26723D02*
D03*
X27382Y20777D02*
D03*
Y20423D02*
D03*
X38805Y13633D02*
D03*
Y13279D02*
D03*
Y14279D02*
D03*
Y14633D02*
D03*
Y15279D02*
D03*
Y15633D02*
D03*
X36902Y20455D02*
D03*
Y20101D02*
D03*
X30432Y14127D02*
D03*
Y13773D02*
D03*
X32882Y16427D02*
D03*
Y16073D02*
D03*
X33432Y19623D02*
D03*
Y19977D02*
D03*
X30932Y14723D02*
D03*
Y15077D02*
D03*
X30232Y14723D02*
D03*
Y15077D02*
D03*
X26332Y16023D02*
D03*
Y16377D02*
D03*
X27032Y16727D02*
D03*
Y16373D02*
D03*
X27832Y20423D02*
D03*
Y20777D02*
D03*
X28232D02*
D03*
Y20423D02*
D03*
X26982Y20777D02*
D03*
Y20423D02*
D03*
X23582Y21277D02*
D03*
Y20923D02*
D03*
X24582Y21277D02*
D03*
Y20923D02*
D03*
X25182Y22527D02*
D03*
Y22173D02*
D03*
X24982Y25577D02*
D03*
Y25223D02*
D03*
X27182Y26527D02*
D03*
Y26173D02*
D03*
X17932Y28877D02*
D03*
Y28523D02*
D03*
X10082Y25823D02*
D03*
Y26177D02*
D03*
X15182Y13027D02*
D03*
Y12673D02*
D03*
X9629Y1577D02*
D03*
Y1223D02*
D03*
X9229D02*
D03*
Y1577D02*
D03*
X10029Y1223D02*
D03*
Y1577D02*
D03*
X13929D02*
D03*
Y1223D02*
D03*
X13529Y1577D02*
D03*
Y1223D02*
D03*
X13129Y1577D02*
D03*
Y1223D02*
D03*
X12229Y1577D02*
D03*
Y1223D02*
D03*
X71849Y26923D02*
D03*
Y27277D02*
D03*
X61252Y27077D02*
D03*
Y26723D02*
D03*
X66752Y20777D02*
D03*
Y20423D02*
D03*
X78175Y13633D02*
D03*
Y13279D02*
D03*
Y14279D02*
D03*
Y14633D02*
D03*
Y15279D02*
D03*
Y15633D02*
D03*
X76272Y20455D02*
D03*
Y20101D02*
D03*
X69802Y14127D02*
D03*
Y13773D02*
D03*
X72252Y16427D02*
D03*
Y16073D02*
D03*
X72802Y19623D02*
D03*
Y19977D02*
D03*
X70302Y14723D02*
D03*
Y15077D02*
D03*
X69602Y14723D02*
D03*
Y15077D02*
D03*
X65702Y16023D02*
D03*
Y16377D02*
D03*
X66402Y16727D02*
D03*
Y16373D02*
D03*
X67202Y20423D02*
D03*
Y20777D02*
D03*
X67602D02*
D03*
Y20423D02*
D03*
X66352Y20777D02*
D03*
Y20423D02*
D03*
X62952Y21277D02*
D03*
Y20923D02*
D03*
X63952Y21277D02*
D03*
Y20923D02*
D03*
X64552Y22527D02*
D03*
Y22173D02*
D03*
X64352Y25577D02*
D03*
Y25223D02*
D03*
X66552Y26527D02*
D03*
Y26173D02*
D03*
X57302Y28877D02*
D03*
Y28523D02*
D03*
X49452Y25823D02*
D03*
Y26177D02*
D03*
X54552Y13027D02*
D03*
Y12673D02*
D03*
X48999Y1577D02*
D03*
Y1223D02*
D03*
X48599D02*
D03*
Y1577D02*
D03*
X49399Y1223D02*
D03*
Y1577D02*
D03*
X53299D02*
D03*
Y1223D02*
D03*
X52899Y1577D02*
D03*
Y1223D02*
D03*
X52499Y1577D02*
D03*
Y1223D02*
D03*
X51599Y1577D02*
D03*
Y1223D02*
D03*
X32479Y66293D02*
D03*
Y66647D02*
D03*
X21882Y66447D02*
D03*
Y66093D02*
D03*
X27382Y60147D02*
D03*
Y59793D02*
D03*
X38805Y53004D02*
D03*
Y52649D02*
D03*
Y53649D02*
D03*
Y54004D02*
D03*
Y54649D02*
D03*
Y55004D02*
D03*
X36902Y59825D02*
D03*
Y59471D02*
D03*
X30432Y53497D02*
D03*
Y53143D02*
D03*
X32882Y55797D02*
D03*
Y55443D02*
D03*
X33432Y58993D02*
D03*
Y59347D02*
D03*
X30932Y54093D02*
D03*
Y54447D02*
D03*
X30232Y54093D02*
D03*
Y54447D02*
D03*
X26332Y55393D02*
D03*
Y55747D02*
D03*
X27032Y56097D02*
D03*
Y55743D02*
D03*
X27832Y59793D02*
D03*
Y60147D02*
D03*
X28232D02*
D03*
Y59793D02*
D03*
X26982Y60147D02*
D03*
Y59793D02*
D03*
X23582Y60647D02*
D03*
Y60293D02*
D03*
X24582Y60647D02*
D03*
Y60293D02*
D03*
X25182Y61897D02*
D03*
Y61543D02*
D03*
X24982Y64947D02*
D03*
Y64593D02*
D03*
X27182Y65897D02*
D03*
Y65543D02*
D03*
X17932Y68247D02*
D03*
Y67893D02*
D03*
X10082Y65193D02*
D03*
Y65547D02*
D03*
X15182Y52397D02*
D03*
Y52043D02*
D03*
X9629Y40947D02*
D03*
Y40593D02*
D03*
X9229D02*
D03*
Y40947D02*
D03*
X10029Y40593D02*
D03*
Y40947D02*
D03*
X13929D02*
D03*
Y40593D02*
D03*
X13529Y40947D02*
D03*
Y40593D02*
D03*
X13129Y40947D02*
D03*
Y40593D02*
D03*
X12229Y40947D02*
D03*
Y40593D02*
D03*
X71849Y66293D02*
D03*
Y66647D02*
D03*
X61252Y66447D02*
D03*
Y66093D02*
D03*
X66752Y60147D02*
D03*
Y59793D02*
D03*
X78175Y53004D02*
D03*
Y52649D02*
D03*
Y53649D02*
D03*
Y54004D02*
D03*
Y54649D02*
D03*
Y55004D02*
D03*
X76272Y59825D02*
D03*
Y59471D02*
D03*
X69802Y53497D02*
D03*
Y53143D02*
D03*
X72252Y55797D02*
D03*
Y55443D02*
D03*
X72802Y58993D02*
D03*
Y59347D02*
D03*
X70302Y54093D02*
D03*
Y54447D02*
D03*
X69602Y54093D02*
D03*
Y54447D02*
D03*
X65702Y55393D02*
D03*
Y55747D02*
D03*
X66402Y56097D02*
D03*
Y55743D02*
D03*
X67202Y59793D02*
D03*
Y60147D02*
D03*
X67602D02*
D03*
Y59793D02*
D03*
X66352Y60147D02*
D03*
Y59793D02*
D03*
X62952Y60647D02*
D03*
Y60293D02*
D03*
X63952Y60647D02*
D03*
Y60293D02*
D03*
X64552Y61897D02*
D03*
Y61543D02*
D03*
X64352Y64947D02*
D03*
Y64593D02*
D03*
X66552Y65897D02*
D03*
Y65543D02*
D03*
X57302Y68247D02*
D03*
Y67893D02*
D03*
X49452Y65193D02*
D03*
Y65547D02*
D03*
X54552Y52397D02*
D03*
Y52043D02*
D03*
X48999Y40947D02*
D03*
Y40593D02*
D03*
X48599D02*
D03*
Y40947D02*
D03*
X49399Y40593D02*
D03*
Y40947D02*
D03*
X53299D02*
D03*
Y40593D02*
D03*
X52899Y40947D02*
D03*
Y40593D02*
D03*
X52499Y40947D02*
D03*
Y40593D02*
D03*
X51599Y40947D02*
D03*
Y40593D02*
D03*
D14*
X32470Y25955D02*
D03*
Y26545D02*
D03*
X15732Y12505D02*
D03*
Y13095D02*
D03*
Y14145D02*
D03*
Y13555D02*
D03*
X71841Y25955D02*
D03*
Y26545D02*
D03*
X55102Y12505D02*
D03*
Y13095D02*
D03*
Y14145D02*
D03*
Y13555D02*
D03*
X32470Y65325D02*
D03*
Y65915D02*
D03*
X15732Y51875D02*
D03*
Y52465D02*
D03*
Y53515D02*
D03*
Y52925D02*
D03*
X71841Y65325D02*
D03*
Y65915D02*
D03*
X55102Y51875D02*
D03*
Y52465D02*
D03*
Y53515D02*
D03*
Y52925D02*
D03*
D15*
X29648Y5900D02*
D03*
X30810D02*
D03*
X26560D02*
D03*
X25398D02*
D03*
X21148D02*
D03*
X22310D02*
D03*
X18060D02*
D03*
X16898D02*
D03*
X69019D02*
D03*
X70180D02*
D03*
X65930D02*
D03*
X64769D02*
D03*
X60518D02*
D03*
X61680D02*
D03*
X57430D02*
D03*
X56269D02*
D03*
X29648Y45270D02*
D03*
X30810D02*
D03*
X26560D02*
D03*
X25398D02*
D03*
X21148D02*
D03*
X22310D02*
D03*
X18060D02*
D03*
X16898D02*
D03*
X69019D02*
D03*
X70180D02*
D03*
X65930D02*
D03*
X64769D02*
D03*
X60518D02*
D03*
X61680D02*
D03*
X57430D02*
D03*
X56269D02*
D03*
D16*
X30229Y5300D02*
D03*
X25979D02*
D03*
X21729D02*
D03*
X17479D02*
D03*
X69599D02*
D03*
X65349D02*
D03*
X61099D02*
D03*
X56849D02*
D03*
X30229Y44670D02*
D03*
X25979D02*
D03*
X21729D02*
D03*
X17479D02*
D03*
X69599D02*
D03*
X65349D02*
D03*
X61099D02*
D03*
X56849D02*
D03*
D17*
X36915Y19224D02*
D03*
X36344D02*
D03*
Y19676D02*
D03*
X36915D02*
D03*
X30297Y15876D02*
D03*
X30868D02*
D03*
Y15424D02*
D03*
X30297D02*
D03*
X76285Y19224D02*
D03*
X75714D02*
D03*
Y19676D02*
D03*
X76285D02*
D03*
X69667Y15876D02*
D03*
X70238D02*
D03*
Y15424D02*
D03*
X69667D02*
D03*
X36915Y58594D02*
D03*
X36344D02*
D03*
Y59046D02*
D03*
X36915D02*
D03*
X30297Y55246D02*
D03*
X30868D02*
D03*
Y54794D02*
D03*
X30297D02*
D03*
X76285Y58594D02*
D03*
X75714D02*
D03*
Y59046D02*
D03*
X76285D02*
D03*
X69667Y55246D02*
D03*
X70238D02*
D03*
Y54794D02*
D03*
X69667D02*
D03*
D18*
X9814Y24300D02*
D03*
X8751D02*
D03*
X49184D02*
D03*
X48121D02*
D03*
X9814Y63670D02*
D03*
X8751D02*
D03*
X49184D02*
D03*
X48121D02*
D03*
D19*
X16482Y13182D02*
D03*
Y12119D02*
D03*
X55852Y13182D02*
D03*
Y12119D02*
D03*
X16482Y52552D02*
D03*
Y51489D02*
D03*
X55852Y52552D02*
D03*
Y51489D02*
D03*
D20*
X16355Y17350D02*
D03*
X16709D02*
D03*
Y16000D02*
D03*
X16355D02*
D03*
X38809Y13950D02*
D03*
X38455D02*
D03*
X38809Y14950D02*
D03*
X38455D02*
D03*
X38809Y15956D02*
D03*
X38455D02*
D03*
X39459D02*
D03*
X39105D02*
D03*
X40205Y17006D02*
D03*
X40559D02*
D03*
X40205Y17406D02*
D03*
X40559D02*
D03*
X40205Y17806D02*
D03*
X40559D02*
D03*
X37759Y17006D02*
D03*
X37405D02*
D03*
Y17406D02*
D03*
X37759D02*
D03*
X37405Y17806D02*
D03*
X37759D02*
D03*
X37405Y18206D02*
D03*
X37759D02*
D03*
X39109Y18906D02*
D03*
X38755D02*
D03*
X40505Y19906D02*
D03*
X40859D02*
D03*
X40505Y20706D02*
D03*
X40859D02*
D03*
X35552Y19200D02*
D03*
X35906D02*
D03*
X33955Y16900D02*
D03*
X34309D02*
D03*
X33955Y17300D02*
D03*
X34309D02*
D03*
X32005Y20150D02*
D03*
X32359D02*
D03*
X26605Y19150D02*
D03*
X26959D02*
D03*
X26605Y18750D02*
D03*
X26959D02*
D03*
Y18350D02*
D03*
X26605D02*
D03*
X26959Y19550D02*
D03*
X26605D02*
D03*
X25005Y18600D02*
D03*
X25359D02*
D03*
X24259Y21250D02*
D03*
X23905D02*
D03*
X27555Y21650D02*
D03*
X27909D02*
D03*
X28405D02*
D03*
X28759D02*
D03*
X29909Y22550D02*
D03*
X29555D02*
D03*
X29909Y22950D02*
D03*
X29555D02*
D03*
Y23350D02*
D03*
X29909D02*
D03*
X29555Y23750D02*
D03*
X29909D02*
D03*
X25809Y26100D02*
D03*
X25455D02*
D03*
X16658Y27613D02*
D03*
X17013D02*
D03*
X18505Y28350D02*
D03*
X18859D02*
D03*
X16355Y24300D02*
D03*
X16709D02*
D03*
X9709Y22600D02*
D03*
X9355D02*
D03*
X9709Y23100D02*
D03*
X9355D02*
D03*
X10059Y25500D02*
D03*
X9705D02*
D03*
X23202Y9000D02*
D03*
X23556D02*
D03*
X25056D02*
D03*
X24702D02*
D03*
X55725Y17350D02*
D03*
X56080D02*
D03*
Y16000D02*
D03*
X55725D02*
D03*
X78180Y13950D02*
D03*
X77825D02*
D03*
X78180Y14950D02*
D03*
X77825D02*
D03*
X78180Y15956D02*
D03*
X77825D02*
D03*
X78830D02*
D03*
X78475D02*
D03*
X79575Y17006D02*
D03*
X79930D02*
D03*
X79575Y17406D02*
D03*
X79930D02*
D03*
X79575Y17806D02*
D03*
X79930D02*
D03*
X77130Y17006D02*
D03*
X76775D02*
D03*
Y17406D02*
D03*
X77130D02*
D03*
X76775Y17806D02*
D03*
X77130D02*
D03*
X76775Y18206D02*
D03*
X77130D02*
D03*
X78480Y18906D02*
D03*
X78125D02*
D03*
X79875Y19906D02*
D03*
X80230D02*
D03*
X79875Y20706D02*
D03*
X80230D02*
D03*
X74922Y19200D02*
D03*
X75276D02*
D03*
X73325Y16900D02*
D03*
X73680D02*
D03*
X73325Y17300D02*
D03*
X73680D02*
D03*
X71375Y20150D02*
D03*
X71730D02*
D03*
X65975Y19150D02*
D03*
X66330D02*
D03*
X65975Y18750D02*
D03*
X66330D02*
D03*
Y18350D02*
D03*
X65975D02*
D03*
X66330Y19550D02*
D03*
X65975D02*
D03*
X64375Y18600D02*
D03*
X64730D02*
D03*
X63630Y21250D02*
D03*
X63275D02*
D03*
X66925Y21650D02*
D03*
X67280D02*
D03*
X67775D02*
D03*
X68130D02*
D03*
X69280Y22550D02*
D03*
X68925D02*
D03*
X69280Y22950D02*
D03*
X68925D02*
D03*
Y23350D02*
D03*
X69280D02*
D03*
X68925Y23750D02*
D03*
X69280D02*
D03*
X65180Y26100D02*
D03*
X64825D02*
D03*
X56028Y27613D02*
D03*
X56383D02*
D03*
X57875Y28350D02*
D03*
X58230D02*
D03*
X55725Y24300D02*
D03*
X56080D02*
D03*
X49080Y22600D02*
D03*
X48725D02*
D03*
X49080Y23100D02*
D03*
X48725D02*
D03*
X49430Y25500D02*
D03*
X49075D02*
D03*
X62572Y9000D02*
D03*
X62926D02*
D03*
X64426D02*
D03*
X64072D02*
D03*
X16355Y56720D02*
D03*
X16709D02*
D03*
Y55370D02*
D03*
X16355D02*
D03*
X38809Y53320D02*
D03*
X38455D02*
D03*
X38809Y54320D02*
D03*
X38455D02*
D03*
X38809Y55326D02*
D03*
X38455D02*
D03*
X39459D02*
D03*
X39105D02*
D03*
X40205Y56376D02*
D03*
X40559D02*
D03*
X40205Y56776D02*
D03*
X40559D02*
D03*
X40205Y57176D02*
D03*
X40559D02*
D03*
X37759Y56376D02*
D03*
X37405D02*
D03*
Y56776D02*
D03*
X37759D02*
D03*
X37405Y57176D02*
D03*
X37759D02*
D03*
X37405Y57576D02*
D03*
X37759D02*
D03*
X39109Y58276D02*
D03*
X38755D02*
D03*
X40505Y59276D02*
D03*
X40859D02*
D03*
X40505Y60076D02*
D03*
X40859D02*
D03*
X35552Y58570D02*
D03*
X35906D02*
D03*
X33955Y56270D02*
D03*
X34309D02*
D03*
X33955Y56670D02*
D03*
X34309D02*
D03*
X32005Y59520D02*
D03*
X32359D02*
D03*
X26605Y58520D02*
D03*
X26959D02*
D03*
X26605Y58120D02*
D03*
X26959D02*
D03*
Y57720D02*
D03*
X26605D02*
D03*
X26959Y58920D02*
D03*
X26605D02*
D03*
X25005Y57970D02*
D03*
X25359D02*
D03*
X24259Y60620D02*
D03*
X23905D02*
D03*
X27555Y61020D02*
D03*
X27909D02*
D03*
X28405D02*
D03*
X28759D02*
D03*
X29909Y61920D02*
D03*
X29555D02*
D03*
X29909Y62320D02*
D03*
X29555D02*
D03*
Y62720D02*
D03*
X29909D02*
D03*
X29555Y63120D02*
D03*
X29909D02*
D03*
X25809Y65470D02*
D03*
X25455D02*
D03*
X16658Y66983D02*
D03*
X17013D02*
D03*
X18505Y67720D02*
D03*
X18859D02*
D03*
X16355Y63670D02*
D03*
X16709D02*
D03*
X9709Y61970D02*
D03*
X9355D02*
D03*
X9709Y62470D02*
D03*
X9355D02*
D03*
X10059Y64870D02*
D03*
X9705D02*
D03*
X23202Y48370D02*
D03*
X23556D02*
D03*
X25056D02*
D03*
X24702D02*
D03*
X55725Y56720D02*
D03*
X56080D02*
D03*
Y55370D02*
D03*
X55725D02*
D03*
X78180Y53320D02*
D03*
X77825D02*
D03*
X78180Y54320D02*
D03*
X77825D02*
D03*
X78180Y55326D02*
D03*
X77825D02*
D03*
X78830D02*
D03*
X78475D02*
D03*
X79575Y56376D02*
D03*
X79930D02*
D03*
X79575Y56776D02*
D03*
X79930D02*
D03*
X79575Y57176D02*
D03*
X79930D02*
D03*
X77130Y56376D02*
D03*
X76775D02*
D03*
Y56776D02*
D03*
X77130D02*
D03*
X76775Y57176D02*
D03*
X77130D02*
D03*
X76775Y57576D02*
D03*
X77130D02*
D03*
X78480Y58276D02*
D03*
X78125D02*
D03*
X79875Y59276D02*
D03*
X80230D02*
D03*
X79875Y60076D02*
D03*
X80230D02*
D03*
X74922Y58570D02*
D03*
X75276D02*
D03*
X73325Y56270D02*
D03*
X73680D02*
D03*
X73325Y56670D02*
D03*
X73680D02*
D03*
X71375Y59520D02*
D03*
X71730D02*
D03*
X65975Y58520D02*
D03*
X66330D02*
D03*
X65975Y58120D02*
D03*
X66330D02*
D03*
Y57720D02*
D03*
X65975D02*
D03*
X66330Y58920D02*
D03*
X65975D02*
D03*
X64375Y57970D02*
D03*
X64730D02*
D03*
X63630Y60620D02*
D03*
X63275D02*
D03*
X66925Y61020D02*
D03*
X67280D02*
D03*
X67775D02*
D03*
X68130D02*
D03*
X69280Y61920D02*
D03*
X68925D02*
D03*
X69280Y62320D02*
D03*
X68925D02*
D03*
Y62720D02*
D03*
X69280D02*
D03*
X68925Y63120D02*
D03*
X69280D02*
D03*
X65180Y65470D02*
D03*
X64825D02*
D03*
X56028Y66983D02*
D03*
X56383D02*
D03*
X57875Y67720D02*
D03*
X58230D02*
D03*
X55725Y63670D02*
D03*
X56080D02*
D03*
X49080Y61970D02*
D03*
X48725D02*
D03*
X49080Y62470D02*
D03*
X48725D02*
D03*
X49430Y64870D02*
D03*
X49075D02*
D03*
X62572Y48370D02*
D03*
X62926D02*
D03*
X64426D02*
D03*
X64072D02*
D03*
D21*
X15958Y16394D02*
D03*
Y16650D02*
D03*
Y16906D02*
D03*
X16706D02*
D03*
Y16394D02*
D03*
X55328D02*
D03*
Y16650D02*
D03*
Y16906D02*
D03*
X56076D02*
D03*
Y16394D02*
D03*
X15958Y55764D02*
D03*
Y56020D02*
D03*
Y56276D02*
D03*
X16706D02*
D03*
Y55764D02*
D03*
X55328D02*
D03*
Y56020D02*
D03*
Y56276D02*
D03*
X56076D02*
D03*
Y55764D02*
D03*
D22*
X21782Y29847D02*
D03*
X22038D02*
D03*
X22294D02*
D03*
X21270D02*
D03*
X21526D02*
D03*
X17032D02*
D03*
X16776D02*
D03*
X16520D02*
D03*
X17288D02*
D03*
X17544D02*
D03*
X61152D02*
D03*
X61408D02*
D03*
X61664D02*
D03*
X60641D02*
D03*
X60896D02*
D03*
X56402D02*
D03*
X56146D02*
D03*
X55891D02*
D03*
X56658D02*
D03*
X56914D02*
D03*
X21782Y69217D02*
D03*
X22038D02*
D03*
X22294D02*
D03*
X21270D02*
D03*
X21526D02*
D03*
X17032D02*
D03*
X16776D02*
D03*
X16520D02*
D03*
X17288D02*
D03*
X17544D02*
D03*
X61152D02*
D03*
X61408D02*
D03*
X61664D02*
D03*
X60641D02*
D03*
X60896D02*
D03*
X56402D02*
D03*
X56146D02*
D03*
X55891D02*
D03*
X56658D02*
D03*
X56914D02*
D03*
D23*
X30659Y11620D02*
D03*
X30502D02*
D03*
X30344D02*
D03*
X30187D02*
D03*
X30030D02*
D03*
X29872D02*
D03*
X29715D02*
D03*
X29557D02*
D03*
X29400D02*
D03*
X29242D02*
D03*
X29085D02*
D03*
X28927D02*
D03*
X28770D02*
D03*
X28612D02*
D03*
X28455D02*
D03*
X28297D02*
D03*
X28140D02*
D03*
X27982D02*
D03*
X27825D02*
D03*
X27667D02*
D03*
X27510D02*
D03*
X27352D02*
D03*
X27195D02*
D03*
X27037D02*
D03*
X26880D02*
D03*
X26722D02*
D03*
X26565D02*
D03*
X26407D02*
D03*
X26250D02*
D03*
X26093D02*
D03*
X25935D02*
D03*
X25778D02*
D03*
X25620D02*
D03*
X25463D02*
D03*
X25305D02*
D03*
X30659Y10580D02*
D03*
X30502D02*
D03*
X30344D02*
D03*
X30187D02*
D03*
X30030D02*
D03*
X29872D02*
D03*
X29715D02*
D03*
X29557D02*
D03*
X29400D02*
D03*
X29242D02*
D03*
X29085D02*
D03*
X28927D02*
D03*
X28770D02*
D03*
X28612D02*
D03*
X28455D02*
D03*
X28297D02*
D03*
X28140D02*
D03*
X27982D02*
D03*
X27825D02*
D03*
X27667D02*
D03*
X27510D02*
D03*
X27352D02*
D03*
X27195D02*
D03*
X27037D02*
D03*
X26880D02*
D03*
X26722D02*
D03*
X26565D02*
D03*
X26407D02*
D03*
X26250D02*
D03*
X26093D02*
D03*
X25935D02*
D03*
X25778D02*
D03*
X25620D02*
D03*
X25463D02*
D03*
X25305D02*
D03*
X70030Y11620D02*
D03*
X69872D02*
D03*
X69715D02*
D03*
X69557D02*
D03*
X69400D02*
D03*
X69242D02*
D03*
X69085D02*
D03*
X68927D02*
D03*
X68770D02*
D03*
X68612D02*
D03*
X68455D02*
D03*
X68297D02*
D03*
X68140D02*
D03*
X67982D02*
D03*
X67825D02*
D03*
X67667D02*
D03*
X67510D02*
D03*
X67352D02*
D03*
X67195D02*
D03*
X67037D02*
D03*
X66880D02*
D03*
X66722D02*
D03*
X66565D02*
D03*
X66407D02*
D03*
X66250D02*
D03*
X66093D02*
D03*
X65935D02*
D03*
X65778D02*
D03*
X65620D02*
D03*
X65463D02*
D03*
X65305D02*
D03*
X65148D02*
D03*
X64990D02*
D03*
X64833D02*
D03*
X64675D02*
D03*
X70030Y10580D02*
D03*
X69872D02*
D03*
X69715D02*
D03*
X69557D02*
D03*
X69400D02*
D03*
X69242D02*
D03*
X69085D02*
D03*
X68927D02*
D03*
X68770D02*
D03*
X68612D02*
D03*
X68455D02*
D03*
X68297D02*
D03*
X68140D02*
D03*
X67982D02*
D03*
X67825D02*
D03*
X67667D02*
D03*
X67510D02*
D03*
X67352D02*
D03*
X67195D02*
D03*
X67037D02*
D03*
X66880D02*
D03*
X66722D02*
D03*
X66565D02*
D03*
X66407D02*
D03*
X66250D02*
D03*
X66093D02*
D03*
X65935D02*
D03*
X65778D02*
D03*
X65620D02*
D03*
X65463D02*
D03*
X65305D02*
D03*
X65148D02*
D03*
X64990D02*
D03*
X64833D02*
D03*
X64675D02*
D03*
X30659Y50990D02*
D03*
X30502D02*
D03*
X30344D02*
D03*
X30187D02*
D03*
X30030D02*
D03*
X29872D02*
D03*
X29715D02*
D03*
X29557D02*
D03*
X29400D02*
D03*
X29242D02*
D03*
X29085D02*
D03*
X28927D02*
D03*
X28770D02*
D03*
X28612D02*
D03*
X28455D02*
D03*
X28297D02*
D03*
X28140D02*
D03*
X27982D02*
D03*
X27825D02*
D03*
X27667D02*
D03*
X27510D02*
D03*
X27352D02*
D03*
X27195D02*
D03*
X27037D02*
D03*
X26880D02*
D03*
X26722D02*
D03*
X26565D02*
D03*
X26407D02*
D03*
X26250D02*
D03*
X26093D02*
D03*
X25935D02*
D03*
X25778D02*
D03*
X25620D02*
D03*
X25463D02*
D03*
X25305D02*
D03*
X30659Y49950D02*
D03*
X30502D02*
D03*
X30344D02*
D03*
X30187D02*
D03*
X30030D02*
D03*
X29872D02*
D03*
X29715D02*
D03*
X29557D02*
D03*
X29400D02*
D03*
X29242D02*
D03*
X29085D02*
D03*
X28927D02*
D03*
X28770D02*
D03*
X28612D02*
D03*
X28455D02*
D03*
X28297D02*
D03*
X28140D02*
D03*
X27982D02*
D03*
X27825D02*
D03*
X27667D02*
D03*
X27510D02*
D03*
X27352D02*
D03*
X27195D02*
D03*
X27037D02*
D03*
X26880D02*
D03*
X26722D02*
D03*
X26565D02*
D03*
X26407D02*
D03*
X26250D02*
D03*
X26093D02*
D03*
X25935D02*
D03*
X25778D02*
D03*
X25620D02*
D03*
X25463D02*
D03*
X25305D02*
D03*
X70030Y50990D02*
D03*
X69872D02*
D03*
X69715D02*
D03*
X69557D02*
D03*
X69400D02*
D03*
X69242D02*
D03*
X69085D02*
D03*
X68927D02*
D03*
X68770D02*
D03*
X68612D02*
D03*
X68455D02*
D03*
X68297D02*
D03*
X68140D02*
D03*
X67982D02*
D03*
X67825D02*
D03*
X67667D02*
D03*
X67510D02*
D03*
X67352D02*
D03*
X67195D02*
D03*
X67037D02*
D03*
X66880D02*
D03*
X66722D02*
D03*
X66565D02*
D03*
X66407D02*
D03*
X66250D02*
D03*
X66093D02*
D03*
X65935D02*
D03*
X65778D02*
D03*
X65620D02*
D03*
X65463D02*
D03*
X65305D02*
D03*
X65148D02*
D03*
X64990D02*
D03*
X64833D02*
D03*
X64675D02*
D03*
X70030Y49950D02*
D03*
X69872D02*
D03*
X69715D02*
D03*
X69557D02*
D03*
X69400D02*
D03*
X69242D02*
D03*
X69085D02*
D03*
X68927D02*
D03*
X68770D02*
D03*
X68612D02*
D03*
X68455D02*
D03*
X68297D02*
D03*
X68140D02*
D03*
X67982D02*
D03*
X67825D02*
D03*
X67667D02*
D03*
X67510D02*
D03*
X67352D02*
D03*
X67195D02*
D03*
X67037D02*
D03*
X66880D02*
D03*
X66722D02*
D03*
X66565D02*
D03*
X66407D02*
D03*
X66250D02*
D03*
X66093D02*
D03*
X65935D02*
D03*
X65778D02*
D03*
X65620D02*
D03*
X65463D02*
D03*
X65305D02*
D03*
X65148D02*
D03*
X64990D02*
D03*
X64833D02*
D03*
X64675D02*
D03*
D24*
X23718Y22653D02*
D03*
Y21747D02*
D03*
X24446D02*
D03*
Y22653D02*
D03*
X63088D02*
D03*
Y21747D02*
D03*
X63817D02*
D03*
Y22653D02*
D03*
X23718Y62023D02*
D03*
Y61117D02*
D03*
X24446D02*
D03*
Y62023D02*
D03*
X63088D02*
D03*
Y61117D02*
D03*
X63817D02*
D03*
Y62023D02*
D03*
D26*
X21310Y30900D02*
D03*
X22255D02*
D03*
X17505D02*
D03*
X16560D02*
D03*
X60680D02*
D03*
X61625D02*
D03*
X56875D02*
D03*
X55930D02*
D03*
X21310Y70270D02*
D03*
X22255D02*
D03*
X17505D02*
D03*
X16560D02*
D03*
X60680D02*
D03*
X61625D02*
D03*
X56875D02*
D03*
X55930D02*
D03*
D27*
X20522Y29916D02*
D03*
X23042D02*
D03*
X18292D02*
D03*
X15772D02*
D03*
X59893D02*
D03*
X62412D02*
D03*
X57662D02*
D03*
X55143D02*
D03*
X20522Y69286D02*
D03*
X23042D02*
D03*
X18292D02*
D03*
X15772D02*
D03*
X59893D02*
D03*
X62412D02*
D03*
X57662D02*
D03*
X55143D02*
D03*
D28*
X39316Y18404D02*
D03*
X39060D02*
D03*
X38804D02*
D03*
X38548D02*
D03*
Y16908D02*
D03*
X38804D02*
D03*
X39060D02*
D03*
X39316D02*
D03*
X78686Y18404D02*
D03*
X78430D02*
D03*
X78174D02*
D03*
X77919D02*
D03*
Y16908D02*
D03*
X78174D02*
D03*
X78430D02*
D03*
X78686D02*
D03*
X39316Y57774D02*
D03*
X39060D02*
D03*
X38804D02*
D03*
X38548D02*
D03*
Y56278D02*
D03*
X38804D02*
D03*
X39060D02*
D03*
X39316D02*
D03*
X78686Y57774D02*
D03*
X78430D02*
D03*
X78174D02*
D03*
X77919D02*
D03*
Y56278D02*
D03*
X78174D02*
D03*
X78430D02*
D03*
X78686D02*
D03*
D29*
X38184Y18040D02*
D03*
Y17784D02*
D03*
Y17528D02*
D03*
Y17272D02*
D03*
X39680D02*
D03*
Y17528D02*
D03*
Y17784D02*
D03*
Y18040D02*
D03*
X77554D02*
D03*
Y17784D02*
D03*
Y17528D02*
D03*
Y17272D02*
D03*
X79050D02*
D03*
Y17528D02*
D03*
Y17784D02*
D03*
Y18040D02*
D03*
X38184Y57410D02*
D03*
Y57154D02*
D03*
Y56898D02*
D03*
Y56643D02*
D03*
X39680D02*
D03*
Y56898D02*
D03*
Y57154D02*
D03*
Y57410D02*
D03*
X77554D02*
D03*
Y57154D02*
D03*
Y56898D02*
D03*
Y56643D02*
D03*
X79050D02*
D03*
Y56898D02*
D03*
Y57154D02*
D03*
Y57410D02*
D03*
D30*
X38932Y17656D02*
D03*
X78302D02*
D03*
X38932Y57026D02*
D03*
X78302D02*
D03*
D31*
X39523Y21251D02*
D03*
X39326D02*
D03*
X39129D02*
D03*
X38932D02*
D03*
X38735D02*
D03*
X38539D02*
D03*
X38342D02*
D03*
Y19361D02*
D03*
X38539D02*
D03*
X38735D02*
D03*
X38932D02*
D03*
X39129D02*
D03*
X39326D02*
D03*
X39523D02*
D03*
X78893Y21251D02*
D03*
X78696D02*
D03*
X78499D02*
D03*
X78302D02*
D03*
X78106D02*
D03*
X77909D02*
D03*
X77712D02*
D03*
Y19361D02*
D03*
X77909D02*
D03*
X78106D02*
D03*
X78302D02*
D03*
X78499D02*
D03*
X78696D02*
D03*
X78893D02*
D03*
X39523Y60621D02*
D03*
X39326D02*
D03*
X39129D02*
D03*
X38932D02*
D03*
X38735D02*
D03*
X38539D02*
D03*
X38342D02*
D03*
Y58731D02*
D03*
X38539D02*
D03*
X38735D02*
D03*
X38932D02*
D03*
X39129D02*
D03*
X39326D02*
D03*
X39523D02*
D03*
X78893Y60621D02*
D03*
X78696D02*
D03*
X78499D02*
D03*
X78302D02*
D03*
X78106D02*
D03*
X77909D02*
D03*
X77712D02*
D03*
Y58731D02*
D03*
X77909D02*
D03*
X78106D02*
D03*
X78302D02*
D03*
X78499D02*
D03*
X78696D02*
D03*
X78893D02*
D03*
D32*
X37987Y20897D02*
D03*
Y20700D02*
D03*
Y20503D02*
D03*
Y20306D02*
D03*
Y20109D02*
D03*
Y19913D02*
D03*
Y19716D02*
D03*
X39877D02*
D03*
Y19913D02*
D03*
Y20109D02*
D03*
Y20306D02*
D03*
Y20503D02*
D03*
Y20700D02*
D03*
Y20897D02*
D03*
X77357D02*
D03*
Y20700D02*
D03*
Y20503D02*
D03*
Y20306D02*
D03*
Y20109D02*
D03*
Y19913D02*
D03*
Y19716D02*
D03*
X79247D02*
D03*
Y19913D02*
D03*
Y20109D02*
D03*
Y20306D02*
D03*
Y20503D02*
D03*
Y20700D02*
D03*
Y20897D02*
D03*
X37987Y60267D02*
D03*
Y60070D02*
D03*
Y59873D02*
D03*
Y59676D02*
D03*
Y59480D02*
D03*
Y59283D02*
D03*
Y59086D02*
D03*
X39877D02*
D03*
Y59283D02*
D03*
Y59480D02*
D03*
Y59676D02*
D03*
Y59873D02*
D03*
Y60070D02*
D03*
Y60267D02*
D03*
X77357D02*
D03*
Y60070D02*
D03*
Y59873D02*
D03*
Y59676D02*
D03*
Y59480D02*
D03*
Y59283D02*
D03*
Y59086D02*
D03*
X79247D02*
D03*
Y59283D02*
D03*
Y59480D02*
D03*
Y59676D02*
D03*
Y59873D02*
D03*
Y60070D02*
D03*
Y60267D02*
D03*
D33*
X38932Y20306D02*
D03*
X78302D02*
D03*
X38932Y59676D02*
D03*
X78302D02*
D03*
D34*
X37437Y21700D02*
D03*
X38028D02*
D03*
X24137Y18550D02*
D03*
X24728D02*
D03*
X25187Y26550D02*
D03*
X25778D02*
D03*
X28378Y26300D02*
D03*
X27787D02*
D03*
X26778Y26350D02*
D03*
X26187D02*
D03*
X22478Y27650D02*
D03*
X21887D02*
D03*
X19078Y28800D02*
D03*
X18487D02*
D03*
X17887Y29250D02*
D03*
X18478D02*
D03*
X9137Y23600D02*
D03*
X9728D02*
D03*
X9487Y25050D02*
D03*
X10078D02*
D03*
X76807Y21700D02*
D03*
X77398D02*
D03*
X63507Y18550D02*
D03*
X64098D02*
D03*
X64557Y26550D02*
D03*
X65148D02*
D03*
X67748Y26300D02*
D03*
X67157D02*
D03*
X66148Y26350D02*
D03*
X65557D02*
D03*
X61848Y27650D02*
D03*
X61257D02*
D03*
X58448Y28800D02*
D03*
X57857D02*
D03*
X57257Y29250D02*
D03*
X57848D02*
D03*
X48507Y23600D02*
D03*
X49098D02*
D03*
X48857Y25050D02*
D03*
X49448D02*
D03*
X37437Y61070D02*
D03*
X38028D02*
D03*
X24137Y57920D02*
D03*
X24728D02*
D03*
X25187Y65920D02*
D03*
X25778D02*
D03*
X28378Y65670D02*
D03*
X27787D02*
D03*
X26778Y65720D02*
D03*
X26187D02*
D03*
X22478Y67020D02*
D03*
X21887D02*
D03*
X19078Y68170D02*
D03*
X18487D02*
D03*
X17887Y68620D02*
D03*
X18478D02*
D03*
X9137Y62970D02*
D03*
X9728D02*
D03*
X9487Y64420D02*
D03*
X10078D02*
D03*
X76807Y61070D02*
D03*
X77398D02*
D03*
X63507Y57920D02*
D03*
X64098D02*
D03*
X64557Y65920D02*
D03*
X65148D02*
D03*
X67748Y65670D02*
D03*
X67157D02*
D03*
X66148Y65720D02*
D03*
X65557D02*
D03*
X61848Y67020D02*
D03*
X61257D02*
D03*
X58448Y68170D02*
D03*
X57857D02*
D03*
X57257Y68620D02*
D03*
X57848D02*
D03*
X48507Y62970D02*
D03*
X49098D02*
D03*
X48857Y64420D02*
D03*
X49448D02*
D03*
D35*
X32188Y15494D02*
D03*
Y15750D02*
D03*
Y16006D02*
D03*
X31676Y15494D02*
D03*
Y15750D02*
D03*
Y16006D02*
D03*
X71558Y15494D02*
D03*
Y15750D02*
D03*
Y16006D02*
D03*
X71046Y15494D02*
D03*
Y15750D02*
D03*
Y16006D02*
D03*
X32188Y54864D02*
D03*
Y55120D02*
D03*
Y55376D02*
D03*
X31676Y54864D02*
D03*
Y55120D02*
D03*
Y55376D02*
D03*
X71558Y54864D02*
D03*
Y55120D02*
D03*
Y55376D02*
D03*
X71046Y54864D02*
D03*
Y55120D02*
D03*
Y55376D02*
D03*
D36*
X33582Y16883D02*
D03*
Y17317D02*
D03*
X72952Y16883D02*
D03*
Y17317D02*
D03*
X33582Y56254D02*
D03*
Y56687D02*
D03*
X72952Y56254D02*
D03*
Y56687D02*
D03*
D37*
X31532Y18250D02*
D03*
X70902D02*
D03*
X31532Y57620D02*
D03*
X70902D02*
D03*
D38*
X33068Y19530D02*
D03*
Y19333D02*
D03*
Y19136D02*
D03*
Y18939D02*
D03*
Y18742D02*
D03*
Y18545D02*
D03*
Y18348D02*
D03*
Y18152D02*
D03*
Y17955D02*
D03*
Y17758D02*
D03*
Y17561D02*
D03*
Y17364D02*
D03*
Y17167D02*
D03*
Y16970D02*
D03*
X29997D02*
D03*
Y17167D02*
D03*
Y17364D02*
D03*
Y17561D02*
D03*
Y17758D02*
D03*
Y17955D02*
D03*
Y18152D02*
D03*
Y18348D02*
D03*
Y18545D02*
D03*
Y18742D02*
D03*
Y18939D02*
D03*
Y19136D02*
D03*
Y19333D02*
D03*
Y19530D02*
D03*
X72438D02*
D03*
Y19333D02*
D03*
Y19136D02*
D03*
Y18939D02*
D03*
Y18742D02*
D03*
Y18545D02*
D03*
Y18348D02*
D03*
Y18152D02*
D03*
Y17955D02*
D03*
Y17758D02*
D03*
Y17561D02*
D03*
Y17364D02*
D03*
Y17167D02*
D03*
Y16970D02*
D03*
X69367D02*
D03*
Y17167D02*
D03*
Y17364D02*
D03*
Y17561D02*
D03*
Y17758D02*
D03*
Y17955D02*
D03*
Y18152D02*
D03*
Y18348D02*
D03*
Y18545D02*
D03*
Y18742D02*
D03*
Y18939D02*
D03*
Y19136D02*
D03*
Y19333D02*
D03*
Y19530D02*
D03*
X33068Y58900D02*
D03*
Y58703D02*
D03*
Y58506D02*
D03*
Y58309D02*
D03*
Y58112D02*
D03*
Y57915D02*
D03*
Y57719D02*
D03*
Y57522D02*
D03*
Y57325D02*
D03*
Y57128D02*
D03*
Y56931D02*
D03*
Y56734D02*
D03*
Y56537D02*
D03*
Y56341D02*
D03*
X29997D02*
D03*
Y56537D02*
D03*
Y56734D02*
D03*
Y56931D02*
D03*
Y57128D02*
D03*
Y57325D02*
D03*
Y57522D02*
D03*
Y57719D02*
D03*
Y57915D02*
D03*
Y58112D02*
D03*
Y58309D02*
D03*
Y58506D02*
D03*
Y58703D02*
D03*
Y58900D02*
D03*
X72438D02*
D03*
Y58703D02*
D03*
Y58506D02*
D03*
Y58309D02*
D03*
Y58112D02*
D03*
Y57915D02*
D03*
Y57719D02*
D03*
Y57522D02*
D03*
Y57325D02*
D03*
Y57128D02*
D03*
Y56931D02*
D03*
Y56734D02*
D03*
Y56537D02*
D03*
Y56341D02*
D03*
X69367D02*
D03*
Y56537D02*
D03*
Y56734D02*
D03*
Y56931D02*
D03*
Y57128D02*
D03*
Y57325D02*
D03*
Y57522D02*
D03*
Y57719D02*
D03*
Y57915D02*
D03*
Y58112D02*
D03*
Y58309D02*
D03*
Y58506D02*
D03*
Y58703D02*
D03*
Y58900D02*
D03*
D39*
X32812Y16715D02*
D03*
X32615D02*
D03*
X32418D02*
D03*
X32221D02*
D03*
X32024D02*
D03*
X31828D02*
D03*
X31631D02*
D03*
X31434D02*
D03*
X31237D02*
D03*
X31040D02*
D03*
X30843D02*
D03*
X30646D02*
D03*
X30450D02*
D03*
X30253D02*
D03*
Y19785D02*
D03*
X30450D02*
D03*
X30646D02*
D03*
X30843D02*
D03*
X31040D02*
D03*
X31237D02*
D03*
X31434D02*
D03*
X31631D02*
D03*
X31828D02*
D03*
X32024D02*
D03*
X32221D02*
D03*
X32418D02*
D03*
X32615D02*
D03*
X32812D02*
D03*
X72182Y16715D02*
D03*
X71985D02*
D03*
X71788D02*
D03*
X71591D02*
D03*
X71394D02*
D03*
X71198D02*
D03*
X71001D02*
D03*
X70804D02*
D03*
X70607D02*
D03*
X70410D02*
D03*
X70213D02*
D03*
X70017D02*
D03*
X69820D02*
D03*
X69623D02*
D03*
Y19785D02*
D03*
X69820D02*
D03*
X70017D02*
D03*
X70213D02*
D03*
X70410D02*
D03*
X70607D02*
D03*
X70804D02*
D03*
X71001D02*
D03*
X71198D02*
D03*
X71394D02*
D03*
X71591D02*
D03*
X71788D02*
D03*
X71985D02*
D03*
X72182D02*
D03*
X32812Y56085D02*
D03*
X32615D02*
D03*
X32418D02*
D03*
X32221D02*
D03*
X32024D02*
D03*
X31828D02*
D03*
X31631D02*
D03*
X31434D02*
D03*
X31237D02*
D03*
X31040D02*
D03*
X30843D02*
D03*
X30646D02*
D03*
X30450D02*
D03*
X30253D02*
D03*
Y59156D02*
D03*
X30450D02*
D03*
X30646D02*
D03*
X30843D02*
D03*
X31040D02*
D03*
X31237D02*
D03*
X31434D02*
D03*
X31631D02*
D03*
X31828D02*
D03*
X32024D02*
D03*
X32221D02*
D03*
X32418D02*
D03*
X32615D02*
D03*
X32812D02*
D03*
X72182Y56085D02*
D03*
X71985D02*
D03*
X71788D02*
D03*
X71591D02*
D03*
X71394D02*
D03*
X71198D02*
D03*
X71001D02*
D03*
X70804D02*
D03*
X70607D02*
D03*
X70410D02*
D03*
X70213D02*
D03*
X70017D02*
D03*
X69820D02*
D03*
X69623D02*
D03*
Y59156D02*
D03*
X69820D02*
D03*
X70017D02*
D03*
X70213D02*
D03*
X70410D02*
D03*
X70607D02*
D03*
X70804D02*
D03*
X71001D02*
D03*
X71198D02*
D03*
X71394D02*
D03*
X71591D02*
D03*
X71788D02*
D03*
X71985D02*
D03*
X72182D02*
D03*
D40*
X29684Y15202D02*
D03*
X29428D02*
D03*
X29172D02*
D03*
X28916D02*
D03*
X28660D02*
D03*
X28404D02*
D03*
X28148D02*
D03*
X27893D02*
D03*
X27637D02*
D03*
X27381D02*
D03*
X29684Y12998D02*
D03*
X29428D02*
D03*
X29172D02*
D03*
X28916D02*
D03*
X28660D02*
D03*
X28404D02*
D03*
X28148D02*
D03*
X27893D02*
D03*
X27637D02*
D03*
X27381D02*
D03*
X25731Y6948D02*
D03*
X25987D02*
D03*
X26243D02*
D03*
X26498D02*
D03*
X26754D02*
D03*
X27010D02*
D03*
X27266D02*
D03*
X27522D02*
D03*
X27778D02*
D03*
X28034D02*
D03*
X25731Y9152D02*
D03*
X25987D02*
D03*
X26243D02*
D03*
X26498D02*
D03*
X26754D02*
D03*
X27010D02*
D03*
X27266D02*
D03*
X27522D02*
D03*
X27778D02*
D03*
X28034D02*
D03*
X28531Y6948D02*
D03*
X28787D02*
D03*
X29043D02*
D03*
X29298D02*
D03*
X29554D02*
D03*
X29810D02*
D03*
X30066D02*
D03*
X30322D02*
D03*
X30578D02*
D03*
X30834D02*
D03*
X28531Y9152D02*
D03*
X28787D02*
D03*
X29043D02*
D03*
X29298D02*
D03*
X29554D02*
D03*
X29810D02*
D03*
X30066D02*
D03*
X30322D02*
D03*
X30578D02*
D03*
X30834D02*
D03*
X69054Y15202D02*
D03*
X68798D02*
D03*
X68542D02*
D03*
X68286D02*
D03*
X68030D02*
D03*
X67774D02*
D03*
X67519D02*
D03*
X67263D02*
D03*
X67007D02*
D03*
X66751D02*
D03*
X69054Y12998D02*
D03*
X68798D02*
D03*
X68542D02*
D03*
X68286D02*
D03*
X68030D02*
D03*
X67774D02*
D03*
X67519D02*
D03*
X67263D02*
D03*
X67007D02*
D03*
X66751D02*
D03*
X65101Y6948D02*
D03*
X65357D02*
D03*
X65613D02*
D03*
X65869D02*
D03*
X66124D02*
D03*
X66380D02*
D03*
X66636D02*
D03*
X66892D02*
D03*
X67148D02*
D03*
X67404D02*
D03*
X65101Y9152D02*
D03*
X65357D02*
D03*
X65613D02*
D03*
X65869D02*
D03*
X66124D02*
D03*
X66380D02*
D03*
X66636D02*
D03*
X66892D02*
D03*
X67148D02*
D03*
X67404D02*
D03*
X67901Y6948D02*
D03*
X68157D02*
D03*
X68413D02*
D03*
X68668D02*
D03*
X68924D02*
D03*
X69180D02*
D03*
X69436D02*
D03*
X69692D02*
D03*
X69948D02*
D03*
X70204D02*
D03*
X67901Y9152D02*
D03*
X68157D02*
D03*
X68413D02*
D03*
X68668D02*
D03*
X68924D02*
D03*
X69180D02*
D03*
X69436D02*
D03*
X69692D02*
D03*
X69948D02*
D03*
X70204D02*
D03*
X29684Y54572D02*
D03*
X29428D02*
D03*
X29172D02*
D03*
X28916D02*
D03*
X28660D02*
D03*
X28404D02*
D03*
X28148D02*
D03*
X27893D02*
D03*
X27637D02*
D03*
X27381D02*
D03*
X29684Y52368D02*
D03*
X29428D02*
D03*
X29172D02*
D03*
X28916D02*
D03*
X28660D02*
D03*
X28404D02*
D03*
X28148D02*
D03*
X27893D02*
D03*
X27637D02*
D03*
X27381D02*
D03*
X25731Y46318D02*
D03*
X25987D02*
D03*
X26243D02*
D03*
X26498D02*
D03*
X26754D02*
D03*
X27010D02*
D03*
X27266D02*
D03*
X27522D02*
D03*
X27778D02*
D03*
X28034D02*
D03*
X25731Y48522D02*
D03*
X25987D02*
D03*
X26243D02*
D03*
X26498D02*
D03*
X26754D02*
D03*
X27010D02*
D03*
X27266D02*
D03*
X27522D02*
D03*
X27778D02*
D03*
X28034D02*
D03*
X28531Y46318D02*
D03*
X28787D02*
D03*
X29043D02*
D03*
X29298D02*
D03*
X29554D02*
D03*
X29810D02*
D03*
X30066D02*
D03*
X30322D02*
D03*
X30578D02*
D03*
X30834D02*
D03*
X28531Y48522D02*
D03*
X28787D02*
D03*
X29043D02*
D03*
X29298D02*
D03*
X29554D02*
D03*
X29810D02*
D03*
X30066D02*
D03*
X30322D02*
D03*
X30578D02*
D03*
X30834D02*
D03*
X69054Y54572D02*
D03*
X68798D02*
D03*
X68542D02*
D03*
X68286D02*
D03*
X68030D02*
D03*
X67774D02*
D03*
X67519D02*
D03*
X67263D02*
D03*
X67007D02*
D03*
X66751D02*
D03*
X69054Y52368D02*
D03*
X68798D02*
D03*
X68542D02*
D03*
X68286D02*
D03*
X68030D02*
D03*
X67774D02*
D03*
X67519D02*
D03*
X67263D02*
D03*
X67007D02*
D03*
X66751D02*
D03*
X65101Y46318D02*
D03*
X65357D02*
D03*
X65613D02*
D03*
X65869D02*
D03*
X66124D02*
D03*
X66380D02*
D03*
X66636D02*
D03*
X66892D02*
D03*
X67148D02*
D03*
X67404D02*
D03*
X65101Y48522D02*
D03*
X65357D02*
D03*
X65613D02*
D03*
X65869D02*
D03*
X66124D02*
D03*
X66380D02*
D03*
X66636D02*
D03*
X66892D02*
D03*
X67148D02*
D03*
X67404D02*
D03*
X67901Y46318D02*
D03*
X68157D02*
D03*
X68413D02*
D03*
X68668D02*
D03*
X68924D02*
D03*
X69180D02*
D03*
X69436D02*
D03*
X69692D02*
D03*
X69948D02*
D03*
X70204D02*
D03*
X67901Y48522D02*
D03*
X68157D02*
D03*
X68413D02*
D03*
X68668D02*
D03*
X68924D02*
D03*
X69180D02*
D03*
X69436D02*
D03*
X69692D02*
D03*
X69948D02*
D03*
X70204D02*
D03*
D41*
X27801Y17024D02*
D03*
Y16650D02*
D03*
Y16276D02*
D03*
X28864D02*
D03*
Y17024D02*
D03*
X67171D02*
D03*
Y16650D02*
D03*
Y16276D02*
D03*
X68234D02*
D03*
Y17024D02*
D03*
X27801Y56394D02*
D03*
Y56020D02*
D03*
Y55646D02*
D03*
X28864D02*
D03*
Y56394D02*
D03*
X67171D02*
D03*
Y56020D02*
D03*
Y55646D02*
D03*
X68234D02*
D03*
Y56394D02*
D03*
D43*
X28970Y19444D02*
D03*
Y19247D02*
D03*
Y19050D02*
D03*
Y18853D02*
D03*
Y18656D02*
D03*
X27395D02*
D03*
Y18853D02*
D03*
Y19050D02*
D03*
Y19247D02*
D03*
Y19444D02*
D03*
X68340D02*
D03*
Y19247D02*
D03*
Y19050D02*
D03*
Y18853D02*
D03*
Y18656D02*
D03*
X66765D02*
D03*
Y18853D02*
D03*
Y19050D02*
D03*
Y19247D02*
D03*
Y19444D02*
D03*
X28970Y58814D02*
D03*
Y58617D02*
D03*
Y58420D02*
D03*
Y58223D02*
D03*
Y58026D02*
D03*
X27395D02*
D03*
Y58223D02*
D03*
Y58420D02*
D03*
Y58617D02*
D03*
Y58814D02*
D03*
X68340D02*
D03*
Y58617D02*
D03*
Y58420D02*
D03*
Y58223D02*
D03*
Y58026D02*
D03*
X66765D02*
D03*
Y58223D02*
D03*
Y58420D02*
D03*
Y58617D02*
D03*
Y58814D02*
D03*
D44*
X28576Y18263D02*
D03*
X28379D02*
D03*
X28182D02*
D03*
X27985D02*
D03*
X27789D02*
D03*
Y19837D02*
D03*
X27985D02*
D03*
X28182D02*
D03*
X28379D02*
D03*
X28576D02*
D03*
X67946Y18263D02*
D03*
X67749D02*
D03*
X67552D02*
D03*
X67356D02*
D03*
X67159D02*
D03*
Y19837D02*
D03*
X67356D02*
D03*
X67552D02*
D03*
X67749D02*
D03*
X67946D02*
D03*
X28576Y57633D02*
D03*
X28379D02*
D03*
X28182D02*
D03*
X27985D02*
D03*
X27789D02*
D03*
Y59207D02*
D03*
X27985D02*
D03*
X28182D02*
D03*
X28379D02*
D03*
X28576D02*
D03*
X67946Y57633D02*
D03*
X67749D02*
D03*
X67552D02*
D03*
X67356D02*
D03*
X67159D02*
D03*
Y59207D02*
D03*
X67356D02*
D03*
X67552D02*
D03*
X67749D02*
D03*
X67946D02*
D03*
D45*
X27282Y23950D02*
D03*
X66652D02*
D03*
X27282Y63320D02*
D03*
X66652D02*
D03*
D46*
X25570Y22474D02*
D03*
Y22670D02*
D03*
Y22867D02*
D03*
Y23064D02*
D03*
Y23261D02*
D03*
Y23458D02*
D03*
Y23655D02*
D03*
Y23852D02*
D03*
Y24048D02*
D03*
Y24245D02*
D03*
Y24442D02*
D03*
Y24639D02*
D03*
Y24836D02*
D03*
Y25033D02*
D03*
Y25230D02*
D03*
Y25426D02*
D03*
X28995D02*
D03*
Y25230D02*
D03*
Y25033D02*
D03*
Y24836D02*
D03*
Y24639D02*
D03*
Y24442D02*
D03*
Y24245D02*
D03*
Y24048D02*
D03*
Y23852D02*
D03*
Y23655D02*
D03*
Y23458D02*
D03*
Y23261D02*
D03*
Y23064D02*
D03*
Y22867D02*
D03*
Y22670D02*
D03*
Y22474D02*
D03*
X64940D02*
D03*
Y22670D02*
D03*
Y22867D02*
D03*
Y23064D02*
D03*
Y23261D02*
D03*
Y23458D02*
D03*
Y23655D02*
D03*
Y23852D02*
D03*
Y24048D02*
D03*
Y24245D02*
D03*
Y24442D02*
D03*
Y24639D02*
D03*
Y24836D02*
D03*
Y25033D02*
D03*
Y25230D02*
D03*
Y25426D02*
D03*
X68365D02*
D03*
Y25230D02*
D03*
Y25033D02*
D03*
Y24836D02*
D03*
Y24639D02*
D03*
Y24442D02*
D03*
Y24245D02*
D03*
Y24048D02*
D03*
Y23852D02*
D03*
Y23655D02*
D03*
Y23458D02*
D03*
Y23261D02*
D03*
Y23064D02*
D03*
Y22867D02*
D03*
Y22670D02*
D03*
Y22474D02*
D03*
X25570Y61844D02*
D03*
Y62041D02*
D03*
Y62237D02*
D03*
Y62434D02*
D03*
Y62631D02*
D03*
Y62828D02*
D03*
Y63025D02*
D03*
Y63222D02*
D03*
Y63418D02*
D03*
Y63615D02*
D03*
Y63812D02*
D03*
Y64009D02*
D03*
Y64206D02*
D03*
Y64403D02*
D03*
Y64600D02*
D03*
Y64796D02*
D03*
X28995D02*
D03*
Y64600D02*
D03*
Y64403D02*
D03*
Y64206D02*
D03*
Y64009D02*
D03*
Y63812D02*
D03*
Y63615D02*
D03*
Y63418D02*
D03*
Y63222D02*
D03*
Y63025D02*
D03*
Y62828D02*
D03*
Y62631D02*
D03*
Y62434D02*
D03*
Y62237D02*
D03*
Y62041D02*
D03*
Y61844D02*
D03*
X64940D02*
D03*
Y62041D02*
D03*
Y62237D02*
D03*
Y62434D02*
D03*
Y62631D02*
D03*
Y62828D02*
D03*
Y63025D02*
D03*
Y63222D02*
D03*
Y63418D02*
D03*
Y63615D02*
D03*
Y63812D02*
D03*
Y64009D02*
D03*
Y64206D02*
D03*
Y64403D02*
D03*
Y64600D02*
D03*
Y64796D02*
D03*
X68365D02*
D03*
Y64600D02*
D03*
Y64403D02*
D03*
Y64206D02*
D03*
Y64009D02*
D03*
Y63812D02*
D03*
Y63615D02*
D03*
Y63418D02*
D03*
Y63222D02*
D03*
Y63025D02*
D03*
Y62828D02*
D03*
Y62631D02*
D03*
Y62434D02*
D03*
Y62237D02*
D03*
Y62041D02*
D03*
Y61844D02*
D03*
D47*
X25806Y25663D02*
D03*
X26003D02*
D03*
X26200D02*
D03*
X26396D02*
D03*
X26593D02*
D03*
X26790D02*
D03*
X26987D02*
D03*
X27184D02*
D03*
X27381D02*
D03*
X27578D02*
D03*
X27774D02*
D03*
X27971D02*
D03*
X28168D02*
D03*
X28365D02*
D03*
X28562D02*
D03*
X28759D02*
D03*
Y22237D02*
D03*
X28562D02*
D03*
X28365D02*
D03*
X28168D02*
D03*
X27971D02*
D03*
X27774D02*
D03*
X27578D02*
D03*
X27381D02*
D03*
X27184D02*
D03*
X26987D02*
D03*
X26790D02*
D03*
X26593D02*
D03*
X26396D02*
D03*
X26200D02*
D03*
X26003D02*
D03*
X25806D02*
D03*
X65176Y25663D02*
D03*
X65373D02*
D03*
X65570D02*
D03*
X65767D02*
D03*
X65963D02*
D03*
X66160D02*
D03*
X66357D02*
D03*
X66554D02*
D03*
X66751D02*
D03*
X66948D02*
D03*
X67144D02*
D03*
X67341D02*
D03*
X67538D02*
D03*
X67735D02*
D03*
X67932D02*
D03*
X68129D02*
D03*
Y22237D02*
D03*
X67932D02*
D03*
X67735D02*
D03*
X67538D02*
D03*
X67341D02*
D03*
X67144D02*
D03*
X66948D02*
D03*
X66751D02*
D03*
X66554D02*
D03*
X66357D02*
D03*
X66160D02*
D03*
X65963D02*
D03*
X65767D02*
D03*
X65570D02*
D03*
X65373D02*
D03*
X65176D02*
D03*
X25806Y65033D02*
D03*
X26003D02*
D03*
X26200D02*
D03*
X26396D02*
D03*
X26593D02*
D03*
X26790D02*
D03*
X26987D02*
D03*
X27184D02*
D03*
X27381D02*
D03*
X27578D02*
D03*
X27774D02*
D03*
X27971D02*
D03*
X28168D02*
D03*
X28365D02*
D03*
X28562D02*
D03*
X28759D02*
D03*
Y61607D02*
D03*
X28562D02*
D03*
X28365D02*
D03*
X28168D02*
D03*
X27971D02*
D03*
X27774D02*
D03*
X27578D02*
D03*
X27381D02*
D03*
X27184D02*
D03*
X26987D02*
D03*
X26790D02*
D03*
X26593D02*
D03*
X26396D02*
D03*
X26200D02*
D03*
X26003D02*
D03*
X25806D02*
D03*
X65176Y65033D02*
D03*
X65373D02*
D03*
X65570D02*
D03*
X65767D02*
D03*
X65963D02*
D03*
X66160D02*
D03*
X66357D02*
D03*
X66554D02*
D03*
X66751D02*
D03*
X66948D02*
D03*
X67144D02*
D03*
X67341D02*
D03*
X67538D02*
D03*
X67735D02*
D03*
X67932D02*
D03*
X68129D02*
D03*
Y61607D02*
D03*
X67932D02*
D03*
X67735D02*
D03*
X67538D02*
D03*
X67341D02*
D03*
X67144D02*
D03*
X66948D02*
D03*
X66751D02*
D03*
X66554D02*
D03*
X66357D02*
D03*
X66160D02*
D03*
X65963D02*
D03*
X65767D02*
D03*
X65570D02*
D03*
X65373D02*
D03*
X65176D02*
D03*
D48*
X21256Y27682D02*
D03*
X20882D02*
D03*
X20508D02*
D03*
Y26618D02*
D03*
X21256D02*
D03*
X60626Y27682D02*
D03*
X60252D02*
D03*
X59878D02*
D03*
Y26618D02*
D03*
X60626D02*
D03*
X21256Y67052D02*
D03*
X20882D02*
D03*
X20508D02*
D03*
Y65989D02*
D03*
X21256D02*
D03*
X60626Y67052D02*
D03*
X60252D02*
D03*
X59878D02*
D03*
Y65989D02*
D03*
X60626D02*
D03*
D49*
X10692Y25636D02*
D03*
Y25045D02*
D03*
Y24455D02*
D03*
Y23864D02*
D03*
X50062Y25636D02*
D03*
Y25045D02*
D03*
Y24455D02*
D03*
Y23864D02*
D03*
X10692Y65006D02*
D03*
Y64415D02*
D03*
Y63825D02*
D03*
Y63234D02*
D03*
X50062Y65006D02*
D03*
Y64415D02*
D03*
Y63825D02*
D03*
Y63234D02*
D03*
D50*
X13172Y24750D02*
D03*
X52543D02*
D03*
X13172Y64120D02*
D03*
X52543D02*
D03*
D51*
X24946Y7677D02*
D03*
X23312D02*
D03*
X24946Y8523D02*
D03*
X23312D02*
D03*
X64316Y7677D02*
D03*
X62682D02*
D03*
X64316Y8523D02*
D03*
X62682D02*
D03*
X24946Y47047D02*
D03*
X23312D02*
D03*
X24946Y47893D02*
D03*
X23312D02*
D03*
X64316Y47047D02*
D03*
X62682D02*
D03*
X64316Y47893D02*
D03*
X62682D02*
D03*
D52*
X12401Y8434D02*
D03*
Y8178D02*
D03*
Y7922D02*
D03*
Y7666D02*
D03*
X13857D02*
D03*
Y7922D02*
D03*
Y8178D02*
D03*
Y8434D02*
D03*
X51771D02*
D03*
Y8178D02*
D03*
Y7922D02*
D03*
Y7666D02*
D03*
X53228D02*
D03*
Y7922D02*
D03*
Y8178D02*
D03*
Y8434D02*
D03*
X12401Y47804D02*
D03*
Y47548D02*
D03*
Y47292D02*
D03*
Y47036D02*
D03*
X13857D02*
D03*
Y47292D02*
D03*
Y47548D02*
D03*
Y47804D02*
D03*
X51771D02*
D03*
Y47548D02*
D03*
Y47292D02*
D03*
Y47036D02*
D03*
X53228D02*
D03*
Y47292D02*
D03*
Y47548D02*
D03*
Y47804D02*
D03*
D53*
X12745Y7322D02*
D03*
X13001D02*
D03*
X13257D02*
D03*
X13513D02*
D03*
Y8778D02*
D03*
X13257D02*
D03*
X13001D02*
D03*
X12745D02*
D03*
X52115Y7322D02*
D03*
X52371D02*
D03*
X52627D02*
D03*
X52883D02*
D03*
Y8778D02*
D03*
X52627D02*
D03*
X52371D02*
D03*
X52115D02*
D03*
X12745Y46692D02*
D03*
X13001D02*
D03*
X13257D02*
D03*
X13513D02*
D03*
Y48148D02*
D03*
X13257D02*
D03*
X13001D02*
D03*
X12745D02*
D03*
X52115Y46692D02*
D03*
X52371D02*
D03*
X52627D02*
D03*
X52883D02*
D03*
Y48148D02*
D03*
X52627D02*
D03*
X52371D02*
D03*
X52115D02*
D03*
D54*
X13129Y8050D02*
D03*
X52499D02*
D03*
X13129Y47420D02*
D03*
X52499D02*
D03*
D55*
X9796Y438D02*
D03*
X9462D02*
D03*
X13746D02*
D03*
X13412D02*
D03*
X49167D02*
D03*
X48832D02*
D03*
X53117D02*
D03*
X52782D02*
D03*
X9796Y39808D02*
D03*
X9462D02*
D03*
X13746D02*
D03*
X13412D02*
D03*
X49167D02*
D03*
X48832D02*
D03*
X53117D02*
D03*
X52782D02*
D03*
D56*
X9107Y300D02*
D03*
X10151D02*
D03*
X13057D02*
D03*
X14101D02*
D03*
X48478D02*
D03*
X49521D02*
D03*
X52428D02*
D03*
X53471D02*
D03*
X9107Y39670D02*
D03*
X10151D02*
D03*
X13057D02*
D03*
X14101D02*
D03*
X48478D02*
D03*
X49521D02*
D03*
X52428D02*
D03*
X53471D02*
D03*
D57*
X13023Y2974D02*
D03*
X13279D02*
D03*
X13535D02*
D03*
Y2226D02*
D03*
X13023D02*
D03*
X13923Y2974D02*
D03*
X14179D02*
D03*
X14435D02*
D03*
Y2226D02*
D03*
X13923D02*
D03*
X52393Y2974D02*
D03*
X52649D02*
D03*
X52905D02*
D03*
Y2226D02*
D03*
X52393D02*
D03*
X53293Y2974D02*
D03*
X53549D02*
D03*
X53805D02*
D03*
Y2226D02*
D03*
X53293D02*
D03*
X13023Y42344D02*
D03*
X13279D02*
D03*
X13535D02*
D03*
Y41596D02*
D03*
X13023D02*
D03*
X13923Y42344D02*
D03*
X14179D02*
D03*
X14435D02*
D03*
Y41596D02*
D03*
X13923D02*
D03*
X52393Y42344D02*
D03*
X52649D02*
D03*
X52905D02*
D03*
Y41596D02*
D03*
X52393D02*
D03*
X53293Y42344D02*
D03*
X53549D02*
D03*
X53805D02*
D03*
Y41596D02*
D03*
X53293D02*
D03*
D58*
X7842Y28740D02*
D03*
X9317D02*
D03*
X47212D02*
D03*
X48687D02*
D03*
X7842Y68110D02*
D03*
X9317D02*
D03*
X47212D02*
D03*
X48687D02*
D03*
D59*
X10017Y28955D02*
D03*
X7142D02*
D03*
X49387D02*
D03*
X46512D02*
D03*
X10017Y68325D02*
D03*
X7142D02*
D03*
X49387D02*
D03*
X46512D02*
D03*
D60*
X8579Y30550D02*
D03*
X47949D02*
D03*
X8579Y69920D02*
D03*
X47949D02*
D03*
D126*
X28182Y19050D02*
D03*
X67552D02*
D03*
X28182Y58420D02*
D03*
X67552D02*
D03*
M02*
