G04 Layer_Physical_Order=3*
G04 Layer_Color=36540*
%FSLAX24Y24*%
%MOIN*%
G70*
G01*
G75*
%ADD12C,0.0080*%
%ADD61C,0.0150*%
%ADD63C,0.0100*%
%ADD73C,0.0591*%
%ADD76C,0.0563*%
%ADD79C,0.0453*%
%ADD81C,0.0180*%
%ADD83C,0.0240*%
D12*
X9859Y6970D02*
X24762D01*
X6179Y10650D02*
X9859Y6970D01*
X6179Y10650D02*
Y14553D01*
X10069Y7110D02*
X24542D01*
X7582Y9597D02*
X10069Y7110D01*
X7582Y9597D02*
Y14150D01*
X9599Y6830D02*
X24912D01*
X5232Y11197D02*
X9599Y6830D01*
X5232Y11197D02*
Y15159D01*
X9389Y6690D02*
X25822D01*
X4972Y11107D02*
X9389Y6690D01*
X4972Y11107D02*
Y15340D01*
X9179Y6550D02*
X25882D01*
X4832Y10897D02*
X9179Y6550D01*
X4832Y10897D02*
Y15900D01*
X8929Y6400D02*
X25982D01*
X4682Y10647D02*
X8929Y6400D01*
X4682Y10647D02*
Y16050D01*
X22332Y24490D02*
X25682Y21140D01*
X35923Y22559D02*
X36754Y23390D01*
X35922Y22440D02*
Y22550D01*
X33532Y10500D02*
X35982Y12950D01*
X26032Y19550D02*
X28332D01*
X29140Y18742D01*
X32292Y20940D02*
X33572D01*
X32232Y21000D02*
X32292Y20940D01*
X42432Y10500D02*
Y19950D01*
X26982Y20250D02*
X27182Y20450D01*
X28232D01*
X28432Y20250D01*
X29180Y20650D02*
X31830Y23300D01*
X26232Y20650D02*
X29180D01*
X25732Y20150D02*
X26232Y20650D01*
X29132Y20800D02*
X31832Y23500D01*
X25282Y20800D02*
X29132D01*
X22582Y23500D02*
X25282Y20800D01*
X29132Y21000D02*
X31832Y23700D01*
X25582Y21000D02*
X29132D01*
X22582Y24000D02*
X25582Y21000D01*
X27222Y19910D02*
X28922D01*
X27132Y20000D02*
X27222Y19910D01*
X25982Y20000D02*
X27132D01*
X27032Y7900D02*
X29032D01*
X25822Y6690D02*
X27032Y7900D01*
X27082Y7750D02*
X28932D01*
X25882Y6550D02*
X27082Y7750D01*
X27182Y7600D02*
X28532D01*
X25982Y6400D02*
X27182Y7600D01*
X8232Y19900D02*
X9982D01*
X8709Y14782D02*
X9128Y15200D01*
X26432D01*
X26982Y14650D01*
X8032Y11300D02*
Y19700D01*
X8232Y19900D01*
X14414Y18719D02*
X15682Y17450D01*
X8709Y18719D02*
X14414D01*
X9932Y15950D02*
X9982Y15900D01*
X8532Y15950D02*
X9932D01*
X8282Y15700D02*
X8532Y15950D01*
X8282Y11250D02*
Y15700D01*
X26182Y14800D02*
X26832Y14150D01*
X18982Y14800D02*
X26182D01*
X9232Y14400D02*
X25832D01*
X26332Y13900D01*
X26082Y13600D02*
X27032Y12650D01*
X9103Y13600D02*
X26082D01*
X8709Y13207D02*
X9103Y13600D01*
X24682Y13050D02*
X26082D01*
X23832Y12200D02*
X24682Y13050D01*
X18182Y12200D02*
X23832D01*
X40332Y20306D02*
X41176D01*
X41382Y20100D01*
X27532Y6300D02*
Y7350D01*
X33572Y20940D02*
X34982Y22350D01*
X30882Y20500D02*
X31182Y20800D01*
X31332Y20650D02*
X33901D01*
X31182Y20500D02*
X31332Y20650D01*
X31434Y20348D02*
X31585Y20500D01*
X31232Y20150D02*
X31582D01*
X31782Y20350D01*
X29282Y6900D02*
X29432Y6750D01*
X29282Y6900D02*
Y7350D01*
X28032Y6600D02*
Y7350D01*
Y6600D02*
X28232Y6400D01*
X29782Y7040D02*
Y7350D01*
Y7040D02*
X29932Y6890D01*
X29942Y6900D01*
X30082Y7200D02*
X30242Y7040D01*
X30082Y7200D02*
Y7350D01*
X27982Y15950D02*
X34832D01*
X27882Y15850D02*
X27982Y15950D01*
X27882Y15600D02*
Y15850D01*
X28132Y15600D02*
Y15700D01*
X28232Y15800D01*
X35082D01*
X37332Y22250D02*
X38182D01*
X36382Y21300D02*
X37332Y22250D01*
X36382Y16350D02*
Y21300D01*
X34782Y14750D02*
X36382Y16350D01*
X28382Y15600D02*
X29092Y14890D01*
X28532Y7600D02*
X28782Y7350D01*
X4682Y16050D02*
X5682Y17050D01*
X6182Y16550D02*
X6682Y17050D01*
X5482Y16550D02*
X6182D01*
X4832Y15900D02*
X5482Y16550D01*
X28932Y7750D02*
X29032Y7650D01*
Y7350D02*
Y7650D01*
X29282Y7350D02*
Y7650D01*
X29032Y7900D02*
X29282Y7650D01*
X4972Y15340D02*
X5682Y16050D01*
X6182Y15550D02*
X6682Y16050D01*
X5623Y15550D02*
X6182D01*
X5232Y15159D02*
X5623Y15550D01*
X26122Y8040D02*
X29592D01*
X29782Y7850D01*
Y7350D02*
Y7850D01*
X30082Y7350D02*
Y7900D01*
X29802Y8180D02*
X30082Y7900D01*
X25972Y8180D02*
X29802D01*
X6682Y15050D02*
X7582Y14150D01*
X25752Y8320D02*
X30112D01*
X30332Y8100D01*
Y7350D02*
Y8100D01*
X30832Y7350D02*
Y8300D01*
X30632Y8500D02*
X30832Y8300D01*
X25662Y8500D02*
X30632D01*
X7832Y9800D02*
Y16900D01*
X6682Y18050D02*
X7832Y16900D01*
X24912Y6830D02*
X26122Y8040D01*
X24762Y6970D02*
X25972Y8180D01*
X24542Y7110D02*
X25752Y8320D01*
X7832Y9800D02*
X10382Y7250D01*
X24412D01*
X25662Y8500D01*
X27982Y9881D02*
Y9900D01*
X27041Y8940D02*
X27982Y9881D01*
X25654Y8940D02*
X27041D01*
X24164Y7450D02*
X25654Y8940D01*
X27732Y9881D02*
Y9900D01*
X19982Y10100D02*
X20022Y10140D01*
X25392D01*
X25482Y10050D01*
X18982Y10100D02*
X19064D01*
X19264Y10300D01*
X25973D01*
X25973Y10300D01*
X29432D01*
X30582Y9150D01*
X31182D01*
X13179Y10750D02*
X30082D01*
X30782Y11450D01*
Y12050D01*
X30432Y13500D02*
X30451D01*
X30932Y13019D01*
Y12450D02*
Y13019D01*
X30722Y12240D02*
X30932Y12450D01*
X30704Y12240D02*
X30722D01*
X29354Y10890D02*
X30704Y12240D01*
X29282Y11050D02*
X30782Y12550D01*
Y12919D01*
X30451Y13250D02*
X30782Y12919D01*
X30432Y13250D02*
X30451D01*
X30432Y13000D02*
X30451D01*
X30622Y12829D01*
Y12610D02*
Y12829D01*
Y12610D02*
X30632Y12600D01*
X29222Y11190D02*
X30632Y12600D01*
X29012Y11330D02*
X30432Y12750D01*
X28682Y11500D02*
X29932Y12750D01*
X28332Y12300D02*
X28351D01*
X28532Y12119D01*
Y11900D02*
Y12119D01*
X28332Y11700D02*
X28532Y11900D01*
X27082Y12050D02*
X28332D01*
X26082Y13050D02*
X27082Y12050D01*
X29182Y12350D02*
Y12419D01*
X28951Y12650D02*
X29182Y12419D01*
X27032Y12650D02*
X28951D01*
X26832Y14150D02*
X28632D01*
X26332Y13900D02*
X28682D01*
Y14369D02*
Y14500D01*
Y14369D02*
X28822Y14229D01*
Y14040D02*
Y14229D01*
X28682Y13900D02*
X28822Y14040D01*
X29140Y18742D02*
X29774D01*
X5132Y20600D02*
X5682Y20050D01*
X14732Y24000D02*
X22582D01*
X33582Y23700D02*
X33782Y23500D01*
X14482Y24000D02*
Y24019D01*
X14954Y24490D01*
X22332D01*
X33711Y23840D02*
X34051Y23500D01*
X34082D01*
X29332Y19200D02*
X29632Y19500D01*
X29332Y18950D02*
Y19200D01*
X29432Y18150D02*
X29441Y18158D01*
X29861D01*
X30232Y18530D01*
Y20000D01*
X30432Y18532D02*
Y20300D01*
X29919Y18018D02*
X30432Y18532D01*
X29701Y18018D02*
X29919D01*
X29632Y17950D02*
X29701Y18018D01*
X30132Y23750D02*
X30632D01*
X33682Y29850D02*
X35363D01*
X35442Y29929D01*
X30132Y23350D02*
X30392Y23610D01*
X30690D01*
X33732Y28800D02*
X37892D01*
X38422Y29331D01*
X29632Y18950D02*
X30042Y19360D01*
Y21010D01*
X30082Y21050D01*
X30201Y10450D02*
X30782Y9869D01*
Y9850D02*
Y9869D01*
X30532Y9650D02*
X30682Y9500D01*
X30932D02*
X31082Y9650D01*
Y10250D01*
X30732Y10600D02*
X31082Y10250D01*
X8932Y10600D02*
X30732D01*
X8282Y11250D02*
X8932Y10600D01*
X30532Y9650D02*
Y9850D01*
X30682Y9500D02*
X30932D01*
X8032Y11300D02*
X8882Y10450D01*
X30201D01*
X37382Y20275D02*
Y20350D01*
X37482Y10650D02*
Y20175D01*
X37382Y20275D02*
X37482Y20175D01*
X38182Y21750D02*
X39129D01*
X37032Y20600D02*
X38182Y21750D01*
X37692Y20609D02*
X38382Y21300D01*
X39282D01*
X39482Y21500D01*
Y21850D01*
X37373Y20609D02*
X37692D01*
X38632Y23050D02*
X38982Y22700D01*
X37232Y23050D02*
X38632D01*
X38732Y22250D02*
Y22710D01*
X37384Y22500D02*
X38214D01*
X36172Y21288D02*
X37384Y22500D01*
X38214D02*
X38654Y22060D01*
X39272D02*
X39482Y21850D01*
X38654Y22060D02*
X39272D01*
X35682Y18200D02*
Y21500D01*
X37232Y23050D01*
X35872Y18010D02*
Y21492D01*
X35682Y17820D02*
X35872Y18010D01*
X35682Y17800D02*
Y17820D01*
Y16800D02*
Y17800D01*
X34832Y15950D02*
X35682Y16800D01*
X35082Y15800D02*
X36032Y16750D01*
X36172Y16640D02*
Y21288D01*
X35132Y15600D02*
X36172Y16640D01*
X28932Y15600D02*
X35132D01*
X36032Y16750D02*
Y21400D01*
X38534Y22640D02*
X38542Y22631D01*
X37272Y22640D02*
X38534D01*
X36032Y21400D02*
X37272Y22640D01*
X35872Y21492D02*
X37230Y22850D01*
X38592D01*
X38732Y22710D01*
X30690Y23610D02*
X33232Y26152D01*
Y28300D01*
X33732Y28800D01*
X30632Y23750D02*
X33082Y26200D01*
Y29250D01*
X33682Y29850D01*
X26784Y18348D02*
X29782D01*
X26835Y18547D02*
X29630D01*
X28922Y19910D02*
X29132Y19700D01*
X31832Y23700D02*
X33582D01*
X31774Y23840D02*
X33711D01*
X31832Y23500D02*
X33482D01*
X31830Y23300D02*
X32932D01*
X32532Y20150D02*
X32572Y20190D01*
X33782Y20800D02*
X35482Y22500D01*
X31182Y20800D02*
X33782D01*
X31585Y20500D02*
X33982D01*
X33901Y20650D02*
X35732Y22481D01*
Y23250D01*
X31782Y20350D02*
X34030D01*
X32572Y20190D02*
X34112D01*
X37172Y23250D01*
X39357Y22700D02*
X41782Y20275D01*
X37172Y23250D02*
X39132D01*
X38982Y22700D02*
X39357D01*
X34030Y20350D02*
X36632Y22952D01*
Y23000D01*
X33982Y20500D02*
X35922Y22440D01*
X36754Y23390D02*
X39190D01*
X39580Y23000D01*
X39682D01*
X35482Y15000D02*
X35982Y14500D01*
X25682Y21140D02*
X29074D01*
X31774Y23840D01*
X29092Y14890D02*
X30661D01*
X30801Y14750D01*
X34782D01*
X33282Y13600D02*
X33632Y13950D01*
X34932D01*
X35482Y14500D01*
X35982Y12950D02*
Y14500D01*
X41382Y14250D02*
Y20100D01*
X33592Y6900D02*
X35182D01*
X41782Y13500D01*
Y20275D01*
X39132Y23250D02*
X42432Y19950D01*
X37032Y10850D02*
Y20600D01*
X30242Y7040D02*
X31172D01*
X36582Y12450D01*
Y21000D01*
X36832Y11500D02*
Y21000D01*
X29942Y6900D02*
X31632D01*
X29432Y6750D02*
X31832D01*
X28232Y6400D02*
X31882D01*
X33782Y7850D02*
X34982D01*
X41382Y14250D01*
X31882Y6400D02*
X33582Y8100D01*
X34932D01*
X37482Y10650D01*
X33532Y10100D02*
Y10500D01*
X31132Y7700D02*
X33532Y10100D01*
X33282Y10150D02*
Y13600D01*
X31132Y8000D02*
X33282Y10150D01*
X31632Y6900D02*
X33982Y9250D01*
X34582D01*
X36832Y11500D01*
X31832Y6750D02*
X34132Y9050D01*
X35232D01*
X37032Y10850D01*
X6682Y20050D02*
X7332Y20700D01*
X21382D01*
X27432Y14650D01*
X6682Y21050D02*
X6852Y20880D01*
X23832Y21550D02*
X26835Y18547D01*
X5682Y21050D02*
X6182Y21550D01*
X23832Y21750D02*
X26032Y19550D01*
X7732Y21750D02*
X23832D01*
X6182Y21550D02*
X23832D01*
X6852Y20880D02*
X24252D01*
X26784Y18348D01*
X6932Y22550D02*
X7732Y21750D01*
X5332Y22550D02*
X6932D01*
X5132Y20600D02*
Y22350D01*
X5332Y22550D01*
X5682Y15050D02*
X6179Y14553D01*
X27532Y6300D02*
X27682Y6150D01*
X32082D01*
X33782Y7850D01*
X32642Y5950D02*
X33592Y6900D01*
X37632Y5700D02*
X42432Y10500D01*
X14729Y23700D02*
X14929Y23500D01*
X22582D01*
X11929Y12000D02*
X13179Y10750D01*
X12579Y12000D02*
X13529Y11050D01*
X29282D01*
X12229Y12000D02*
X13339Y10890D01*
X29354D01*
X12879Y12000D02*
X13689Y11190D01*
X29222D01*
X13179Y12000D02*
X13849Y11330D01*
X29012D01*
X13479Y12000D02*
X13979Y11500D01*
X28682D01*
X13779Y12000D02*
X14079Y11700D01*
X28332D01*
X19379Y10100D02*
X19629Y9850D01*
X26832D01*
X27029Y10100D02*
X27129Y10000D01*
Y9745D02*
Y10000D01*
X27044Y9660D02*
X27129Y9745D01*
X26782Y10100D02*
X27029D01*
X19069Y9660D02*
X27044D01*
X18679Y10050D02*
X19069Y9660D01*
X13279Y9250D02*
X14879D01*
X13729Y2050D02*
X13929Y1850D01*
X13279Y1650D02*
X13479Y1850D01*
X10779Y1650D02*
X13279D01*
X10579Y1450D02*
X10779Y1650D01*
X10679Y1850D02*
Y1869D01*
X10860Y2050D01*
X13729D01*
X10379Y9250D02*
X12979D01*
X27102Y9520D02*
X27482Y9900D01*
X27161Y9310D02*
X27732Y9881D01*
X15679Y7450D02*
X24164D01*
X15399Y9520D02*
X27102D01*
X15379Y9500D02*
X15399Y9520D01*
X15300Y9310D02*
X27161D01*
X15110Y9500D02*
X15300Y9310D01*
X15079Y9500D02*
X15110D01*
X14529Y5500D02*
X31379D01*
X13979Y6050D02*
X14529Y5500D01*
X27532Y5950D02*
X32642D01*
X27282Y6200D02*
X27532Y5950D01*
X27282Y6200D02*
Y7350D01*
X27529Y5700D02*
X37632D01*
X24079Y6200D02*
X27029D01*
X27529Y5700D01*
X8429Y10050D02*
X18679D01*
X49229Y6970D02*
X64132D01*
X45549Y10650D02*
X49229Y6970D01*
X45549Y10650D02*
Y14553D01*
X49439Y7110D02*
X63912D01*
X46952Y9597D02*
X49439Y7110D01*
X46952Y9597D02*
Y14150D01*
X48969Y6830D02*
X64282D01*
X44602Y11197D02*
X48969Y6830D01*
X44602Y11197D02*
Y15159D01*
X48759Y6690D02*
X65192D01*
X44342Y11107D02*
X48759Y6690D01*
X44342Y11107D02*
Y15340D01*
X48549Y6550D02*
X65252D01*
X44202Y10897D02*
X48549Y6550D01*
X44202Y10897D02*
Y15900D01*
X48299Y6400D02*
X65352D01*
X44052Y10647D02*
X48299Y6400D01*
X44052Y10647D02*
Y16050D01*
X61702Y24490D02*
X65052Y21140D01*
X75293Y22559D02*
X76124Y23390D01*
X75292Y22440D02*
Y22550D01*
X72902Y10500D02*
X75352Y12950D01*
X65402Y19550D02*
X67702D01*
X68510Y18742D01*
X71662Y20940D02*
X72942D01*
X71602Y21000D02*
X71662Y20940D01*
X81802Y10500D02*
Y19950D01*
X66352Y20250D02*
X66552Y20450D01*
X67602D01*
X67802Y20250D01*
X68550Y20650D02*
X71200Y23300D01*
X65602Y20650D02*
X68550D01*
X65102Y20150D02*
X65602Y20650D01*
X68502Y20800D02*
X71202Y23500D01*
X64652Y20800D02*
X68502D01*
X61952Y23500D02*
X64652Y20800D01*
X68502Y21000D02*
X71202Y23700D01*
X64952Y21000D02*
X68502D01*
X61952Y24000D02*
X64952Y21000D01*
X66592Y19910D02*
X68292D01*
X66502Y20000D02*
X66592Y19910D01*
X65352Y20000D02*
X66502D01*
X66402Y7900D02*
X68402D01*
X65192Y6690D02*
X66402Y7900D01*
X66452Y7750D02*
X68302D01*
X65252Y6550D02*
X66452Y7750D01*
X66552Y7600D02*
X67902D01*
X65352Y6400D02*
X66552Y7600D01*
X47602Y19900D02*
X49352D01*
X48079Y14782D02*
X48498Y15200D01*
X65802D01*
X66352Y14650D01*
X47402Y11300D02*
Y19700D01*
X47602Y19900D01*
X53784Y18719D02*
X55052Y17450D01*
X48079Y18719D02*
X53784D01*
X49302Y15950D02*
X49352Y15900D01*
X47902Y15950D02*
X49302D01*
X47652Y15700D02*
X47902Y15950D01*
X47652Y11250D02*
Y15700D01*
X65552Y14800D02*
X66202Y14150D01*
X58352Y14800D02*
X65552D01*
X48602Y14400D02*
X65202D01*
X65702Y13900D01*
X65452Y13600D02*
X66402Y12650D01*
X48473Y13600D02*
X65452D01*
X48079Y13207D02*
X48473Y13600D01*
X64052Y13050D02*
X65452D01*
X63202Y12200D02*
X64052Y13050D01*
X57552Y12200D02*
X63202D01*
X79702Y20306D02*
X80546D01*
X80752Y20100D01*
X66902Y6300D02*
Y7350D01*
X72942Y20940D02*
X74352Y22350D01*
X70252Y20500D02*
X70552Y20800D01*
X70702Y20650D02*
X73271D01*
X70552Y20500D02*
X70702Y20650D01*
X70804Y20348D02*
X70956Y20500D01*
X70602Y20150D02*
X70952D01*
X71152Y20350D01*
X68652Y6900D02*
X68802Y6750D01*
X68652Y6900D02*
Y7350D01*
X67402Y6600D02*
Y7350D01*
Y6600D02*
X67602Y6400D01*
X69152Y7040D02*
Y7350D01*
Y7040D02*
X69302Y6890D01*
X69312Y6900D01*
X69452Y7200D02*
X69612Y7040D01*
X69452Y7200D02*
Y7350D01*
X67352Y15950D02*
X74202D01*
X67252Y15850D02*
X67352Y15950D01*
X67252Y15600D02*
Y15850D01*
X67502Y15600D02*
Y15700D01*
X67602Y15800D01*
X74452D01*
X76702Y22250D02*
X77552D01*
X75752Y21300D02*
X76702Y22250D01*
X75752Y16350D02*
Y21300D01*
X74152Y14750D02*
X75752Y16350D01*
X67752Y15600D02*
X68462Y14890D01*
X67902Y7600D02*
X68152Y7350D01*
X44052Y16050D02*
X45052Y17050D01*
X45552Y16550D02*
X46052Y17050D01*
X44852Y16550D02*
X45552D01*
X44202Y15900D02*
X44852Y16550D01*
X68302Y7750D02*
X68402Y7650D01*
Y7350D02*
Y7650D01*
X68652Y7350D02*
Y7650D01*
X68402Y7900D02*
X68652Y7650D01*
X44342Y15340D02*
X45052Y16050D01*
X45552Y15550D02*
X46052Y16050D01*
X44993Y15550D02*
X45552D01*
X44602Y15159D02*
X44993Y15550D01*
X65492Y8040D02*
X68962D01*
X69152Y7850D01*
Y7350D02*
Y7850D01*
X69452Y7350D02*
Y7900D01*
X69172Y8180D02*
X69452Y7900D01*
X65342Y8180D02*
X69172D01*
X46052Y15050D02*
X46952Y14150D01*
X65122Y8320D02*
X69482D01*
X69702Y8100D01*
Y7350D02*
Y8100D01*
X70202Y7350D02*
Y8300D01*
X70002Y8500D02*
X70202Y8300D01*
X65032Y8500D02*
X70002D01*
X47202Y9800D02*
Y16900D01*
X46052Y18050D02*
X47202Y16900D01*
X64282Y6830D02*
X65492Y8040D01*
X64132Y6970D02*
X65342Y8180D01*
X63912Y7110D02*
X65122Y8320D01*
X47202Y9800D02*
X49752Y7250D01*
X63782D01*
X65032Y8500D01*
X67352Y9881D02*
Y9900D01*
X66411Y8940D02*
X67352Y9881D01*
X65024Y8940D02*
X66411D01*
X63534Y7450D02*
X65024Y8940D01*
X67102Y9881D02*
Y9900D01*
X59352Y10100D02*
X59392Y10140D01*
X64762D01*
X64852Y10050D01*
X58352Y10100D02*
X58434D01*
X58634Y10300D01*
X65343D01*
X65343Y10300D01*
X68802D01*
X69952Y9150D01*
X70552D01*
X52549Y10750D02*
X69452D01*
X70152Y11450D01*
Y12050D01*
X69802Y13500D02*
X69821D01*
X70302Y13019D01*
Y12450D02*
Y13019D01*
X70092Y12240D02*
X70302Y12450D01*
X70074Y12240D02*
X70092D01*
X68724Y10890D02*
X70074Y12240D01*
X68652Y11050D02*
X70152Y12550D01*
Y12919D01*
X69821Y13250D02*
X70152Y12919D01*
X69802Y13250D02*
X69821D01*
X69802Y13000D02*
X69821D01*
X69992Y12829D01*
Y12610D02*
Y12829D01*
Y12610D02*
X70002Y12600D01*
X68592Y11190D02*
X70002Y12600D01*
X68382Y11330D02*
X69802Y12750D01*
X68052Y11500D02*
X69302Y12750D01*
X67702Y12300D02*
X67721D01*
X67902Y12119D01*
Y11900D02*
Y12119D01*
X67702Y11700D02*
X67902Y11900D01*
X66452Y12050D02*
X67702D01*
X65452Y13050D02*
X66452Y12050D01*
X68552Y12350D02*
Y12419D01*
X68321Y12650D02*
X68552Y12419D01*
X66402Y12650D02*
X68321D01*
X66202Y14150D02*
X68002D01*
X65702Y13900D02*
X68052D01*
Y14369D02*
Y14500D01*
Y14369D02*
X68192Y14229D01*
Y14040D02*
Y14229D01*
X68052Y13900D02*
X68192Y14040D01*
X68510Y18742D02*
X69144D01*
X44502Y20600D02*
X45052Y20050D01*
X54102Y24000D02*
X61952D01*
X72952Y23700D02*
X73152Y23500D01*
X53852Y24000D02*
Y24019D01*
X54324Y24490D01*
X61702D01*
X73081Y23840D02*
X73421Y23500D01*
X73452D01*
X68702Y19200D02*
X69002Y19500D01*
X68702Y18950D02*
Y19200D01*
X68802Y18150D02*
X68811Y18158D01*
X69231D01*
X69602Y18530D01*
Y20000D01*
X69802Y18532D02*
Y20300D01*
X69289Y18018D02*
X69802Y18532D01*
X69071Y18018D02*
X69289D01*
X69002Y17950D02*
X69071Y18018D01*
X69502Y23750D02*
X70002D01*
X73052Y29850D02*
X74733D01*
X74812Y29929D01*
X69502Y23350D02*
X69762Y23610D01*
X70060D01*
X73102Y28800D02*
X77262D01*
X77793Y29331D01*
X69002Y18950D02*
X69412Y19360D01*
Y21010D01*
X69452Y21050D01*
X69571Y10450D02*
X70152Y9869D01*
Y9850D02*
Y9869D01*
X69902Y9650D02*
X70052Y9500D01*
X70302D02*
X70452Y9650D01*
Y10250D01*
X70102Y10600D02*
X70452Y10250D01*
X48302Y10600D02*
X70102D01*
X47652Y11250D02*
X48302Y10600D01*
X69902Y9650D02*
Y9850D01*
X70052Y9500D02*
X70302D01*
X47402Y11300D02*
X48252Y10450D01*
X69571D01*
X76752Y20275D02*
Y20350D01*
X76852Y10650D02*
Y20175D01*
X76752Y20275D02*
X76852Y20175D01*
X77552Y21750D02*
X78499D01*
X76402Y20600D02*
X77552Y21750D01*
X77062Y20609D02*
X77752Y21300D01*
X78652D01*
X78852Y21500D01*
Y21850D01*
X76743Y20609D02*
X77062D01*
X78002Y23050D02*
X78352Y22700D01*
X76602Y23050D02*
X78002D01*
X78102Y22250D02*
Y22710D01*
X76754Y22500D02*
X77584D01*
X75542Y21288D02*
X76754Y22500D01*
X77584D02*
X78024Y22060D01*
X78642D02*
X78852Y21850D01*
X78024Y22060D02*
X78642D01*
X75052Y18200D02*
Y21500D01*
X76602Y23050D01*
X75242Y18010D02*
Y21492D01*
X75052Y17820D02*
X75242Y18010D01*
X75052Y17800D02*
Y17820D01*
Y16800D02*
Y17800D01*
X74202Y15950D02*
X75052Y16800D01*
X74452Y15800D02*
X75402Y16750D01*
X75542Y16640D02*
Y21288D01*
X74502Y15600D02*
X75542Y16640D01*
X68302Y15600D02*
X74502D01*
X75402Y16750D02*
Y21400D01*
X77904Y22640D02*
X77912Y22631D01*
X76642Y22640D02*
X77904D01*
X75402Y21400D02*
X76642Y22640D01*
X75242Y21492D02*
X76600Y22850D01*
X77962D01*
X78102Y22710D01*
X70060Y23610D02*
X72602Y26152D01*
Y28300D01*
X73102Y28800D01*
X70002Y23750D02*
X72452Y26200D01*
Y29250D01*
X73052Y29850D01*
X66154Y18348D02*
X69152D01*
X66205Y18547D02*
X69000D01*
X68292Y19910D02*
X68502Y19700D01*
X71202Y23700D02*
X72952D01*
X71144Y23840D02*
X73081D01*
X71202Y23500D02*
X72852D01*
X71200Y23300D02*
X72302D01*
X71902Y20150D02*
X71942Y20190D01*
X73152Y20800D02*
X74852Y22500D01*
X70552Y20800D02*
X73152D01*
X70956Y20500D02*
X73352D01*
X73271Y20650D02*
X75102Y22481D01*
Y23250D01*
X71152Y20350D02*
X73400D01*
X71942Y20190D02*
X73482D01*
X76542Y23250D01*
X78727Y22700D02*
X81152Y20275D01*
X76542Y23250D02*
X78502D01*
X78352Y22700D02*
X78727D01*
X73400Y20350D02*
X76002Y22952D01*
Y23000D01*
X73352Y20500D02*
X75292Y22440D01*
X76124Y23390D02*
X78560D01*
X78950Y23000D01*
X79052D01*
X74852Y15000D02*
X75352Y14500D01*
X65052Y21140D02*
X68444D01*
X71144Y23840D01*
X68462Y14890D02*
X70031D01*
X70171Y14750D01*
X74152D01*
X72652Y13600D02*
X73002Y13950D01*
X74302D01*
X74852Y14500D01*
X75352Y12950D02*
Y14500D01*
X80752Y14250D02*
Y20100D01*
X72962Y6900D02*
X74552D01*
X81152Y13500D01*
Y20275D01*
X78502Y23250D02*
X81802Y19950D01*
X76402Y10850D02*
Y20600D01*
X69612Y7040D02*
X70542D01*
X75952Y12450D01*
Y21000D01*
X76202Y11500D02*
Y21000D01*
X69312Y6900D02*
X71002D01*
X68802Y6750D02*
X71202D01*
X67602Y6400D02*
X71252D01*
X73152Y7850D02*
X74352D01*
X80752Y14250D01*
X71252Y6400D02*
X72952Y8100D01*
X74302D01*
X76852Y10650D01*
X72902Y10100D02*
Y10500D01*
X70502Y7700D02*
X72902Y10100D01*
X72652Y10150D02*
Y13600D01*
X70502Y8000D02*
X72652Y10150D01*
X71002Y6900D02*
X73352Y9250D01*
X73952D01*
X76202Y11500D01*
X71202Y6750D02*
X73502Y9050D01*
X74602D01*
X76402Y10850D01*
X46052Y20050D02*
X46702Y20700D01*
X60752D01*
X66802Y14650D01*
X46052Y21050D02*
X46222Y20880D01*
X63202Y21550D02*
X66205Y18547D01*
X45052Y21050D02*
X45552Y21550D01*
X63202Y21750D02*
X65402Y19550D01*
X47102Y21750D02*
X63202D01*
X45552Y21550D02*
X63202D01*
X46222Y20880D02*
X63622D01*
X66154Y18348D01*
X46302Y22550D02*
X47102Y21750D01*
X44702Y22550D02*
X46302D01*
X44502Y20600D02*
Y22350D01*
X44702Y22550D01*
X45052Y15050D02*
X45549Y14553D01*
X66902Y6300D02*
X67052Y6150D01*
X71452D01*
X73152Y7850D01*
X72012Y5950D02*
X72962Y6900D01*
X77002Y5700D02*
X81802Y10500D01*
X54099Y23700D02*
X54299Y23500D01*
X61952D01*
X51299Y12000D02*
X52549Y10750D01*
X51949Y12000D02*
X52899Y11050D01*
X68652D01*
X51599Y12000D02*
X52709Y10890D01*
X68724D01*
X52249Y12000D02*
X53059Y11190D01*
X68592D01*
X52549Y12000D02*
X53219Y11330D01*
X68382D01*
X52849Y12000D02*
X53349Y11500D01*
X68052D01*
X53149Y12000D02*
X53449Y11700D01*
X67702D01*
X58749Y10100D02*
X58999Y9850D01*
X66202D01*
X66399Y10100D02*
X66499Y10000D01*
Y9745D02*
Y10000D01*
X66414Y9660D02*
X66499Y9745D01*
X66152Y10100D02*
X66399D01*
X58439Y9660D02*
X66414D01*
X58049Y10050D02*
X58439Y9660D01*
X52649Y9250D02*
X54249D01*
X53099Y2050D02*
X53299Y1850D01*
X52649Y1650D02*
X52849Y1850D01*
X50149Y1650D02*
X52649D01*
X49949Y1450D02*
X50149Y1650D01*
X50049Y1850D02*
Y1869D01*
X50231Y2050D01*
X53099D01*
X49749Y9250D02*
X52349D01*
X66472Y9520D02*
X66852Y9900D01*
X66531Y9310D02*
X67102Y9881D01*
X55049Y7450D02*
X63534D01*
X54769Y9520D02*
X66472D01*
X54749Y9500D02*
X54769Y9520D01*
X54671Y9310D02*
X66531D01*
X54481Y9500D02*
X54671Y9310D01*
X54449Y9500D02*
X54481D01*
X53899Y5500D02*
X70749D01*
X53349Y6050D02*
X53899Y5500D01*
X66902Y5950D02*
X72012D01*
X66652Y6200D02*
X66902Y5950D01*
X66652Y6200D02*
Y7350D01*
X66899Y5700D02*
X77002D01*
X63449Y6200D02*
X66399D01*
X66899Y5700D01*
X47799Y10050D02*
X58049D01*
X9859Y46340D02*
X24762D01*
X6179Y50020D02*
X9859Y46340D01*
X6179Y50020D02*
Y53923D01*
X10069Y46480D02*
X24542D01*
X7582Y48967D02*
X10069Y46480D01*
X7582Y48967D02*
Y53520D01*
X9599Y46200D02*
X24912D01*
X5232Y50567D02*
X9599Y46200D01*
X5232Y50567D02*
Y54529D01*
X9389Y46060D02*
X25822D01*
X4972Y50477D02*
X9389Y46060D01*
X4972Y50477D02*
Y54710D01*
X9179Y45920D02*
X25882D01*
X4832Y50267D02*
X9179Y45920D01*
X4832Y50267D02*
Y55270D01*
X8929Y45770D02*
X25982D01*
X4682Y50017D02*
X8929Y45770D01*
X4682Y50017D02*
Y55420D01*
X22332Y63860D02*
X25682Y60510D01*
X35923Y61929D02*
X36754Y62760D01*
X35922Y61810D02*
Y61920D01*
X33532Y49870D02*
X35982Y52320D01*
X26032Y58920D02*
X28332D01*
X29140Y58112D01*
X32292Y60310D02*
X33572D01*
X32232Y60370D02*
X32292Y60310D01*
X42432Y49870D02*
Y59320D01*
X26982Y59620D02*
X27182Y59820D01*
X28232D01*
X28432Y59620D01*
X29180Y60020D02*
X31830Y62670D01*
X26232Y60020D02*
X29180D01*
X25732Y59520D02*
X26232Y60020D01*
X29132Y60170D02*
X31832Y62870D01*
X25282Y60170D02*
X29132D01*
X22582Y62870D02*
X25282Y60170D01*
X29132Y60370D02*
X31832Y63070D01*
X25582Y60370D02*
X29132D01*
X22582Y63370D02*
X25582Y60370D01*
X27222Y59280D02*
X28922D01*
X27132Y59370D02*
X27222Y59280D01*
X25982Y59370D02*
X27132D01*
X27032Y47270D02*
X29032D01*
X25822Y46060D02*
X27032Y47270D01*
X27082Y47120D02*
X28932D01*
X25882Y45920D02*
X27082Y47120D01*
X27182Y46970D02*
X28532D01*
X25982Y45770D02*
X27182Y46970D01*
X8232Y59270D02*
X9982D01*
X8709Y54152D02*
X9128Y54570D01*
X26432D01*
X26982Y54020D01*
X8032Y50670D02*
Y59070D01*
X8232Y59270D01*
X14414Y58089D02*
X15682Y56820D01*
X8709Y58089D02*
X14414D01*
X9932Y55320D02*
X9982Y55270D01*
X8532Y55320D02*
X9932D01*
X8282Y55070D02*
X8532Y55320D01*
X8282Y50620D02*
Y55070D01*
X26182Y54170D02*
X26832Y53520D01*
X18982Y54170D02*
X26182D01*
X9232Y53770D02*
X25832D01*
X26332Y53270D01*
X26082Y52970D02*
X27032Y52020D01*
X9103Y52970D02*
X26082D01*
X8709Y52577D02*
X9103Y52970D01*
X24682Y52420D02*
X26082D01*
X23832Y51570D02*
X24682Y52420D01*
X18182Y51570D02*
X23832D01*
X40332Y59676D02*
X41176D01*
X41382Y59470D01*
X27532Y45670D02*
Y46720D01*
X33572Y60310D02*
X34982Y61720D01*
X30882Y59870D02*
X31182Y60170D01*
X31332Y60020D02*
X33901D01*
X31182Y59870D02*
X31332Y60020D01*
X31434Y59718D02*
X31585Y59870D01*
X31232Y59520D02*
X31582D01*
X31782Y59720D01*
X29282Y46270D02*
X29432Y46120D01*
X29282Y46270D02*
Y46720D01*
X28032Y45970D02*
Y46720D01*
Y45970D02*
X28232Y45770D01*
X29782Y46410D02*
Y46720D01*
Y46410D02*
X29932Y46260D01*
X29942Y46270D01*
X30082Y46570D02*
X30242Y46410D01*
X30082Y46570D02*
Y46720D01*
X27982Y55320D02*
X34832D01*
X27882Y55220D02*
X27982Y55320D01*
X27882Y54970D02*
Y55220D01*
X28132Y54970D02*
Y55070D01*
X28232Y55170D01*
X35082D01*
X37332Y61620D02*
X38182D01*
X36382Y60670D02*
X37332Y61620D01*
X36382Y55720D02*
Y60670D01*
X34782Y54120D02*
X36382Y55720D01*
X28382Y54970D02*
X29092Y54260D01*
X28532Y46970D02*
X28782Y46720D01*
X4682Y55420D02*
X5682Y56420D01*
X6182Y55920D02*
X6682Y56420D01*
X5482Y55920D02*
X6182D01*
X4832Y55270D02*
X5482Y55920D01*
X28932Y47120D02*
X29032Y47020D01*
Y46720D02*
Y47020D01*
X29282Y46720D02*
Y47020D01*
X29032Y47270D02*
X29282Y47020D01*
X4972Y54710D02*
X5682Y55420D01*
X6182Y54920D02*
X6682Y55420D01*
X5623Y54920D02*
X6182D01*
X5232Y54529D02*
X5623Y54920D01*
X26122Y47410D02*
X29592D01*
X29782Y47220D01*
Y46720D02*
Y47220D01*
X30082Y46720D02*
Y47270D01*
X29802Y47550D02*
X30082Y47270D01*
X25972Y47550D02*
X29802D01*
X6682Y54420D02*
X7582Y53520D01*
X25752Y47690D02*
X30112D01*
X30332Y47470D01*
Y46720D02*
Y47470D01*
X30832Y46720D02*
Y47670D01*
X30632Y47870D02*
X30832Y47670D01*
X25662Y47870D02*
X30632D01*
X7832Y49170D02*
Y56270D01*
X6682Y57420D02*
X7832Y56270D01*
X24912Y46200D02*
X26122Y47410D01*
X24762Y46340D02*
X25972Y47550D01*
X24542Y46480D02*
X25752Y47690D01*
X7832Y49170D02*
X10382Y46620D01*
X24412D01*
X25662Y47870D01*
X27982Y49251D02*
Y49270D01*
X27041Y48310D02*
X27982Y49251D01*
X25654Y48310D02*
X27041D01*
X24164Y46820D02*
X25654Y48310D01*
X27732Y49251D02*
Y49270D01*
X19982Y49470D02*
X20022Y49510D01*
X25392D01*
X25482Y49420D01*
X18982Y49470D02*
X19064D01*
X19264Y49670D01*
X25973D01*
X25973Y49670D01*
X29432D01*
X30582Y48520D01*
X31182D01*
X13179Y50120D02*
X30082D01*
X30782Y50820D01*
Y51420D01*
X30432Y52870D02*
X30451D01*
X30932Y52389D01*
Y51820D02*
Y52389D01*
X30722Y51610D02*
X30932Y51820D01*
X30704Y51610D02*
X30722D01*
X29354Y50260D02*
X30704Y51610D01*
X29282Y50420D02*
X30782Y51920D01*
Y52289D01*
X30451Y52620D02*
X30782Y52289D01*
X30432Y52620D02*
X30451D01*
X30432Y52370D02*
X30451D01*
X30622Y52199D01*
Y51980D02*
Y52199D01*
Y51980D02*
X30632Y51970D01*
X29222Y50560D02*
X30632Y51970D01*
X29012Y50700D02*
X30432Y52120D01*
X28682Y50870D02*
X29932Y52120D01*
X28332Y51670D02*
X28351D01*
X28532Y51489D01*
Y51270D02*
Y51489D01*
X28332Y51070D02*
X28532Y51270D01*
X27082Y51420D02*
X28332D01*
X26082Y52420D02*
X27082Y51420D01*
X29182Y51720D02*
Y51789D01*
X28951Y52020D02*
X29182Y51789D01*
X27032Y52020D02*
X28951D01*
X26832Y53520D02*
X28632D01*
X26332Y53270D02*
X28682D01*
Y53739D02*
Y53870D01*
Y53739D02*
X28822Y53599D01*
Y53410D02*
Y53599D01*
X28682Y53270D02*
X28822Y53410D01*
X29140Y58112D02*
X29774D01*
X5132Y59970D02*
X5682Y59420D01*
X14732Y63370D02*
X22582D01*
X33582Y63070D02*
X33782Y62870D01*
X14482Y63370D02*
Y63389D01*
X14954Y63860D01*
X22332D01*
X33711Y63210D02*
X34051Y62870D01*
X34082D01*
X29332Y58570D02*
X29632Y58870D01*
X29332Y58320D02*
Y58570D01*
X29432Y57520D02*
X29441Y57529D01*
X29861D01*
X30232Y57900D01*
Y59370D01*
X30432Y57902D02*
Y59670D01*
X29919Y57389D02*
X30432Y57902D01*
X29701Y57389D02*
X29919D01*
X29632Y57320D02*
X29701Y57389D01*
X30132Y63120D02*
X30632D01*
X33682Y69220D02*
X35363D01*
X35442Y69299D01*
X30132Y62720D02*
X30392Y62980D01*
X30690D01*
X33732Y68170D02*
X37892D01*
X38422Y68701D01*
X29632Y58320D02*
X30042Y58730D01*
Y60380D01*
X30082Y60420D01*
X30201Y49820D02*
X30782Y49239D01*
Y49220D02*
Y49239D01*
X30532Y49020D02*
X30682Y48870D01*
X30932D02*
X31082Y49020D01*
Y49620D01*
X30732Y49970D02*
X31082Y49620D01*
X8932Y49970D02*
X30732D01*
X8282Y50620D02*
X8932Y49970D01*
X30532Y49020D02*
Y49220D01*
X30682Y48870D02*
X30932D01*
X8032Y50670D02*
X8882Y49820D01*
X30201D01*
X37382Y59645D02*
Y59720D01*
X37482Y50020D02*
Y59545D01*
X37382Y59645D02*
X37482Y59545D01*
X38182Y61120D02*
X39129D01*
X37032Y59970D02*
X38182Y61120D01*
X37692Y59979D02*
X38382Y60670D01*
X39282D01*
X39482Y60870D01*
Y61220D01*
X37373Y59979D02*
X37692D01*
X38632Y62420D02*
X38982Y62070D01*
X37232Y62420D02*
X38632D01*
X38732Y61620D02*
Y62080D01*
X37384Y61870D02*
X38214D01*
X36172Y60658D02*
X37384Y61870D01*
X38214D02*
X38654Y61430D01*
X39272D02*
X39482Y61220D01*
X38654Y61430D02*
X39272D01*
X35682Y57570D02*
Y60870D01*
X37232Y62420D01*
X35872Y57380D02*
Y60862D01*
X35682Y57190D02*
X35872Y57380D01*
X35682Y57170D02*
Y57190D01*
Y56170D02*
Y57170D01*
X34832Y55320D02*
X35682Y56170D01*
X35082Y55170D02*
X36032Y56120D01*
X36172Y56010D02*
Y60658D01*
X35132Y54970D02*
X36172Y56010D01*
X28932Y54970D02*
X35132D01*
X36032Y56120D02*
Y60770D01*
X38534Y62010D02*
X38542Y62001D01*
X37272Y62010D02*
X38534D01*
X36032Y60770D02*
X37272Y62010D01*
X35872Y60862D02*
X37230Y62220D01*
X38592D01*
X38732Y62080D01*
X30690Y62980D02*
X33232Y65522D01*
Y67670D01*
X33732Y68170D01*
X30632Y63120D02*
X33082Y65570D01*
Y68620D01*
X33682Y69220D01*
X26784Y57719D02*
X29782D01*
X26835Y57917D02*
X29630D01*
X28922Y59280D02*
X29132Y59070D01*
X31832Y63070D02*
X33582D01*
X31774Y63210D02*
X33711D01*
X31832Y62870D02*
X33482D01*
X31830Y62670D02*
X32932D01*
X32532Y59520D02*
X32572Y59560D01*
X33782Y60170D02*
X35482Y61870D01*
X31182Y60170D02*
X33782D01*
X31585Y59870D02*
X33982D01*
X33901Y60020D02*
X35732Y61851D01*
Y62620D01*
X31782Y59720D02*
X34030D01*
X32572Y59560D02*
X34112D01*
X37172Y62620D01*
X39357Y62070D02*
X41782Y59645D01*
X37172Y62620D02*
X39132D01*
X38982Y62070D02*
X39357D01*
X34030Y59720D02*
X36632Y62322D01*
Y62370D01*
X33982Y59870D02*
X35922Y61810D01*
X36754Y62760D02*
X39190D01*
X39580Y62370D01*
X39682D01*
X35482Y54370D02*
X35982Y53870D01*
X25682Y60510D02*
X29074D01*
X31774Y63210D01*
X29092Y54260D02*
X30661D01*
X30801Y54120D01*
X34782D01*
X33282Y52970D02*
X33632Y53320D01*
X34932D01*
X35482Y53870D01*
X35982Y52320D02*
Y53870D01*
X41382Y53620D02*
Y59470D01*
X33592Y46270D02*
X35182D01*
X41782Y52870D01*
Y59645D01*
X39132Y62620D02*
X42432Y59320D01*
X37032Y50220D02*
Y59970D01*
X30242Y46410D02*
X31172D01*
X36582Y51820D01*
Y60370D01*
X36832Y50870D02*
Y60370D01*
X29942Y46270D02*
X31632D01*
X29432Y46120D02*
X31832D01*
X28232Y45770D02*
X31882D01*
X33782Y47220D02*
X34982D01*
X41382Y53620D01*
X31882Y45770D02*
X33582Y47470D01*
X34932D01*
X37482Y50020D01*
X33532Y49470D02*
Y49870D01*
X31132Y47070D02*
X33532Y49470D01*
X33282Y49520D02*
Y52970D01*
X31132Y47370D02*
X33282Y49520D01*
X31632Y46270D02*
X33982Y48620D01*
X34582D01*
X36832Y50870D01*
X31832Y46120D02*
X34132Y48420D01*
X35232D01*
X37032Y50220D01*
X6682Y59420D02*
X7332Y60070D01*
X21382D01*
X27432Y54020D01*
X6682Y60420D02*
X6852Y60250D01*
X23832Y60920D02*
X26835Y57917D01*
X5682Y60420D02*
X6182Y60920D01*
X23832Y61120D02*
X26032Y58920D01*
X7732Y61120D02*
X23832D01*
X6182Y60920D02*
X23832D01*
X6852Y60250D02*
X24252D01*
X26784Y57719D01*
X6932Y61920D02*
X7732Y61120D01*
X5332Y61920D02*
X6932D01*
X5132Y59970D02*
Y61720D01*
X5332Y61920D01*
X5682Y54420D02*
X6179Y53923D01*
X27532Y45670D02*
X27682Y45520D01*
X32082D01*
X33782Y47220D01*
X32642Y45320D02*
X33592Y46270D01*
X37632Y45070D02*
X42432Y49870D01*
X14729Y63070D02*
X14929Y62870D01*
X22582D01*
X11929Y51370D02*
X13179Y50120D01*
X12579Y51370D02*
X13529Y50420D01*
X29282D01*
X12229Y51370D02*
X13339Y50260D01*
X29354D01*
X12879Y51370D02*
X13689Y50560D01*
X29222D01*
X13179Y51370D02*
X13849Y50700D01*
X29012D01*
X13479Y51370D02*
X13979Y50870D01*
X28682D01*
X13779Y51370D02*
X14079Y51070D01*
X28332D01*
X19379Y49470D02*
X19629Y49220D01*
X26832D01*
X27029Y49470D02*
X27129Y49370D01*
Y49115D02*
Y49370D01*
X27044Y49030D02*
X27129Y49115D01*
X26782Y49470D02*
X27029D01*
X19069Y49030D02*
X27044D01*
X18679Y49420D02*
X19069Y49030D01*
X13279Y48620D02*
X14879D01*
X13729Y41420D02*
X13929Y41220D01*
X13279Y41020D02*
X13479Y41220D01*
X10779Y41020D02*
X13279D01*
X10579Y40820D02*
X10779Y41020D01*
X10679Y41220D02*
Y41239D01*
X10860Y41420D01*
X13729D01*
X10379Y48620D02*
X12979D01*
X27102Y48890D02*
X27482Y49270D01*
X27161Y48680D02*
X27732Y49251D01*
X15679Y46820D02*
X24164D01*
X15399Y48890D02*
X27102D01*
X15379Y48870D02*
X15399Y48890D01*
X15300Y48680D02*
X27161D01*
X15110Y48870D02*
X15300Y48680D01*
X15079Y48870D02*
X15110D01*
X14529Y44870D02*
X31379D01*
X13979Y45420D02*
X14529Y44870D01*
X27532Y45320D02*
X32642D01*
X27282Y45570D02*
X27532Y45320D01*
X27282Y45570D02*
Y46720D01*
X27529Y45070D02*
X37632D01*
X24079Y45570D02*
X27029D01*
X27529Y45070D01*
X8429Y49420D02*
X18679D01*
X49229Y46340D02*
X64132D01*
X45549Y50020D02*
X49229Y46340D01*
X45549Y50020D02*
Y53923D01*
X49439Y46480D02*
X63912D01*
X46952Y48967D02*
X49439Y46480D01*
X46952Y48967D02*
Y53520D01*
X48969Y46200D02*
X64282D01*
X44602Y50567D02*
X48969Y46200D01*
X44602Y50567D02*
Y54529D01*
X48759Y46060D02*
X65192D01*
X44342Y50477D02*
X48759Y46060D01*
X44342Y50477D02*
Y54710D01*
X48549Y45920D02*
X65252D01*
X44202Y50267D02*
X48549Y45920D01*
X44202Y50267D02*
Y55270D01*
X48299Y45770D02*
X65352D01*
X44052Y50017D02*
X48299Y45770D01*
X44052Y50017D02*
Y55420D01*
X61702Y63860D02*
X65052Y60510D01*
X75293Y61929D02*
X76124Y62760D01*
X75292Y61810D02*
Y61920D01*
X72902Y49870D02*
X75352Y52320D01*
X65402Y58920D02*
X67702D01*
X68510Y58112D01*
X71662Y60310D02*
X72942D01*
X71602Y60370D02*
X71662Y60310D01*
X81802Y49870D02*
Y59320D01*
X66352Y59620D02*
X66552Y59820D01*
X67602D01*
X67802Y59620D01*
X68550Y60020D02*
X71200Y62670D01*
X65602Y60020D02*
X68550D01*
X65102Y59520D02*
X65602Y60020D01*
X68502Y60170D02*
X71202Y62870D01*
X64652Y60170D02*
X68502D01*
X61952Y62870D02*
X64652Y60170D01*
X68502Y60370D02*
X71202Y63070D01*
X64952Y60370D02*
X68502D01*
X61952Y63370D02*
X64952Y60370D01*
X66592Y59280D02*
X68292D01*
X66502Y59370D02*
X66592Y59280D01*
X65352Y59370D02*
X66502D01*
X66402Y47270D02*
X68402D01*
X65192Y46060D02*
X66402Y47270D01*
X66452Y47120D02*
X68302D01*
X65252Y45920D02*
X66452Y47120D01*
X66552Y46970D02*
X67902D01*
X65352Y45770D02*
X66552Y46970D01*
X47602Y59270D02*
X49352D01*
X48079Y54152D02*
X48498Y54570D01*
X65802D01*
X66352Y54020D01*
X47402Y50670D02*
Y59070D01*
X47602Y59270D01*
X53784Y58089D02*
X55052Y56820D01*
X48079Y58089D02*
X53784D01*
X49302Y55320D02*
X49352Y55270D01*
X47902Y55320D02*
X49302D01*
X47652Y55070D02*
X47902Y55320D01*
X47652Y50620D02*
Y55070D01*
X65552Y54170D02*
X66202Y53520D01*
X58352Y54170D02*
X65552D01*
X48602Y53770D02*
X65202D01*
X65702Y53270D01*
X65452Y52970D02*
X66402Y52020D01*
X48473Y52970D02*
X65452D01*
X48079Y52577D02*
X48473Y52970D01*
X64052Y52420D02*
X65452D01*
X63202Y51570D02*
X64052Y52420D01*
X57552Y51570D02*
X63202D01*
X79702Y59676D02*
X80546D01*
X80752Y59470D01*
X66902Y45670D02*
Y46720D01*
X72942Y60310D02*
X74352Y61720D01*
X70252Y59870D02*
X70552Y60170D01*
X70702Y60020D02*
X73271D01*
X70552Y59870D02*
X70702Y60020D01*
X70804Y59718D02*
X70956Y59870D01*
X70602Y59520D02*
X70952D01*
X71152Y59720D01*
X68652Y46270D02*
X68802Y46120D01*
X68652Y46270D02*
Y46720D01*
X67402Y45970D02*
Y46720D01*
Y45970D02*
X67602Y45770D01*
X69152Y46410D02*
Y46720D01*
Y46410D02*
X69302Y46260D01*
X69312Y46270D01*
X69452Y46570D02*
X69612Y46410D01*
X69452Y46570D02*
Y46720D01*
X67352Y55320D02*
X74202D01*
X67252Y55220D02*
X67352Y55320D01*
X67252Y54970D02*
Y55220D01*
X67502Y54970D02*
Y55070D01*
X67602Y55170D01*
X74452D01*
X76702Y61620D02*
X77552D01*
X75752Y60670D02*
X76702Y61620D01*
X75752Y55720D02*
Y60670D01*
X74152Y54120D02*
X75752Y55720D01*
X67752Y54970D02*
X68462Y54260D01*
X67902Y46970D02*
X68152Y46720D01*
X44052Y55420D02*
X45052Y56420D01*
X45552Y55920D02*
X46052Y56420D01*
X44852Y55920D02*
X45552D01*
X44202Y55270D02*
X44852Y55920D01*
X68302Y47120D02*
X68402Y47020D01*
Y46720D02*
Y47020D01*
X68652Y46720D02*
Y47020D01*
X68402Y47270D02*
X68652Y47020D01*
X44342Y54710D02*
X45052Y55420D01*
X45552Y54920D02*
X46052Y55420D01*
X44993Y54920D02*
X45552D01*
X44602Y54529D02*
X44993Y54920D01*
X65492Y47410D02*
X68962D01*
X69152Y47220D01*
Y46720D02*
Y47220D01*
X69452Y46720D02*
Y47270D01*
X69172Y47550D02*
X69452Y47270D01*
X65342Y47550D02*
X69172D01*
X46052Y54420D02*
X46952Y53520D01*
X65122Y47690D02*
X69482D01*
X69702Y47470D01*
Y46720D02*
Y47470D01*
X70202Y46720D02*
Y47670D01*
X70002Y47870D02*
X70202Y47670D01*
X65032Y47870D02*
X70002D01*
X47202Y49170D02*
Y56270D01*
X46052Y57420D02*
X47202Y56270D01*
X64282Y46200D02*
X65492Y47410D01*
X64132Y46340D02*
X65342Y47550D01*
X63912Y46480D02*
X65122Y47690D01*
X47202Y49170D02*
X49752Y46620D01*
X63782D01*
X65032Y47870D01*
X67352Y49251D02*
Y49270D01*
X66411Y48310D02*
X67352Y49251D01*
X65024Y48310D02*
X66411D01*
X63534Y46820D02*
X65024Y48310D01*
X67102Y49251D02*
Y49270D01*
X59352Y49470D02*
X59392Y49510D01*
X64762D01*
X64852Y49420D01*
X58352Y49470D02*
X58434D01*
X58634Y49670D01*
X65343D01*
X65343Y49670D01*
X68802D01*
X69952Y48520D01*
X70552D01*
X52549Y50120D02*
X69452D01*
X70152Y50820D01*
Y51420D01*
X69802Y52870D02*
X69821D01*
X70302Y52389D01*
Y51820D02*
Y52389D01*
X70092Y51610D02*
X70302Y51820D01*
X70074Y51610D02*
X70092D01*
X68724Y50260D02*
X70074Y51610D01*
X68652Y50420D02*
X70152Y51920D01*
Y52289D01*
X69821Y52620D02*
X70152Y52289D01*
X69802Y52620D02*
X69821D01*
X69802Y52370D02*
X69821D01*
X69992Y52199D01*
Y51980D02*
Y52199D01*
Y51980D02*
X70002Y51970D01*
X68592Y50560D02*
X70002Y51970D01*
X68382Y50700D02*
X69802Y52120D01*
X68052Y50870D02*
X69302Y52120D01*
X67702Y51670D02*
X67721D01*
X67902Y51489D01*
Y51270D02*
Y51489D01*
X67702Y51070D02*
X67902Y51270D01*
X66452Y51420D02*
X67702D01*
X65452Y52420D02*
X66452Y51420D01*
X68552Y51720D02*
Y51789D01*
X68321Y52020D02*
X68552Y51789D01*
X66402Y52020D02*
X68321D01*
X66202Y53520D02*
X68002D01*
X65702Y53270D02*
X68052D01*
Y53739D02*
Y53870D01*
Y53739D02*
X68192Y53599D01*
Y53410D02*
Y53599D01*
X68052Y53270D02*
X68192Y53410D01*
X68510Y58112D02*
X69144D01*
X44502Y59970D02*
X45052Y59420D01*
X54102Y63370D02*
X61952D01*
X72952Y63070D02*
X73152Y62870D01*
X53852Y63370D02*
Y63389D01*
X54324Y63860D01*
X61702D01*
X73081Y63210D02*
X73421Y62870D01*
X73452D01*
X68702Y58570D02*
X69002Y58870D01*
X68702Y58320D02*
Y58570D01*
X68802Y57520D02*
X68811Y57529D01*
X69231D01*
X69602Y57900D01*
Y59370D01*
X69802Y57902D02*
Y59670D01*
X69289Y57389D02*
X69802Y57902D01*
X69071Y57389D02*
X69289D01*
X69002Y57320D02*
X69071Y57389D01*
X69502Y63120D02*
X70002D01*
X73052Y69220D02*
X74733D01*
X74812Y69299D01*
X69502Y62720D02*
X69762Y62980D01*
X70060D01*
X73102Y68170D02*
X77262D01*
X77793Y68701D01*
X69002Y58320D02*
X69412Y58730D01*
Y60380D01*
X69452Y60420D01*
X69571Y49820D02*
X70152Y49239D01*
Y49220D02*
Y49239D01*
X69902Y49020D02*
X70052Y48870D01*
X70302D02*
X70452Y49020D01*
Y49620D01*
X70102Y49970D02*
X70452Y49620D01*
X48302Y49970D02*
X70102D01*
X47652Y50620D02*
X48302Y49970D01*
X69902Y49020D02*
Y49220D01*
X70052Y48870D02*
X70302D01*
X47402Y50670D02*
X48252Y49820D01*
X69571D01*
X76752Y59645D02*
Y59720D01*
X76852Y50020D02*
Y59545D01*
X76752Y59645D02*
X76852Y59545D01*
X77552Y61120D02*
X78499D01*
X76402Y59970D02*
X77552Y61120D01*
X77062Y59979D02*
X77752Y60670D01*
X78652D01*
X78852Y60870D01*
Y61220D01*
X76743Y59979D02*
X77062D01*
X78002Y62420D02*
X78352Y62070D01*
X76602Y62420D02*
X78002D01*
X78102Y61620D02*
Y62080D01*
X76754Y61870D02*
X77584D01*
X75542Y60658D02*
X76754Y61870D01*
X77584D02*
X78024Y61430D01*
X78642D02*
X78852Y61220D01*
X78024Y61430D02*
X78642D01*
X75052Y57570D02*
Y60870D01*
X76602Y62420D01*
X75242Y57380D02*
Y60862D01*
X75052Y57190D02*
X75242Y57380D01*
X75052Y57170D02*
Y57190D01*
Y56170D02*
Y57170D01*
X74202Y55320D02*
X75052Y56170D01*
X74452Y55170D02*
X75402Y56120D01*
X75542Y56010D02*
Y60658D01*
X74502Y54970D02*
X75542Y56010D01*
X68302Y54970D02*
X74502D01*
X75402Y56120D02*
Y60770D01*
X77904Y62010D02*
X77912Y62001D01*
X76642Y62010D02*
X77904D01*
X75402Y60770D02*
X76642Y62010D01*
X75242Y60862D02*
X76600Y62220D01*
X77962D01*
X78102Y62080D01*
X70060Y62980D02*
X72602Y65522D01*
Y67670D01*
X73102Y68170D01*
X70002Y63120D02*
X72452Y65570D01*
Y68620D01*
X73052Y69220D01*
X66154Y57719D02*
X69152D01*
X66205Y57917D02*
X69000D01*
X68292Y59280D02*
X68502Y59070D01*
X71202Y63070D02*
X72952D01*
X71144Y63210D02*
X73081D01*
X71202Y62870D02*
X72852D01*
X71200Y62670D02*
X72302D01*
X71902Y59520D02*
X71942Y59560D01*
X73152Y60170D02*
X74852Y61870D01*
X70552Y60170D02*
X73152D01*
X70956Y59870D02*
X73352D01*
X73271Y60020D02*
X75102Y61851D01*
Y62620D01*
X71152Y59720D02*
X73400D01*
X71942Y59560D02*
X73482D01*
X76542Y62620D01*
X78727Y62070D02*
X81152Y59645D01*
X76542Y62620D02*
X78502D01*
X78352Y62070D02*
X78727D01*
X73400Y59720D02*
X76002Y62322D01*
Y62370D01*
X73352Y59870D02*
X75292Y61810D01*
X76124Y62760D02*
X78560D01*
X78950Y62370D01*
X79052D01*
X74852Y54370D02*
X75352Y53870D01*
X65052Y60510D02*
X68444D01*
X71144Y63210D01*
X68462Y54260D02*
X70031D01*
X70171Y54120D01*
X74152D01*
X72652Y52970D02*
X73002Y53320D01*
X74302D01*
X74852Y53870D01*
X75352Y52320D02*
Y53870D01*
X80752Y53620D02*
Y59470D01*
X72962Y46270D02*
X74552D01*
X81152Y52870D01*
Y59645D01*
X78502Y62620D02*
X81802Y59320D01*
X76402Y50220D02*
Y59970D01*
X69612Y46410D02*
X70542D01*
X75952Y51820D01*
Y60370D01*
X76202Y50870D02*
Y60370D01*
X69312Y46270D02*
X71002D01*
X68802Y46120D02*
X71202D01*
X67602Y45770D02*
X71252D01*
X73152Y47220D02*
X74352D01*
X80752Y53620D01*
X71252Y45770D02*
X72952Y47470D01*
X74302D01*
X76852Y50020D01*
X72902Y49470D02*
Y49870D01*
X70502Y47070D02*
X72902Y49470D01*
X72652Y49520D02*
Y52970D01*
X70502Y47370D02*
X72652Y49520D01*
X71002Y46270D02*
X73352Y48620D01*
X73952D01*
X76202Y50870D01*
X71202Y46120D02*
X73502Y48420D01*
X74602D01*
X76402Y50220D01*
X46052Y59420D02*
X46702Y60070D01*
X60752D01*
X66802Y54020D01*
X46052Y60420D02*
X46222Y60250D01*
X63202Y60920D02*
X66205Y57917D01*
X45052Y60420D02*
X45552Y60920D01*
X63202Y61120D02*
X65402Y58920D01*
X47102Y61120D02*
X63202D01*
X45552Y60920D02*
X63202D01*
X46222Y60250D02*
X63622D01*
X66154Y57719D01*
X46302Y61920D02*
X47102Y61120D01*
X44702Y61920D02*
X46302D01*
X44502Y59970D02*
Y61720D01*
X44702Y61920D01*
X45052Y54420D02*
X45549Y53923D01*
X66902Y45670D02*
X67052Y45520D01*
X71452D01*
X73152Y47220D01*
X72012Y45320D02*
X72962Y46270D01*
X77002Y45070D02*
X81802Y49870D01*
X54099Y63070D02*
X54299Y62870D01*
X61952D01*
X51299Y51370D02*
X52549Y50120D01*
X51949Y51370D02*
X52899Y50420D01*
X68652D01*
X51599Y51370D02*
X52709Y50260D01*
X68724D01*
X52249Y51370D02*
X53059Y50560D01*
X68592D01*
X52549Y51370D02*
X53219Y50700D01*
X68382D01*
X52849Y51370D02*
X53349Y50870D01*
X68052D01*
X53149Y51370D02*
X53449Y51070D01*
X67702D01*
X58749Y49470D02*
X58999Y49220D01*
X66202D01*
X66399Y49470D02*
X66499Y49370D01*
Y49115D02*
Y49370D01*
X66414Y49030D02*
X66499Y49115D01*
X66152Y49470D02*
X66399D01*
X58439Y49030D02*
X66414D01*
X58049Y49420D02*
X58439Y49030D01*
X52649Y48620D02*
X54249D01*
X53099Y41420D02*
X53299Y41220D01*
X52649Y41020D02*
X52849Y41220D01*
X50149Y41020D02*
X52649D01*
X49949Y40820D02*
X50149Y41020D01*
X50049Y41220D02*
Y41239D01*
X50231Y41420D01*
X53099D01*
X49749Y48620D02*
X52349D01*
X66472Y48890D02*
X66852Y49270D01*
X66531Y48680D02*
X67102Y49251D01*
X55049Y46820D02*
X63534D01*
X54769Y48890D02*
X66472D01*
X54749Y48870D02*
X54769Y48890D01*
X54671Y48680D02*
X66531D01*
X54481Y48870D02*
X54671Y48680D01*
X54449Y48870D02*
X54481D01*
X53899Y44870D02*
X70749D01*
X53349Y45420D02*
X53899Y44870D01*
X66902Y45320D02*
X72012D01*
X66652Y45570D02*
X66902Y45320D01*
X66652Y45570D02*
Y46720D01*
X66899Y45070D02*
X77002D01*
X63449Y45570D02*
X66399D01*
X66899Y45070D01*
X47799Y49420D02*
X58049D01*
D61*
X8429Y29000D02*
X8879D01*
X9529Y29650D01*
X10229Y30350D02*
X10479D01*
X9529Y29650D02*
X10229Y30350D01*
X47799Y29000D02*
X48249D01*
X48899Y29650D01*
X49599Y30350D02*
X49849D01*
X48899Y29650D02*
X49599Y30350D01*
X8429Y68370D02*
X8879D01*
X9529Y69020D01*
X10229Y69720D02*
X10479D01*
X9529Y69020D02*
X10229Y69720D01*
X47799Y68370D02*
X48249D01*
X48899Y69020D01*
X49599Y69720D02*
X49849D01*
X48899Y69020D02*
X49599Y69720D01*
D63*
X25702Y21400D02*
X25749D01*
X25899Y21550D01*
X26065D01*
X26165Y21450D01*
X27732D01*
X28182Y21900D01*
X25982Y21350D02*
X26042Y21290D01*
X28572D01*
X28782Y21500D01*
Y21900D01*
X28832Y21950D01*
X28482Y16300D02*
X34732D01*
X33082Y17150D02*
Y19700D01*
X32632Y16700D02*
X33082Y17150D01*
X30949Y16700D02*
X32632D01*
X30783Y16533D02*
X30949Y16700D01*
X30783Y16500D02*
Y16533D01*
X65072Y21400D02*
X65120D01*
X65270Y21550D01*
X65435D01*
X65535Y21450D01*
X67102D01*
X67552Y21900D01*
X65352Y21350D02*
X65412Y21290D01*
X67942D01*
X68152Y21500D01*
Y21900D01*
X68202Y21950D01*
X67852Y16300D02*
X74102D01*
X72452Y17150D02*
Y19700D01*
X72002Y16700D02*
X72452Y17150D01*
X70320Y16700D02*
X72002D01*
X70153Y16533D02*
X70320Y16700D01*
X70153Y16500D02*
Y16533D01*
X25702Y60770D02*
X25749D01*
X25899Y60920D01*
X26065D01*
X26165Y60820D01*
X27732D01*
X28182Y61270D01*
X25982Y60720D02*
X26042Y60660D01*
X28572D01*
X28782Y60870D01*
Y61270D01*
X28832Y61320D01*
X28482Y55670D02*
X34732D01*
X33082Y56520D02*
Y59070D01*
X32632Y56070D02*
X33082Y56520D01*
X30949Y56070D02*
X32632D01*
X30783Y55903D02*
X30949Y56070D01*
X30783Y55870D02*
Y55903D01*
X65072Y60770D02*
X65120D01*
X65270Y60920D01*
X65435D01*
X65535Y60820D01*
X67102D01*
X67552Y61270D01*
X65352Y60720D02*
X65412Y60660D01*
X67942D01*
X68152Y60870D01*
Y61270D01*
X68202Y61320D01*
X67852Y55670D02*
X74102D01*
X72452Y56520D02*
Y59070D01*
X72002Y56070D02*
X72452Y56520D01*
X70320Y56070D02*
X72002D01*
X70153Y55903D02*
X70320Y56070D01*
X70153Y55870D02*
Y55903D01*
D73*
X6682Y15050D02*
D03*
Y16050D02*
D03*
Y17050D02*
D03*
Y18050D02*
D03*
Y20050D02*
D03*
Y21050D02*
D03*
X5682Y15050D02*
D03*
Y16050D02*
D03*
Y17050D02*
D03*
Y20050D02*
D03*
Y21050D02*
D03*
X46052Y15050D02*
D03*
Y16050D02*
D03*
Y17050D02*
D03*
Y18050D02*
D03*
Y20050D02*
D03*
Y21050D02*
D03*
X45052Y15050D02*
D03*
Y16050D02*
D03*
Y17050D02*
D03*
Y20050D02*
D03*
Y21050D02*
D03*
X6682Y54420D02*
D03*
Y55420D02*
D03*
Y56420D02*
D03*
Y57420D02*
D03*
Y59420D02*
D03*
Y60420D02*
D03*
X5682Y54420D02*
D03*
Y55420D02*
D03*
Y56420D02*
D03*
Y59420D02*
D03*
Y60420D02*
D03*
X46052Y54420D02*
D03*
Y55420D02*
D03*
Y56420D02*
D03*
Y57420D02*
D03*
Y59420D02*
D03*
Y60420D02*
D03*
X45052Y54420D02*
D03*
Y55420D02*
D03*
Y56420D02*
D03*
Y59420D02*
D03*
Y60420D02*
D03*
D76*
X35442Y29929D02*
D03*
X38422Y29331D02*
D03*
X74812Y29929D02*
D03*
X77793Y29331D02*
D03*
X35442Y69299D02*
D03*
X38422Y68701D02*
D03*
X74812Y69299D02*
D03*
X77793Y68701D02*
D03*
D79*
X8709Y18719D02*
D03*
Y14782D02*
D03*
Y13207D02*
D03*
X48079Y18719D02*
D03*
Y14782D02*
D03*
Y13207D02*
D03*
X8709Y58089D02*
D03*
Y54152D02*
D03*
Y52577D02*
D03*
X48079Y58089D02*
D03*
Y54152D02*
D03*
Y52577D02*
D03*
D81*
X26982Y20250D02*
D03*
X28432D02*
D03*
X9982Y19900D02*
D03*
Y15900D02*
D03*
X9232Y14400D02*
D03*
X18182Y12200D02*
D03*
X18982Y14800D02*
D03*
X40332Y20306D02*
D03*
X19982Y10100D02*
D03*
X25482Y10050D02*
D03*
X25982Y21350D02*
D03*
X25702Y21400D02*
D03*
X29182Y12350D02*
D03*
X28332Y12300D02*
D03*
Y12050D02*
D03*
X30782Y9850D02*
D03*
X30532D02*
D03*
X27482Y9900D02*
D03*
X27732D02*
D03*
X27982D02*
D03*
X32232Y21000D02*
D03*
X29632Y18950D02*
D03*
X29332D02*
D03*
X29132Y19700D02*
D03*
X29782Y18348D02*
D03*
X29630Y18547D02*
D03*
X29774Y18742D02*
D03*
X28182Y21900D02*
D03*
X28832Y21950D02*
D03*
X30132Y23350D02*
D03*
Y23750D02*
D03*
X33082Y19700D02*
D03*
X30783Y16500D02*
D03*
X31182Y9150D02*
D03*
X29932Y12750D02*
D03*
X30432D02*
D03*
X30782Y12050D02*
D03*
X18982Y10100D02*
D03*
X30432Y13000D02*
D03*
Y13250D02*
D03*
Y13500D02*
D03*
X28782Y7350D02*
D03*
X29032D02*
D03*
X30832D02*
D03*
X30332D02*
D03*
X30082D02*
D03*
X29782D02*
D03*
X29282D02*
D03*
X28032D02*
D03*
X27532D02*
D03*
X27282D02*
D03*
X26782Y10100D02*
D03*
X26832Y9850D02*
D03*
X28682Y14500D02*
D03*
X27432Y14650D02*
D03*
X26982D02*
D03*
X28932Y15600D02*
D03*
X27882D02*
D03*
X28132D02*
D03*
X28382D02*
D03*
X38182Y22250D02*
D03*
X38732D02*
D03*
X15682Y17450D02*
D03*
X14482Y24000D02*
D03*
X14732D02*
D03*
X34732Y16300D02*
D03*
X31232Y20150D02*
D03*
X31434Y20348D02*
D03*
X34082Y23500D02*
D03*
X33782D02*
D03*
X33482D02*
D03*
X36832Y21000D02*
D03*
X36582D02*
D03*
X38982Y22700D02*
D03*
X28482Y16300D02*
D03*
X31182Y20500D02*
D03*
X30882D02*
D03*
X29632Y17950D02*
D03*
X30432Y20300D02*
D03*
X29432Y18150D02*
D03*
X30232Y20000D02*
D03*
X30082Y21050D02*
D03*
X29632Y19500D02*
D03*
X35482Y14500D02*
D03*
Y22500D02*
D03*
X34982Y22350D02*
D03*
X28632Y14150D02*
D03*
X37382Y20350D02*
D03*
X37373Y20609D02*
D03*
X39129Y21750D02*
D03*
X38542Y22631D02*
D03*
X35682Y18200D02*
D03*
Y17800D02*
D03*
X25732Y20150D02*
D03*
X25982Y20000D02*
D03*
X32932Y23300D02*
D03*
X32532Y20150D02*
D03*
X35732Y23250D02*
D03*
X39682Y23000D02*
D03*
X36632D02*
D03*
X31132Y8000D02*
D03*
Y7700D02*
D03*
X35482Y15000D02*
D03*
X35932Y22550D02*
D03*
X14729Y23700D02*
D03*
X11929Y12000D02*
D03*
X12579D02*
D03*
X12229D02*
D03*
X12879D02*
D03*
X13179D02*
D03*
X13479D02*
D03*
X13779D02*
D03*
X19379Y10100D02*
D03*
X24079Y6200D02*
D03*
X13479Y1850D02*
D03*
X13929D02*
D03*
X13279Y9250D02*
D03*
X14879D02*
D03*
X10579Y1450D02*
D03*
X12979Y9250D02*
D03*
X10679Y1850D02*
D03*
X10379Y9250D02*
D03*
X15079Y9500D02*
D03*
X15379D02*
D03*
X15679Y7450D02*
D03*
X31379Y5500D02*
D03*
X13979Y6050D02*
D03*
X8429Y10050D02*
D03*
X10479Y30350D02*
D03*
X9529Y29650D02*
D03*
X66352Y20250D02*
D03*
X67802D02*
D03*
X49352Y19900D02*
D03*
Y15900D02*
D03*
X48602Y14400D02*
D03*
X57552Y12200D02*
D03*
X58352Y14800D02*
D03*
X79702Y20306D02*
D03*
X59352Y10100D02*
D03*
X64852Y10050D02*
D03*
X65352Y21350D02*
D03*
X65072Y21400D02*
D03*
X68552Y12350D02*
D03*
X67702Y12300D02*
D03*
Y12050D02*
D03*
X70152Y9850D02*
D03*
X69902D02*
D03*
X66852Y9900D02*
D03*
X67102D02*
D03*
X67352D02*
D03*
X71602Y21000D02*
D03*
X69002Y18950D02*
D03*
X68702D02*
D03*
X68502Y19700D02*
D03*
X69152Y18348D02*
D03*
X69000Y18547D02*
D03*
X69144Y18742D02*
D03*
X67552Y21900D02*
D03*
X68202Y21950D02*
D03*
X69502Y23350D02*
D03*
Y23750D02*
D03*
X72452Y19700D02*
D03*
X70153Y16500D02*
D03*
X70552Y9150D02*
D03*
X69302Y12750D02*
D03*
X69802D02*
D03*
X70152Y12050D02*
D03*
X58352Y10100D02*
D03*
X69802Y13000D02*
D03*
Y13250D02*
D03*
Y13500D02*
D03*
X68152Y7350D02*
D03*
X68402D02*
D03*
X70202D02*
D03*
X69702D02*
D03*
X69452D02*
D03*
X69152D02*
D03*
X68652D02*
D03*
X67402D02*
D03*
X66902D02*
D03*
X66652D02*
D03*
X66152Y10100D02*
D03*
X66202Y9850D02*
D03*
X68052Y14500D02*
D03*
X66802Y14650D02*
D03*
X66352D02*
D03*
X68302Y15600D02*
D03*
X67252D02*
D03*
X67502D02*
D03*
X67752D02*
D03*
X77552Y22250D02*
D03*
X78102D02*
D03*
X55052Y17450D02*
D03*
X53852Y24000D02*
D03*
X54102D02*
D03*
X74102Y16300D02*
D03*
X70602Y20150D02*
D03*
X70804Y20348D02*
D03*
X73452Y23500D02*
D03*
X73152D02*
D03*
X72852D02*
D03*
X76202Y21000D02*
D03*
X75952D02*
D03*
X78352Y22700D02*
D03*
X67852Y16300D02*
D03*
X70552Y20500D02*
D03*
X70252D02*
D03*
X69002Y17950D02*
D03*
X69802Y20300D02*
D03*
X68802Y18150D02*
D03*
X69602Y20000D02*
D03*
X69452Y21050D02*
D03*
X69002Y19500D02*
D03*
X74852Y14500D02*
D03*
Y22500D02*
D03*
X74352Y22350D02*
D03*
X68002Y14150D02*
D03*
X76752Y20350D02*
D03*
X76743Y20609D02*
D03*
X78499Y21750D02*
D03*
X77912Y22631D02*
D03*
X75052Y18200D02*
D03*
Y17800D02*
D03*
X65102Y20150D02*
D03*
X65352Y20000D02*
D03*
X72302Y23300D02*
D03*
X71902Y20150D02*
D03*
X75102Y23250D02*
D03*
X79052Y23000D02*
D03*
X76002D02*
D03*
X70502Y8000D02*
D03*
Y7700D02*
D03*
X74852Y15000D02*
D03*
X75302Y22550D02*
D03*
X54099Y23700D02*
D03*
X51299Y12000D02*
D03*
X51949D02*
D03*
X51599D02*
D03*
X52249D02*
D03*
X52549D02*
D03*
X52849D02*
D03*
X53149D02*
D03*
X58749Y10100D02*
D03*
X63449Y6200D02*
D03*
X52849Y1850D02*
D03*
X53299D02*
D03*
X52649Y9250D02*
D03*
X54249D02*
D03*
X49949Y1450D02*
D03*
X52349Y9250D02*
D03*
X50049Y1850D02*
D03*
X49749Y9250D02*
D03*
X54449Y9500D02*
D03*
X54749D02*
D03*
X55049Y7450D02*
D03*
X70749Y5500D02*
D03*
X53349Y6050D02*
D03*
X47799Y10050D02*
D03*
X49849Y30350D02*
D03*
X48899Y29650D02*
D03*
X26982Y59620D02*
D03*
X28432D02*
D03*
X9982Y59270D02*
D03*
Y55270D02*
D03*
X9232Y53770D02*
D03*
X18182Y51570D02*
D03*
X18982Y54170D02*
D03*
X40332Y59676D02*
D03*
X19982Y49470D02*
D03*
X25482Y49420D02*
D03*
X25982Y60720D02*
D03*
X25702Y60770D02*
D03*
X29182Y51720D02*
D03*
X28332Y51670D02*
D03*
Y51420D02*
D03*
X30782Y49220D02*
D03*
X30532D02*
D03*
X27482Y49270D02*
D03*
X27732D02*
D03*
X27982D02*
D03*
X32232Y60370D02*
D03*
X29632Y58320D02*
D03*
X29332D02*
D03*
X29132Y59070D02*
D03*
X29782Y57719D02*
D03*
X29630Y57917D02*
D03*
X29774Y58112D02*
D03*
X28182Y61270D02*
D03*
X28832Y61320D02*
D03*
X30132Y62720D02*
D03*
Y63120D02*
D03*
X33082Y59070D02*
D03*
X30783Y55870D02*
D03*
X31182Y48520D02*
D03*
X29932Y52120D02*
D03*
X30432D02*
D03*
X30782Y51420D02*
D03*
X18982Y49470D02*
D03*
X30432Y52370D02*
D03*
Y52620D02*
D03*
Y52870D02*
D03*
X28782Y46720D02*
D03*
X29032D02*
D03*
X30832D02*
D03*
X30332D02*
D03*
X30082D02*
D03*
X29782D02*
D03*
X29282D02*
D03*
X28032D02*
D03*
X27532D02*
D03*
X27282D02*
D03*
X26782Y49470D02*
D03*
X26832Y49220D02*
D03*
X28682Y53870D02*
D03*
X27432Y54020D02*
D03*
X26982D02*
D03*
X28932Y54970D02*
D03*
X27882D02*
D03*
X28132D02*
D03*
X28382D02*
D03*
X38182Y61620D02*
D03*
X38732D02*
D03*
X15682Y56820D02*
D03*
X14482Y63370D02*
D03*
X14732D02*
D03*
X34732Y55670D02*
D03*
X31232Y59520D02*
D03*
X31434Y59718D02*
D03*
X34082Y62870D02*
D03*
X33782D02*
D03*
X33482D02*
D03*
X36832Y60370D02*
D03*
X36582D02*
D03*
X38982Y62070D02*
D03*
X28482Y55670D02*
D03*
X31182Y59870D02*
D03*
X30882D02*
D03*
X29632Y57320D02*
D03*
X30432Y59670D02*
D03*
X29432Y57520D02*
D03*
X30232Y59370D02*
D03*
X30082Y60420D02*
D03*
X29632Y58870D02*
D03*
X35482Y53870D02*
D03*
Y61870D02*
D03*
X34982Y61720D02*
D03*
X28632Y53520D02*
D03*
X37382Y59720D02*
D03*
X37373Y59979D02*
D03*
X39129Y61120D02*
D03*
X38542Y62001D02*
D03*
X35682Y57570D02*
D03*
Y57170D02*
D03*
X25732Y59520D02*
D03*
X25982Y59370D02*
D03*
X32932Y62670D02*
D03*
X32532Y59520D02*
D03*
X35732Y62620D02*
D03*
X39682Y62370D02*
D03*
X36632D02*
D03*
X31132Y47370D02*
D03*
Y47070D02*
D03*
X35482Y54370D02*
D03*
X35932Y61920D02*
D03*
X14729Y63070D02*
D03*
X11929Y51370D02*
D03*
X12579D02*
D03*
X12229D02*
D03*
X12879D02*
D03*
X13179D02*
D03*
X13479D02*
D03*
X13779D02*
D03*
X19379Y49470D02*
D03*
X24079Y45570D02*
D03*
X13479Y41220D02*
D03*
X13929D02*
D03*
X13279Y48620D02*
D03*
X14879D02*
D03*
X10579Y40820D02*
D03*
X12979Y48620D02*
D03*
X10679Y41220D02*
D03*
X10379Y48620D02*
D03*
X15079Y48870D02*
D03*
X15379D02*
D03*
X15679Y46820D02*
D03*
X31379Y44870D02*
D03*
X13979Y45420D02*
D03*
X8429Y49420D02*
D03*
X10479Y69720D02*
D03*
X9529Y69020D02*
D03*
X66352Y59620D02*
D03*
X67802D02*
D03*
X49352Y59270D02*
D03*
Y55270D02*
D03*
X48602Y53770D02*
D03*
X57552Y51570D02*
D03*
X58352Y54170D02*
D03*
X79702Y59676D02*
D03*
X59352Y49470D02*
D03*
X64852Y49420D02*
D03*
X65352Y60720D02*
D03*
X65072Y60770D02*
D03*
X68552Y51720D02*
D03*
X67702Y51670D02*
D03*
Y51420D02*
D03*
X70152Y49220D02*
D03*
X69902D02*
D03*
X66852Y49270D02*
D03*
X67102D02*
D03*
X67352D02*
D03*
X71602Y60370D02*
D03*
X69002Y58320D02*
D03*
X68702D02*
D03*
X68502Y59070D02*
D03*
X69152Y57719D02*
D03*
X69000Y57917D02*
D03*
X69144Y58112D02*
D03*
X67552Y61270D02*
D03*
X68202Y61320D02*
D03*
X69502Y62720D02*
D03*
Y63120D02*
D03*
X72452Y59070D02*
D03*
X70153Y55870D02*
D03*
X70552Y48520D02*
D03*
X69302Y52120D02*
D03*
X69802D02*
D03*
X70152Y51420D02*
D03*
X58352Y49470D02*
D03*
X69802Y52370D02*
D03*
Y52620D02*
D03*
Y52870D02*
D03*
X68152Y46720D02*
D03*
X68402D02*
D03*
X70202D02*
D03*
X69702D02*
D03*
X69452D02*
D03*
X69152D02*
D03*
X68652D02*
D03*
X67402D02*
D03*
X66902D02*
D03*
X66652D02*
D03*
X66152Y49470D02*
D03*
X66202Y49220D02*
D03*
X68052Y53870D02*
D03*
X66802Y54020D02*
D03*
X66352D02*
D03*
X68302Y54970D02*
D03*
X67252D02*
D03*
X67502D02*
D03*
X67752D02*
D03*
X77552Y61620D02*
D03*
X78102D02*
D03*
X55052Y56820D02*
D03*
X53852Y63370D02*
D03*
X54102D02*
D03*
X74102Y55670D02*
D03*
X70602Y59520D02*
D03*
X70804Y59718D02*
D03*
X73452Y62870D02*
D03*
X73152D02*
D03*
X72852D02*
D03*
X76202Y60370D02*
D03*
X75952D02*
D03*
X78352Y62070D02*
D03*
X67852Y55670D02*
D03*
X70552Y59870D02*
D03*
X70252D02*
D03*
X69002Y57320D02*
D03*
X69802Y59670D02*
D03*
X68802Y57520D02*
D03*
X69602Y59370D02*
D03*
X69452Y60420D02*
D03*
X69002Y58870D02*
D03*
X74852Y53870D02*
D03*
Y61870D02*
D03*
X74352Y61720D02*
D03*
X68002Y53520D02*
D03*
X76752Y59720D02*
D03*
X76743Y59979D02*
D03*
X78499Y61120D02*
D03*
X77912Y62001D02*
D03*
X75052Y57570D02*
D03*
Y57170D02*
D03*
X65102Y59520D02*
D03*
X65352Y59370D02*
D03*
X72302Y62670D02*
D03*
X71902Y59520D02*
D03*
X75102Y62620D02*
D03*
X79052Y62370D02*
D03*
X76002D02*
D03*
X70502Y47370D02*
D03*
Y47070D02*
D03*
X74852Y54370D02*
D03*
X75302Y61920D02*
D03*
X54099Y63070D02*
D03*
X51299Y51370D02*
D03*
X51949D02*
D03*
X51599D02*
D03*
X52249D02*
D03*
X52549D02*
D03*
X52849D02*
D03*
X53149D02*
D03*
X58749Y49470D02*
D03*
X63449Y45570D02*
D03*
X52849Y41220D02*
D03*
X53299D02*
D03*
X52649Y48620D02*
D03*
X54249D02*
D03*
X49949Y40820D02*
D03*
X52349Y48620D02*
D03*
X50049Y41220D02*
D03*
X49749Y48620D02*
D03*
X54449Y48870D02*
D03*
X54749D02*
D03*
X55049Y46820D02*
D03*
X70749Y44870D02*
D03*
X53349Y45420D02*
D03*
X47799Y49420D02*
D03*
X49849Y69720D02*
D03*
X48899Y69020D02*
D03*
D83*
X8429Y29000D02*
D03*
X47799D02*
D03*
X8429Y68370D02*
D03*
X47799D02*
D03*
M02*
